<svg xmlns="http://www.w3.org/2000/svg" xmlns:xlink="http://www.w3.org/1999/xlink" viewBox="0 0 3458.3 1927.6" style="enable-background:new 0 0 3458.3 1927.6" xml:space="preserve"><style>.st2{opacity:.5;fill:none;stroke:#fff;stroke-width:.3px}.st5{fill:#0b79bc}.st6{fill:#64bfc1}.st7{opacity:.94;fill:url(#SVGID_00000106835732577029006200000010423860562806347161_)}.st8{opacity:.94;fill:url(#SVGID_00000017507228711037578970000014826469292668663691_)}.st9{opacity:.94;fill:url(#SVGID_00000007415286757157171680000000707009879689973139_)}.st10{opacity:.94;fill:url(#SVGID_00000108289340874872633320000004879881434561839007_)}.st11{opacity:.94;fill:url(#SVGID_00000038392851552005580660000008662465702596899493_)}.st12{fill:#fff}.st14{fill:#5b9ed6}.st17{fill:none;stroke:#fff;stroke-miterlimit:10}.st18{fill:#045c83}.st19{fill:#c9a593}.st21{fill:#e5bca4}.st22{fill:#3c2313}.st24{fill:#ab1917}.st26{fill:#1990cf;stroke:#1990cf;stroke-width:2px;stroke-linecap:round;stroke-linejoin:round;stroke-miterlimit:10}.st29{opacity:.2;fill:#5b9ed6}.st30{fill:#f4a304}.st31{opacity:.94;fill:url(#SVGID_00000106141298475668717810000005011933980686048171_)}.st32{opacity:.94;fill:url(#SVGID_00000124854625318765296370000010283416572876479106_)}.st33{fill:none;stroke:#095f93;stroke-width:2px;stroke-miterlimit:10}.st34{fill:none;stroke:#095f93;stroke-width:1.5px;stroke-miterlimit:10}.st35{fill:none;stroke:#095f93;stroke-miterlimit:10}.st36{fill:#5fb353}.st37{fill:#086096}.st38{fill:none;stroke:#1d1e1c;stroke-width:.5px;stroke-miterlimit:10}.st39{fill:#5ba0d7}.st40{fill:#53302c}.st41{fill:#4db2e6}.st42{fill:#90573f}.st43{fill:#ab1917;stroke:#0669b1;stroke-linecap:round;stroke-linejoin:round;stroke-miterlimit:10}.st44{fill:none;stroke:#000;stroke-linecap:round;stroke-linejoin:round;stroke-miterlimit:10}.st45{fill:#f4cbac}.st46{fill:#0469b1}.st47{fill:#dfbaa2}.st48{fill:#d5986f}.st49{fill:#d1a794}.st50{fill:#d7e0ee}.st51{opacity:.33;fill:#e2ebf8;stroke:#b5bbc5;stroke-width:5px;stroke-miterlimit:10}.st52{fill:#cecc90}.st53{fill:#e7e890}.st54{fill:#479535}.st55{fill:#e7e7e8}.st56{opacity:.49}.st57{fill:#c9ced3}.st58{clip-path:url(#SVGID_00000070108009461657516800000009015820313383005854_)}.st59{fill:#4bafe3}.st60{fill:#1d8ece;stroke:#1d8ece;stroke-width:2px;stroke-linecap:round;stroke-linejoin:round;stroke-miterlimit:10}.st61{fill:none;stroke:#1d8ece;stroke-width:3px;stroke-linecap:round;stroke-linejoin:round;stroke-miterlimit:10}.st62{fill:#1d8ece}.st63{fill:none;stroke:#fff;stroke-width:2px;stroke-linecap:round;stroke-miterlimit:10}.st64{clip-path:url(#SVGID_00000126302355209280691380000009817020196075576725_)}.st65{clip-path:url(#SVGID_00000119076225908358881950000016698366852826699422_)}.st66{clip-path:url(#SVGID_00000175318710693462849390000014945349540557267611_)}.st67{clip-path:url(#SVGID_00000034792656532904867290000005580184004230844847_)}.st68{clip-path:url(#SVGID_00000082335932678802233670000014310465013478207373_)}.st69{fill:#0b72b2}.st70{fill:#025d86}.st71{fill:#0569b0}.st72{fill:#debaa1}.st73{fill:#f4cbab}.st74{fill:#d4976e}.st75{fill:#096199}.st76{fill:#d09e61}.st77{fill:#af793b}.st78{fill:#eac295}.st79{fill:#fff;stroke:#fff;stroke-miterlimit:10}.st80{fill:#b06a26}.st81{fill:#b9793d}.st82{fill:#9f561a}.st83{fill:#1892d1}.st84{fill:#1d1d1b}.st85{fill:none;stroke:#0669b1;stroke-width:10px;stroke-miterlimit:10}.st86{fill:none;stroke:#0669b1;stroke-width:10px;stroke-miterlimit:10;stroke-dasharray:19.791 19.791}.st87{fill:none;stroke:#0669b1;stroke-width:5px;stroke-miterlimit:10}.st88{fill:none;stroke:#0669b1;stroke-width:5px;stroke-miterlimit:10;stroke-dasharray:10.0305 10.0305}.st89{fill:none;stroke:#0669b1;stroke-width:2.5px;stroke-miterlimit:10}.st90{fill:none;stroke:#0669b1;stroke-miterlimit:10}</style><pattern x="4927.1" y="437.8" width="57.6" height="57.6" patternUnits="userSpaceOnUse" id="Kors" viewBox="0 -57.6 57.6 57.6" style="overflow:visible"><path style="fill:none" d="M0-57.6h57.6V0H0z"/><path style="fill:#0f7abd" d="M0-57.6h57.6V0H0z"/><path class="st2" d="M52.5-54h3M38.1-54h3M23.7-54h3M9.3-54h3M45.3-46.8h3M30.9-46.8h3M16.5-46.8h3M2.1-46.8h3M52.5-39.6h3M38.1-39.6h3M23.7-39.6h3M9.3-39.6h3M45.3-32.4h3M30.9-32.4h3M16.5-32.4h3M2.1-32.4h3M52.5-25.2h3M38.1-25.2h3M23.7-25.2h3M9.3-25.2h3M45.3-18h3M30.9-18h3M16.5-18h3M2.1-18h3M52.5-10.8h3M38.1-10.8h3M23.7-10.8h3M9.3-10.8h3M45.3-3.6h3M30.9-3.6h3M16.5-3.6h3M2.1-3.6h3M54-55.5v3M39.6-55.5v3M25.2-55.5v3M10.8-55.5v3M46.8-48.3v3M32.4-48.3v3M18-48.3v3M3.6-48.3v3M54-41.1v3M39.6-41.1v3M25.2-41.1v3M10.8-41.1v3M46.8-33.9v3M32.4-33.9v3M18-33.9v3M3.6-33.9v3M54-26.7v3M39.6-26.7v3M25.2-26.7v3M10.8-26.7v3M46.8-19.5v3M32.4-19.5v3M18-19.5v3M3.6-19.5v3M54-12.3v3M39.6-12.3v3M25.2-12.3v3M10.8-12.3v3M46.8-5.1v3M32.4-5.1v3M18-5.1v3M3.6-5.1v3"/></pattern><g id="Lager_1"><path style="fill:#0669b1" d="M-37.9-30.2h3524v1992h-3524z"/><pattern id="SVGID_1_" xlink:href="#Kors" patternTransform="translate(9947.893 5228.525) scale(1.8924)"/><path d="M-23.9 1187.8s631-30 971-14c207.3 9.8 655.9 25.1 426 242s-270 326-502 411c-225.1 82.5-398 134-398 134l-497-22v-751z" style="opacity:.94;fill:url(#SVGID_1_)"/><path class="st12" d="M870.5 1056.3h14.2v263.1h-14.2z"/><path style="fill:#7ab7e2" d="M110.2 1236.7v97.7l48.6 20.1v31.6l343.1-6.5v-142.9z"/><path class="st12" d="m480.5 1239 26-90.1-32-46.3H213.9l-30.6 23.3-68.1 6.4 2.3 106.7z"/><path class="st14" d="m495.4 1151.7-14.9 57.5h-30.6v-57.5zM408 1151.7h34.2v57.6H408zM365.2 1151.7h34.2v57.6h-34.2zM322.2 1151.7h34.2v57.6h-34.2zM281.3 1151.7h34.2v25h-34.2zM239.5 1151.7h34.2v25h-34.2zM196.7 1151.7h34.2v25h-34.2zM155.4 1151.7h34.2v25h-34.2zM132.5 1176.6h16l-.3-24.9h-18.4zM-64.6 1390.6l32.9 118H975.7l180.9-238.5s-803.1 119.3-962.7 79.6l-37.4-23.1H-64.6v64z"/><path class="st12" d="M284.3 942.5h14.2v160.1h-14.2z"/><path d="M-112.1 1844.7s238.8-390.4 501.8-86.8S-48 1935-48 1935l-64.1-90.3z" style="fill:#095f93"/><path d="M319.6 1547s10.6-12.5-19.9-19.1c-15.2-3.3-26.4 2.5-31.7 7.5-1.4 1.3-3.1 5.1-3.9 6.5-.3.5-4.2 2.4-4.5 2.8-1.4 2.7.1 3.9-.5 6.6-.5 2.1-.7 4.2-.6 5.8.2 5.5 1.9 13.7 2.6 17.5.7 3.7.4 11.8-2.6 15.8-5.6 7.5-14.7 25.8-17.5 28.4-2 1.8-67.8 5.6-102.4 9.2-34.6 3.7-126 51.5-139.2 61-13.3 9.6-27.5 22.6-22 25.7 2.6 1.5 15.2-4.8 16.5-3 1.4 2-8.9 12.2-4.6 13.6 25.2 8 69.4-8.8 84.5-23.8 25.3 0 69.2 1.5 69.2 1.5s51.9 40.5 113.1 32.8c9-1.1 17.8 13.3 17.8 13.3s-25.7 5.7-32.3 5.2c-6.6-.5-13.4 4-13.4 7.5 0 .9-10.8-1.8-11 2.3-.1 1.5-8.3 1.8-4.4 7.2-4.7 0-6.6.7-7.2 3.2-1.1 4.6 40.9 26.3 104-8.1 11.2-6.1 2.2-33.5 2.2-33.5s2.3-2.1 6.5-6.8c4.2-4.7 2.6 4.3 8.7 4.9 59.9 5.5 55.7-11.7 57.4-18.3 1.4-5.4-3.3-17.8-13.2-23.2-10.9-6-16.2-7.5-16.2-7.5s13.5-50.8-27.5-124.9" style="fill:#69574b"/><path class="st12" d="M316.6 1547.1s-8-.4-8.2 1.5c-.2 1.9.5 9.3 2.8 10.7 2.3 1.5 63.5 50.1 67.1 49.5 10.2-2-28.5-41.3-61.7-61.7zM295.9 1555.7s-5.5.5-6.5 2.2c-1 1.7-5.2 5.6-4 10 .7 2.6 39.7 73.1 43.3 74 10 2.5-10.9-56-32.8-86.2z"/><ellipse transform="rotate(-42.439 274.2 1541.552)" cx="274.1" cy="1541.4" rx="2.9" ry="2"/><ellipse transform="rotate(-16.559 294.27 1530.85)" cx="294.4" cy="1531.1" rx="2.9" ry="2"/><path class="st17" d="M307.2 1536.5s9.2-9.6 24-5.8M309.6 1539s10.5-7.1 18.9-3.2M305.6 1533.8s11.4-15.7 24-8.6M282.4 1553.1s-13.1 2.7-17.7 17.3M283.2 1556.4s-11.6 5.1-12.8 14.3M280.9 1550.3s-19.4 1.3-20.1 15.7"/><path class="st18" d="M1347.7 1822.4c.7-2.3 1.6-5.8 1.5-10-.1-7-2.5-11.9-4.6-17-2.3-5.4-5.2-13.1-7.7-23.2-.7-1.1-1.9-1.7-3.1-1.5-1.5.2-2.2 1.4-2.3 1.5-.5 2.6-1 5.2-1.5 7.7-.4-2.1-1.5-5.8-4.6-7.7-1.7-1-2.7-.8-10-.8-7.9 0-9-.2-10.8.8-1.4.7-3.8 2.5-5.4 7-.3-2.3-.5-4.6-.8-7-.4-1.5-1.8-2.4-3.1-2.3-1.5.1-2.3 1.4-2.3 1.5-4.5 9.5-7.4 17.8-9.3 24-2.3 7.6-3.1 12.1-3.1 17s.8 8.9 1.5 11.6c5.4 2.8 16.7 7.8 31.7 7.7 16.4-.1 28.5-6.2 33.9-9.3zM1158.5 1822.4c-.7-2.3-1.6-5.8-1.5-10 .1-7 2.5-11.9 4.6-17 2.3-5.4 5.2-13.1 7.7-23.2.7-1.1 1.9-1.7 3.1-1.5 1.5.2 2.2 1.4 2.3 1.5.5 2.6 1 5.2 1.5 7.7.4-2.1 1.5-5.8 4.6-7.7 1.7-1 2.7-.8 10-.8 7.9 0 9-.2 10.8.8 1.4.7 3.8 2.5 5.4 7 .3-2.3.5-4.6.8-7 .4-1.5 1.8-2.4 3.1-2.3 1.5.1 2.3 1.4 2.3 1.5 4.5 9.5 7.4 17.8 9.3 24 2.3 7.6 3.1 12.1 3.1 17s-.8 8.9-1.5 11.6c-5.4 2.8-16.7 7.8-31.7 7.7-16.4-.1-28.5-6.2-33.9-9.3zM1168.1 1159.8c1.8 4 5.1 10 11 15.8 7.3 7.2 15 10.6 19.5 12.2 26.8-1.2 53.6-2.4 80.4-3.7 3.4-1.1 11.5-4.1 18.3-12.2 6.1-7.2 7.9-14.8 8.5-18.3-4.3-6.5-11.4-16.1-21.9-25.6-15.3-13.8-30.5-27.5-51.2-26.8-28.9.9-48.9 29.3-52.4 36.6-.3.5-1.6 3.4-3.7 7.3-3.2 6.2-6.2 11.2-8.5 14.7z"/><path class="st14" d="M1213.6 1209c16.1-.2 32.2-.3 48.3-.5 8.5.4 17.1.8 25.6 1.2-1.6 6.9-3.8 17.4-4.9 30.5-1.8 21.7 2.2 25.3-1.5 40.3-3.4 13.7-9.8 26.8-17.5 38.6-3.5 5.5-10.6 13-17.1 15.1-11.3 3.8-18.7-.5-26.4-8.9-12.7-14-22.5-34.7-19.9-53.9 1.7-11.9 6.5-23.4 8.3-35.2 1.6-9 2.3-18.4 5.1-27.2z"/><path class="st19" d="M1241 1228.9c-11.2.3-21.6-5.9-26.8-16v-19.6c0-4.8 3.9-8.7 8.7-8.7h34.8c4.8 0 8.7 3.9 8.7 8.7v19.6c-5 9.6-14.8 15.7-25.4 16z"/><path class="st14" d="M1161 1418.9c-1.2 1.2-2.6 2.8-3.9 5.1 0 0-1.7 2.9-2.5 6.3-8 31.8-4 82-4 82-1.5 31.2-2.5 63.4-2.7 96.6-.4 61.6 1.9 120 5.8 174.8 8.8 3.7 22.2 8.2 39 9.4 19.6 1.4 35.4-2.2 45.2-5.2-4.3-59.3-8.7-118.7-13-178 5.3-33.4 10.6-66.9 15.9-100.3 9.6 32.9 19.3 65.8 28.9 98.7 1.9 59.6 3.9 119.1 5.8 178.7 8.5 3.6 23.6 8.7 42.9 8.4 16.9-.2 30.2-4.5 38.3-7.8-3-34.3-7.2-86.5-11-152.4-1.2-20.8-1.8-31.1-1.9-33.8 0 0-6.3-151.2-18.2-175.1-.1-.1-3-5.9-3-5.9-1.1-1.2-2.2-2-3-2.5-52.8.3-105.7.7-158.6 1z"/><path d="M1275.4 1420.2c-20.5.2-41 .3-61.5.5 1.2-47.9 2.3-95.8 3.5-143.7 8.8 18.3 17.5 36.7 26.3 55l24.3-47.1c2.4 45.1 4.9 90.2 7.4 135.3z" style="fill:#e9660b"/><path class="st12" d="M1198.7 1185.7c-3.2-3.1-5.2-6-6.4-7.9-4.6-7.4-6.3-15.1-7.5-20.8-.1-.6-.3-1.4-.6-2.8-.2-.8-.4-1.9-.7-3.4-.7-3.5-1.6-7.5-1.9-8.6 3.6-5.2 7.4-11.5 10.9-19 2-4.3 3.6-8.4 4.9-12.2l4.8-9c3.4.8 7.1 1.5 11.1 2 19.1 2.3 35.5-1.7 46.8-5.8.9-.1 4.1-.5 7.1 1.5 2.1 1.4 3 3.2 3.4 4.1 1.3 2.6 1.3 5 1.2 6.1 6.6 7.8 13.1 15.6 19.7 23.4 1 6.6 2 19.2-3.5 33.2-2.5 6.3-5.6 11.2-8.4 14.9-9.6-4-51.4-20.2-75.7-.5-1.9 1.3-3.6 2.9-5.2 4.8z"/><path class="st21" d="M1193.8 1158.5c-2.7-2.1-8-10.1-12.3-5.8-4.4 4.3 3.9 15.2 7.1 18.4 2.6 2.6 6.4 4.2 8 .1 1.4-3.7 0-11.9-2.8-12.7z"/><path class="st21" d="M1286.3 1151.7c0 9.6-1.9 16.9-2.4 18.6-1.9 6.6-4.5 11.3-5.5 12.9-1.5 2.6-3.6 5.7-6.4 8.9-2.6 2.9-7.5 8.4-15.9 12.4-2.8 1.3-8.9 4.2-17.3 4.5-11.9.4-20.5-4.6-23.3-6.2-.5-.3-1.7-1-3.1-2-2.3-1.6-8.7-6.4-13.7-15.1-1.6-2.7-3.6-6.7-5-11.9-1.4-4.5-3.1-11.1-3.6-19.2-.8-11.4-1.9-27.6 8.6-41 13.2-16.9 34-17.6 37.3-17.7 2.6-.1 24.2-.1 38.9 17.2 11.5 13.4 11.4 29.5 11.4 38.6z"/><path d="M1260.3 1144.3c2.3.7 3.8 1.8 4.7 2.6-.5-.9-1.4-2.4-3-3.6-.6-.4-3.7-2.7-7.3-1.8-.5.1-2.5.6-3.6 2.4-.3.4-.8 1.3-.8 2.4 0 2 1.6 3.6 3.6 3.6.5 0 .9-.1 1.3-.3 1.4-.5 2.4-1.8 2.4-3.3 0-1-.4-1.8-1-2.5.8 0 2.2 0 3.7.5zM1223.3 1146.8c-.5-.9-1.4-2.4-3-3.6-.6-.4-3.7-2.7-7.3-1.8-.5.1-2.5.6-3.6 2.4-.3.4-.8 1.3-.8 2.4 0 2 1.6 3.6 3.6 3.6 2.4 0 3.6-2.4 3.6-3.6 0-.5-.1-1-.1-1-.2-.7-.6-1.2-.8-1.4 1 0 2.3 0 3.8.5 2.2.6 3.7 1.8 4.6 2.5z"/><path class="st19" d="M1236.9 1187.8c-9.5.3-16-4.6-17.8-6.1l34.5-.6c-1.9 1.6-7.8 6.4-16.7 6.7z"/><path class="st12" d="M1202.2 1124.9c-1.2 3.7-1.4 4.8-2.3 6.1-.1.2-1.1 1.5-1.5 1.3-.3-.1-.1-1.1 0-1.7-2.5 1.9-3.8 4.6-4.4 7.6-.7 3.4-.4 6.1.1 9 .5 3.2 1.5 5.7 2.2 7.3-.1 1.7-.6 4.1-2 6.4-.3.5-.7 1-1 1.5-.3-1.3-.7-2.8-1.5-4.5-.6-1.4-1.3-2.5-2-3.5-.8-3.4-1.7-8.3-2.2-14.2-.6-7.7-.9-11.5.5-15.9 1.7-5.4 5.3-9.8 9.6-13.3 1.8-1.5 7.7-7.8 9.3-6.7.9.6-.3 3-2.9 13-1.2 4.9-1.2 5.2-1.9 7.6z"/><path class="st21" d="M1280.7 1155.8c2.7-2.1 8-10.1 12.3-5.8 4.4 4.3-3.9 15.2-7.1 18.4-2.6 2.6-6.4 4.2-8 .1-1.3-3.7 0-11.9 2.8-12.7z"/><path class="st12" d="M1228.1 1168.5c-2 .3-2.5.9-9.7 4.1-4.6 2.1-6.5 2.8-8.9 2.5-1.9-.2-3.3-1-4.2-1.6 1.2 1.3 3.1 2.9 5.7 4.1 1.4.6 5.1 2.1 9.4 1 1.5-.4 2.7-1 3.5-1.5 0 .1.2.5 0 1-.2.7-.9 1-1 1 2 .3 6.6.7 10.9-2 1-.6 1.8-1.3 2.5-2 1 .8 2.5 1.8 4.5 2.5 3.4 1.2 6.5.8 7.9.5-.5-.1-1-.3-1.5-.5-.9-.4-1.7-.8-2.4-1.2 2.4.7 4.5.7 5.9.7 2.9-.1 5.1-.8 8.9-2 2.3-.7 4.2-1.5 5.5-2-6 .3-10.2-.8-12.9-2-3-1.3-5.2-2.9-8.9-3-2.8-.1-5 .8-6.4 1.5-2.6-.9-5.6-1.6-8.8-1.1z"/><path style="fill:none;stroke:#ab1917;stroke-linecap:round;stroke-linejoin:round;stroke-miterlimit:10" d="M1243.6 1332v88.7"/><circle class="st24" cx="1237.9" cy="1338.2" r="3"/><circle class="st24" cx="1238.2" cy="1373.6" r="3"/><circle class="st24" cx="1236.7" cy="1410.3" r="3"/><path class="st12" d="M1270.9 1122c2 4.4 4.2 7.7 5.7 9.8-.7-1.5-1.1-2.8-1.2-4.6 2.7 1.6 4.3 4.1 5.3 7 1.1 3.3 1.1 6 .9 8.9-.2 3.2-.8 5.8-1.3 7.5.3 1.7 1.1 4 2.7 6.2.4.5.8 1 1.2 1.4.1-1.3.4-2.9.9-4.6.5-1.5 1-2.7 1.6-3.7.4-3.5.7-8.4.4-14.3-.3-7.7-.5-11.5-2.4-15.7-2.3-5.1-6.4-9.1-11.1-12.1-1.9-1.3-8.6-6.8-10.1-5.5-.8.7.7 3 4.4 12.6 2 4.5 2 4.9 3 7.1z"/><path class="st18" d="M1088.2 1394.6c.4.1 1 .1 1.7.2 2.1.2 13.4 1 21.9-4.8 4.7-3.2 6.9-7.1 8.4-11.3 1.5-4.2 2.4-8.1 2.7-11.8.6-6.4-.5-10.7-2.2-18.5-2.6-12.1-3.9-18.2-4.4-19.9-1.5-5.6-1.7-5.4-8.2-24.6-3.9-11.6-4.7-14.3-7-20.3-2.3-6.1-4.5-11.1-6-14.5-3.4 2-8.6 4.8-15.3 6.8-6.6 2-12.3 2.7-16 2.9 0 17 1.5 35.9 5.6 55.8 1.7 8.4 3.7 16.4 6 23.9 4.3 12.1 8.5 24.1 12.8 36.1z"/><path class="st18" d="M1135.8 1240.8c-10.7 23.4-19.4 41.8-25 53.3-14.5 30-20.5 41.1-21.4 58.5-.9 16.3 3.1 29.8 6.4 38.3 2.6.8 7.2 1.9 12.7 1.1 8.9-1.2 14.7-6.3 16.7-8.2 6.7-8 13.9-17.7 20.8-29.2 5.6-9.4 10-18.4 13.5-26.5-.3-12.2-1.1-22.5-1.8-30.2-2.6-30.4-5.8-40.9-13.8-49.6-3.1-3.5-6.1-6-8.1-7.5z"/><path class="st18" d="M1213.9 1208.6c-7.2-.5-15.3-.6-24.3 0-7.4.5-14.2 1.4-20.3 2.5-3.9.7-7.1 2.2-8.9 3-13.4 5.7-21.5 20.6-24.5 26.8l5.4 243.1c29.5 2.6 62.2 4.2 97.5 3.7 38.3-.5 73.4-3.4 104.8-7.3-58.6-32.2-79.5-66.9-87.7-92.6-10.1-31.5 3.4-55.9-14.6-104.8-9.2-24.9-18.3-49.7-27.4-74.4z"/><path class="st12" d="M1192.5 1159.8c.6 1.9 1.5 4.9 2.4 8.5 2.6 10.6 2 13.6 3.7 18.3 3 8.3 10 12.8 14.6 15.8 10.4 6.8 20.9 7.4 25.6 7.3 5.5-.6 16.6-2.7 26.8-11 20-16.1 19.6-41.8 19.5-45.1-1.6-.8-3.2-1.6-4.9-2.4-.8 4-3.4 14.5-9.7 18.3-.9.5-3.8 2.1-7.3 3.7-2.5 1.1-4.6 1.9-6.1 2.4 4.2 3.1 4.9 5.6 4.9 7.3-.3 6.7-14.2 12.1-25.6 12.2-9.4.1-22.9-3.5-24.4-11-.4-2.2.3-4.3 1.2-6.1-1.2-.8-2.4-1.6-3.7-2.4-2-2-4-4.4-6.1-7.3-3.5-4.9-5.8-9.5-7.3-13.4-1.2 1.6-2.4 3.3-3.6 4.9z"/><path class="st14" d="M1184 1142.7c7.7-7.2 27.7-17.2 41.4-20.7 2.3-.6 5.1-1.2 8.5-1.2 4.4-.1 7.8.7 9.7 1.2 20.1 5.1 40.2 14.6 40.2 14.6 4.7 2.3 8.2 4.2 12.2 7.3 3.1 2.5 5.6 4.9 7.5 7.1 1.3 1.5 2.1 2.8 2.2 2.7.3-.2-2.5-5.5-4.9-9.7-8.5-15.2-10.4-14.4-13.4-21.9-2.8-7.2-1.1-7.8-4.9-18.3-1.6-4.5-3.1-8.7-6.1-13.4-5.9-9.4-13.7-14.5-15.8-15.8-12.9-8-25.9-7.5-30.5-7.3-4.7.2-15.8.9-26.8 8.5-2.9 2-11.1 7.7-15.8 18.3-2.6 5.7-3.3 10.8-3.7 13.4-1.3 9.5.9 12.7-1.2 20.7-.7 2.8-1.4 3.8-4.9 11-2.4 4.9-5.8 11.9-9.7 20.7 1.7-2.1 3.2-3.8 4.2-5 .6-.7 1.2-1.4 1.9-2.1.2-.2 1.1-1.2 2.4-2.6 4-4.2 7.1-7.1 7.5-7.5z"/><path d="M1077.2 1454.4c10.1-11.5 34.3-42.1 39.5-87.9 7.5-65.5-29.1-112.4-36.6-121.5-6.9 7.3-49.7 54.2-42.8 122 4.9 46.3 30.1 76.8 39.9 87.4z" style="fill:#4cb0e4"/><path class="st26" d="M1100 1187.3c1 6.2 2.5 20-3.8 35.6-4.6 11.5-11.5 19.1-15.8 23.2-4.5-1.5-13.8-5.2-21.7-14.1-11.2-12.7-12.3-27.2-12.4-31.6l31.2 26.1c7.4-13 15-26.1 22.5-39.2z"/><path d="M1085.2 1386.9c-1.1-.9-6.9-5.5-13.9-4.1-8.1 1.6-14.6 10.5-14.1 21.5" style="fill:none;stroke:#1990cf;stroke-width:3px;stroke-linecap:round;stroke-linejoin:round;stroke-miterlimit:10"/><circle cx="1084.5" cy="1410.5" r="5.4" style="fill:#1990cf"/><path class="st26" d="M1084.6 1348.5c1-13.6 2-27.1 2.9-40.7-3.3 4.8-6.5 9.6-9.8 14.4-1.6-1.9-3.3-3.7-4.9-5.6-1.6 4.7-3.1 9.3-4.7 14-1.8-.7-3.5-1.4-5.3-2.2 2.8 9.8 7.1 15.8 10.1 19.2 5.2 5.9 7.6 5.4 8.2 5.2 2.1-.4 3.1-3 3.5-4.3zM1111.9 1391.1c7.8-12.6 15.6-25.3 23.4-37.9l-9 2.4c3.1-8 6.2-16 9.3-24.1-3 1.1-5.9 2.1-8.9 3.2 1.2-7.9 2.4-15.8 3.5-23.6-2.4 1.6-4.8 3.3-7.2 4.9.1-7.2.2-14.4.2-21.7-3.8 4.1-7.5 8.1-11.3 12.2 2.9 10.6 5.9 25.6 5.7 43.6-.1 16.7-2.9 30.8-5.7 41z"/><path class="st21" d="M1096.7 1270.3c-.6-5.1-.4-12.1-4.1-16-2.1-2.2-5.4-3.2-8.1-4.2-1.4-.5-6.3-2.7-7.7-1.8-3.8 2.1 2.1 8 4.1 9.1 3.1 1.8 6.8 1.6 9.1 4.4 1.4 1.8 2 4.3 3.4 6 1 1.2 2.5 1.7 3.3 2.5zM1074.1 1251.5c-1.2-2.3-4.4-3.3-6.5-1.6-1.7 1.4-1.5 3.2-2.1 5-2.6.1-4.2.2-5.8 2.8-1.3 2-1.1 3.6-.5 5.6-1.6 0-2.7.5-3.3 2.3-.4 1.1-.8 5.1.4 5.9-1.7 0-2.2 1.9-2.2 3.3-.1 3.2 2.4 5.4 4.8 7 1.7 1.1 4.3 2.5 5.8.5 1.2-1.5.8-4.6-1.3-5.2 1.3 1.4 4.2 1.5 5.5.2 2.6-2.7.8-4.9-1.1-7.1 1.8 1.2 3.9 1.6 5.2-.5 1.6-2.7.6-4.3-.8-6.4 1.5.1 3 1.4 4.5.4 1.3-.8 1.5-3.5 1.3-4.9-.4-2.8-3.3-5.6-3.9-7.3zM1357 1450.7c-.1 1.9.6 3.7.3 5.6-.5 3.4-3 6.7-5 9.5-3.3 4.7-3.1 10.1-3.5 15.7-.2 2.9-.4 5.7-.4 8.6.1 2.4.5 5.1.1 7.5-.3 1.8-1.3 3.8-.5 4.9.6.8 1.8.7 2 .7 3.1-.1 5.8-4.8 6.9-8.3 1.3-4.1.2-5.4.2-12.2 0-8.1-.1-13.8 2.3-19.5.3-.7 1.6-3.7 1.2-7.3-.3-2.7-1.2-3.8-1.8-4.3-.6-.5-1.3-.8-1.8-.9z"/><path class="st18" d="M1266.8 1207.3c-8.5 25.2-17.1 50.4-25.6 75.6 1 34.6 1.8 69.5 2.4 104.8.6 32.4 1 64.5 1.2 96.3 32.9-1.2 65.8-2.4 98.7-3.7-3.7-39.4-7.3-78.8-11-118.2 1.3 5.8 3.1 13.7 5.1 23.1 1 4.6 4.7 21.4 9.4 44.1 2.1 10.3 3.9 18.8 5 24.3 7.8-.4 15.9-.6 24.4-.6 6.3 0 12.4.2 18.3.5-1.7-36.4-6.2-76.5-14.9-119.4-2.9-14.1-6-27.6-9.4-40.6 0 0-9.4-33.3-26.8-60.5-3.8-5.9-9.7-14.3-19.8-18.8-3.4-1.5-7.1-2.6-8.9-3-8.4-1.5-14.5-2.3-20.3-2.5-6.3-.2-15.5-.6-27.8-1.4z"/><path class="st21" d="M1355.1 1471.5c-2.5 6.1 8.3 18.2 4.4 23.4-.3.4-2.9 3.8-2.4 7.3.1.7.3 1.9 1.2 2.4 1 .6 2.2.1 2.4 0-.4 1.4.1 2.9 1.2 3.7 1.1.8 2.5.8 3.7 0 .2.4.6 1 1.2 1.2 1.9.7 4.6-1.8 7.3-4.9 7.3-8.2 10.9-12.3 11.6-17.8.7-5.4-1.3-11.2-3-18.5-.4-1.5-1.2-4.1-1.3-7.6-.1-3.6.6-6.6 1.2-8.5h-6.1c-5.8-.2-10.4 1.2-17.2.4-2.3 24.5-1.4 12-4.2 18.9z"/><path class="st18" d="M1378.9 1434c-1.2-.9-2.4-1.7-3.7-2.4l-2.4 20.7 20.7 1.2c-2.3-5.8-6.6-13.6-14.6-19.5z"/></g></svg>