<?xml version="1.0" encoding="utf-8"?>
<!-- Generator: Adobe Illustrator 26.2.1, SVG Export Plug-In . SVG Version: 6.00 Build 0)  -->
<svg version="1.1" xmlns="http://www.w3.org/2000/svg" xmlns:xlink="http://www.w3.org/1999/xlink" x="0px" y="0px"
	 viewBox="0 0 3458.3 1927.6" style="enable-background:new 0 0 3458.3 1927.6;" xml:space="preserve">
<style type="text/css">
	.st0{fill:#0669B1;}
	.st1{fill:#64BFC1;}
	.st2{fill:#095F93;}
	.st3{opacity:0.2;fill:#5B9ED6;}
	.st4{opacity:0.94;fill:url(#);}
	.st5{fill:#FFFFFF;}
	.st6{fill:#7AB7E2;}
	.st7{fill:#5B9ED6;}
	.st8{fill:#69574B;}
	.st9{fill:none;stroke:#FFFFFF;stroke-miterlimit:10;}
	.st10{fill:#045C83;}
	.st11{fill:#C9A593;}
	.st12{fill:#E9660B;}
	.st13{fill:#E5BCA4;}
	.st14{fill:#3C2313;}
	.st15{fill:none;stroke:#AB1917;stroke-linecap:round;stroke-linejoin:round;stroke-miterlimit:10;}
	.st16{fill:#AB1917;}
	.st17{fill:#4CB0E4;}
	.st18{fill:#1990CF;stroke:#1990CF;stroke-width:2;stroke-linecap:round;stroke-linejoin:round;stroke-miterlimit:10;}
	.st19{fill:none;stroke:#1990CF;stroke-width:3;stroke-linecap:round;stroke-linejoin:round;stroke-miterlimit:10;}
	.st20{fill:#1990CF;}
	.st21{clip-path:url(#SVGID_00000026137726037288673980000005907023923620273069_);}
	.st22{fill:#4BAFE3;}
	.st23{fill:#1D8ECE;stroke:#1D8ECE;stroke-width:2;stroke-linecap:round;stroke-linejoin:round;stroke-miterlimit:10;}
	.st24{fill:none;stroke:#1D8ECE;stroke-width:3;stroke-linecap:round;stroke-linejoin:round;stroke-miterlimit:10;}
	.st25{fill:#1D8ECE;}
	.st26{fill:none;stroke:#095F93;stroke-width:2;stroke-miterlimit:10;}
	.st27{clip-path:url(#SVGID_00000072278585264113818160000001449280182198769315_);}
	.st28{clip-path:url(#SVGID_00000141447795471021679480000008829161118350066598_);}
	.st29{fill:#0B72B2;}
	.st30{fill:#0B79BC;}
	.st31{fill:#5FB353;}
	.st32{fill:#025D86;}
	.st33{fill:#0569B0;}
	.st34{fill:#DEBAA1;}
	.st35{fill:#F4CBAB;}
	.st36{fill:#D4976E;}
	.st37{fill:#096199;}
	.st38{fill:#D09E61;}
	.st39{fill:#AF793B;}
	.st40{fill:#EAC295;}
	.st41{fill:#F4A304;}
	.st42{fill:none;stroke:#095F93;stroke-width:1.5;stroke-miterlimit:10;}
	.st43{fill:none;stroke:#095F93;stroke-miterlimit:10;}
	.st44{fill:#086096;}
	.st45{fill:#5BA0D7;}
	.st46{fill:none;stroke:#1D1E1C;stroke-width:0.5;stroke-miterlimit:10;}
	.st47{fill:#53302C;}
	.st48{fill:#4DB2E6;}
	.st49{fill:#90573F;}
	.st50{fill:#AB1917;stroke:#0669B1;stroke-linecap:round;stroke-linejoin:round;stroke-miterlimit:10;}
	.st51{fill:none;stroke:#000000;stroke-linecap:round;stroke-linejoin:round;stroke-miterlimit:10;}
	.st52{fill:#F4CBAC;}
	.st53{fill:#0469B1;}
	.st54{fill:#DFBAA2;}
	.st55{fill:#D5986F;}
	.st56{fill:#D1A794;}
	.st57{fill:#D7E0EE;}
	.st58{opacity:0.33;fill:#E2EBF8;stroke:#B5BBC5;stroke-width:5;stroke-miterlimit:10;}
	.st59{fill:#CECC90;}
	.st60{fill:#E7E890;}
	.st61{fill:#479535;}
	.st62{fill:#E7E7E8;}
	.st63{opacity:0.49;}
	.st64{fill:#C9CED3;}
	.st65{clip-path:url(#SVGID_00000041292161858266100710000016925026671251055245_);}
	.st66{fill:none;stroke:#FFFFFF;stroke-width:2;stroke-linecap:round;stroke-miterlimit:10;}
	.st67{clip-path:url(#SVGID_00000038389876129065033420000002951866821416488596_);}
	.st68{clip-path:url(#SVGID_00000061449482985314616240000014975931487533878459_);}
	.st69{fill:#FFFFFF;stroke:#FFFFFF;stroke-miterlimit:10;}
	.st70{fill:#B06A26;}
	.st71{fill:#B9793D;}
	.st72{fill:#9F561A;}
	.st73{fill:#1892D1;}
	.st74{fill:#1D1D1B;}
	.st75{fill:none;stroke:#0669B1;stroke-width:10;stroke-miterlimit:10;}
	.st76{fill:none;stroke:#0669B1;stroke-width:10;stroke-miterlimit:10;stroke-dasharray:20.4087,20.4087;}
	.st77{fill:none;stroke:#0669B1;stroke-width:5;stroke-miterlimit:10;}
	.st78{fill:none;stroke:#0669B1;stroke-width:5;stroke-miterlimit:10;stroke-dasharray:10.0885,10.0885;}
	.st79{fill:none;stroke:#0669B1;stroke-width:2.5;stroke-miterlimit:10;}
	.st80{fill:none;stroke:#086096;stroke-width:2;stroke-miterlimit:10;}
	.st81{fill:none;stroke:#0669B1;stroke-width:10;stroke-miterlimit:10;stroke-dasharray:20.2919,20.2919;}
	.st82{fill:none;stroke:#0669B1;stroke-width:5;stroke-miterlimit:10;stroke-dasharray:9.8933,9.8933;}
	.st83{fill:none;stroke:#0669B1;stroke-width:2;stroke-miterlimit:10;}
</style>
<g id="Lager_1">
	<rect x="0.4" y="-0.2" class="st0" width="3458.3" height="1927.6"/>
</g>
<g id="Lager_2">
	<polygon class="st7" points="2727.4,1225.5 2706.2,1200.8 2651.4,1197.5 2688.4,1247.5 	"/>
	<path class="st3" d="M2326.1,1357.8c93,22,215.4,19,334.8-55.2c67.4-41.9,426-244.9,655.5-337.4c29.7-12,79.6-39.1,132.7-67
		l5-282.4c0.4,1.4-599-257-741-220s-591,365-652,629C1998.7,1295.1,2268.2,1344.1,2326.1,1357.8z"/>
	<path class="st3" d="M2274.1,1344.8c73.2,28.8,252,79,476-31c71.2-35,152.5,36.6,382-56c29.7-12,198-60,322,13l1-578
		c-354,116-635.4,210-967,166c-276.1-36.6-381,169-363,279C2134.9,1197.2,2208.1,1318.8,2274.1,1344.8z"/>
	<g>
		<g>
			
				<ellipse transform="matrix(0.9993 -3.725651e-02 3.725651e-02 0.9993 -32.5309 97.8209)" class="st44" cx="2608.4" cy="921.8" rx="6.1" ry="6.1"/>
			
				<ellipse transform="matrix(0.9993 -3.725638e-02 3.725638e-02 0.9993 -32.2593 99.1067)" class="st44" cx="2643.1" cy="915.1" rx="6.1" ry="6.1"/>
			
				<ellipse transform="matrix(0.9993 -3.725650e-02 3.725650e-02 0.9993 -31.5979 102.2403)" class="st44" cx="2727.5" cy="898.9" rx="6.1" ry="6.1"/>
			
				<ellipse transform="matrix(0.9993 -3.725652e-02 3.725652e-02 0.9993 -31.3264 103.5265)" class="st44" cx="2762.1" cy="892.3" rx="6.1" ry="6.1"/>
			<path class="st0" d="M2785.7,878.7L2580.5,918l-11.9-61.8c-1-5.4,2.5-10.6,7.9-11.6l185.7-35.6c5.4-1,10.5,2.5,11.6,7.8
				L2785.7,878.7z"/>
			<polygon class="st30" points="2595.3,915.2 2607,921.8 2645.4,914.5 2656,903.6 			"/>
			<polygon class="st30" points="2712.8,892.7 2724.5,899.3 2762.9,891.9 2773.5,881 			"/>
		</g>
		<g>
			<g>
				<path class="st75" d="M2689.3,1262.9c0,0,3.1-1.6,8.9-4.6"/>
				<path class="st81" d="M2716.2,1248.9c96.2-50.2,433.4-224.3,719.6-352.9"/>
				<path class="st75" d="M3445,891.9c3.1-1.4,6.1-2.7,9.1-4.1"/>
			</g>
		</g>
		<path class="st77" d="M2686.8,1257.6c0,0,194.9-111.3,767.9-376.3"/>
		<g>
			<g>
				<path class="st77" d="M2571,937.7c0,0,1.7-0.2,5-0.6"/>
				<path class="st82" d="M2585.7,935.8c77.9-10.8,453.2-67.6,858.5-211.2"/>
				<path class="st77" d="M3448.9,723c1.6-0.6,3.1-1.1,4.7-1.7"/>
			</g>
		</g>
		<path class="st79" d="M2570.6,935.3c0,0,458.3-62.1,882.5-219.5"/>
		<g>
			
				<rect x="2782.5" y="865.5" transform="matrix(0.9821 -0.1883 0.1883 0.9821 -113.1385 541.5939)" class="st0" width="22.6" height="1.6"/>
		</g>
		<path class="st0" d="M2795.6,868.3l-1.5,0.3c-1.1,0.2-2.2-0.5-2.4-1.6l-0.3-1.5c-0.2-1.1,0.5-2.2,1.6-2.4l1.5-0.3
			c1.1-0.2,2.2,0.5,2.4,1.6l0.3,1.5C2797.4,867,2796.7,868.1,2795.6,868.3z"/>
		<g>
			
				<ellipse transform="matrix(0.9974 -7.195155e-02 7.195155e-02 0.9974 -55.9059 206.2475)" class="st44" cx="2834.8" cy="879.1" rx="6.1" ry="6.1"/>
			
				<ellipse transform="matrix(0.9974 -7.195158e-02 7.195158e-02 0.9974 -55.2525 208.702)" class="st44" cx="2869.2" cy="871.3" rx="6.1" ry="6.1"/>
			
				<ellipse transform="matrix(0.9974 -7.195154e-02 7.195154e-02 0.9974 -53.6607 214.6809)" class="st44" cx="2953" cy="852.2" rx="6.1" ry="6.1"/>
			
				<ellipse transform="matrix(0.9974 -7.195153e-02 7.195153e-02 0.9974 -53.0073 217.1352)" class="st44" cx="2987.4" cy="844.3" rx="6.1" ry="6.1"/>
			<path class="st0" d="M3010.4,829.9l-203.7,46.4l-14-61.4c-1.2-5.3,2.1-10.7,7.5-11.9l184.4-42c5.3-1.2,10.6,2.1,11.8,7.4
				L3010.4,829.9z"/>
			<polygon class="st30" points="2821.4,873 2833.4,879.2 2871.5,870.5 2881.7,859.3 			"/>
			<polygon class="st30" points="2938.1,846.4 2950.1,852.6 2988.2,843.9 2998.3,832.7 			"/>
		</g>
		<g>
			
				<rect x="3004" y="821.3" transform="matrix(0.9821 -0.1883 0.1883 0.9821 -100.8672 582.5162)" class="st0" width="22.6" height="1.6"/>
		</g>
		<path class="st0" d="M3017.1,824.2l-1.5,0.3c-1.1,0.2-2.2-0.5-2.4-1.6l-0.3-1.5c-0.2-1.1,0.5-2.2,1.6-2.4l1.5-0.3
			c1.1-0.2,2.2,0.5,2.4,1.6l0.3,1.5C3019,822.9,3018.2,824,3017.1,824.2z"/>
		<g>
			
				<ellipse transform="matrix(0.9941 -0.1081 0.1081 0.9941 -71.5094 334.9458)" class="st44" cx="3054.7" cy="827.3" rx="6.1" ry="6.1"/>
			
				<ellipse transform="matrix(0.9941 -0.1081 0.1081 0.9941 -70.3281 338.5755)" class="st44" cx="3088.8" cy="818.2" rx="6.1" ry="6.1"/>
			
				<ellipse transform="matrix(0.9941 -0.1081 0.1081 0.9941 -67.4505 347.42)" class="st44" cx="3171.8" cy="796.1" rx="6.1" ry="6.1"/>
			
				<ellipse transform="matrix(0.9941 -0.1081 0.1081 0.9941 -66.2692 351.0504)" class="st44" cx="3205.9" cy="787" rx="6.1" ry="6.1"/>
			<path class="st0" d="M3228.4,771.7l-201.9,53.8l-16.2-60.8c-1.4-5.3,1.7-10.7,7-12.1l182.7-48.7c5.3-1.4,10.7,1.7,12.1,7
				L3228.4,771.7z"/>
			<polygon class="st30" points="3041.1,821.7 3053.3,827.4 3091.1,817.4 3100.8,805.7 			"/>
			<polygon class="st30" points="3156.7,790.9 3168.9,796.6 3206.7,786.6 3216.4,774.9 			"/>
		</g>
		<g>
			
				<ellipse transform="matrix(0.9917 -0.1283 0.1283 0.9917 -71.8958 426.7568)" class="st44" cx="3275.7" cy="771.3" rx="6.1" ry="6.1"/>
			
				<ellipse transform="matrix(0.9917 -0.1283 0.1283 0.9917 -70.3607 431.0258)" class="st44" cx="3309.6" cy="761.5" rx="6.1" ry="6.1"/>
			
				<ellipse transform="matrix(0.9917 -0.1283 0.1283 0.9917 -66.6211 441.4258)" class="st44" cx="3392.2" cy="737.7" rx="6.1" ry="6.1"/>
			
				<ellipse transform="matrix(0.9917 -0.1283 0.1283 0.9917 -65.0861 445.6941)" class="st44" cx="3426.1" cy="727.9" rx="6.1" ry="6.1"/>
			<path class="st0" d="M3448.3,712.2l-200.7,57.9l-17.5-60.5c-1.5-5.3,1.5-10.8,6.8-12.3l181.7-52.4c5.2-1.5,10.7,1.5,12.2,6.8
				L3448.3,712.2z"/>
			<polygon class="st30" points="3262,766 3274.4,771.5 3311.9,760.6 3321.4,748.8 			"/>
			<polygon class="st30" points="3377,732.8 3389.3,738.3 3426.8,727.5 3436.4,715.7 			"/>
		</g>
		<g>
			
				<rect x="3225" y="766.2" transform="matrix(0.9821 -0.1883 0.1883 0.9821 -86.5295 623.1292)" class="st0" width="22.6" height="1.6"/>
		</g>
		<path class="st0" d="M3238.1,769.1L3238.1,769.1c-1.1,0.2-2.2-0.5-2.4-1.6l0,0c-0.2-1.1,0.5-2.2,1.6-2.4l0,0
			c1.1-0.2,2.2,0.5,2.4,1.6l0,0C3239.9,767.8,3239.2,768.8,3238.1,769.1z"/>
		<g>
			<circle class="st44" cx="3317.8" cy="933.3" r="12.3"/>
			<circle class="st44" cx="3382.2" cy="903.8" r="12.3"/>
			<path class="st0" d="M3454.1,851.2l-192.6,88.1l-56.8-124.1c-2.3-5-0.1-10.9,4.9-13.1l244.5-111.9"/>
			<polygon class="st30" points="3289,926.8 3315.1,934.1 3386.5,901.4 3401.9,875.1 			"/>
		</g>
		<polygon class="st30" points="2743.9,1067.7 2746.8,1103.4 2770.1,1092.2 2755.7,1062.1 		"/>
		
			<rect x="2770" y="1050.9" transform="matrix(0.902 -0.4318 0.4318 0.902 -188.1749 1306.2009)" class="st30" width="25.8" height="33.4"/>
		<g>
			<circle class="st44" cx="2894" cy="1133.7" r="12.3"/>
			<circle class="st44" cx="2957.6" cy="1102.4" r="12.3"/>
			<polygon class="st30" points="2865,1128 2891.3,1134.5 2961.8,1099.9 2976.5,1073.2 			"/>
			<g>
				<polygon class="st83" points="2827.6,922.9 2876.5,938.4 2858.5,987.8 2809.3,972.2 2827.6,922.9 				"/>
				<path class="st0" d="M2792.7,1197.2c-3.4-21.4-13-19.3-13-19.3l21.8-9.9C2801.4,1168.1,2806.9,1193.8,2792.7,1197.2z"/>
				<polygon class="st83" points="2988.9,843.6 2971.3,891.7 3021.5,907.6 3039.1,859.2 2988.9,843.6 				"/>
				<circle class="st44" cx="3115.3" cy="1024.9" r="12.3"/>
				<circle class="st44" cx="3051.7" cy="1056.1" r="12.3"/>
				<path class="st0" d="M3214.1,956.3l-214.8,105.6l-5.1,2.5L2779.4,1170c-4.3,2.1-9.5,1.3-12.9-2.1l-26.1-25.9
					c-1.9-1.8-3-4.3-3.3-6.8l-8.3-80.9c-0.4-3.9,1.3-7.8,4.4-10.1l53.4-40.6c0.6-0.4,1.2-0.8,1.9-1.1l11.8-5.8
					c1.1-0.5,2.3-0.9,3.5-1.1l16.3-2.2c1.2-0.2,2.4-0.5,3.5-1.1l68.4-33.7c0.9-0.4,1.7-1,2.4-1.6l16.4-14.3c0.7-0.6,1.6-1.2,2.4-1.6
					l16.4-8.1l5.1-2.5l16.4-8.1c0.9-0.4,1.8-0.8,2.8-0.9l21.3-4.2c1-0.2,1.9-0.5,2.8-0.9l68.4-33.7c1.1-0.5,2.1-1.2,2.9-2.1
					l11.7-11.6c0.9-0.9,1.9-1.6,2.9-2.1l11.8-5.8c0.7-0.3,1.3-0.6,2-0.8l64.7-17.5c3.8-1,7.9,0,10.7,2.7l59,55.9
					c1.9,1.8,3.1,4.2,3.4,6.8l4.6,36.5C3220.9,949.6,3218.4,954.2,3214.1,956.3z"/>
				<polygon class="st30" points="3128.5,998.4 3117.6,1023.3 3047.2,1057.9 3017,1053.2 				"/>
				<polygon class="st0" points="3182.7,982.4 3211.3,968.3 3222.7,962.7 3216.3,949.9 3176.3,969.6 				"/>
				<polygon class="st0" points="2779.7,1182.4 2808.3,1168.3 2819.7,1162.7 2813.3,1149.9 2773.3,1169.6 				"/>
				<path class="st0" d="M3227.5,983.4c-14.8-15.8-7.3-22.1-7.3-22.1l-21.1,11.2C3199.1,972.5,3216,992.6,3227.5,983.4z"/>
				<polygon class="st30" points="3156.4,867.6 3182.6,892 3159.4,903.4 3144.6,873.4 				"/>
				
					<rect x="3119.2" y="881.5" transform="matrix(0.8974 -0.4412 0.4412 0.8974 -74.9292 1474.191)" class="st30" width="25.8" height="33.4"/>
				<polygon class="st30" points="2744.8,1068.7 2748.1,1104.3 2771.2,1092.9 2756.5,1062.9 				"/>
				
					<rect x="2770.9" y="1051.4" transform="matrix(0.8974 -0.4412 0.4412 0.8974 -185.6484 1337.9419)" class="st30" width="25.8" height="33.4"/>
			</g>
		</g>
		<g>
			
				<rect x="3215.5" y="942.4" transform="matrix(0.902 -0.4318 0.4318 0.902 -90.2049 1490.6803)" class="st0" width="45.5" height="3.2"/>
		</g>
		<path class="st0" d="M3244.6,946.3l-6.4,3.1c-1,0.5-2.2,0.1-2.7-1l-3.1-6.4c-0.5-1-0.1-2.2,1-2.7l6.4-3.1c1-0.5,2.2-0.1,2.7,1
			l3.1,6.4C3246.1,944.6,3245.6,945.8,3244.6,946.3z"/>
	</g>
	<path class="st31" d="M2420.2,805.2c-7.4,26.7-6.3,51.8-24.3,80.6c0,0,19.3,0,52.8,0C2445.1,878.3,2420.2,805.2,2420.2,805.2z"/>
	<rect x="2419.1" y="885.9" class="st8" width="6.6" height="64"/>
	<path class="st31" d="M2454.5,796.1c-7.4,26.7-6.3,51.8-24.3,80.6c0,0,19.3,0,52.7,0C2479.4,869.3,2454.5,796.1,2454.5,796.1z"/>
	<rect x="2453.3" y="876.9" class="st8" width="6.6" height="64"/>
	<path class="st31" d="M2339.4,943.2c-9.3,33.6-8,65-30.5,101.2c0,0,24.3,0,66.2,0C2370.7,1035,2339.4,943.2,2339.4,943.2z"/>
	<rect x="2338.1" y="1044.6" class="st8" width="8.3" height="80.3"/>
	<path class="st31" d="M2382.5,931.8c-9.3,33.6-8,65-30.5,101.2c0,0,24.3,0,66.2,0C2413.7,1023.6,2382.5,931.8,2382.5,931.8z"/>
	<rect x="2381" y="1033.2" class="st8" width="8.3" height="80.3"/>
	<g>
		<path class="st5" d="M2794.3,529.1c-15.6,9-20.3,6-30.1,12.8c-10.3,7.2-14.7,17.2-15,18c4.6-2.8,11.9-5.3,23.6-4.3
			c2.8,0.2,5.7,0.3,8.3,0.5c7.5-10.6,18.1-18.5,23.5-28C2806.1,521.6,2796.5,527.9,2794.3,529.1z"/>
		<path class="st5" d="M2802.9,576.8c-1-0.1-5.3-4.3-7.3-4.4c-2-0.2-7.5,2.5-9.3,4c-5.2,4.6-21.4,5-21.4,5l-2-0.2
			c-11.1,13.6-69.5,75.1-66.3,56.5c3.6-20.4,31.2-46.7,30.5-50.4c-0.6-3.7,1.5-10.5,1.5-10.5s-24.6,0.1-22.3-2.1
			c2.7-2.5,8.5-5.5,10.4-8.3c1-1.5-0.4-9.5-0.4-9.5l22.4,5l10.2-2.1c4.5-2.9,11.9-5.4,23.8-4.4c4,0.3,8.1,0.3,11.6,0.9
			c16.4,2.6,10.8,11.2,15.5,13.8C2804,572.5,2804,576.9,2802.9,576.8z"/>
	</g>
</g>
</svg>
