<?xml version="1.0" encoding="utf-8"?>
<!-- Generator: Adobe Illustrator 26.2.1, SVG Export Plug-In . SVG Version: 6.00 Build 0)  -->
<svg version="1.1" xmlns="http://www.w3.org/2000/svg" xmlns:xlink="http://www.w3.org/1999/xlink" x="0px" y="0px"
	 viewBox="0 0 3458.3 1927.6" style="enable-background:new 0 0 3458.3 1927.6;" xml:space="preserve">
<style type="text/css">
	.st0{fill:none;}
	.st1{fill:#0F7ABD;}
	.st2{opacity:0.5;fill:none;stroke:#FFFFFF;stroke-width:0.3;}
	.st3{fill:#0669B1;}
	.st4{opacity:0.94;fill:url(#SVGID_1_);}
	.st5{fill:#0B79BC;}
	.st6{fill:#64BFC1;}
	.st7{opacity:0.94;fill:url(#SVGID_00000106835732577029006200000010423860562806347161_);}
	.st8{opacity:0.94;fill:url(#SVGID_00000017507228711037578970000014826469292668663691_);}
	.st9{opacity:0.94;fill:url(#SVGID_00000007415286757157171680000000707009879689973139_);}
	.st10{opacity:0.94;fill:url(#SVGID_00000108289340874872633320000004879881434561839007_);}
	.st11{opacity:0.94;fill:url(#SVGID_00000038392851552005580660000008662465702596899493_);}
	.st12{fill:#FFFFFF;}
	.st13{fill:#7AB7E2;}
	.st14{fill:#5B9ED6;}
	.st15{fill:#095F93;}
	.st16{fill:#69574B;}
	.st17{fill:none;stroke:#FFFFFF;stroke-miterlimit:10;}
	.st18{fill:#045C83;}
	.st19{fill:#C9A593;}
	.st20{fill:#E9660B;}
	.st21{fill:#E5BCA4;}
	.st22{fill:#3C2313;}
	.st23{fill:none;stroke:#AB1917;stroke-linecap:round;stroke-linejoin:round;stroke-miterlimit:10;}
	.st24{fill:#AB1917;}
	.st25{fill:#4CB0E4;}
	.st26{fill:#1990CF;stroke:#1990CF;stroke-width:2;stroke-linecap:round;stroke-linejoin:round;stroke-miterlimit:10;}
	.st27{fill:none;stroke:#1990CF;stroke-width:3;stroke-linecap:round;stroke-linejoin:round;stroke-miterlimit:10;}
	.st28{fill:#1990CF;}
	.st29{opacity:0.2;fill:#5B9ED6;}
	.st30{fill:#F4A304;}
	.st31{opacity:0.94;fill:url(#SVGID_00000106141298475668717810000005011933980686048171_);}
	.st32{opacity:0.94;fill:url(#SVGID_00000124854625318765296370000010283416572876479106_);}
	.st33{fill:none;stroke:#095F93;stroke-width:2;stroke-miterlimit:10;}
	.st34{fill:none;stroke:#095F93;stroke-width:1.5;stroke-miterlimit:10;}
	.st35{fill:none;stroke:#095F93;stroke-miterlimit:10;}
	.st36{fill:#5FB353;}
	.st37{fill:#086096;}
	.st38{fill:none;stroke:#1D1E1C;stroke-width:0.5;stroke-miterlimit:10;}
	.st39{fill:#5BA0D7;}
	.st40{fill:#53302C;}
	.st41{fill:#4DB2E6;}
	.st42{fill:#90573F;}
	.st43{fill:#AB1917;stroke:#0669B1;stroke-linecap:round;stroke-linejoin:round;stroke-miterlimit:10;}
	.st44{fill:none;stroke:#000000;stroke-linecap:round;stroke-linejoin:round;stroke-miterlimit:10;}
	.st45{fill:#F4CBAC;}
	.st46{fill:#0469B1;}
	.st47{fill:#DFBAA2;}
	.st48{fill:#D5986F;}
	.st49{fill:#D1A794;}
	.st50{fill:#D7E0EE;}
	.st51{opacity:0.33;fill:#E2EBF8;stroke:#B5BBC5;stroke-width:5;stroke-miterlimit:10;}
	.st52{fill:#CECC90;}
	.st53{fill:#E7E890;}
	.st54{fill:#479535;}
	.st55{fill:#E7E7E8;}
	.st56{opacity:0.49;}
	.st57{fill:#C9CED3;}
	.st58{clip-path:url(#SVGID_00000070108009461657516800000009015820313383005854_);}
	.st59{fill:#4BAFE3;}
	.st60{fill:#1D8ECE;stroke:#1D8ECE;stroke-width:2;stroke-linecap:round;stroke-linejoin:round;stroke-miterlimit:10;}
	.st61{fill:none;stroke:#1D8ECE;stroke-width:3;stroke-linecap:round;stroke-linejoin:round;stroke-miterlimit:10;}
	.st62{fill:#1D8ECE;}
	.st63{fill:none;stroke:#FFFFFF;stroke-width:2;stroke-linecap:round;stroke-miterlimit:10;}
	.st64{clip-path:url(#SVGID_00000126302355209280691380000009817020196075576725_);}
	.st65{clip-path:url(#SVGID_00000119076225908358881950000016698366852826699422_);}
	.st66{clip-path:url(#SVGID_00000175318710693462849390000014945349540557267611_);}
	.st67{clip-path:url(#SVGID_00000034792656532904867290000005580184004230844847_);}
	.st68{clip-path:url(#SVGID_00000082335932678802233670000014310465013478207373_);}
	.st69{fill:#0B72B2;}
	.st70{fill:#025D86;}
	.st71{fill:#0569B0;}
	.st72{fill:#DEBAA1;}
	.st73{fill:#F4CBAB;}
	.st74{fill:#D4976E;}
	.st75{fill:#096199;}
	.st76{fill:#D09E61;}
	.st77{fill:#AF793B;}
	.st78{fill:#EAC295;}
	.st79{fill:#FFFFFF;stroke:#FFFFFF;stroke-miterlimit:10;}
	.st80{fill:#B06A26;}
	.st81{fill:#B9793D;}
	.st82{fill:#9F561A;}
	.st83{fill:#1892D1;}
	.st84{fill:#1D1D1B;}
	.st85{fill:none;stroke:#0669B1;stroke-width:10;stroke-miterlimit:10;}
	.st86{fill:none;stroke:#0669B1;stroke-width:10;stroke-miterlimit:10;stroke-dasharray:19.791,19.791;}
	.st87{fill:none;stroke:#0669B1;stroke-width:5;stroke-miterlimit:10;}
	.st88{fill:none;stroke:#0669B1;stroke-width:5;stroke-miterlimit:10;stroke-dasharray:10.0305,10.0305;}
	.st89{fill:none;stroke:#0669B1;stroke-width:2.5;stroke-miterlimit:10;}
	.st90{fill:none;stroke:#0669B1;stroke-miterlimit:10;}
</style>
<pattern  x="4927.1" y="437.8" width="57.6" height="57.6" patternUnits="userSpaceOnUse" id="Kors" viewBox="0 -57.6 57.6 57.6" style="overflow:visible;">
	<g>
		<rect x="0" y="-57.6" class="st0" width="57.6" height="57.6"/>
		<rect x="0" y="-57.6" class="st1" width="57.6" height="57.6"/>
		<line class="st2" x1="52.5" y1="-54" x2="55.5" y2="-54"/>
		<line class="st2" x1="38.1" y1="-54" x2="41.1" y2="-54"/>
		<line class="st2" x1="23.7" y1="-54" x2="26.7" y2="-54"/>
		<line class="st2" x1="9.3" y1="-54" x2="12.3" y2="-54"/>
		<line class="st2" x1="45.3" y1="-46.8" x2="48.3" y2="-46.8"/>
		<line class="st2" x1="30.9" y1="-46.8" x2="33.9" y2="-46.8"/>
		<line class="st2" x1="16.5" y1="-46.8" x2="19.5" y2="-46.8"/>
		<line class="st2" x1="2.1" y1="-46.8" x2="5.1" y2="-46.8"/>
		<line class="st2" x1="52.5" y1="-39.6" x2="55.5" y2="-39.6"/>
		<line class="st2" x1="38.1" y1="-39.6" x2="41.1" y2="-39.6"/>
		<line class="st2" x1="23.7" y1="-39.6" x2="26.7" y2="-39.6"/>
		<line class="st2" x1="9.3" y1="-39.6" x2="12.3" y2="-39.6"/>
		<line class="st2" x1="45.3" y1="-32.4" x2="48.3" y2="-32.4"/>
		<line class="st2" x1="30.9" y1="-32.4" x2="33.9" y2="-32.4"/>
		<line class="st2" x1="16.5" y1="-32.4" x2="19.5" y2="-32.4"/>
		<line class="st2" x1="2.1" y1="-32.4" x2="5.1" y2="-32.4"/>
		<line class="st2" x1="52.5" y1="-25.2" x2="55.5" y2="-25.2"/>
		<line class="st2" x1="38.1" y1="-25.2" x2="41.1" y2="-25.2"/>
		<line class="st2" x1="23.7" y1="-25.2" x2="26.7" y2="-25.2"/>
		<line class="st2" x1="9.3" y1="-25.2" x2="12.3" y2="-25.2"/>
		<line class="st2" x1="45.3" y1="-18" x2="48.3" y2="-18"/>
		<line class="st2" x1="30.9" y1="-18" x2="33.9" y2="-18"/>
		<line class="st2" x1="16.5" y1="-18" x2="19.5" y2="-18"/>
		<line class="st2" x1="2.1" y1="-18" x2="5.1" y2="-18"/>
		<line class="st2" x1="52.5" y1="-10.8" x2="55.5" y2="-10.8"/>
		<line class="st2" x1="38.1" y1="-10.8" x2="41.1" y2="-10.8"/>
		<line class="st2" x1="23.7" y1="-10.8" x2="26.7" y2="-10.8"/>
		<line class="st2" x1="9.3" y1="-10.8" x2="12.3" y2="-10.8"/>
		<line class="st2" x1="45.3" y1="-3.6" x2="48.3" y2="-3.6"/>
		<line class="st2" x1="30.9" y1="-3.6" x2="33.9" y2="-3.6"/>
		<line class="st2" x1="16.5" y1="-3.6" x2="19.5" y2="-3.6"/>
		<line class="st2" x1="2.1" y1="-3.6" x2="5.1" y2="-3.6"/>
		<line class="st2" x1="54" y1="-55.5" x2="54" y2="-52.5"/>
		<line class="st2" x1="39.6" y1="-55.5" x2="39.6" y2="-52.5"/>
		<line class="st2" x1="25.2" y1="-55.5" x2="25.2" y2="-52.5"/>
		<line class="st2" x1="10.8" y1="-55.5" x2="10.8" y2="-52.5"/>
		<line class="st2" x1="46.8" y1="-48.3" x2="46.8" y2="-45.3"/>
		<line class="st2" x1="32.4" y1="-48.3" x2="32.4" y2="-45.3"/>
		<line class="st2" x1="18" y1="-48.3" x2="18" y2="-45.3"/>
		<line class="st2" x1="3.6" y1="-48.3" x2="3.6" y2="-45.3"/>
		<line class="st2" x1="54" y1="-41.1" x2="54" y2="-38.1"/>
		<line class="st2" x1="39.6" y1="-41.1" x2="39.6" y2="-38.1"/>
		<line class="st2" x1="25.2" y1="-41.1" x2="25.2" y2="-38.1"/>
		<line class="st2" x1="10.8" y1="-41.1" x2="10.8" y2="-38.1"/>
		<line class="st2" x1="46.8" y1="-33.9" x2="46.8" y2="-30.9"/>
		<line class="st2" x1="32.4" y1="-33.9" x2="32.4" y2="-30.9"/>
		<line class="st2" x1="18" y1="-33.9" x2="18" y2="-30.9"/>
		<line class="st2" x1="3.6" y1="-33.9" x2="3.6" y2="-30.9"/>
		<line class="st2" x1="54" y1="-26.7" x2="54" y2="-23.7"/>
		<line class="st2" x1="39.6" y1="-26.7" x2="39.6" y2="-23.7"/>
		<line class="st2" x1="25.2" y1="-26.7" x2="25.2" y2="-23.7"/>
		<line class="st2" x1="10.8" y1="-26.7" x2="10.8" y2="-23.7"/>
		<line class="st2" x1="46.8" y1="-19.5" x2="46.8" y2="-16.5"/>
		<line class="st2" x1="32.4" y1="-19.5" x2="32.4" y2="-16.5"/>
		<line class="st2" x1="18" y1="-19.5" x2="18" y2="-16.5"/>
		<line class="st2" x1="3.6" y1="-19.5" x2="3.6" y2="-16.5"/>
		<line class="st2" x1="54" y1="-12.3" x2="54" y2="-9.3"/>
		<line class="st2" x1="39.6" y1="-12.3" x2="39.6" y2="-9.3"/>
		<line class="st2" x1="25.2" y1="-12.3" x2="25.2" y2="-9.3"/>
		<line class="st2" x1="10.8" y1="-12.3" x2="10.8" y2="-9.3"/>
		<line class="st2" x1="46.8" y1="-5.1" x2="46.8" y2="-2.1"/>
		<line class="st2" x1="32.4" y1="-5.1" x2="32.4" y2="-2.1"/>
		<line class="st2" x1="18" y1="-5.1" x2="18" y2="-2.1"/>
		<line class="st2" x1="3.6" y1="-5.1" x2="3.6" y2="-2.1"/>
	</g>
</pattern>
<g id="Lager_1">
	<rect x="-37.9" y="-30.2" class="st3" width="3524" height="1992"/>
	<pattern  id="SVGID_1_" xlink:href="#Kors" patternTransform="matrix(1.8924 0 0 1.8924 9947.8926 5228.5254)">
	</pattern>
	<path class="st4" d="M-23.9,1187.8c0,0,631-30,971-14c207.3,9.8,655.9,25.1,426,242s-270,326-502,411c-225.1,82.5-398,134-398,134
		l-497-22V1187.8z"/>
	<g>
		<rect x="870.5" y="1056.3" class="st12" width="14.2" height="263.1"/>
		<polygon class="st13" points="110.2,1236.7 110.2,1334.4 158.8,1354.5 158.8,1386.1 501.9,1379.6 501.9,1236.7 		"/>
		<polygon class="st12" points="480.5,1239 506.5,1148.9 474.5,1102.6 213.9,1102.6 183.3,1125.9 115.2,1132.3 117.5,1239 		"/>
		<polygon class="st14" points="495.4,1151.7 480.5,1209.2 449.9,1209.2 449.9,1151.7 		"/>
		<rect x="408" y="1151.7" class="st14" width="34.2" height="57.6"/>
		<rect x="365.2" y="1151.7" class="st14" width="34.2" height="57.6"/>
		<rect x="322.2" y="1151.7" class="st14" width="34.2" height="57.6"/>
		<rect x="281.3" y="1151.7" class="st14" width="34.2" height="25"/>
		<rect x="239.5" y="1151.7" class="st14" width="34.2" height="25"/>
		<rect x="196.7" y="1151.7" class="st14" width="34.2" height="25"/>
		<rect x="155.4" y="1151.7" class="st14" width="34.2" height="25"/>
		<polygon class="st14" points="132.5,1176.6 148.5,1176.6 148.2,1151.7 129.8,1151.7 		"/>
		<path class="st14" d="M-64.6,1390.6l32.9,118H975.7l180.9-238.5c0,0-803.1,119.3-962.7,79.6l-37.4-23.1H-64.6V1390.6z"/>
		<rect x="284.3" y="942.5" class="st12" width="14.2" height="160.1"/>
	</g>
	<path class="st15" d="M-112.1,1844.7c0,0,238.8-390.4,501.8-86.8S-48,1935-48,1935L-112.1,1844.7z"/>
	<g>
		<path class="st16" d="M319.6,1547c0,0,10.6-12.5-19.9-19.1c-15.2-3.3-26.4,2.5-31.7,7.5c-1.4,1.3-3.1,5.1-3.9,6.5
			c-0.3,0.5-4.2,2.4-4.5,2.8c-1.4,2.7,0.1,3.9-0.5,6.6c-0.5,2.1-0.7,4.2-0.6,5.8c0.2,5.5,1.9,13.7,2.6,17.5
			c0.7,3.7,0.4,11.8-2.6,15.8c-5.6,7.5-14.7,25.8-17.5,28.4c-2,1.8-67.8,5.6-102.4,9.2c-34.6,3.7-126,51.5-139.2,61
			c-13.3,9.6-27.5,22.6-22,25.7c2.6,1.5,15.2-4.8,16.5-3c1.4,2-8.9,12.2-4.6,13.6c25.2,8,69.4-8.8,84.5-23.8
			c25.3,0,69.2,1.5,69.2,1.5s51.9,40.5,113.1,32.8c9-1.1,17.8,13.3,17.8,13.3s-25.7,5.7-32.3,5.2c-6.6-0.5-13.4,4-13.4,7.5
			c0,0.9-10.8-1.8-11,2.3c-0.1,1.5-8.3,1.8-4.4,7.2c-4.7,0-6.6,0.7-7.2,3.2c-1.1,4.6,40.9,26.3,104-8.1c11.2-6.1,2.2-33.5,2.2-33.5
			s2.3-2.1,6.5-6.8c4.2-4.7,2.6,4.3,8.7,4.9c59.9,5.5,55.7-11.7,57.4-18.3c1.4-5.4-3.3-17.8-13.2-23.2c-10.9-6-16.2-7.5-16.2-7.5
			s13.5-50.8-27.5-124.9"/>
		<path class="st12" d="M316.6,1547.1c0,0-8-0.4-8.2,1.5c-0.2,1.9,0.5,9.3,2.8,10.7c2.3,1.5,63.5,50.1,67.1,49.5
			C388.5,1606.8,349.8,1567.5,316.6,1547.1z"/>
		<path class="st12" d="M295.9,1555.7c0,0-5.5,0.5-6.5,2.2c-1,1.7-5.2,5.6-4,10c0.7,2.6,39.7,73.1,43.3,74
			C338.7,1644.4,317.8,1585.9,295.9,1555.7z"/>
		<ellipse transform="matrix(0.738 -0.6748 0.6748 0.738 -968.399 588.9164)" cx="274.1" cy="1541.4" rx="2.9" ry="2"/>
		<ellipse transform="matrix(0.9585 -0.285 0.285 0.9585 -424.0879 147.3566)" cx="294.4" cy="1531.1" rx="2.9" ry="2"/>
		<path class="st17" d="M307.2,1536.5c0,0,9.2-9.6,24-5.8"/>
		<path class="st17" d="M309.6,1539c0,0,10.5-7.1,18.9-3.2"/>
		<path class="st17" d="M305.6,1533.8c0,0,11.4-15.7,24-8.6"/>
		<path class="st17" d="M282.4,1553.1c0,0-13.1,2.7-17.7,17.3"/>
		<path class="st17" d="M283.2,1556.4c0,0-11.6,5.1-12.8,14.3"/>
		<path class="st17" d="M280.9,1550.3c0,0-19.4,1.3-20.1,15.7"/>
	</g>
	<g>
		<path class="st18" d="M1347.7,1822.4c0.7-2.3,1.6-5.8,1.5-10c-0.1-7-2.5-11.9-4.6-17c-2.3-5.4-5.2-13.1-7.7-23.2
			c-0.7-1.1-1.9-1.7-3.1-1.5c-1.5,0.2-2.2,1.4-2.3,1.5c-0.5,2.6-1,5.2-1.5,7.7c-0.4-2.1-1.5-5.8-4.6-7.7c-1.7-1-2.7-0.8-10-0.8
			c-7.9,0-9-0.2-10.8,0.8c-1.4,0.7-3.8,2.5-5.4,7c-0.3-2.3-0.5-4.6-0.8-7c-0.4-1.5-1.8-2.4-3.1-2.3c-1.5,0.1-2.3,1.4-2.3,1.5
			c-4.5,9.5-7.4,17.8-9.3,24c-2.3,7.6-3.1,12.1-3.1,17c0,4.9,0.8,8.9,1.5,11.6c5.4,2.8,16.7,7.8,31.7,7.7
			C1330.2,1831.6,1342.3,1825.5,1347.7,1822.4z"/>
		<path class="st18" d="M1158.5,1822.4c-0.7-2.3-1.6-5.8-1.5-10c0.1-7,2.5-11.9,4.6-17c2.3-5.4,5.2-13.1,7.7-23.2
			c0.7-1.1,1.9-1.7,3.1-1.5c1.5,0.2,2.2,1.4,2.3,1.5c0.5,2.6,1,5.2,1.5,7.7c0.4-2.1,1.5-5.8,4.6-7.7c1.7-1,2.7-0.8,10-0.8
			c7.9,0,9-0.2,10.8,0.8c1.4,0.7,3.8,2.5,5.4,7c0.3-2.3,0.5-4.6,0.8-7c0.4-1.5,1.8-2.4,3.1-2.3c1.5,0.1,2.3,1.4,2.3,1.5
			c4.5,9.5,7.4,17.8,9.3,24c2.3,7.6,3.1,12.1,3.1,17c0,4.9-0.8,8.9-1.5,11.6c-5.4,2.8-16.7,7.8-31.7,7.7
			C1176,1831.6,1163.9,1825.5,1158.5,1822.4z"/>
		<g>
			<path class="st18" d="M1168.1,1159.8c1.8,4,5.1,10,11,15.8c7.3,7.2,15,10.6,19.5,12.2c26.8-1.2,53.6-2.4,80.4-3.7
				c3.4-1.1,11.5-4.1,18.3-12.2c6.1-7.2,7.9-14.8,8.5-18.3c-4.3-6.5-11.4-16.1-21.9-25.6c-15.3-13.8-30.5-27.5-51.2-26.8
				c-28.9,0.9-48.9,29.3-52.4,36.6c-0.3,0.5-1.6,3.4-3.7,7.3C1173.4,1151.3,1170.4,1156.3,1168.1,1159.8z"/>
			<path class="st14" d="M1213.6,1209c16.1-0.2,32.2-0.3,48.3-0.5c8.5,0.4,17.1,0.8,25.6,1.2c-1.6,6.9-3.8,17.4-4.9,30.5
				c-1.8,21.7,2.2,25.3-1.5,40.3c-3.4,13.7-9.8,26.8-17.5,38.6c-3.5,5.5-10.6,13-17.1,15.1c-11.3,3.8-18.7-0.5-26.4-8.9
				c-12.7-14-22.5-34.7-19.9-53.9c1.7-11.9,6.5-23.4,8.3-35.2C1210.1,1227.2,1210.8,1217.8,1213.6,1209z"/>
			<path class="st19" d="M1241,1228.9c-11.2,0.3-21.6-5.9-26.8-16c0-6.5,0-13.1,0-19.6c0-4.8,3.9-8.7,8.7-8.7h34.8
				c4.8,0,8.7,3.9,8.7,8.7c0,6.5,0,13.1,0,19.6C1261.4,1222.5,1251.6,1228.6,1241,1228.9z"/>
			<path class="st14" d="M1161,1418.9c-1.2,1.2-2.6,2.8-3.9,5.1c0,0-1.7,2.9-2.5,6.3c-8,31.8-4,82-4,82c-1.5,31.2-2.5,63.4-2.7,96.6
				c-0.4,61.6,1.9,120,5.8,174.8c8.8,3.7,22.2,8.2,39,9.4c19.6,1.4,35.4-2.2,45.2-5.2c-4.3-59.3-8.7-118.7-13-178
				c5.3-33.4,10.6-66.9,15.9-100.3c9.6,32.9,19.3,65.8,28.9,98.7c1.9,59.6,3.9,119.1,5.8,178.7c8.5,3.6,23.6,8.7,42.9,8.4
				c16.9-0.2,30.2-4.5,38.3-7.8c-3-34.3-7.2-86.5-11-152.4c-1.2-20.8-1.8-31.1-1.9-33.8c0,0-6.3-151.2-18.2-175.1
				c-0.1-0.1-3-5.9-3-5.9l0,0c-1.1-1.2-2.2-2-3-2.5C1266.8,1418.2,1213.9,1418.6,1161,1418.9z"/>
			<path class="st20" d="M1275.4,1420.2c-20.5,0.2-41,0.3-61.5,0.5c1.2-47.9,2.3-95.8,3.5-143.7c8.8,18.3,17.5,36.7,26.3,55
				c8.1-15.7,16.2-31.4,24.3-47.1C1270.4,1330,1272.9,1375.1,1275.4,1420.2z"/>
			<path class="st12" d="M1198.7,1185.7c-3.2-3.1-5.2-6-6.4-7.9c-4.6-7.4-6.3-15.1-7.5-20.8c-0.1-0.6-0.3-1.4-0.6-2.8
				c-0.2-0.8-0.4-1.9-0.7-3.4c-0.7-3.5-1.6-7.5-1.9-8.6c3.6-5.2,7.4-11.5,10.9-19c2-4.3,3.6-8.4,4.9-12.2c1.6-3,3.2-6,4.8-9
				c3.4,0.8,7.1,1.5,11.1,2c19.1,2.3,35.5-1.7,46.8-5.8c0.9-0.1,4.1-0.5,7.1,1.5c2.1,1.4,3,3.2,3.4,4.1c1.3,2.6,1.3,5,1.2,6.1
				c6.6,7.8,13.1,15.6,19.7,23.4c1,6.6,2,19.2-3.5,33.2c-2.5,6.3-5.6,11.2-8.4,14.9c-9.6-4-51.4-20.2-75.7-0.5
				C1202,1182.2,1200.3,1183.8,1198.7,1185.7z"/>
			<path class="st21" d="M1193.8,1158.5c-2.7-2.1-8-10.1-12.3-5.8c-4.4,4.3,3.9,15.2,7.1,18.4c2.6,2.6,6.4,4.2,8,0.1
				C1198,1167.5,1196.6,1159.3,1193.8,1158.5z"/>
			<path class="st21" d="M1286.3,1151.7c0,9.6-1.9,16.9-2.4,18.6c-1.9,6.6-4.5,11.3-5.5,12.9c-1.5,2.6-3.6,5.7-6.4,8.9
				c-2.6,2.9-7.5,8.4-15.9,12.4c-2.8,1.3-8.9,4.2-17.3,4.5c-11.9,0.4-20.5-4.6-23.3-6.2c-0.5-0.3-1.7-1-3.1-2
				c-2.3-1.6-8.7-6.4-13.7-15.1c-1.6-2.7-3.6-6.7-5-11.9c-1.4-4.5-3.1-11.1-3.6-19.2c-0.8-11.4-1.9-27.6,8.6-41
				c13.2-16.9,34-17.6,37.3-17.7c2.6-0.1,24.2-0.1,38.9,17.2C1286.4,1126.5,1286.3,1142.6,1286.3,1151.7z"/>
			<path d="M1260.3,1144.3c2.3,0.7,3.8,1.8,4.7,2.6c-0.5-0.9-1.4-2.4-3-3.6c-0.6-0.4-3.7-2.7-7.3-1.8c-0.5,0.1-2.5,0.6-3.6,2.4
				c-0.3,0.4-0.8,1.3-0.8,2.4c0,2,1.6,3.6,3.6,3.6c0.5,0,0.9-0.1,1.3-0.3c1.4-0.5,2.4-1.8,2.4-3.3c0-1-0.4-1.8-1-2.5
				C1257.4,1143.8,1258.8,1143.8,1260.3,1144.3z"/>
			<path d="M1223.3,1146.8c-0.5-0.9-1.4-2.4-3-3.6c-0.6-0.4-3.7-2.7-7.3-1.8c-0.5,0.1-2.5,0.6-3.6,2.4c-0.3,0.4-0.8,1.3-0.8,2.4
				c0,2,1.6,3.6,3.6,3.6c2.4,0,3.6-2.4,3.6-3.6c0-0.5-0.1-1-0.1-1c-0.2-0.7-0.6-1.2-0.8-1.4c1,0,2.3,0,3.8,0.5
				C1220.9,1144.9,1222.4,1146.1,1223.3,1146.8z"/>
			<path class="st19" d="M1236.9,1187.8c-9.5,0.3-16-4.6-17.8-6.1c11.5-0.2,23-0.4,34.5-0.6
				C1251.7,1182.7,1245.8,1187.5,1236.9,1187.8z"/>
			<path class="st12" d="M1202.2,1124.9c-1.2,3.7-1.4,4.8-2.3,6.1c-0.1,0.2-1.1,1.5-1.5,1.3c-0.3-0.1-0.1-1.1,0-1.7
				c-2.5,1.9-3.8,4.6-4.4,7.6c-0.7,3.4-0.4,6.1,0.1,9c0.5,3.2,1.5,5.7,2.2,7.3c-0.1,1.7-0.6,4.1-2,6.4c-0.3,0.5-0.7,1-1,1.5
				c-0.3-1.3-0.7-2.8-1.5-4.5c-0.6-1.4-1.3-2.5-2-3.5c-0.8-3.4-1.7-8.3-2.2-14.2c-0.6-7.7-0.9-11.5,0.5-15.9
				c1.7-5.4,5.3-9.8,9.6-13.3c1.8-1.5,7.7-7.8,9.3-6.7c0.9,0.6-0.3,3-2.9,13C1202.9,1122.2,1202.9,1122.5,1202.2,1124.9z"/>
			<path class="st21" d="M1280.7,1155.8c2.7-2.1,8-10.1,12.3-5.8c4.4,4.3-3.9,15.2-7.1,18.4c-2.6,2.6-6.4,4.2-8,0.1
				C1276.6,1164.8,1277.9,1156.6,1280.7,1155.8z"/>
			<path class="st12" d="M1228.1,1168.5c-2,0.3-2.5,0.9-9.7,4.1c-4.6,2.1-6.5,2.8-8.9,2.5c-1.9-0.2-3.3-1-4.2-1.6
				c1.2,1.3,3.1,2.9,5.7,4.1c1.4,0.6,5.1,2.1,9.4,1c1.5-0.4,2.7-1,3.5-1.5c0,0.1,0.2,0.5,0,1c-0.2,0.7-0.9,1-1,1
				c2,0.3,6.6,0.7,10.9-2c1-0.6,1.8-1.3,2.5-2c1,0.8,2.5,1.8,4.5,2.5c3.4,1.2,6.5,0.8,7.9,0.5c-0.5-0.1-1-0.3-1.5-0.5
				c-0.9-0.4-1.7-0.8-2.4-1.2c2.4,0.7,4.5,0.7,5.9,0.7c2.9-0.1,5.1-0.8,8.9-2c2.3-0.7,4.2-1.5,5.5-2c-6,0.3-10.2-0.8-12.9-2
				c-3-1.3-5.2-2.9-8.9-3c-2.8-0.1-5,0.8-6.4,1.5C1234.3,1168.7,1231.3,1168,1228.1,1168.5z"/>
			<line class="st23" x1="1243.6" y1="1332" x2="1243.6" y2="1420.7"/>
			<circle class="st24" cx="1237.9" cy="1338.2" r="3"/>
			<circle class="st24" cx="1238.2" cy="1373.6" r="3"/>
			<circle class="st24" cx="1236.7" cy="1410.3" r="3"/>
			<path class="st12" d="M1270.9,1122c2,4.4,4.2,7.7,5.7,9.8c-0.7-1.5-1.1-2.8-1.2-4.6c2.7,1.6,4.3,4.1,5.3,7c1.1,3.3,1.1,6,0.9,8.9
				c-0.2,3.2-0.8,5.8-1.3,7.5c0.3,1.7,1.1,4,2.7,6.2c0.4,0.5,0.8,1,1.2,1.4c0.1-1.3,0.4-2.9,0.9-4.6c0.5-1.5,1-2.7,1.6-3.7
				c0.4-3.5,0.7-8.4,0.4-14.3c-0.3-7.7-0.5-11.5-2.4-15.7c-2.3-5.1-6.4-9.1-11.1-12.1c-1.9-1.3-8.6-6.8-10.1-5.5
				c-0.8,0.7,0.7,3,4.4,12.6C1269.9,1119.4,1269.9,1119.8,1270.9,1122z"/>
			<path class="st18" d="M1088.2,1394.6c0.4,0.1,1,0.1,1.7,0.2c2.1,0.2,13.4,1,21.9-4.8c4.7-3.2,6.9-7.1,8.4-11.3
				c1.5-4.2,2.4-8.1,2.7-11.8c0.6-6.4-0.5-10.7-2.2-18.5c-2.6-12.1-3.9-18.2-4.4-19.9c-1.5-5.6-1.7-5.4-8.2-24.6
				c-3.9-11.6-4.7-14.3-7-20.3c-2.3-6.1-4.5-11.1-6-14.5c-3.4,2-8.6,4.8-15.3,6.8c-6.6,2-12.3,2.7-16,2.9c0,17,1.5,35.9,5.6,55.8
				c1.7,8.4,3.7,16.4,6,23.9C1079.7,1370.6,1083.9,1382.6,1088.2,1394.6z"/>
			<path class="st18" d="M1135.8,1240.8c-10.7,23.4-19.4,41.8-25,53.3c-14.5,30-20.5,41.1-21.4,58.5c-0.9,16.3,3.1,29.8,6.4,38.3
				c2.6,0.8,7.2,1.9,12.7,1.1c8.9-1.2,14.7-6.3,16.7-8.2c6.7-8,13.9-17.7,20.8-29.2c5.6-9.4,10-18.4,13.5-26.5
				c-0.3-12.2-1.1-22.5-1.8-30.2c-2.6-30.4-5.8-40.9-13.8-49.6C1140.8,1244.8,1137.8,1242.3,1135.8,1240.8z"/>
			<path class="st18" d="M1213.9,1208.6c-7.2-0.5-15.3-0.6-24.3,0c-7.4,0.5-14.2,1.4-20.3,2.5c-3.9,0.7-7.1,2.2-8.9,3
				c-13.4,5.7-21.5,20.6-24.5,26.8c1.8,81,3.6,162.1,5.4,243.1c29.5,2.6,62.2,4.2,97.5,3.7c38.3-0.5,73.4-3.4,104.8-7.3
				c-58.6-32.2-79.5-66.9-87.7-92.6c-10.1-31.5,3.4-55.9-14.6-104.8C1232.1,1258.1,1223,1233.3,1213.9,1208.6z"/>
			<path class="st12" d="M1192.5,1159.8c0.6,1.9,1.5,4.9,2.4,8.5c2.6,10.6,2,13.6,3.7,18.3c3,8.3,10,12.8,14.6,15.8
				c10.4,6.8,20.9,7.4,25.6,7.3c5.5-0.6,16.6-2.7,26.8-11c20-16.1,19.6-41.8,19.5-45.1c-1.6-0.8-3.2-1.6-4.9-2.4
				c-0.8,4-3.4,14.5-9.7,18.3c-0.9,0.5-3.8,2.1-7.3,3.7c-2.5,1.1-4.6,1.9-6.1,2.4c4.2,3.1,4.9,5.6,4.9,7.3
				c-0.3,6.7-14.2,12.1-25.6,12.2c-9.4,0.1-22.9-3.5-24.4-11c-0.4-2.2,0.3-4.3,1.2-6.1c-1.2-0.8-2.4-1.6-3.7-2.4c-2-2-4-4.4-6.1-7.3
				c-3.5-4.9-5.8-9.5-7.3-13.4C1194.9,1156.5,1193.7,1158.2,1192.5,1159.8z"/>
			<path class="st14" d="M1184,1142.7c7.7-7.2,27.7-17.2,41.4-20.7c2.3-0.6,5.1-1.2,8.5-1.2c4.4-0.1,7.8,0.7,9.7,1.2
				c20.1,5.1,40.2,14.6,40.2,14.6c4.7,2.3,8.2,4.2,12.2,7.3c3.1,2.5,5.6,4.9,7.5,7.1c1.3,1.5,2.1,2.8,2.2,2.7
				c0.3-0.2-2.5-5.5-4.9-9.7c-8.5-15.2-10.4-14.4-13.4-21.9c-2.8-7.2-1.1-7.8-4.9-18.3c-1.6-4.5-3.1-8.7-6.1-13.4
				c-5.9-9.4-13.7-14.5-15.8-15.8c-12.9-8-25.9-7.5-30.5-7.3c-4.7,0.2-15.8,0.9-26.8,8.5c-2.9,2-11.1,7.7-15.8,18.3
				c-2.6,5.7-3.3,10.8-3.7,13.4c-1.3,9.5,0.9,12.7-1.2,20.7c-0.7,2.8-1.4,3.8-4.9,11c-2.4,4.9-5.8,11.9-9.7,20.7
				c1.7-2.1,3.2-3.8,4.2-5c0.6-0.7,1.2-1.4,1.9-2.1c0.2-0.2,1.1-1.2,2.4-2.6C1180.5,1146,1183.6,1143.1,1184,1142.7z"/>
			<g>
				<path class="st25" d="M1077.2,1454.4c10.1-11.5,34.3-42.1,39.5-87.9c7.5-65.5-29.1-112.4-36.6-121.5
					c-6.9,7.3-49.7,54.2-42.8,122C1042.2,1413.3,1067.4,1443.8,1077.2,1454.4z"/>
				<path class="st26" d="M1100,1187.3c1,6.2,2.5,20-3.8,35.6c-4.6,11.5-11.5,19.1-15.8,23.2c-4.5-1.5-13.8-5.2-21.7-14.1
					c-11.2-12.7-12.3-27.2-12.4-31.6c10.4,8.7,20.8,17.4,31.2,26.1C1084.9,1213.5,1092.5,1200.4,1100,1187.3z"/>
				<path class="st27" d="M1085.2,1386.9c-1.1-0.9-6.9-5.5-13.9-4.1c-8.1,1.6-14.6,10.5-14.1,21.5"/>
				<circle class="st28" cx="1084.5" cy="1410.5" r="5.4"/>
				<path class="st26" d="M1084.6,1348.5c1-13.6,2-27.1,2.9-40.7c-3.3,4.8-6.5,9.6-9.8,14.4c-1.6-1.9-3.3-3.7-4.9-5.6
					c-1.6,4.7-3.1,9.3-4.7,14c-1.8-0.7-3.5-1.4-5.3-2.2c2.8,9.8,7.1,15.8,10.1,19.2c5.2,5.9,7.6,5.4,8.2,5.2
					C1083.2,1352.4,1084.2,1349.8,1084.6,1348.5z"/>
				<path class="st26" d="M1111.9,1391.1c7.8-12.6,15.6-25.3,23.4-37.9c-3,0.8-6,1.6-9,2.4c3.1-8,6.2-16,9.3-24.1
					c-3,1.1-5.9,2.1-8.9,3.2c1.2-7.9,2.4-15.8,3.5-23.6c-2.4,1.6-4.8,3.3-7.2,4.9c0.1-7.2,0.2-14.4,0.2-21.7
					c-3.8,4.1-7.5,8.1-11.3,12.2c2.9,10.6,5.9,25.6,5.7,43.6C1117.5,1366.8,1114.7,1380.9,1111.9,1391.1z"/>
			</g>
			<path class="st21" d="M1096.7,1270.3c-0.6-5.1-0.4-12.1-4.1-16c-2.1-2.2-5.4-3.2-8.1-4.2c-1.4-0.5-6.3-2.7-7.7-1.8
				c-3.8,2.1,2.1,8,4.1,9.1c3.1,1.8,6.8,1.6,9.1,4.4c1.4,1.8,2,4.3,3.4,6C1094.4,1269,1095.9,1269.5,1096.7,1270.3z"/>
			<path class="st21" d="M1074.1,1251.5c-1.2-2.3-4.4-3.3-6.5-1.6c-1.7,1.4-1.5,3.2-2.1,5c-2.6,0.1-4.2,0.2-5.8,2.8
				c-1.3,2-1.1,3.6-0.5,5.6c-1.6,0-2.7,0.5-3.3,2.3c-0.4,1.1-0.8,5.1,0.4,5.9c-1.7,0-2.2,1.9-2.2,3.3c-0.1,3.2,2.4,5.4,4.8,7
				c1.7,1.1,4.3,2.5,5.8,0.5c1.2-1.5,0.8-4.6-1.3-5.2c1.3,1.4,4.2,1.5,5.5,0.2c2.6-2.7,0.8-4.9-1.1-7.1c1.8,1.2,3.9,1.6,5.2-0.5
				c1.6-2.7,0.6-4.3-0.8-6.4c1.5,0.1,3,1.4,4.5,0.4c1.3-0.8,1.5-3.5,1.3-4.9C1077.6,1256,1074.7,1253.2,1074.1,1251.5z"/>
			<path class="st21" d="M1357,1450.7c-0.1,1.9,0.6,3.7,0.3,5.6c-0.5,3.4-3,6.7-5,9.5c-3.3,4.7-3.1,10.1-3.5,15.7
				c-0.2,2.9-0.4,5.7-0.4,8.6c0.1,2.4,0.5,5.1,0.1,7.5c-0.3,1.8-1.3,3.8-0.5,4.9c0.6,0.8,1.8,0.7,2,0.7c3.1-0.1,5.8-4.8,6.9-8.3
				c1.3-4.1,0.2-5.4,0.2-12.2c0-8.1-0.1-13.8,2.3-19.5c0.3-0.7,1.6-3.7,1.2-7.3c-0.3-2.7-1.2-3.8-1.8-4.3
				C1358.2,1451.1,1357.5,1450.8,1357,1450.7z"/>
			<path class="st18" d="M1266.8,1207.3c-8.5,25.2-17.1,50.4-25.6,75.6c1,34.6,1.8,69.5,2.4,104.8c0.6,32.4,1,64.5,1.2,96.3
				c32.9-1.2,65.8-2.4,98.7-3.7c-3.7-39.4-7.3-78.8-11-118.2c1.3,5.8,3.1,13.7,5.1,23.1c1,4.6,4.7,21.4,9.4,44.1
				c2.1,10.3,3.9,18.8,5,24.3c7.8-0.4,15.9-0.6,24.4-0.6c6.3,0,12.4,0.2,18.3,0.5c-1.7-36.4-6.2-76.5-14.9-119.4
				c-2.9-14.1-6-27.6-9.4-40.6c0,0-9.4-33.3-26.8-60.5c-3.8-5.9-9.7-14.3-19.8-18.8c-3.4-1.5-7.1-2.6-8.9-3
				c-8.4-1.5-14.5-2.3-20.3-2.5C1288.3,1208.5,1279.1,1208.1,1266.8,1207.3z"/>
			<path class="st21" d="M1355.1,1471.5c-2.5,6.1,8.3,18.2,4.4,23.4c-0.3,0.4-2.9,3.8-2.4,7.3c0.1,0.7,0.3,1.9,1.2,2.4
				c1,0.6,2.2,0.1,2.4,0c-0.4,1.4,0.1,2.9,1.2,3.7c1.1,0.8,2.5,0.8,3.7,0c0.2,0.4,0.6,1,1.2,1.2c1.9,0.7,4.6-1.8,7.3-4.9
				c7.3-8.2,10.9-12.3,11.6-17.8c0.7-5.4-1.3-11.2-3-18.5c-0.4-1.5-1.2-4.1-1.3-7.6c-0.1-3.6,0.6-6.6,1.2-8.5c-2,0-4.1,0-6.1,0
				c-5.8-0.2-10.4,1.2-17.2,0.4C1357,1477.1,1357.9,1464.6,1355.1,1471.5z"/>
			<path class="st18" d="M1378.9,1434c-1.2-0.9-2.4-1.7-3.7-2.4c-0.8,6.9-1.6,13.8-2.4,20.7c6.9,0.4,13.8,0.8,20.7,1.2
				C1391.2,1447.7,1386.9,1439.9,1378.9,1434z"/>
		</g>
	</g>
</g>
<g id="Lager_2">
</g>
</svg>
