<?xml version="1.0" encoding="utf-8"?>
<!-- Generator: Adobe Illustrator 26.2.1, SVG Export Plug-In . SVG Version: 6.00 Build 0)  -->
<svg version="1.1" xmlns="http://www.w3.org/2000/svg" xmlns:xlink="http://www.w3.org/1999/xlink" x="0px" y="0px"
	 viewBox="0 0 3458.3 1927.6" style="enable-background:new 0 0 3458.3 1927.6;" xml:space="preserve">
<style type="text/css">
	.st0{fill:none;}
	.st1{fill:#0F7ABD;}
	.st2{opacity:0.5;fill:none;stroke:#FFFFFF;stroke-width:0.3;}
	.st3{fill:#0669B1;}
	.st4{fill:#64BFC1;}
	.st5{fill:#095F93;}
	.st6{opacity:0.2;fill:#5B9ED6;}
	.st7{opacity:0.94;fill:url(#SVGID_1_);}
	.st8{fill:#FFFFFF;}
	.st9{fill:#7AB7E2;}
	.st10{fill:#5B9ED6;}
	.st11{fill:#69574B;}
	.st12{fill:none;stroke:#FFFFFF;stroke-miterlimit:10;}
	.st13{fill:#045C83;}
	.st14{fill:#C9A593;}
	.st15{fill:#E9660B;}
	.st16{fill:#E5BCA4;}
	.st17{fill:#3C2313;}
	.st18{fill:none;stroke:#AB1917;stroke-linecap:round;stroke-linejoin:round;stroke-miterlimit:10;}
	.st19{fill:#AB1917;}
	.st20{fill:#4CB0E4;}
	.st21{fill:#1990CF;stroke:#1990CF;stroke-width:2;stroke-linecap:round;stroke-linejoin:round;stroke-miterlimit:10;}
	.st22{fill:none;stroke:#1990CF;stroke-width:3;stroke-linecap:round;stroke-linejoin:round;stroke-miterlimit:10;}
	.st23{fill:#1990CF;}
	.st24{opacity:0.94;fill:url(#SVGID_00000158716291858120806280000005117105298271187333_);}
	.st25{clip-path:url(#SVGID_00000108273774168224395830000018179991217796658359_);}
	.st26{fill:#4BAFE3;}
	.st27{fill:#1D8ECE;stroke:#1D8ECE;stroke-width:2;stroke-linecap:round;stroke-linejoin:round;stroke-miterlimit:10;}
	.st28{fill:none;stroke:#1D8ECE;stroke-width:3;stroke-linecap:round;stroke-linejoin:round;stroke-miterlimit:10;}
	.st29{fill:#1D8ECE;}
	.st30{fill:none;stroke:#095F93;stroke-width:2;stroke-miterlimit:10;}
	.st31{clip-path:url(#SVGID_00000090261461143415856170000005150718781653674940_);}
	.st32{clip-path:url(#SVGID_00000148620666003071829580000009529265000275442583_);}
	.st33{fill:#0B72B2;}
	.st34{fill:#0B79BC;}
	.st35{fill:#5FB353;}
	.st36{opacity:0.94;fill:url(#SVGID_00000085971404002844381810000007983920293351022242_);}
	.st37{fill:#025D86;}
	.st38{fill:#0569B0;}
	.st39{fill:#DEBAA1;}
	.st40{fill:#F4CBAB;}
	.st41{fill:#D4976E;}
	.st42{fill:#096199;}
	.st43{fill:#D09E61;}
	.st44{fill:#AF793B;}
	.st45{fill:#EAC295;}
	.st46{fill:#F4A304;}
	.st47{opacity:0.94;fill:url(#SVGID_00000087384340205955192290000016395658627072489120_);}
	.st48{opacity:0.94;fill:url(#SVGID_00000108290123177747078680000005713343106606762643_);}
	.st49{fill:none;stroke:#095F93;stroke-width:1.5;stroke-miterlimit:10;}
	.st50{fill:none;stroke:#095F93;stroke-miterlimit:10;}
	.st51{fill:#086096;}
	.st52{fill:#5BA0D7;}
	.st53{fill:none;stroke:#1D1E1C;stroke-width:0.5;stroke-miterlimit:10;}
	.st54{fill:#53302C;}
	.st55{fill:#4DB2E6;}
	.st56{fill:#90573F;}
	.st57{fill:#AB1917;stroke:#0669B1;stroke-linecap:round;stroke-linejoin:round;stroke-miterlimit:10;}
	.st58{fill:none;stroke:#000000;stroke-linecap:round;stroke-linejoin:round;stroke-miterlimit:10;}
	.st59{fill:#F4CBAC;}
	.st60{fill:#0469B1;}
	.st61{fill:#DFBAA2;}
	.st62{fill:#D5986F;}
	.st63{fill:#D1A794;}
	.st64{fill:#D7E0EE;}
	.st65{opacity:0.33;fill:#E2EBF8;stroke:#B5BBC5;stroke-width:5;stroke-miterlimit:10;}
	.st66{fill:#CECC90;}
	.st67{fill:#E7E890;}
	.st68{fill:#479535;}
	.st69{fill:#E7E7E8;}
	.st70{opacity:0.49;}
	.st71{fill:#C9CED3;}
	.st72{clip-path:url(#SVGID_00000092431142356220650870000016126548715155775633_);}
	.st73{fill:none;stroke:#FFFFFF;stroke-width:2;stroke-linecap:round;stroke-miterlimit:10;}
	.st74{clip-path:url(#SVGID_00000000903569413761105010000001890013400254807437_);}
	.st75{clip-path:url(#SVGID_00000119806100207266394120000015187553330632787358_);}
	.st76{fill:#FFFFFF;stroke:#FFFFFF;stroke-miterlimit:10;}
	.st77{fill:#B06A26;}
	.st78{fill:#B9793D;}
	.st79{fill:#9F561A;}
	.st80{fill:#1892D1;}
	.st81{fill:#1D1D1B;}
	.st82{fill:none;stroke:#0669B1;stroke-width:10;stroke-miterlimit:10;}
	.st83{fill:none;stroke:#0669B1;stroke-width:10;stroke-miterlimit:10;stroke-dasharray:20.4087,20.4087;}
	.st84{fill:none;stroke:#0669B1;stroke-width:5;stroke-miterlimit:10;}
	.st85{fill:none;stroke:#0669B1;stroke-width:5;stroke-miterlimit:10;stroke-dasharray:10.0885,10.0885;}
	.st86{fill:none;stroke:#0669B1;stroke-width:2.5;stroke-miterlimit:10;}
	.st87{fill:none;stroke:#086096;stroke-width:2;stroke-miterlimit:10;}
	.st88{fill:none;stroke:#0669B1;stroke-width:10;stroke-miterlimit:10;stroke-dasharray:20.2919,20.2919;}
	.st89{fill:none;stroke:#0669B1;stroke-width:5;stroke-miterlimit:10;stroke-dasharray:9.8933,9.8933;}
	.st90{fill:none;stroke:#0669B1;stroke-width:2;stroke-miterlimit:10;}
</style>
<pattern  x="4927.1" y="437.8" width="57.6" height="57.6" patternUnits="userSpaceOnUse" id="Kors" viewBox="0 -57.6 57.6 57.6" style="overflow:visible;">
	<g>
		<rect x="0" y="-57.6" class="st0" width="57.6" height="57.6"/>
		<rect x="0" y="-57.6" class="st1" width="57.6" height="57.6"/>
		<line class="st2" x1="52.5" y1="-54" x2="55.5" y2="-54"/>
		<line class="st2" x1="38.1" y1="-54" x2="41.1" y2="-54"/>
		<line class="st2" x1="23.7" y1="-54" x2="26.7" y2="-54"/>
		<line class="st2" x1="9.3" y1="-54" x2="12.3" y2="-54"/>
		<line class="st2" x1="45.3" y1="-46.8" x2="48.3" y2="-46.8"/>
		<line class="st2" x1="30.9" y1="-46.8" x2="33.9" y2="-46.8"/>
		<line class="st2" x1="16.5" y1="-46.8" x2="19.5" y2="-46.8"/>
		<line class="st2" x1="2.1" y1="-46.8" x2="5.1" y2="-46.8"/>
		<line class="st2" x1="52.5" y1="-39.6" x2="55.5" y2="-39.6"/>
		<line class="st2" x1="38.1" y1="-39.6" x2="41.1" y2="-39.6"/>
		<line class="st2" x1="23.7" y1="-39.6" x2="26.7" y2="-39.6"/>
		<line class="st2" x1="9.3" y1="-39.6" x2="12.3" y2="-39.6"/>
		<line class="st2" x1="45.3" y1="-32.4" x2="48.3" y2="-32.4"/>
		<line class="st2" x1="30.9" y1="-32.4" x2="33.9" y2="-32.4"/>
		<line class="st2" x1="16.5" y1="-32.4" x2="19.5" y2="-32.4"/>
		<line class="st2" x1="2.1" y1="-32.4" x2="5.1" y2="-32.4"/>
		<line class="st2" x1="52.5" y1="-25.2" x2="55.5" y2="-25.2"/>
		<line class="st2" x1="38.1" y1="-25.2" x2="41.1" y2="-25.2"/>
		<line class="st2" x1="23.7" y1="-25.2" x2="26.7" y2="-25.2"/>
		<line class="st2" x1="9.3" y1="-25.2" x2="12.3" y2="-25.2"/>
		<line class="st2" x1="45.3" y1="-18" x2="48.3" y2="-18"/>
		<line class="st2" x1="30.9" y1="-18" x2="33.9" y2="-18"/>
		<line class="st2" x1="16.5" y1="-18" x2="19.5" y2="-18"/>
		<line class="st2" x1="2.1" y1="-18" x2="5.1" y2="-18"/>
		<line class="st2" x1="52.5" y1="-10.8" x2="55.5" y2="-10.8"/>
		<line class="st2" x1="38.1" y1="-10.8" x2="41.1" y2="-10.8"/>
		<line class="st2" x1="23.7" y1="-10.8" x2="26.7" y2="-10.8"/>
		<line class="st2" x1="9.3" y1="-10.8" x2="12.3" y2="-10.8"/>
		<line class="st2" x1="45.3" y1="-3.6" x2="48.3" y2="-3.6"/>
		<line class="st2" x1="30.9" y1="-3.6" x2="33.9" y2="-3.6"/>
		<line class="st2" x1="16.5" y1="-3.6" x2="19.5" y2="-3.6"/>
		<line class="st2" x1="2.1" y1="-3.6" x2="5.1" y2="-3.6"/>
		<line class="st2" x1="54" y1="-55.5" x2="54" y2="-52.5"/>
		<line class="st2" x1="39.6" y1="-55.5" x2="39.6" y2="-52.5"/>
		<line class="st2" x1="25.2" y1="-55.5" x2="25.2" y2="-52.5"/>
		<line class="st2" x1="10.8" y1="-55.5" x2="10.8" y2="-52.5"/>
		<line class="st2" x1="46.8" y1="-48.3" x2="46.8" y2="-45.3"/>
		<line class="st2" x1="32.4" y1="-48.3" x2="32.4" y2="-45.3"/>
		<line class="st2" x1="18" y1="-48.3" x2="18" y2="-45.3"/>
		<line class="st2" x1="3.6" y1="-48.3" x2="3.6" y2="-45.3"/>
		<line class="st2" x1="54" y1="-41.1" x2="54" y2="-38.1"/>
		<line class="st2" x1="39.6" y1="-41.1" x2="39.6" y2="-38.1"/>
		<line class="st2" x1="25.2" y1="-41.1" x2="25.2" y2="-38.1"/>
		<line class="st2" x1="10.8" y1="-41.1" x2="10.8" y2="-38.1"/>
		<line class="st2" x1="46.8" y1="-33.9" x2="46.8" y2="-30.9"/>
		<line class="st2" x1="32.4" y1="-33.9" x2="32.4" y2="-30.9"/>
		<line class="st2" x1="18" y1="-33.9" x2="18" y2="-30.9"/>
		<line class="st2" x1="3.6" y1="-33.9" x2="3.6" y2="-30.9"/>
		<line class="st2" x1="54" y1="-26.7" x2="54" y2="-23.7"/>
		<line class="st2" x1="39.6" y1="-26.7" x2="39.6" y2="-23.7"/>
		<line class="st2" x1="25.2" y1="-26.7" x2="25.2" y2="-23.7"/>
		<line class="st2" x1="10.8" y1="-26.7" x2="10.8" y2="-23.7"/>
		<line class="st2" x1="46.8" y1="-19.5" x2="46.8" y2="-16.5"/>
		<line class="st2" x1="32.4" y1="-19.5" x2="32.4" y2="-16.5"/>
		<line class="st2" x1="18" y1="-19.5" x2="18" y2="-16.5"/>
		<line class="st2" x1="3.6" y1="-19.5" x2="3.6" y2="-16.5"/>
		<line class="st2" x1="54" y1="-12.3" x2="54" y2="-9.3"/>
		<line class="st2" x1="39.6" y1="-12.3" x2="39.6" y2="-9.3"/>
		<line class="st2" x1="25.2" y1="-12.3" x2="25.2" y2="-9.3"/>
		<line class="st2" x1="10.8" y1="-12.3" x2="10.8" y2="-9.3"/>
		<line class="st2" x1="46.8" y1="-5.1" x2="46.8" y2="-2.1"/>
		<line class="st2" x1="32.4" y1="-5.1" x2="32.4" y2="-2.1"/>
		<line class="st2" x1="18" y1="-5.1" x2="18" y2="-2.1"/>
		<line class="st2" x1="3.6" y1="-5.1" x2="3.6" y2="-2.1"/>
	</g>
</pattern>
<g id="Lager_1">
	<rect x="-1.9" y="-0.2" class="st3" width="3460" height="1928"/>
</g>
<g id="Lager_2">
	<pattern  id="SVGID_1_" xlink:href="#Kors" patternTransform="matrix(1.3008 0 0 1.3008 3177.0527 1847.7051)">
	</pattern>
	<path class="st7" d="M3,782.3c0,0,433.7-20.6,667.4-9.6c142.5,6.7,450.8,17.2,292.8,166.3c-145.7,158.6-294.2,254.8-345.1,282.5
		c-50.9,27.7-180.3,79.8-273.6,92.1S3,1298.5,3,1298.5V782.3z"/>
	<g>
		<rect x="632.7" y="645.6" class="st8" width="8.7" height="162.6"/>
		<polygon class="st9" points="162.7,757.1 162.7,817.6 192.8,830 192.8,849.5 404.8,845.5 404.8,757.1 		"/>
		<polygon class="st8" points="391.6,758.6 407.7,702.9 387.9,674.3 226.8,674.3 207.9,688.6 165.8,692.6 167.2,758.6 		"/>
		<polygon class="st10" points="400.8,704.6 391.6,740.2 372.7,740.2 372.7,704.6 		"/>
		<rect x="346.8" y="704.6" class="st10" width="21.2" height="35.6"/>
		<rect x="320.3" y="704.6" class="st10" width="21.2" height="35.6"/>
		<rect x="293.8" y="704.6" class="st10" width="21.2" height="35.6"/>
		<rect x="268.5" y="704.6" class="st10" width="21.2" height="15.4"/>
		<rect x="242.6" y="704.6" class="st10" width="21.2" height="15.4"/>
		<rect x="216.2" y="704.6" class="st10" width="21.2" height="15.4"/>
		<rect x="190.7" y="704.6" class="st10" width="21.2" height="15.4"/>
		<polygon class="st10" points="176.5,720 186.4,720 186.2,704.6 174.8,704.6 		"/>
		<path class="st10" d="M54.7,852.3l20.4,73h622.6l111.8-147.4c0,0-496.3,73.7-595,49.2l-23.1-14.3H54.7V852.3z"/>
		<rect x="270.3" y="575.3" class="st8" width="8.7" height="99"/>
	</g>
	<path class="st5" d="M1.1,1203.7C1.1,1167,165.2,935.4,346,1144S45.1,1265.7,45.1,1265.7S1,1240.4,1.1,1203.7z"/>
	<g>
		<path class="st11" d="M297.8,999.1c0,0,7.3-8.6-13.7-13.2c-10.5-2.3-18.1,1.7-21.8,5.1c-1,0.9-2.1,3.5-2.7,4.5
			c-0.2,0.3-2.9,1.6-3.1,2c-1,1.9,0.1,2.6-0.4,4.6c-0.3,1.5-0.5,2.9-0.4,4c0.1,3.8,1.3,9.4,1.8,12s0.3,8.1-1.8,10.9
			c-3.8,5.2-10.1,17.7-12,19.5c-1.3,1.2-46.6,3.8-70.4,6.4c-23.8,2.5-86.6,35.4-95.7,41.9s-18.9,15.6-15.1,17.7
			c1.8,1,10.4-3.3,11.3-2c1,1.3-6.1,8.4-3.2,9.4c17.3,5.5,47.7-6.1,58.1-16.4c17.4,0,47.6,1,47.6,1s35.7,27.8,77.8,22.5
			c6.2-0.8,12.3,9.2,12.3,9.2s-17.7,3.9-22.2,3.6s-9.2,2.7-9.2,5.2c0,0.6-7.4-1.3-7.6,1.6c-0.1,1-5.7,1.2-3,5
			c-3.2,0-4.5,0.5-4.9,2.2c-0.8,3.1,28.1,18.1,71.5-5.6c7.7-4.2,1.5-23,1.5-23s1.6-1.5,4.5-4.7s1.8,3,6,3.3
			c41.2,3.8,38.3-8.1,39.4-12.6c1-3.7-2.3-12.2-9.1-16c-7.5-4.1-11.1-5.2-11.1-5.2s9.3-34.9-18.9-85.8"/>
		<path class="st8" d="M295.7,999.1c0,0-5.5-0.3-5.7,1s0.3,6.4,1.9,7.4c1.6,1,43.7,34.5,46.1,34
			C345.1,1040.2,318.5,1013.2,295.7,999.1z"/>
		<path class="st8" d="M281.5,1005c0,0-3.8,0.4-4.5,1.5c-0.7,1.1-3.5,3.9-2.7,6.9c0.5,1.8,27.3,50.2,29.7,50.8
			C310.9,1066.1,296.5,1025.8,281.5,1005z"/>
		<ellipse transform="matrix(0.738 -0.6748 0.6748 0.738 -601.8001 440.6621)" cx="266.5" cy="995.3" rx="2" ry="1.4"/>
		<ellipse transform="matrix(0.9585 -0.285 0.285 0.9585 -269.9488 120.8777)" cx="280.4" cy="988.1" rx="2" ry="1.4"/>
		<path class="st12" d="M289.2,991.9c0,0,6.3-6.6,16.5-4"/>
		<path class="st12" d="M290.9,993.6c0,0,7.2-4.8,13-2.2"/>
		<path class="st12" d="M288.2,990c0,0,7.9-10.8,16.5-5.9"/>
		<path class="st12" d="M272.2,1003.3c0,0-9,1.8-12.2,11.9"/>
		<path class="st12" d="M272.7,1005.5c0,0-7.9,3.5-8.8,9.8"/>
		<path class="st12" d="M271.2,1001.4c0,0-13.3,0.9-13.8,10.8"/>
	</g>
	<g>
		<path class="st13" d="M948.7,1211.2c0.5-1.6,1.1-4,1.1-6.9c0-4.8-1.7-8.2-3.2-11.7c-1.6-3.7-3.6-9-5.3-15.9
			c-0.5-0.7-1.3-1.2-2.1-1.1c-1,0.1-1.5,1-1.6,1.1c-0.4,1.8-0.7,3.5-1.1,5.3c-0.3-1.5-1-4-3.2-5.3c-1.1-0.7-1.9-0.5-6.9-0.5
			c-5.4,0-6.2-0.2-7.4,0.5c-0.9,0.5-2.6,1.7-3.7,4.8c-0.2-1.6-0.4-3.2-0.5-4.8c-0.3-1-1.2-1.7-2.1-1.6c-1,0.1-1.5,1-1.6,1.1
			c-3.1,6.6-5.1,12.2-6.4,16.5c-1.6,5.2-2.1,8.3-2.1,11.7c0,3.3,0.6,6.1,1.1,8c3.7,2,11.5,5.3,21.8,5.3
			C936.7,1217.5,945.1,1213.3,948.7,1211.2z"/>
		<path class="st13" d="M818.7,1211.2c-0.5-1.6-1.1-4-1.1-6.9c0-4.8,1.7-8.2,3.2-11.7c1.6-3.7,3.6-9,5.3-15.9
			c0.5-0.7,1.3-1.2,2.1-1.1c1,0.1,1.5,1,1.6,1.1c0.4,1.8,0.7,3.5,1.1,5.3c0.3-1.5,1-4,3.2-5.3c1.1-0.7,1.9-0.5,6.9-0.5
			c5.4,0,6.2-0.2,7.4,0.5c0.9,0.5,2.6,1.7,3.7,4.8c0.2-1.6,0.4-3.2,0.5-4.8c0.3-1,1.2-1.7,2.1-1.6c1,0.1,1.5,1,1.6,1.1
			c3.1,6.6,5.1,12.2,6.4,16.5c1.6,5.2,2.1,8.3,2.1,11.7c0,3.3-0.6,6.1-1.1,8c-3.7,2-11.5,5.3-21.8,5.3
			C830.7,1217.6,822.4,1213.4,818.7,1211.2z"/>
		<g>
			<path class="st13" d="M825.3,755.7c1.2,2.8,3.5,6.9,7.5,10.9c5,5,10.3,7.3,13.4,8.4c18.4-0.8,36.9-1.7,55.3-2.5
				c2.3-0.7,7.9-2.8,12.6-8.4c4.2-5,5.4-10.1,5.9-12.6c-3-4.5-7.8-11-15.1-17.6c-10.5-9.5-21-18.9-35.2-18.4
				c-19.9,0.6-33.6,20.2-36,25.1c-0.2,0.4-1.1,2.3-2.5,5C828.9,749.9,826.9,753.4,825.3,755.7z"/>
			<path class="st10" d="M856.6,789.6c11.1-0.1,22.1-0.2,33.2-0.3c5.9,0.3,11.7,0.6,17.6,0.8c-1.1,4.7-2.6,12-3.3,20.9
				c-1.2,14.9,1.5,17.4-1,27.7c-2.3,9.4-6.8,18.4-12,26.6c-2.4,3.8-7.3,8.9-11.7,10.4c-7.8,2.6-12.9-0.3-18.1-6.1
				c-8.8-9.7-15.5-23.8-13.6-37.1c1.1-8.2,4.4-16.1,5.7-24.2C854.2,802.1,854.7,795.6,856.6,789.6z"/>
			<path class="st14" d="M875.4,803.2c-7.7,0.2-14.9-4.1-18.4-11c0-4.5,0-9,0-13.5c0-3.3,2.7-6,6-6h23.9c3.3,0,6,2.7,6,6
				c0,4.5,0,9,0,13.5C889.4,798.8,882.7,803.1,875.4,803.2z"/>
			<path class="st10" d="M820.4,933.9c-0.8,0.8-1.8,2-2.7,3.5c0,0-1.1,2-1.7,4.3c-5.5,21.9-2.8,56.4-2.8,56.4
				c-1.1,21.4-1.7,43.6-1.8,66.4c-0.2,42.3,1.3,82.5,4,120.1c6,2.6,15.2,5.6,26.8,6.5c13.4,1,24.3-1.5,31-3.6
				c-3-40.8-6-81.6-8.9-122.4c3.6-23,7.3-46,10.9-68.9c6.6,22.6,13.3,45.2,19.9,67.8c1.3,40.9,2.7,81.9,4,122.8
				c5.8,2.5,16.2,6,29.5,5.8c11.6-0.2,20.8-3.1,26.4-5.4c-2-23.6-4.9-59.5-7.6-104.7c-0.8-14.3-1.3-21.4-1.3-23.2
				c0,0-4.3-103.9-12.5-120.4c0-0.1-2-4.1-2-4.1l0,0c-0.7-0.8-1.5-1.4-2-1.7C893.1,933.4,856.8,933.6,820.4,933.9z"/>
			<path class="st15" d="M899,934.8c-14.1,0.1-28.2,0.2-42.2,0.3c0.8-32.9,1.6-65.9,2.4-98.8c6,12.6,12,25.2,18.1,37.8
				c5.6-10.8,11.1-21.6,16.7-32.4C895.6,872.8,897.3,903.8,899,934.8z"/>
			<path class="st8" d="M846.3,773.5c-2.2-2.1-3.6-4.1-4.4-5.5c-3.2-5.1-4.3-10.4-5.1-14.3c-0.1-0.4-0.2-1-0.4-1.9
				c-0.1-0.6-0.3-1.3-0.5-2.3c-0.5-2.4-1.1-5.2-1.3-5.9c2.5-3.6,5.1-7.9,7.5-13c1.4-2.9,2.5-5.8,3.4-8.4c1.1-2.1,2.2-4.1,3.3-6.2
				c2.4,0.6,4.9,1,7.6,1.4c13.1,1.6,24.4-1.2,32.2-4c0.6-0.1,2.8-0.3,4.9,1c1.4,0.9,2.1,2.2,2.4,2.8c0.9,1.8,0.9,3.4,0.8,4.2
				c4.5,5.4,9,10.7,13.5,16.1c0.7,4.5,1.4,13.2-2.4,22.8c-1.7,4.3-3.9,7.7-5.8,10.2c-6.6-2.7-35.3-13.9-52.1-0.3
				C848.6,771.1,847.4,772.2,846.3,773.5z"/>
			<path class="st16" d="M843,754.8c-1.8-1.5-5.5-6.9-8.5-4c-3,3,2.7,10.5,4.8,12.6c1.8,1.8,4.4,2.9,5.5,0.1
				C845.9,761,844.9,755.4,843,754.8z"/>
			<path class="st16" d="M906.6,750.2c0,6.6-1.3,11.6-1.6,12.8c-1.3,4.6-3.1,7.8-3.7,8.9c-1,1.8-2.5,3.9-4.4,6.1
				c-1.8,2-5.2,5.8-10.9,8.5c-1.9,0.9-6.1,2.9-11.9,3.1c-8.2,0.3-14.1-3.1-16-4.2c-0.4-0.2-1.2-0.7-2.1-1.4c-1.6-1.1-6-4.4-9.5-10.4
				c-1.1-1.9-2.4-4.6-3.4-8.2c-1-3.1-2.1-7.7-2.5-13.2c-0.5-7.9-1.3-18.9,5.9-28.2c9.1-11.6,23.4-12.1,25.6-12.2
				c1.8,0,16.6-0.1,26.8,11.8C906.6,732.8,906.6,743.9,906.6,750.2z"/>
			<path d="M888.7,745.1c1.5,0.4,2.6,1.2,3.2,1.8c-0.3-0.6-0.9-1.7-2.1-2.5c-0.4-0.3-2.5-1.9-5-1.2c-0.4,0.1-1.7,0.4-2.5,1.7
				c-0.2,0.3-0.5,0.9-0.5,1.7c0,1.4,1.1,2.5,2.5,2.5c0.3,0,0.6-0.1,0.9-0.2c1-0.3,1.6-1.2,1.6-2.3c0-0.7-0.3-1.2-0.7-1.7
				C886.7,744.7,887.6,744.8,888.7,745.1z"/>
			<path d="M863.2,746.8c-0.3-0.6-0.9-1.7-2.1-2.5c-0.4-0.3-2.5-1.9-5-1.2c-0.4,0.1-1.7,0.4-2.5,1.7c-0.2,0.3-0.5,0.9-0.5,1.7
				c0,1.4,1.1,2.5,2.5,2.5c1.7,0,2.5-1.7,2.5-2.5c0-0.4-0.1-0.7-0.1-0.7c-0.1-0.5-0.4-0.8-0.6-1c0.7,0,1.6,0,2.6,0.3
				C861.6,745.5,862.6,746.3,863.2,746.8z"/>
			<path class="st14" d="M872.6,775c-6.5,0.2-11-3.2-12.3-4.2c7.9-0.1,15.8-0.3,23.7-0.4C882.8,771.5,878.7,774.8,872.6,775z"/>
			<path class="st8" d="M848.7,731.7c-0.8,2.6-1,3.3-1.6,4.2c-0.1,0.1-0.8,1-1.1,0.9c-0.2-0.1-0.1-0.8,0-1.2c-1.7,1.3-2.6,3.2-3,5.2
				c-0.5,2.3-0.3,4.2,0.1,6.2c0.4,2.2,1,3.9,1.5,5c-0.1,1.2-0.4,2.8-1.4,4.4c-0.2,0.4-0.4,0.7-0.7,1c-0.2-0.9-0.5-1.9-1-3.1
				c-0.4-1-0.9-1.7-1.4-2.4c-0.5-2.4-1.2-5.7-1.5-9.7c-0.4-5.3-0.6-7.9,0.4-10.9c1.2-3.7,3.6-6.7,6.6-9.2c1.2-1,5.3-5.4,6.4-4.6
				c0.6,0.4-0.2,2.1-2,8.9C849.2,729.9,849.2,730.1,848.7,731.7z"/>
			<path class="st16" d="M902.7,753c1.8-1.5,5.5-6.9,8.5-4c3,3-2.7,10.5-4.8,12.6c-1.8,1.8-4.4,2.9-5.5,0.1
				C899.9,759.2,900.8,753.6,902.7,753z"/>
			<path class="st8" d="M866.6,761.7c-1.4,0.2-1.7,0.6-6.7,2.8c-3.2,1.4-4.5,1.9-6.1,1.7c-1.3-0.2-2.3-0.7-2.9-1.1
				c0.8,0.9,2.1,2,3.9,2.8c1,0.4,3.5,1.5,6.5,0.7c1.1-0.3,1.9-0.7,2.4-1c0,0.1,0.1,0.4,0,0.7c-0.2,0.5-0.6,0.7-0.7,0.7
				c1.3,0.2,4.5,0.5,7.5-1.4c0.7-0.4,1.2-0.9,1.7-1.4c0.7,0.5,1.7,1.2,3.1,1.7c2.4,0.8,4.4,0.5,5.5,0.3c-0.3-0.1-0.7-0.2-1-0.3
				c-0.6-0.3-1.2-0.5-1.6-0.8c1.7,0.4,3.1,0.5,4,0.5c2,0,3.5-0.5,6.1-1.4c1.6-0.5,2.9-1,3.7-1.4c-4.1,0.2-7-0.6-8.9-1.4
				c-2.1-0.9-3.6-2-6.1-2c-1.9,0-3.4,0.5-4.4,1C870.8,761.9,868.8,761.4,866.6,761.7z"/>
			<line class="st18" x1="877.2" y1="874.1" x2="877.2" y2="935.1"/>
			<circle class="st19" cx="873.3" cy="878.4" r="2"/>
			<circle class="st19" cx="873.5" cy="902.7" r="2"/>
			<circle class="st19" cx="872.5" cy="928" r="2"/>
			<path class="st8" d="M896,729.8c1.4,3,2.9,5.3,3.9,6.7c-0.5-1.1-0.8-1.9-0.8-3.2c1.8,1.1,3,2.8,3.6,4.8c0.7,2.2,0.8,4.1,0.6,6.1
				c-0.1,2.2-0.5,4-0.9,5.2c0.2,1.2,0.7,2.7,1.9,4.2c0.3,0.3,0.5,0.7,0.8,0.9c0.1-0.9,0.3-2,0.6-3.2c0.3-1,0.7-1.8,1.1-2.5
				c0.2-2.4,0.5-5.8,0.3-9.8c-0.2-5.3-0.4-7.9-1.7-10.8c-1.6-3.5-4.4-6.2-7.6-8.3c-1.3-0.9-5.9-4.7-6.9-3.8c-0.6,0.5,0.5,2,3,8.6
				C895.3,728,895.3,728.3,896,729.8z"/>
			<path class="st13" d="M770.4,917.1c0.3,0,0.7,0.1,1.2,0.1c1.4,0.1,9.2,0.7,15-3.3c3.2-2.2,4.7-4.9,5.8-7.7c1-2.9,1.6-5.6,1.9-8.1
				c0.4-4.4-0.3-7.4-1.5-12.7c-1.8-8.3-2.7-12.5-3-13.6c-1-3.8-1.2-3.7-5.6-16.9c-2.7-8-3.2-9.8-4.8-14c-1.6-4.2-3.1-7.6-4.1-10
				c-2.3,1.4-5.9,3.3-10.5,4.7c-4.6,1.4-8.4,1.9-11,2c0,11.7,1.1,24.7,3.8,38.4c1.2,5.8,2.6,11.3,4.1,16.5
				C764.5,900.7,767.5,908.9,770.4,917.1z"/>
			<path class="st13" d="M803.1,811.4c-7.3,16.1-13.3,28.7-17.2,36.7c-9.9,20.6-14.1,28.2-14.7,40.2c-0.6,11.2,2.1,20.5,4.4,26.3
				c1.8,0.6,4.9,1.3,8.7,0.8c6.1-0.8,10.1-4.3,11.5-5.7c4.6-5.5,9.5-12.1,14.3-20.1c3.9-6.5,6.9-12.6,9.3-18.2
				c-0.2-8.4-0.8-15.5-1.2-20.7c-1.8-20.9-4-28.1-9.5-34.1C806.5,814.2,804.5,812.5,803.1,811.4z"/>
			<path class="st13" d="M856.8,789.3c-4.9-0.3-10.5-0.4-16.7,0c-5.1,0.3-9.8,1-14,1.7c-2.7,0.5-4.9,1.5-6.1,2
				c-9.2,3.9-14.8,14.1-16.8,18.4c1.2,55.7,2.5,111.4,3.7,167.1c20.3,1.8,42.7,2.9,67,2.5c26.3-0.4,50.4-2.3,72-5
				c-40.3-22.1-54.6-46-60.3-63.7c-6.9-21.7,2.3-38.4-10.1-72C869.3,823.3,863.1,806.3,856.8,789.3z"/>
			<path class="st8" d="M842.1,755.7c0.4,1.3,1,3.3,1.7,5.9c1.8,7.3,1.3,9.3,2.5,12.6c2,5.7,6.8,8.8,10.1,10.9
				c7.1,4.6,14.3,5.1,17.6,5c3.8-0.4,11.4-1.9,18.4-7.5c13.8-11.1,13.5-28.7,13.4-31c-1.1-0.6-2.2-1.1-3.4-1.7
				c-0.6,2.7-2.4,10-6.7,12.6c-0.6,0.4-2.6,1.4-5,2.5c-1.7,0.8-3.2,1.3-4.2,1.7c2.9,2.1,3.4,3.9,3.4,5c-0.2,4.6-9.7,8.3-17.6,8.4
				c-6.5,0-15.7-2.4-16.8-7.5c-0.3-1.5,0.2-3,0.8-4.2c-0.8-0.6-1.7-1.1-2.5-1.7c-1.3-1.4-2.8-3.1-4.2-5c-2.4-3.3-4-6.6-5-9.2
				C843.7,753.5,842.9,754.6,842.1,755.7z"/>
			<path class="st10" d="M836.2,744c5.3-4.9,19.1-11.8,28.5-14.2c1.6-0.4,3.5-0.8,5.9-0.8c3-0.1,5.4,0.5,6.7,0.8
				c13.8,3.5,27.6,10.1,27.6,10.1c3.3,1.6,5.7,2.9,8.4,5c2.2,1.7,3.9,3.4,5.2,4.9c0.9,1,1.4,1.9,1.5,1.9c0.2-0.1-1.7-3.8-3.4-6.7
				c-5.8-10.4-7.2-9.9-9.2-15.1c-2-4.9-0.8-5.4-3.4-12.6c-1.1-3.1-2.2-6-4.2-9.2c-4.1-6.5-9.4-10-10.9-10.9
				c-8.9-5.5-17.8-5.2-20.9-5c-3.2,0.2-10.9,0.7-18.4,5.9c-2,1.4-7.6,5.3-10.9,12.6c-1.8,3.9-2.3,7.5-2.5,9.2
				c-0.9,6.5,0.6,8.8-0.8,14.2c-0.5,2-1,2.6-3.4,7.5c-1.6,3.4-4,8.2-6.7,14.2c1.2-1.5,2.2-2.6,2.9-3.5c0.4-0.5,0.9-1,1.3-1.5
				c0.1-0.2,0.8-0.8,1.7-1.8C833.8,746.3,835.9,744.3,836.2,744z"/>
			<g>
				<path class="st20" d="M762.8,958.3c7-7.9,23.6-28.9,27.2-60.5c5.2-45-20-77.2-25.1-83.5c-4.7,5-34.2,37.3-29.4,83.9
					C738.7,930,756.1,950.9,762.8,958.3z"/>
				<path class="st21" d="M778.5,774.7c0.7,4.3,1.7,13.8-2.6,24.5c-3.2,7.9-7.9,13.1-10.9,15.9c-3.1-1-9.5-3.6-14.9-9.7
					c-7.7-8.7-8.5-18.7-8.6-21.7c7.1,6,14.3,12,21.4,18C768.1,792.7,773.3,783.7,778.5,774.7z"/>
				<path class="st22" d="M768.3,911.9c-0.8-0.6-4.8-3.7-9.5-2.8c-5.6,1.1-10.1,7.2-9.7,14.8"/>
				<circle class="st23" cx="767.9" cy="928.1" r="3.7"/>
				<path class="st21" d="M767.9,885.5c0.7-9.3,1.3-18.6,2-27.9c-2.2,3.3-4.5,6.6-6.7,9.9c-1.1-1.3-2.3-2.6-3.4-3.8
					c-1.1,3.2-2.2,6.4-3.2,9.6c-1.2-0.5-2.4-1-3.6-1.5c1.9,6.7,4.9,10.9,7,13.2c3.6,4.1,5.2,3.7,5.6,3.6
					C767,888.1,767.7,886.4,767.9,885.5z"/>
				<path class="st21" d="M786.7,914.7c5.4-8.7,10.7-17.4,16.1-26.1c-2.1,0.5-4.1,1.1-6.2,1.6c2.1-5.5,4.2-11,6.4-16.5
					c-2,0.7-4.1,1.5-6.1,2.2c0.8-5.4,1.6-10.8,2.4-16.2c-1.7,1.1-3.3,2.3-5,3.4c0.1-5,0.1-9.9,0.2-14.9c-2.6,2.8-5.2,5.6-7.8,8.4
					c2,7.3,4,17.6,3.9,29.9C790.5,898.1,788.6,907.7,786.7,914.7z"/>
			</g>
			<path class="st16" d="M776.2,831.7c-0.4-3.5-0.3-8.3-2.8-11c-1.4-1.5-3.7-2.2-5.6-2.9c-1-0.4-4.3-1.8-5.3-1.3
				c-2.6,1.4,1.5,5.5,2.9,6.3c2.2,1.2,4.7,1.1,6.3,3c1,1.2,1.4,3,2.4,4.1C774.7,830.8,775.6,831.1,776.2,831.7z"/>
			<path class="st16" d="M760.7,818.8c-0.8-1.6-3-2.2-4.4-1.1c-1.2,0.9-1,2.2-1.5,3.4c-1.8,0.1-2.9,0.2-4,1.9
				c-0.9,1.4-0.8,2.5-0.3,3.9c-1.1,0-1.9,0.4-2.3,1.5c-0.3,0.8-0.6,3.5,0.3,4c-1.2,0-1.5,1.3-1.5,2.3c-0.1,2.2,1.6,3.7,3.3,4.8
				c1.2,0.8,2.9,1.7,4,0.4c0.8-1,0.5-3.1-0.9-3.5c0.9,1,2.9,1,3.8,0.2c1.8-1.8,0.5-3.4-0.7-4.9c1.2,0.8,2.7,1.1,3.5-0.4
				c1.1-1.8,0.4-2.9-0.5-4.4c1,0,2,0.9,3.1,0.3c0.9-0.6,1-2.4,0.9-3.3C763.1,821.8,761.1,820,760.7,818.8z"/>
			<path class="st16" d="M955.1,955.7c-0.1,1.3,0.4,2.6,0.2,3.9c-0.3,2.4-2.1,4.6-3.4,6.5c-2.3,3.3-2.1,6.9-2.4,10.8
				c-0.1,2-0.3,3.9-0.2,5.9c0.1,1.7,0.4,3.5,0.1,5.1c-0.2,1.2-0.9,2.6-0.3,3.3c0.4,0.5,1.2,0.5,1.4,0.5c2.1-0.1,4-3.3,4.7-5.7
				c0.9-2.8,0.1-3.7,0.1-8.4c0-5.5-0.1-9.5,1.6-13.4c0.2-0.5,1.1-2.6,0.8-5c-0.2-1.8-0.9-2.6-1.3-2.9
				C956,956,955.5,955.8,955.1,955.7z"/>
			<path class="st13" d="M893.2,788.4c-5.9,17.3-11.7,34.6-17.6,51.9c0.7,23.8,1.2,47.8,1.7,72c0.4,22.2,0.7,44.3,0.8,66.2
				c22.6-0.8,45.2-1.7,67.9-2.5c-2.5-27.1-5-54.2-7.5-81.3c0.9,4,2.1,9.4,3.5,15.9c0.7,3.2,3.2,14.7,6.4,30.3
				c1.5,7.1,2.7,12.9,3.4,16.7c5.3-0.3,10.9-0.4,16.8-0.4c4.3,0,8.5,0.1,12.6,0.3c-1.2-25-4.3-52.6-10.3-82.1
				c-2-9.7-4.1-19-6.5-27.9c0,0-6.5-22.9-18.4-41.6c-2.6-4.1-6.7-9.9-13.6-12.9c-2.4-1.1-4.9-1.8-6.1-2c-5.7-1-10-1.6-14-1.7
				C907.9,789.2,901.6,789,893.2,788.4z"/>
			<path class="st16" d="M953.8,970c-1.7,4.2,5.7,12.5,3,16.1c-0.2,0.3-2,2.6-1.7,5c0.1,0.5,0.2,1.3,0.8,1.7c0.7,0.4,1.5,0.1,1.7,0
				c-0.3,0.9,0,2,0.8,2.5c0.7,0.5,1.7,0.5,2.5,0c0.2,0.3,0.4,0.7,0.8,0.8c1.3,0.5,3.2-1.2,5-3.4c5-5.6,7.5-8.4,8-12.2
				c0.5-3.7-0.9-7.7-2.1-12.7c-0.3-1.1-0.8-2.8-0.9-5.2c-0.1-2.5,0.4-4.5,0.8-5.9c-1.4,0-2.8,0-4.2,0c-4-0.2-7.1,0.8-11.8,0.3
				C955.1,973.9,955.8,965.2,953.8,970z"/>
			<path class="st13" d="M970.2,944.2c-0.8-0.6-1.7-1.2-2.5-1.7c-0.6,4.7-1.1,9.5-1.7,14.2c4.7,0.3,9.5,0.6,14.2,0.8
				C978.7,953.6,975.7,948.3,970.2,944.2z"/>
		</g>
	</g>
	<g>
		<path class="st21" d="M598.2,380.8c-15.6,9-20.3,6-30.1,12.8c-10.3,7.2-14.7,17.2-15,18c4.6-2.8,11.9-5.3,23.6-4.3
			c2.8,0.2,5.7,0.3,8.3,0.5c7.5-10.6,18.1-18.5,23.5-28C609.9,373.3,600.3,379.6,598.2,380.8z"/>
		<path class="st21" d="M606.8,428.5c-1-0.1-5.3-4.3-7.3-4.4c-2-0.2-7.5,2.5-9.3,4c-5.2,4.6-21.4,5-21.4,5l-2-0.2
			c-11.1,13.6-69.5,75.1-66.3,56.5c3.6-20.4,31.2-46.7,30.5-50.4c-0.6-3.7,1.5-10.5,1.5-10.5s-24.6,0.1-22.3-2.1
			c2.7-2.5,8.5-5.5,10.4-8.3c1-1.5-0.4-9.5-0.4-9.5l22.4,5l10.2-2.1c4.5-2.9,11.9-5.4,23.8-4.4c4,0.3,8.1,0.3,11.6,0.9
			c16.4,2.6,10.8,11.2,15.5,13.8C607.8,424.2,607.9,428.6,606.8,428.5z"/>
	</g>
</g>
</svg>
