<?xml version="1.0" encoding="utf-8"?>
<!-- Generator: Adobe Illustrator 26.2.1, SVG Export Plug-In . SVG Version: 6.00 Build 0)  -->
<svg version="1.1" xmlns="http://www.w3.org/2000/svg" xmlns:xlink="http://www.w3.org/1999/xlink" x="0px" y="0px"
	 viewBox="0 0 3458.3 1927.6" style="enable-background:new 0 0 3458.3 1927.6;" xml:space="preserve">
<style type="text/css">
	.st0{fill:none;}
	.st1{fill:#0F7ABD;}
	.st2{opacity:0.5;fill:none;stroke:#FFFFFF;stroke-width:0.3;}
	.st3{fill:#0669B1;}
	.st4{fill:#64BFC1;}
	.st5{fill:#095F93;}
	.st6{opacity:0.2;fill:#5B9ED6;}
	.st7{opacity:0.94;fill:url(#SVGID_1_);}
	.st8{fill:#FFFFFF;}
	.st9{fill:#7AB7E2;}
	.st10{fill:#5B9ED6;}
	.st11{fill:#69574B;}
	.st12{fill:none;stroke:#FFFFFF;stroke-miterlimit:10;}
	.st13{fill:#045C83;}
	.st14{fill:#C9A593;}
	.st15{fill:#E9660B;}
	.st16{fill:#E5BCA4;}
	.st17{fill:#3C2313;}
	.st18{fill:none;stroke:#AB1917;stroke-linecap:round;stroke-linejoin:round;stroke-miterlimit:10;}
	.st19{fill:#AB1917;}
	.st20{fill:#4CB0E4;}
	.st21{fill:#1990CF;stroke:#1990CF;stroke-width:2;stroke-linecap:round;stroke-linejoin:round;stroke-miterlimit:10;}
	.st22{fill:none;stroke:#1990CF;stroke-width:3;stroke-linecap:round;stroke-linejoin:round;stroke-miterlimit:10;}
	.st23{fill:#1990CF;}
	.st24{opacity:0.94;fill:url(#SVGID_00000105410683082389908730000017612423773339135389_);}
	.st25{clip-path:url(#SVGID_00000044891591748184780590000017850584614245917884_);}
	.st26{fill:#4BAFE3;}
	.st27{fill:#1D8ECE;stroke:#1D8ECE;stroke-width:2;stroke-linecap:round;stroke-linejoin:round;stroke-miterlimit:10;}
	.st28{fill:none;stroke:#1D8ECE;stroke-width:3;stroke-linecap:round;stroke-linejoin:round;stroke-miterlimit:10;}
	.st29{fill:#1D8ECE;}
	.st30{fill:none;stroke:#095F93;stroke-width:2;stroke-miterlimit:10;}
	.st31{clip-path:url(#SVGID_00000009557255467505347500000008194118474543247249_);}
	.st32{clip-path:url(#SVGID_00000003097813028876499070000002234077515482373563_);}
	.st33{fill:#0B72B2;}
	.st34{fill:#0B79BC;}
	.st35{fill:#5FB353;}
	.st36{opacity:0.94;fill:url(#SVGID_00000127765681175528087540000016384181848332397734_);}
	.st37{fill:#025D86;}
	.st38{fill:#0569B0;}
	.st39{fill:#DEBAA1;}
	.st40{fill:#F4CBAB;}
	.st41{fill:#D4976E;}
	.st42{fill:#096199;}
	.st43{fill:#D09E61;}
	.st44{fill:#AF793B;}
	.st45{fill:#EAC295;}
	.st46{fill:#F4A304;}
	.st47{opacity:0.94;fill:url(#SVGID_00000150081774919810709290000005852744702939906946_);}
	.st48{opacity:0.94;fill:url(#SVGID_00000072241432878671982280000006779652359541354374_);}
	.st49{fill:none;stroke:#095F93;stroke-width:1.5;stroke-miterlimit:10;}
	.st50{fill:none;stroke:#095F93;stroke-miterlimit:10;}
	.st51{fill:#086096;}
	.st52{fill:#5BA0D7;}
	.st53{fill:none;stroke:#1D1E1C;stroke-width:0.5;stroke-miterlimit:10;}
	.st54{fill:#53302C;}
	.st55{fill:#4DB2E6;}
	.st56{fill:#90573F;}
	.st57{fill:#AB1917;stroke:#0669B1;stroke-linecap:round;stroke-linejoin:round;stroke-miterlimit:10;}
	.st58{fill:none;stroke:#000000;stroke-linecap:round;stroke-linejoin:round;stroke-miterlimit:10;}
	.st59{fill:#F4CBAC;}
	.st60{fill:#0469B1;}
	.st61{fill:#DFBAA2;}
	.st62{fill:#D5986F;}
	.st63{fill:#D1A794;}
	.st64{fill:#D7E0EE;}
	.st65{opacity:0.33;fill:#E2EBF8;stroke:#B5BBC5;stroke-width:5;stroke-miterlimit:10;}
	.st66{fill:#CECC90;}
	.st67{fill:#E7E890;}
	.st68{fill:#479535;}
	.st69{fill:#E7E7E8;}
	.st70{opacity:0.49;}
	.st71{fill:#C9CED3;}
	.st72{clip-path:url(#SVGID_00000042701584822123025830000012359774970981636510_);}
	.st73{fill:none;stroke:#FFFFFF;stroke-width:2;stroke-linecap:round;stroke-miterlimit:10;}
	.st74{clip-path:url(#SVGID_00000103958827444408835260000015693454220267615663_);}
	.st75{clip-path:url(#SVGID_00000070118487153400026160000006143191139527285423_);}
	.st76{fill:#FFFFFF;stroke:#FFFFFF;stroke-miterlimit:10;}
	.st77{fill:#B06A26;}
	.st78{fill:#B9793D;}
	.st79{fill:#9F561A;}
	.st80{fill:#1892D1;}
	.st81{fill:#1D1D1B;}
	.st82{fill:none;stroke:#0669B1;stroke-width:10;stroke-miterlimit:10;}
	.st83{fill:none;stroke:#0669B1;stroke-width:10;stroke-miterlimit:10;stroke-dasharray:20.4087,20.4087;}
	.st84{fill:none;stroke:#0669B1;stroke-width:5;stroke-miterlimit:10;}
	.st85{fill:none;stroke:#0669B1;stroke-width:5;stroke-miterlimit:10;stroke-dasharray:10.0885,10.0885;}
	.st86{fill:none;stroke:#0669B1;stroke-width:2.5;stroke-miterlimit:10;}
	.st87{fill:none;stroke:#086096;stroke-width:2;stroke-miterlimit:10;}
	.st88{fill:none;stroke:#0669B1;stroke-width:10;stroke-miterlimit:10;stroke-dasharray:20.2919,20.2919;}
	.st89{fill:none;stroke:#0669B1;stroke-width:5;stroke-miterlimit:10;stroke-dasharray:9.8933,9.8933;}
	.st90{fill:none;stroke:#0669B1;stroke-width:2;stroke-miterlimit:10;}
</style>
<pattern  x="4927.1" y="-1858.2" width="57.6" height="57.6" patternUnits="userSpaceOnUse" id="Kors" viewBox="0 -57.6 57.6 57.6" style="overflow:visible;">
	<g>
		<rect x="0" y="-57.6" class="st0" width="57.6" height="57.6"/>
		<rect x="0" y="-57.6" class="st1" width="57.6" height="57.6"/>
		<line class="st2" x1="52.5" y1="-54" x2="55.5" y2="-54"/>
		<line class="st2" x1="38.1" y1="-54" x2="41.1" y2="-54"/>
		<line class="st2" x1="23.7" y1="-54" x2="26.7" y2="-54"/>
		<line class="st2" x1="9.3" y1="-54" x2="12.3" y2="-54"/>
		<line class="st2" x1="45.3" y1="-46.8" x2="48.3" y2="-46.8"/>
		<line class="st2" x1="30.9" y1="-46.8" x2="33.9" y2="-46.8"/>
		<line class="st2" x1="16.5" y1="-46.8" x2="19.5" y2="-46.8"/>
		<line class="st2" x1="2.1" y1="-46.8" x2="5.1" y2="-46.8"/>
		<line class="st2" x1="52.5" y1="-39.6" x2="55.5" y2="-39.6"/>
		<line class="st2" x1="38.1" y1="-39.6" x2="41.1" y2="-39.6"/>
		<line class="st2" x1="23.7" y1="-39.6" x2="26.7" y2="-39.6"/>
		<line class="st2" x1="9.3" y1="-39.6" x2="12.3" y2="-39.6"/>
		<line class="st2" x1="45.3" y1="-32.4" x2="48.3" y2="-32.4"/>
		<line class="st2" x1="30.9" y1="-32.4" x2="33.9" y2="-32.4"/>
		<line class="st2" x1="16.5" y1="-32.4" x2="19.5" y2="-32.4"/>
		<line class="st2" x1="2.1" y1="-32.4" x2="5.1" y2="-32.4"/>
		<line class="st2" x1="52.5" y1="-25.2" x2="55.5" y2="-25.2"/>
		<line class="st2" x1="38.1" y1="-25.2" x2="41.1" y2="-25.2"/>
		<line class="st2" x1="23.7" y1="-25.2" x2="26.7" y2="-25.2"/>
		<line class="st2" x1="9.3" y1="-25.2" x2="12.3" y2="-25.2"/>
		<line class="st2" x1="45.3" y1="-18" x2="48.3" y2="-18"/>
		<line class="st2" x1="30.9" y1="-18" x2="33.9" y2="-18"/>
		<line class="st2" x1="16.5" y1="-18" x2="19.5" y2="-18"/>
		<line class="st2" x1="2.1" y1="-18" x2="5.1" y2="-18"/>
		<line class="st2" x1="52.5" y1="-10.8" x2="55.5" y2="-10.8"/>
		<line class="st2" x1="38.1" y1="-10.8" x2="41.1" y2="-10.8"/>
		<line class="st2" x1="23.7" y1="-10.8" x2="26.7" y2="-10.8"/>
		<line class="st2" x1="9.3" y1="-10.8" x2="12.3" y2="-10.8"/>
		<line class="st2" x1="45.3" y1="-3.6" x2="48.3" y2="-3.6"/>
		<line class="st2" x1="30.9" y1="-3.6" x2="33.9" y2="-3.6"/>
		<line class="st2" x1="16.5" y1="-3.6" x2="19.5" y2="-3.6"/>
		<line class="st2" x1="2.1" y1="-3.6" x2="5.1" y2="-3.6"/>
		<line class="st2" x1="54" y1="-55.5" x2="54" y2="-52.5"/>
		<line class="st2" x1="39.6" y1="-55.5" x2="39.6" y2="-52.5"/>
		<line class="st2" x1="25.2" y1="-55.5" x2="25.2" y2="-52.5"/>
		<line class="st2" x1="10.8" y1="-55.5" x2="10.8" y2="-52.5"/>
		<line class="st2" x1="46.8" y1="-48.3" x2="46.8" y2="-45.3"/>
		<line class="st2" x1="32.4" y1="-48.3" x2="32.4" y2="-45.3"/>
		<line class="st2" x1="18" y1="-48.3" x2="18" y2="-45.3"/>
		<line class="st2" x1="3.6" y1="-48.3" x2="3.6" y2="-45.3"/>
		<line class="st2" x1="54" y1="-41.1" x2="54" y2="-38.1"/>
		<line class="st2" x1="39.6" y1="-41.1" x2="39.6" y2="-38.1"/>
		<line class="st2" x1="25.2" y1="-41.1" x2="25.2" y2="-38.1"/>
		<line class="st2" x1="10.8" y1="-41.1" x2="10.8" y2="-38.1"/>
		<line class="st2" x1="46.8" y1="-33.9" x2="46.8" y2="-30.9"/>
		<line class="st2" x1="32.4" y1="-33.9" x2="32.4" y2="-30.9"/>
		<line class="st2" x1="18" y1="-33.9" x2="18" y2="-30.9"/>
		<line class="st2" x1="3.6" y1="-33.9" x2="3.6" y2="-30.9"/>
		<line class="st2" x1="54" y1="-26.7" x2="54" y2="-23.7"/>
		<line class="st2" x1="39.6" y1="-26.7" x2="39.6" y2="-23.7"/>
		<line class="st2" x1="25.2" y1="-26.7" x2="25.2" y2="-23.7"/>
		<line class="st2" x1="10.8" y1="-26.7" x2="10.8" y2="-23.7"/>
		<line class="st2" x1="46.8" y1="-19.5" x2="46.8" y2="-16.5"/>
		<line class="st2" x1="32.4" y1="-19.5" x2="32.4" y2="-16.5"/>
		<line class="st2" x1="18" y1="-19.5" x2="18" y2="-16.5"/>
		<line class="st2" x1="3.6" y1="-19.5" x2="3.6" y2="-16.5"/>
		<line class="st2" x1="54" y1="-12.3" x2="54" y2="-9.3"/>
		<line class="st2" x1="39.6" y1="-12.3" x2="39.6" y2="-9.3"/>
		<line class="st2" x1="25.2" y1="-12.3" x2="25.2" y2="-9.3"/>
		<line class="st2" x1="10.8" y1="-12.3" x2="10.8" y2="-9.3"/>
		<line class="st2" x1="46.8" y1="-5.1" x2="46.8" y2="-2.1"/>
		<line class="st2" x1="32.4" y1="-5.1" x2="32.4" y2="-2.1"/>
		<line class="st2" x1="18" y1="-5.1" x2="18" y2="-2.1"/>
		<line class="st2" x1="3.6" y1="-5.1" x2="3.6" y2="-2.1"/>
	</g>
</pattern>
<g id="Lager_1">
	<rect x="0.1" y="1.8" class="st3" width="3458" height="1926"/>
</g>
<g id="Lager_2">
	<pattern  id="SVGID_1_" xlink:href="#Kors" patternTransform="matrix(1.361 0 0 1.361 3307.355 1246.4031)">
	</pattern>
	<path class="st7" d="M54.1,845.8c0,0,399.8-40.1,644.3-28.6c149.1,7,573.1,55.4,407.8,211.4s-15.8,252.4-182.7,313.6
		c-161.9,59.3-566,54.7-566,54.7L0.1,1367.4l3-276.6L54.1,845.8z"/>
	<g>
		<g>
			<defs>
				<ellipse id="SVGID_00000019664375261194710620000017597784297984046515_" cx="837.8" cy="1107.2" rx="88" ry="43.6"/>
			</defs>
			<clipPath id="SVGID_00000069389781294717449610000004079776858909515178_">
				<use xlink:href="#SVGID_00000019664375261194710620000017597784297984046515_"  style="overflow:visible;"/>
			</clipPath>
			<g style="clip-path:url(#SVGID_00000069389781294717449610000004079776858909515178_);">
				<g>
					<path class="st26" d="M930.2,1113.3c1.9-3,7.3-10.4,17.3-14.5c14.3-5.8,27.1-0.6,29.6,0.5c-1.2,2-9.1,14.6-24.7,17.3
						C941.7,1118.6,933.2,1114.8,930.2,1113.3z"/>
					<path class="st27" d="M988.8,1091.3c-1.5,0.2-4.7,0.7-7.8,3.1c-2.3,1.8-3.6,3.8-4.2,5c0.6,0.9,2,2.8,4.6,4
						c3.6,1.7,6.9,1,7.9,0.8c-2.6-1.8-5.2-3.6-7.8-5.4C983.9,1096.3,986.4,1093.8,988.8,1091.3z"/>
					<path class="st28" d="M944.9,1107.2c0.3,0.2,1.7,1.2,1.8,2.9c0.2,1.9-1.4,4-3.9,4.5"/>
					<circle class="st29" cx="939.6" cy="1108.9" r="1.3"/>
					<path class="st27" d="M953.5,1104.9c3-1.1,6-2.2,9-3.2c-0.9,1-1.7,2.1-2.6,3.1c0.5,0.3,1,0.5,1.6,0.8c-1,0.6-1.9,1.3-2.9,1.9
						c0.3,0.4,0.5,0.7,0.8,1.1c-2.4,0-4-0.6-5-1.1c-1.7-0.8-1.7-1.4-1.7-1.5C952.8,1105.5,953.3,1105.1,953.5,1104.9z"/>
					<path class="st27" d="M942.2,1101.5c2.3-2.6,4.7-5.1,7-7.7c0,0.7,0,1.5,0,2.2c1.6-1.2,3.2-2.4,4.8-3.6
						c-0.1,0.7-0.1,1.5-0.2,2.2c1.7-0.8,3.4-1.5,5.1-2.3c-0.2,0.6-0.4,1.3-0.6,1.9c1.6-0.5,3.2-0.9,4.9-1.4c-0.7,1.1-1.3,2.2-2,3.3
						c-2.6,0-6.1,0.3-10.2,1.5C947.3,1098.7,944.4,1100.2,942.2,1101.5z"/>
				</g>
				<g>
					<path class="st26" d="M868.8,1129.8c1.9-3,7.3-10.4,17.3-14.5c14.3-5.8,27.1-0.6,29.6,0.5c-1.2,2-9.1,14.6-24.7,17.3
						C880.3,1135.1,871.8,1131.4,868.8,1129.8z"/>
					<path class="st27" d="M927.4,1107.8c-1.5,0.2-4.7,0.7-7.8,3.1c-2.3,1.8-3.6,3.8-4.2,5c0.6,0.9,2,2.8,4.6,4
						c3.6,1.7,6.9,1,7.9,0.8c-2.6-1.8-5.2-3.6-7.8-5.4C922.5,1112.8,925,1110.3,927.4,1107.8z"/>
					<path class="st28" d="M883.5,1123.8c0.3,0.2,1.7,1.2,1.8,2.9c0.2,1.9-1.4,4-3.9,4.5"/>
					<circle class="st29" cx="878.2" cy="1125.4" r="1.3"/>
					<path class="st27" d="M892.1,1121.5c3-1.1,6-2.2,9-3.2c-0.9,1-1.7,2.1-2.6,3.1c0.5,0.3,1,0.5,1.6,0.8c-1,0.6-1.9,1.3-2.9,1.9
						c0.3,0.4,0.5,0.7,0.8,1.1c-2.4,0-4-0.6-5-1.1c-1.7-0.8-1.7-1.4-1.7-1.5C891.4,1122,891.9,1121.6,892.1,1121.5z"/>
					<path class="st27" d="M880.8,1118c2.3-2.6,4.7-5.1,7-7.7c0,0.7,0,1.5,0,2.2c1.6-1.2,3.2-2.4,4.8-3.6c-0.1,0.7-0.1,1.5-0.2,2.2
						c1.7-0.8,3.4-1.5,5.1-2.3c-0.2,0.6-0.4,1.3-0.6,1.9c1.6-0.5,3.2-0.9,4.9-1.4c-0.7,1.1-1.3,2.2-2,3.3c-2.6,0-6.1,0.3-10.2,1.5
						C885.9,1115.2,883,1116.7,880.8,1118z"/>
				</g>
				<g>
					<path class="st26" d="M808.3,1145.5c1.9-3,7.3-10.4,17.3-14.5c14.3-5.8,27.1-0.6,29.6,0.5c-1.2,2-9.1,14.6-24.7,17.3
						C819.8,1150.8,811.4,1147,808.3,1145.5z"/>
					<path class="st27" d="M867,1123.5c-1.5,0.2-4.7,0.7-7.8,3.1c-2.3,1.8-3.6,3.8-4.2,5c0.6,0.9,2,2.8,4.6,4c3.6,1.7,6.9,1,7.9,0.8
						c-2.6-1.8-5.2-3.6-7.8-5.4C862,1128.5,864.5,1126,867,1123.5z"/>
					<path class="st28" d="M823,1139.4c0.3,0.2,1.7,1.2,1.8,2.9c0.2,1.9-1.4,4-3.9,4.5"/>
					<circle class="st29" cx="817.7" cy="1141.1" r="1.3"/>
					<path class="st27" d="M831.7,1137.1c3-1.1,6-2.2,9-3.2c-0.9,1-1.7,2.1-2.6,3.1c0.5,0.3,1,0.5,1.6,0.8c-1,0.6-1.9,1.3-2.9,1.9
						c0.3,0.4,0.5,0.7,0.8,1.1c-2.4,0-4-0.6-5-1.1c-1.7-0.8-1.7-1.4-1.7-1.5C830.9,1137.7,831.4,1137.3,831.7,1137.1z"/>
					<path class="st27" d="M820.4,1133.7c2.3-2.6,4.7-5.1,7-7.7c0,0.7,0,1.5,0,2.2c1.6-1.2,3.2-2.4,4.8-3.6
						c-0.1,0.7-0.1,1.5-0.2,2.2c1.7-0.8,3.4-1.5,5.1-2.3c-0.2,0.6-0.4,1.3-0.6,1.9c1.6-0.5,3.2-0.9,4.9-1.4c-0.7,1.1-1.3,2.2-2,3.3
						c-2.6,0-6.1,0.3-10.2,1.5C825.5,1130.9,822.5,1132.4,820.4,1133.7z"/>
				</g>
				<g>
					<path class="st26" d="M747.9,1161.1c1.9-3,7.3-10.4,17.3-14.5c14.3-5.8,27.1-0.6,29.6,0.5c-1.2,2-9.1,14.6-24.7,17.3
						C759.4,1166.4,750.9,1162.7,747.9,1161.1z"/>
					<path class="st27" d="M806.5,1139.1c-1.5,0.2-4.7,0.7-7.8,3.1c-2.3,1.8-3.6,3.8-4.2,5c0.6,0.9,2,2.8,4.6,4
						c3.6,1.7,6.9,1,7.9,0.8c-2.6-1.8-5.2-3.6-7.8-5.4C801.6,1144.2,804.1,1141.6,806.5,1139.1z"/>
					<path class="st28" d="M762.6,1155.1c0.3,0.2,1.7,1.2,1.8,2.9c0.2,1.9-1.4,4-3.9,4.5"/>
					<circle class="st29" cx="757.3" cy="1156.7" r="1.3"/>
					<path class="st27" d="M771.2,1152.8c3-1.1,6-2.2,9-3.2c-0.9,1-1.7,2.1-2.6,3.1c0.5,0.3,1,0.5,1.6,0.8c-1,0.6-1.9,1.3-2.9,1.9
						c0.3,0.4,0.5,0.7,0.8,1.1c-2.4,0-4-0.6-5-1.1c-1.7-0.8-1.7-1.4-1.7-1.5C770.5,1153.3,771,1152.9,771.2,1152.8z"/>
					<path class="st27" d="M759.9,1149.3c2.3-2.6,4.7-5.1,7-7.7c0,0.7,0,1.5,0,2.2c1.6-1.2,3.2-2.4,4.8-3.6
						c-0.1,0.7-0.1,1.5-0.2,2.2c1.7-0.8,3.4-1.5,5.1-2.3c-0.2,0.6-0.4,1.3-0.6,1.9c1.6-0.5,3.2-0.9,4.9-1.4c-0.7,1.1-1.3,2.2-2,3.3
						c-2.6,0-6.1,0.3-10.2,1.5C765,1146.5,762.1,1148.1,759.9,1149.3z"/>
				</g>
				<g>
					<path class="st26" d="M775.6,1179c-3.2-1.6-11.5-5.4-22.2-3.9c-15.3,2-23.8,13-25.4,15.2c2,1.1,15.1,8.2,30.1,2.7
						C768.3,1189.2,773.8,1181.8,775.6,1179z"/>
					<path class="st27" d="M713.8,1189c1.3-0.6,4.4-1.7,8.3-1.2c2.9,0.4,5,1.5,6.2,2.3c-0.1,1.1-0.4,3.4-2,5.7
						c-2.2,3.3-5.5,4.3-6.4,4.6c1.4-2.8,2.8-5.7,4.1-8.5C720.6,1190.9,717.2,1190,713.8,1189z"/>
					<path class="st28" d="M759.9,1181c-0.1,0.3-0.8,1.9-0.1,3.4c0.8,1.7,3.2,2.7,5.7,2"/>
					<circle class="st29" cx="765.3" cy="1179.8" r="1.3"/>
					<path class="st27" d="M751.2,1183.3c-3.1,0.6-6.3,1.1-9.4,1.7c1.3,0.5,2.5,0.9,3.8,1.4c-0.3,0.5-0.7,1-1,1.4
						c1.1,0.1,2.3,0.2,3.4,0.3c-0.1,0.4-0.1,0.9-0.2,1.3c2.1-1.2,3.2-2.5,3.8-3.4c1-1.5,0.8-2,0.7-2.2
						C752.2,1183.4,751.5,1183.3,751.2,1183.3z"/>
					<path class="st27" d="M759.3,1174.7c-3.3-1.1-6.6-2.1-9.9-3.2c0.4,0.6,0.7,1.3,1.1,1.9c-2-0.2-4-0.5-6-0.7
						c0.4,0.6,0.8,1.2,1.2,1.8c-1.9,0.2-3.7,0.4-5.6,0.5c0.5,0.5,1,0.9,1.5,1.4c-1.6,0.4-3.3,0.8-4.9,1.2c1.1,0.6,2.3,1.2,3.4,1.9
						c2.2-1.3,5.5-2.8,9.5-3.8C753.5,1174.8,756.8,1174.6,759.3,1174.7z"/>
				</g>
				<g>
					<path class="st26" d="M837.1,1162.7c-3.2-1.6-11.5-5.4-22.2-3.9c-15.3,2-23.8,13-25.4,15.2c2,1.1,15.1,8.2,30.1,2.7
						C829.8,1173,835.3,1165.6,837.1,1162.7z"/>
					<path class="st27" d="M775.3,1172.8c1.3-0.6,4.4-1.7,8.3-1.2c2.9,0.4,5,1.5,6.2,2.3c-0.1,1.1-0.4,3.4-2,5.7
						c-2.2,3.3-5.5,4.3-6.4,4.6c1.4-2.8,2.8-5.7,4.1-8.5C782.1,1174.7,778.7,1173.8,775.3,1172.8z"/>
					<path class="st28" d="M821.4,1164.8c-0.1,0.3-0.8,1.9-0.1,3.4c0.8,1.7,3.2,2.7,5.7,2"/>
					<circle class="st29" cx="826.8" cy="1163.6" r="1.3"/>
					<path class="st27" d="M812.7,1167.1c-3.1,0.6-6.3,1.1-9.4,1.7c1.3,0.5,2.5,0.9,3.8,1.4c-0.3,0.5-0.7,1-1,1.4
						c1.1,0.1,2.3,0.2,3.4,0.3c-0.1,0.4-0.1,0.9-0.2,1.3c2.1-1.2,3.2-2.5,3.8-3.4c1-1.5,0.8-2,0.7-2.2
						C813.7,1167.2,813,1167.1,812.7,1167.1z"/>
					<path class="st27" d="M820.8,1158.5c-3.3-1.1-6.6-2.1-9.9-3.2c0.4,0.6,0.7,1.3,1.1,1.9c-2-0.2-4-0.5-6-0.7
						c0.4,0.6,0.8,1.2,1.2,1.8c-1.9,0.2-3.7,0.4-5.6,0.5c0.5,0.5,1,0.9,1.5,1.4c-1.6,0.4-3.3,0.8-4.9,1.2c1.1,0.6,2.3,1.2,3.4,1.9
						c2.2-1.3,5.5-2.8,9.5-3.8C815,1158.6,818.3,1158.4,820.8,1158.5z"/>
				</g>
				<g>
					<path class="st26" d="M897.3,1146.2c-3.2-1.6-11.5-5.4-22.2-3.9c-15.3,2-23.8,13-25.4,15.2c2,1.1,15.1,8.2,30.1,2.7
						C890,1156.5,895.5,1149.1,897.3,1146.2z"/>
					<path class="st27" d="M835.5,1156.3c1.3-0.6,4.4-1.7,8.3-1.2c2.9,0.4,5,1.5,6.2,2.3c-0.1,1.1-0.4,3.4-2,5.7
						c-2.2,3.3-5.5,4.3-6.4,4.6c1.4-2.8,2.8-5.7,4.1-8.5C842.3,1158.2,838.9,1157.3,835.5,1156.3z"/>
					<path class="st28" d="M881.6,1148.3c-0.1,0.3-0.8,1.9-0.1,3.4c0.8,1.7,3.2,2.7,5.7,2"/>
					<circle class="st29" cx="887" cy="1147.1" r="1.3"/>
					<path class="st27" d="M872.9,1150.6c-3.1,0.6-6.3,1.1-9.4,1.7c1.3,0.5,2.5,0.9,3.8,1.4c-0.3,0.5-0.7,1-1,1.4
						c1.1,0.1,2.3,0.2,3.4,0.3c-0.1,0.4-0.1,0.9-0.2,1.3c2.1-1.2,3.2-2.5,3.8-3.4c1-1.5,0.8-2,0.7-2.2
						C873.9,1150.7,873.2,1150.6,872.9,1150.6z"/>
					<path class="st27" d="M881,1142c-3.3-1.1-6.6-2.1-9.9-3.2c0.4,0.6,0.7,1.3,1.1,1.9c-2-0.2-4-0.5-6-0.7c0.4,0.6,0.8,1.2,1.2,1.8
						c-1.9,0.2-3.7,0.4-5.6,0.5c0.5,0.5,1,0.9,1.5,1.4c-1.6,0.4-3.3,0.8-4.9,1.2c1.1,0.6,2.3,1.2,3.4,1.9c2.2-1.3,5.5-2.8,9.5-3.8
						C875.2,1142.1,878.5,1141.9,881,1142z"/>
				</g>
				<g>
					<path class="st26" d="M957.6,1129.8c-3.2-1.6-11.5-5.4-22.2-3.9c-15.3,2-23.8,13-25.4,15.2c2,1.1,15.1,8.2,30.1,2.7
						C950.2,1140,955.7,1132.6,957.6,1129.8z"/>
					<path class="st27" d="M895.7,1139.8c1.3-0.6,4.4-1.7,8.3-1.2c2.9,0.4,5,1.5,6.2,2.3c-0.1,1.1-0.4,3.4-2,5.7
						c-2.2,3.3-5.5,4.3-6.4,4.6c1.4-2.8,2.8-5.7,4.1-8.5C902.5,1141.7,899.1,1140.8,895.7,1139.8z"/>
					<path class="st28" d="M941.8,1131.8c-0.1,0.3-0.8,1.9-0.1,3.4c0.8,1.7,3.2,2.7,5.7,2"/>
					<circle class="st29" cx="947.2" cy="1130.6" r="1.3"/>
					<path class="st27" d="M933.1,1134.1c-3.1,0.6-6.3,1.1-9.4,1.7c1.3,0.5,2.5,0.9,3.8,1.4c-0.3,0.5-0.7,1-1,1.4
						c1.1,0.1,2.3,0.2,3.4,0.3c-0.1,0.4-0.1,0.9-0.2,1.3c2.1-1.2,3.2-2.5,3.8-3.4c1-1.5,0.8-2,0.7-2.2
						C934.1,1134.2,933.5,1134.1,933.1,1134.1z"/>
					<path class="st27" d="M941.2,1125.5c-3.3-1.1-6.6-2.1-9.9-3.2c0.4,0.6,0.7,1.3,1.1,1.9c-2-0.2-4-0.5-6-0.7
						c0.4,0.6,0.8,1.2,1.2,1.8c-1.9,0.2-3.7,0.4-5.6,0.5c0.5,0.5,1,0.9,1.5,1.4c-1.6,0.4-3.3,0.8-4.9,1.2c1.1,0.6,2.3,1.2,3.4,1.9
						c2.2-1.3,5.5-2.8,9.5-3.8C935.4,1125.6,938.8,1125.4,941.2,1125.5z"/>
				</g>
				<g>
					<path class="st26" d="M757.9,1134.7c-3.2-1.6-11.5-5.4-22.2-3.9c-15.3,2-23.8,13-25.4,15.2c2,1.1,15.1,8.2,30.1,2.7
						C750.6,1145,756,1137.5,757.9,1134.7z"/>
					<path class="st27" d="M696.1,1144.7c1.3-0.6,4.4-1.7,8.3-1.2c2.9,0.4,5,1.5,6.2,2.3c-0.1,1.1-0.4,3.4-2,5.7
						c-2.2,3.3-5.5,4.3-6.4,4.6c1.4-2.8,2.8-5.7,4.1-8.5C702.8,1146.7,699.5,1145.7,696.1,1144.7z"/>
					<path class="st28" d="M742.1,1136.7c-0.1,0.3-0.8,1.9-0.1,3.4c0.8,1.7,3.2,2.7,5.7,2"/>
					<circle class="st29" cx="747.5" cy="1135.5" r="1.3"/>
					<path class="st27" d="M733.5,1139c-3.1,0.6-6.3,1.1-9.4,1.7c1.3,0.5,2.5,0.9,3.8,1.4c-0.3,0.5-0.7,1-1,1.4
						c1.1,0.1,2.3,0.2,3.4,0.3c-0.1,0.4-0.1,0.9-0.2,1.3c2.1-1.2,3.2-2.5,3.8-3.4c1-1.5,0.8-2,0.7-2.2
						C734.4,1139.1,733.8,1139.1,733.5,1139z"/>
					<path class="st27" d="M741.6,1130.4c-3.3-1.1-6.6-2.1-9.9-3.2c0.4,0.6,0.7,1.3,1.1,1.9c-2-0.2-4-0.5-6-0.7
						c0.4,0.6,0.8,1.2,1.2,1.8c-1.9,0.2-3.7,0.4-5.6,0.5c0.5,0.5,1,0.9,1.5,1.4c-1.6,0.4-3.3,0.8-4.9,1.2c1.1,0.6,2.3,1.2,3.4,1.9
						c2.2-1.3,5.5-2.8,9.5-3.8C735.7,1130.5,739.1,1130.4,741.6,1130.4z"/>
				</g>
				<g>
					<path class="st26" d="M819.4,1118.5c-3.2-1.6-11.5-5.4-22.2-3.9c-15.3,2-23.8,13-25.4,15.2c2,1.1,15.1,8.2,30.1,2.7
						C812,1128.8,817.5,1121.3,819.4,1118.5z"/>
					<path class="st27" d="M757.5,1128.5c1.3-0.6,4.4-1.7,8.3-1.2c2.9,0.4,5,1.5,6.2,2.3c-0.1,1.1-0.4,3.4-2,5.7
						c-2.2,3.3-5.5,4.3-6.4,4.6c1.4-2.8,2.8-5.7,4.1-8.5C764.3,1130.5,760.9,1129.5,757.5,1128.5z"/>
					<path class="st28" d="M803.6,1120.5c-0.1,0.3-0.8,1.9-0.1,3.4c0.8,1.7,3.2,2.7,5.7,2"/>
					<circle class="st29" cx="809" cy="1119.3" r="1.3"/>
					<path class="st27" d="M794.9,1122.8c-3.1,0.6-6.3,1.1-9.4,1.7c1.3,0.5,2.5,0.9,3.8,1.4c-0.3,0.5-0.7,1-1,1.4
						c1.1,0.1,2.3,0.2,3.4,0.3c-0.1,0.4-0.1,0.9-0.2,1.3c2.1-1.2,3.2-2.5,3.8-3.4c1-1.5,0.8-2,0.7-2.2
						C795.9,1122.9,795.3,1122.8,794.9,1122.8z"/>
					<path class="st27" d="M803,1114.2c-3.3-1.1-6.6-2.1-9.9-3.2c0.4,0.6,0.7,1.3,1.1,1.9c-2-0.2-4-0.5-6-0.7
						c0.4,0.6,0.8,1.2,1.2,1.8c-1.9,0.2-3.7,0.4-5.6,0.5c0.5,0.5,1,0.9,1.5,1.4c-1.6,0.4-3.3,0.8-4.9,1.2c1.1,0.6,2.3,1.2,3.4,1.9
						c2.2-1.3,5.5-2.8,9.5-3.8C797.2,1114.3,800.6,1114.2,803,1114.2z"/>
				</g>
				<g>
					<path class="st26" d="M879.6,1102c-3.2-1.6-11.5-5.4-22.2-3.9c-15.3,2-23.8,13-25.4,15.2c2,1.1,15.1,8.2,30.1,2.7
						C872.3,1112.3,877.7,1104.8,879.6,1102z"/>
					<path class="st27" d="M817.8,1112c1.3-0.6,4.4-1.7,8.3-1.2c2.9,0.4,5,1.5,6.2,2.3c-0.1,1.1-0.4,3.4-2,5.7
						c-2.2,3.3-5.5,4.3-6.4,4.6c1.4-2.8,2.8-5.7,4.1-8.5C824.6,1114,821.2,1113,817.8,1112z"/>
					<path class="st28" d="M863.8,1104c-0.1,0.3-0.8,1.9-0.1,3.4c0.8,1.7,3.2,2.7,5.7,2"/>
					<circle class="st29" cx="869.2" cy="1102.8" r="1.3"/>
					<path class="st27" d="M855.2,1106.3c-3.1,0.6-6.3,1.1-9.4,1.7c1.3,0.5,2.5,0.9,3.8,1.4c-0.3,0.5-0.7,1-1,1.4
						c1.1,0.1,2.3,0.2,3.4,0.3c-0.1,0.4-0.1,0.9-0.2,1.3c2.1-1.2,3.2-2.5,3.8-3.4c1-1.5,0.8-2,0.7-2.2
						C856.1,1106.4,855.5,1106.4,855.2,1106.3z"/>
					<path class="st27" d="M863.3,1097.7c-3.3-1.1-6.6-2.1-9.9-3.2c0.4,0.6,0.7,1.3,1.1,1.9c-2-0.2-4-0.5-6-0.7
						c0.4,0.6,0.8,1.2,1.2,1.8c-1.9,0.2-3.7,0.4-5.6,0.5c0.5,0.5,1,0.9,1.5,1.4c-1.6,0.4-3.3,0.8-4.9,1.2c1.1,0.6,2.3,1.2,3.4,1.9
						c2.2-1.3,5.5-2.8,9.5-3.8C857.5,1097.8,860.8,1097.7,863.3,1097.7z"/>
				</g>
				<g>
					<path class="st26" d="M939.8,1085.5c-3.2-1.6-11.5-5.4-22.2-3.9c-15.3,2-23.8,13-25.4,15.2c2,1.1,15.1,8.2,30.1,2.7
						C932.5,1095.8,938,1088.3,939.8,1085.5z"/>
					<path class="st27" d="M878,1095.6c1.3-0.6,4.4-1.7,8.3-1.2c2.9,0.4,5,1.5,6.2,2.3c-0.1,1.1-0.4,3.4-2,5.7
						c-2.2,3.3-5.5,4.3-6.4,4.6c1.4-2.8,2.8-5.7,4.1-8.5C884.8,1097.5,881.4,1096.5,878,1095.6z"/>
					<path class="st28" d="M924.1,1087.5c-0.1,0.3-0.8,1.9-0.1,3.4c0.8,1.7,3.2,2.7,5.7,2"/>
					<circle class="st29" cx="929.5" cy="1086.3" r="1.3"/>
					<path class="st27" d="M915.4,1089.8c-3.1,0.6-6.3,1.1-9.4,1.7c1.3,0.5,2.5,0.9,3.8,1.4c-0.3,0.5-0.7,1-1,1.4
						c1.1,0.1,2.3,0.2,3.4,0.3c-0.1,0.4-0.1,0.9-0.2,1.3c2.1-1.2,3.2-2.5,3.8-3.4c1-1.5,0.8-2,0.7-2.2
						C916.4,1089.9,915.7,1089.9,915.4,1089.8z"/>
					<path class="st27" d="M923.5,1081.2c-3.3-1.1-6.6-2.1-9.9-3.2c0.4,0.6,0.7,1.3,1.1,1.9c-2-0.2-4-0.5-6-0.7
						c0.4,0.6,0.8,1.2,1.2,1.8c-1.9,0.2-3.7,0.4-5.6,0.5c0.5,0.5,1,0.9,1.5,1.4c-1.6,0.4-3.3,0.8-4.9,1.2c1.1,0.6,2.3,1.2,3.4,1.9
						c2.2-1.3,5.5-2.8,9.5-3.8C917.7,1081.4,921,1081.2,923.5,1081.2z"/>
				</g>
				<g>
					<path class="st26" d="M920.1,1066.3c1.9-3,7.3-10.4,17.3-14.5c14.3-5.8,27.1-0.6,29.6,0.5c-1.2,2-9.1,14.6-24.7,17.3
						C931.6,1071.6,923.1,1067.8,920.1,1066.3z"/>
					<path class="st27" d="M978.7,1044.3c-1.5,0.2-4.7,0.7-7.8,3.1c-2.3,1.8-3.6,3.8-4.2,5c0.6,0.9,2,2.8,4.6,4
						c3.6,1.7,6.9,1,7.9,0.8c-2.6-1.8-5.2-3.6-7.8-5.4C973.8,1049.3,976.3,1046.8,978.7,1044.3z"/>
					<path class="st28" d="M934.8,1060.2c0.3,0.2,1.7,1.2,1.8,2.9c0.2,1.9-1.4,4-3.9,4.5"/>
					<circle class="st29" cx="929.5" cy="1061.9" r="1.3"/>
					<path class="st27" d="M943.4,1057.9c3-1.1,6-2.2,9-3.2c-0.9,1-1.7,2.1-2.6,3.1c0.5,0.3,1,0.5,1.6,0.8c-1,0.6-1.9,1.3-2.9,1.9
						c0.3,0.4,0.5,0.7,0.8,1.1c-2.4,0-4-0.6-5-1.1c-1.7-0.8-1.7-1.4-1.7-1.5C942.7,1058.5,943.2,1058.1,943.4,1057.9z"/>
					<path class="st27" d="M932.1,1054.5c2.3-2.6,4.7-5.1,7-7.7c0,0.7,0,1.5,0,2.2c1.6-1.2,3.2-2.4,4.8-3.6
						c-0.1,0.7-0.1,1.5-0.2,2.2c1.7-0.8,3.4-1.5,5.1-2.3c-0.2,0.6-0.4,1.3-0.6,1.9c1.6-0.5,3.2-0.9,4.9-1.4c-0.7,1.1-1.3,2.2-2,3.3
						c-2.6,0-6.1,0.3-10.2,1.5C937.2,1051.7,934.3,1053.2,932.1,1054.5z"/>
				</g>
				<g>
					<path class="st26" d="M858.7,1082.8c1.9-3,7.3-10.4,17.3-14.5c14.3-5.8,27.1-0.6,29.6,0.5c-1.2,2-9.1,14.6-24.7,17.3
						C870.1,1088.1,861.7,1084.4,858.7,1082.8z"/>
					<path class="st27" d="M917.3,1060.8c-1.5,0.2-4.7,0.7-7.8,3.1c-2.3,1.8-3.6,3.8-4.2,5c0.6,0.9,2,2.8,4.6,4
						c3.6,1.7,6.9,1,7.9,0.8c-2.6-1.8-5.2-3.6-7.8-5.4C912.4,1065.8,914.8,1063.3,917.3,1060.8z"/>
					<path class="st28" d="M873.4,1076.8c0.3,0.2,1.7,1.2,1.8,2.9c0.2,1.9-1.4,4-3.9,4.5"/>
					<circle class="st29" cx="868.1" cy="1078.4" r="1.3"/>
					<path class="st27" d="M882,1074.5c3-1.1,6-2.2,9-3.2c-0.9,1-1.7,2.1-2.6,3.1c0.5,0.3,1,0.5,1.6,0.8c-1,0.6-1.9,1.3-2.9,1.9
						c0.3,0.4,0.5,0.7,0.8,1.1c-2.4,0-4-0.6-5-1.1c-1.7-0.8-1.7-1.4-1.7-1.5C881.3,1075,881.8,1074.6,882,1074.5z"/>
					<path class="st27" d="M870.7,1071c2.3-2.6,4.7-5.1,7-7.7c0,0.7,0,1.5,0,2.2c1.6-1.2,3.2-2.4,4.8-3.6c-0.1,0.7-0.1,1.5-0.2,2.2
						c1.7-0.8,3.4-1.5,5.1-2.3c-0.2,0.6-0.4,1.3-0.6,1.9c1.6-0.5,3.2-0.9,4.9-1.4c-0.7,1.1-1.3,2.2-2,3.3c-2.6,0-6.1,0.3-10.2,1.5
						C875.8,1068.2,872.9,1069.7,870.7,1071z"/>
				</g>
				<g>
					<path class="st26" d="M798.2,1098.5c1.9-3,7.3-10.4,17.3-14.5c14.3-5.8,27.1-0.6,29.6,0.5c-1.2,2-9.1,14.6-24.7,17.3
						C809.7,1103.8,801.2,1100,798.2,1098.5z"/>
					<path class="st27" d="M856.9,1076.5c-1.5,0.2-4.7,0.7-7.8,3.1c-2.3,1.8-3.6,3.8-4.2,5c0.6,0.9,2,2.8,4.6,4
						c3.6,1.7,6.9,1,7.9,0.8c-2.6-1.8-5.2-3.6-7.8-5.4C851.9,1081.5,854.4,1079,856.9,1076.5z"/>
					<path class="st28" d="M812.9,1092.4c0.3,0.2,1.7,1.2,1.8,2.9c0.2,1.9-1.4,4-3.9,4.5"/>
					<circle class="st29" cx="807.6" cy="1094.1" r="1.3"/>
					<path class="st27" d="M821.6,1090.1c3-1.1,6-2.2,9-3.2c-0.9,1-1.7,2.1-2.6,3.1c0.5,0.3,1,0.5,1.6,0.8c-1,0.6-1.9,1.3-2.9,1.9
						c0.3,0.4,0.5,0.7,0.8,1.1c-2.4,0-4-0.6-5-1.1c-1.7-0.8-1.7-1.4-1.7-1.5C820.8,1090.7,821.3,1090.3,821.6,1090.1z"/>
					<path class="st27" d="M810.3,1086.7c2.3-2.6,4.7-5.1,7-7.7c0,0.7,0,1.5,0,2.2c1.6-1.2,3.2-2.4,4.8-3.6
						c-0.1,0.7-0.1,1.5-0.2,2.2c1.7-0.8,3.4-1.5,5.1-2.3c-0.2,0.6-0.4,1.3-0.6,1.9c1.6-0.5,3.2-0.9,4.9-1.4c-0.7,1.1-1.3,2.2-2,3.3
						c-2.6,0-6.1,0.3-10.2,1.5C815.4,1083.9,812.4,1085.4,810.3,1086.7z"/>
				</g>
				<g>
					<path class="st26" d="M737.8,1114.2c1.9-3,7.3-10.4,17.3-14.5c14.3-5.8,27.1-0.6,29.6,0.5c-1.2,2-9.1,14.6-24.7,17.3
						C749.3,1119.4,740.8,1115.7,737.8,1114.2z"/>
					<path class="st27" d="M796.4,1092.1c-1.5,0.2-4.7,0.7-7.8,3.1c-2.3,1.8-3.6,3.8-4.2,5c0.6,0.9,2,2.8,4.6,4
						c3.6,1.7,6.9,1,7.9,0.8c-2.6-1.8-5.2-3.6-7.8-5.4C791.5,1097.2,794,1094.6,796.4,1092.1z"/>
					<path class="st28" d="M752.5,1108.1c0.3,0.2,1.7,1.2,1.8,2.9c0.2,1.9-1.4,4-3.9,4.5"/>
					<circle class="st29" cx="747.2" cy="1109.7" r="1.3"/>
					<path class="st27" d="M761.1,1105.8c3-1.1,6-2.2,9-3.2c-0.9,1-1.7,2.1-2.6,3.1c0.5,0.3,1,0.5,1.6,0.8c-1,0.6-1.9,1.3-2.9,1.9
						c0.3,0.4,0.5,0.7,0.8,1.1c-2.4,0-4-0.6-5-1.1c-1.7-0.8-1.7-1.4-1.7-1.5C760.4,1106.3,760.9,1106,761.1,1105.8z"/>
					<path class="st27" d="M749.8,1102.4c2.3-2.6,4.7-5.1,7-7.7c0,0.7,0,1.5,0,2.2c1.6-1.2,3.2-2.4,4.8-3.6
						c-0.1,0.7-0.1,1.5-0.2,2.2c1.7-0.8,3.4-1.5,5.1-2.3c-0.2,0.6-0.4,1.3-0.6,1.9c1.6-0.5,3.2-0.9,4.9-1.4c-0.7,1.1-1.3,2.2-2,3.3
						c-2.6,0-6.1,0.3-10.2,1.5C754.9,1099.5,752,1101.1,749.8,1102.4z"/>
				</g>
				<g>
					<path class="st26" d="M747.8,1087.7c-3.2-1.6-11.5-5.4-22.2-3.9c-15.3,2-23.8,13-25.4,15.2c2,1.1,15.1,8.2,30.1,2.7
						C740.5,1098,745.9,1090.5,747.8,1087.7z"/>
					<path class="st27" d="M686,1097.8c1.3-0.6,4.4-1.7,8.3-1.2c2.9,0.4,5,1.5,6.2,2.3c-0.1,1.1-0.4,3.4-2,5.7
						c-2.2,3.3-5.5,4.3-6.4,4.6c1.4-2.8,2.8-5.7,4.1-8.5C692.7,1099.7,689.3,1098.7,686,1097.8z"/>
					<path class="st28" d="M732,1089.7c-0.1,0.3-0.8,1.9-0.1,3.4c0.8,1.7,3.2,2.7,5.7,2"/>
					<circle class="st29" cx="737.4" cy="1088.5" r="1.3"/>
					<path class="st27" d="M723.4,1092c-3.1,0.6-6.3,1.1-9.4,1.7c1.3,0.5,2.5,0.9,3.8,1.4c-0.3,0.5-0.7,1-1,1.4
						c1.1,0.1,2.3,0.2,3.4,0.3c-0.1,0.4-0.1,0.9-0.2,1.3c2.1-1.2,3.2-2.5,3.8-3.4c1-1.5,0.8-2,0.7-2.2
						C724.3,1092.2,723.7,1092.1,723.4,1092z"/>
					<path class="st27" d="M731.5,1083.5c-3.3-1.1-6.6-2.1-9.9-3.2c0.4,0.6,0.7,1.3,1.1,1.9c-2-0.2-4-0.5-6-0.7
						c0.4,0.6,0.8,1.2,1.2,1.8c-1.9,0.2-3.7,0.4-5.6,0.5c0.5,0.5,1,0.9,1.5,1.4c-1.6,0.4-3.3,0.8-4.9,1.2c1.1,0.6,2.3,1.2,3.4,1.9
						c2.2-1.3,5.5-2.8,9.5-3.8C725.6,1083.6,729,1083.4,731.5,1083.5z"/>
				</g>
				<g>
					<path class="st26" d="M809.3,1071.5c-3.2-1.6-11.5-5.4-22.2-3.9c-15.3,2-23.8,13-25.4,15.2c2,1.1,15.1,8.2,30.1,2.7
						C801.9,1081.8,807.4,1074.3,809.3,1071.5z"/>
					<path class="st27" d="M747.4,1081.5c1.3-0.6,4.4-1.7,8.3-1.2c2.9,0.4,5,1.5,6.2,2.3c-0.1,1.1-0.4,3.4-2,5.7
						c-2.2,3.3-5.5,4.3-6.4,4.6c1.4-2.8,2.8-5.7,4.1-8.5C754.2,1083.5,750.8,1082.5,747.4,1081.5z"/>
					<path class="st28" d="M793.5,1073.5c-0.1,0.3-0.8,1.9-0.1,3.4c0.8,1.7,3.2,2.7,5.7,2"/>
					<circle class="st29" cx="798.9" cy="1072.3" r="1.3"/>
					<path class="st27" d="M784.8,1075.8c-3.1,0.6-6.3,1.1-9.4,1.7c1.3,0.5,2.5,0.9,3.8,1.4c-0.3,0.5-0.7,1-1,1.4
						c1.1,0.1,2.3,0.2,3.4,0.3c-0.1,0.4-0.1,0.9-0.2,1.3c2.1-1.2,3.2-2.5,3.8-3.4c1-1.5,0.8-2,0.7-2.2
						C785.8,1075.9,785.2,1075.9,784.8,1075.8z"/>
					<path class="st27" d="M792.9,1067.2c-3.3-1.1-6.6-2.1-9.9-3.2c0.4,0.6,0.7,1.3,1.1,1.9c-2-0.2-4-0.5-6-0.7
						c0.4,0.6,0.8,1.2,1.2,1.8c-1.9,0.2-3.7,0.4-5.6,0.5c0.5,0.5,1,0.9,1.5,1.4c-1.6,0.4-3.3,0.8-4.9,1.2c1.1,0.6,2.3,1.2,3.4,1.9
						c2.2-1.3,5.5-2.8,9.5-3.8C787.1,1067.3,790.5,1067.2,792.9,1067.2z"/>
				</g>
				<g>
					<path class="st26" d="M869.5,1055c-3.2-1.6-11.5-5.4-22.2-3.9c-15.3,2-23.8,13-25.4,15.2c2,1.1,15.1,8.2,30.1,2.7
						C862.2,1065.3,867.6,1057.8,869.5,1055z"/>
					<path class="st27" d="M807.7,1065.1c1.3-0.6,4.4-1.7,8.3-1.2c2.9,0.4,5,1.5,6.2,2.3c-0.1,1.1-0.4,3.4-2,5.7
						c-2.2,3.3-5.5,4.3-6.4,4.6c1.4-2.8,2.8-5.7,4.1-8.5C814.5,1067,811.1,1066,807.7,1065.1z"/>
					<path class="st28" d="M853.7,1057c-0.1,0.3-0.8,1.9-0.1,3.4c0.8,1.7,3.2,2.7,5.7,2"/>
					<circle class="st29" cx="859.1" cy="1055.8" r="1.3"/>
					<path class="st27" d="M845.1,1059.3c-3.1,0.6-6.3,1.1-9.4,1.7c1.3,0.5,2.5,0.9,3.8,1.4c-0.3,0.5-0.7,1-1,1.4
						c1.1,0.1,2.3,0.2,3.4,0.3c-0.1,0.4-0.1,0.9-0.2,1.3c2.1-1.2,3.2-2.5,3.8-3.4c1-1.5,0.8-2,0.7-2.2
						C846,1059.4,845.4,1059.4,845.1,1059.3z"/>
					<path class="st27" d="M853.2,1050.7c-3.3-1.1-6.6-2.1-9.9-3.2c0.4,0.6,0.7,1.3,1.1,1.9c-2-0.2-4-0.5-6-0.7
						c0.4,0.6,0.8,1.2,1.2,1.8c-1.9,0.2-3.7,0.4-5.6,0.5c0.5,0.5,1,0.9,1.5,1.4c-1.6,0.4-3.3,0.8-4.9,1.2c1.1,0.6,2.3,1.2,3.4,1.9
						c2.2-1.3,5.5-2.8,9.5-3.8C847.3,1050.9,850.7,1050.7,853.2,1050.7z"/>
				</g>
				<g>
					<path class="st26" d="M929.7,1038.5c-3.2-1.6-11.5-5.4-22.2-3.9c-15.3,2-23.8,13-25.4,15.2c2,1.1,15.1,8.2,30.1,2.7
						C922.4,1048.8,927.9,1041.3,929.7,1038.5z"/>
					<path class="st27" d="M867.9,1048.6c1.3-0.6,4.4-1.7,8.3-1.2c2.9,0.4,5,1.5,6.2,2.3c-0.1,1.1-0.4,3.4-2,5.7
						c-2.2,3.3-5.5,4.3-6.4,4.6c1.4-2.8,2.8-5.7,4.1-8.5C874.7,1050.5,871.3,1049.5,867.9,1048.6z"/>
					<path class="st28" d="M914,1040.5c-0.1,0.3-0.8,1.9-0.1,3.4c0.8,1.7,3.2,2.7,5.7,2"/>
					<circle class="st29" cx="919.4" cy="1039.3" r="1.3"/>
					<path class="st27" d="M905.3,1042.8c-3.1,0.6-6.3,1.1-9.4,1.7c1.3,0.5,2.5,0.9,3.8,1.4c-0.3,0.5-0.7,1-1,1.4
						c1.1,0.1,2.3,0.2,3.4,0.3c-0.1,0.4-0.1,0.9-0.2,1.3c2.1-1.2,3.2-2.5,3.8-3.4c1-1.5,0.8-2,0.7-2.2
						C906.2,1043,905.6,1042.9,905.3,1042.8z"/>
					<path class="st27" d="M913.4,1034.3c-3.3-1.1-6.6-2.1-9.9-3.2c0.4,0.6,0.7,1.3,1.1,1.9c-2-0.2-4-0.5-6-0.7
						c0.4,0.6,0.8,1.2,1.2,1.8c-1.9,0.2-3.7,0.4-5.6,0.5c0.5,0.5,1,0.9,1.5,1.4c-1.6,0.4-3.3,0.8-4.9,1.2c1.1,0.6,2.3,1.2,3.4,1.9
						c2.2-1.3,5.5-2.8,9.5-3.8C907.6,1034.4,910.9,1034.2,913.4,1034.3z"/>
				</g>
			</g>
		</g>
		<g>
			<ellipse class="st30" cx="836.9" cy="1107.9" rx="87.7" ry="45.9"/>
			<ellipse class="st30" cx="837.5" cy="1087.9" rx="87.1" ry="45.9"/>
			<line class="st30" x1="749.2" y1="1079.5" x2="749.2" y2="1107.9"/>
			<line class="st30" x1="770.4" y1="1106.3" x2="770.4" y2="1137.8"/>
			<line class="st30" x1="837.5" y1="1122.6" x2="836.9" y2="1153.8"/>
			<line class="st30" x1="925.1" y1="1077.9" x2="924.6" y2="1109"/>
			<line class="st30" x1="837.5" y1="1030.8" x2="836.9" y2="1062"/>
			<line class="st30" x1="904.5" y1="1105.1" x2="904.5" y2="1136.6"/>
			<line class="st30" x1="780.8" y1="1041.7" x2="780.8" y2="1072.6"/>
			<line class="st30" x1="894.2" y1="1041.7" x2="894.2" y2="1073.1"/>
		</g>
	</g>
	<g>
		<g>
			<defs>
				<ellipse id="SVGID_00000037676970505090245950000005819091722071779717_" cx="657" cy="1212.7" rx="88" ry="43.6"/>
			</defs>
			<clipPath id="SVGID_00000147912560407749103290000014044428163477297797_">
				<use xlink:href="#SVGID_00000037676970505090245950000005819091722071779717_"  style="overflow:visible;"/>
			</clipPath>
			<g style="clip-path:url(#SVGID_00000147912560407749103290000014044428163477297797_);">
				<g>
					<path class="st26" d="M749.5,1218.8c1.9-3,7.3-10.4,17.3-14.5c14.3-5.8,27.1-0.6,29.6,0.5c-1.2,2-9.1,14.6-24.7,17.3
						C760.9,1224.1,752.5,1220.3,749.5,1218.8z"/>
					<path class="st27" d="M808.1,1196.7c-1.5,0.2-4.7,0.7-7.8,3.1c-2.3,1.8-3.6,3.8-4.2,5c0.6,0.9,2,2.8,4.6,4
						c3.6,1.7,6.9,1,7.9,0.8c-2.6-1.8-5.2-3.6-7.8-5.4C803.2,1201.8,805.6,1199.3,808.1,1196.7z"/>
					<path class="st28" d="M764.1,1212.7c0.3,0.2,1.7,1.2,1.8,2.9c0.2,1.9-1.4,4-3.9,4.5"/>
					<circle class="st29" cx="758.9" cy="1214.3" r="1.3"/>
					<path class="st27" d="M772.8,1210.4c3-1.1,6-2.2,9-3.2c-0.9,1-1.7,2.1-2.6,3.1c0.5,0.3,1,0.5,1.6,0.8c-1,0.6-1.9,1.3-2.9,1.9
						c0.3,0.4,0.5,0.7,0.8,1.1c-2.4,0-4-0.6-5-1.1c-1.7-0.8-1.7-1.4-1.7-1.5C772,1211,772.5,1210.6,772.8,1210.4z"/>
					<path class="st27" d="M761.5,1207c2.3-2.6,4.7-5.1,7-7.7c0,0.7,0,1.5,0,2.2c1.6-1.2,3.2-2.4,4.8-3.6c-0.1,0.7-0.1,1.5-0.2,2.2
						c1.7-0.8,3.4-1.5,5.1-2.3c-0.2,0.6-0.4,1.3-0.6,1.9c1.6-0.5,3.2-0.9,4.9-1.4c-0.7,1.1-1.3,2.2-2,3.3c-2.6,0-6.1,0.3-10.2,1.5
						C766.6,1204.2,763.6,1205.7,761.5,1207z"/>
				</g>
				<g>
					<path class="st26" d="M688.1,1235.3c1.9-3,7.3-10.4,17.3-14.5c14.3-5.8,27.1-0.6,29.6,0.5c-1.2,2-9.1,14.6-24.7,17.3
						C699.5,1240.6,691.1,1236.8,688.1,1235.3z"/>
					<path class="st27" d="M746.7,1213.3c-1.5,0.2-4.7,0.7-7.8,3.1c-2.3,1.8-3.6,3.8-4.2,5c0.6,0.9,2,2.8,4.6,4
						c3.6,1.7,6.9,1,7.9,0.8c-2.6-1.8-5.2-3.6-7.8-5.4C741.8,1218.3,744.2,1215.8,746.7,1213.3z"/>
					<path class="st28" d="M702.7,1229.2c0.3,0.2,1.7,1.2,1.8,2.9c0.2,1.9-1.4,4-3.9,4.5"/>
					<circle class="st29" cx="697.5" cy="1230.9" r="1.3"/>
					<path class="st27" d="M711.4,1226.9c3-1.1,6-2.2,9-3.2c-0.9,1-1.7,2.1-2.6,3.1c0.5,0.3,1,0.5,1.6,0.8c-1,0.6-1.9,1.3-2.9,1.9
						c0.3,0.4,0.5,0.7,0.8,1.1c-2.4,0-4-0.6-5-1.1c-1.7-0.8-1.7-1.4-1.7-1.5C710.6,1227.5,711.1,1227.1,711.4,1226.9z"/>
					<path class="st27" d="M700.1,1223.5c2.3-2.6,4.7-5.1,7-7.7c0,0.7,0,1.5,0,2.2c1.6-1.2,3.2-2.4,4.8-3.6
						c-0.1,0.7-0.1,1.5-0.2,2.2c1.7-0.8,3.4-1.5,5.1-2.3c-0.2,0.6-0.4,1.3-0.6,1.9c1.6-0.5,3.2-0.9,4.9-1.4c-0.7,1.1-1.3,2.2-2,3.3
						c-2.6,0-6.1,0.3-10.2,1.5C705.2,1220.7,702.2,1222.2,700.1,1223.5z"/>
				</g>
				<g>
					<path class="st26" d="M627.6,1251c1.9-3,7.3-10.4,17.3-14.5c14.3-5.8,27.1-0.6,29.6,0.5c-1.2,2-9.1,14.6-24.7,17.3
						C639.1,1256.2,630.6,1252.5,627.6,1251z"/>
					<path class="st27" d="M686.2,1228.9c-1.5,0.2-4.7,0.7-7.8,3.1c-2.3,1.8-3.6,3.8-4.2,5c0.6,0.9,2,2.8,4.6,4
						c3.6,1.7,6.9,1,7.9,0.8c-2.6-1.8-5.2-3.6-7.8-5.4C681.3,1234,683.8,1231.4,686.2,1228.9z"/>
					<path class="st28" d="M642.3,1244.9c0.3,0.2,1.7,1.2,1.8,2.9c0.2,1.9-1.4,4-3.9,4.5"/>
					<circle class="st29" cx="637" cy="1246.5" r="1.3"/>
					<path class="st27" d="M651,1242.6c3-1.1,6-2.2,9-3.2c-0.9,1-1.7,2.1-2.6,3.1c0.5,0.3,1,0.5,1.6,0.8c-1,0.6-1.9,1.3-2.9,1.9
						c0.3,0.4,0.5,0.7,0.8,1.1c-2.4,0-4-0.6-5-1.1c-1.7-0.8-1.7-1.4-1.7-1.5C650.2,1243.2,650.7,1242.8,651,1242.6z"/>
					<path class="st27" d="M639.7,1239.2c2.3-2.6,4.7-5.1,7-7.7c0,0.7,0,1.5,0,2.2c1.6-1.2,3.2-2.4,4.8-3.6
						c-0.1,0.7-0.1,1.5-0.2,2.2c1.7-0.8,3.4-1.5,5.1-2.3c-0.2,0.6-0.4,1.3-0.6,1.9c1.6-0.5,3.2-0.9,4.9-1.4c-0.7,1.1-1.3,2.2-2,3.3
						c-2.6,0-6.1,0.3-10.2,1.5C644.8,1236.4,641.8,1237.9,639.7,1239.2z"/>
				</g>
				<g>
					<path class="st26" d="M567.2,1266.6c1.9-3,7.3-10.4,17.3-14.5c14.3-5.8,27.1-0.6,29.6,0.5c-1.2,2-9.1,14.6-24.7,17.3
						C578.6,1271.9,570.2,1268.1,567.2,1266.6z"/>
					<path class="st27" d="M625.8,1244.6c-1.5,0.2-4.7,0.7-7.8,3.1c-2.3,1.8-3.6,3.8-4.2,5c0.6,0.9,2,2.8,4.6,4
						c3.6,1.7,6.9,1,7.9,0.8c-2.6-1.8-5.2-3.6-7.8-5.4C620.9,1249.6,623.3,1247.1,625.8,1244.6z"/>
					<path class="st28" d="M581.8,1260.6c0.3,0.2,1.7,1.2,1.8,2.9c0.2,1.9-1.4,4-3.9,4.5"/>
					<circle class="st29" cx="576.6" cy="1262.2" r="1.3"/>
					<path class="st27" d="M590.5,1258.2c3-1.1,6-2.2,9-3.2c-0.9,1-1.7,2.1-2.6,3.1c0.5,0.3,1,0.5,1.6,0.8c-1,0.6-1.9,1.3-2.9,1.9
						c0.3,0.4,0.5,0.7,0.8,1.1c-2.4,0-4-0.6-5-1.1c-1.7-0.8-1.7-1.4-1.7-1.5C589.7,1258.8,590.2,1258.4,590.5,1258.2z"/>
					<path class="st27" d="M579.2,1254.8c2.3-2.6,4.7-5.1,7-7.7c0,0.7,0,1.5,0,2.2c1.6-1.2,3.2-2.4,4.8-3.6
						c-0.1,0.7-0.1,1.5-0.2,2.2c1.7-0.8,3.4-1.5,5.1-2.3c-0.2,0.6-0.4,1.3-0.6,1.9c1.6-0.5,3.2-0.9,4.9-1.4c-0.7,1.1-1.3,2.2-2,3.3
						c-2.6,0-6.1,0.3-10.2,1.5C584.3,1252,581.3,1253.5,579.2,1254.8z"/>
				</g>
				<g>
					<path class="st26" d="M594.9,1284.4c-3.2-1.6-11.5-5.4-22.2-3.9c-15.3,2-23.8,13-25.4,15.2c2,1.1,15.1,8.2,30.1,2.7
						C587.6,1294.7,593,1287.2,594.9,1284.4z"/>
					<path class="st27" d="M533.1,1294.5c1.3-0.6,4.4-1.7,8.3-1.2c2.9,0.4,5,1.5,6.2,2.3c-0.1,1.1-0.4,3.4-2,5.7
						c-2.2,3.3-5.5,4.3-6.4,4.6c1.4-2.8,2.8-5.7,4.1-8.5C539.9,1296.4,536.5,1295.4,533.1,1294.5z"/>
					<path class="st28" d="M579.1,1286.5c-0.1,0.3-0.8,1.9-0.1,3.4c0.8,1.7,3.2,2.7,5.7,2"/>
					<circle class="st29" cx="584.5" cy="1285.3" r="1.3"/>
					<path class="st27" d="M570.5,1288.8c-3.1,0.6-6.3,1.1-9.4,1.7c1.3,0.5,2.5,0.9,3.8,1.4c-0.3,0.5-0.7,1-1,1.4
						c1.1,0.1,2.3,0.2,3.4,0.3c-0.1,0.4-0.1,0.9-0.2,1.3c2.1-1.2,3.2-2.5,3.8-3.4c1-1.5,0.8-2,0.7-2.2
						C571.4,1288.9,570.8,1288.8,570.5,1288.8z"/>
					<path class="st27" d="M578.6,1280.2c-3.3-1.1-6.6-2.1-9.9-3.2c0.4,0.6,0.7,1.3,1.1,1.9c-2-0.2-4-0.5-6-0.7
						c0.4,0.6,0.8,1.2,1.2,1.8c-1.9,0.2-3.7,0.4-5.6,0.5c0.5,0.5,1,0.9,1.5,1.4c-1.6,0.4-3.3,0.8-4.9,1.2c1.1,0.6,2.3,1.2,3.4,1.9
						c2.2-1.3,5.5-2.8,9.5-3.8C572.8,1280.3,576.1,1280.1,578.6,1280.2z"/>
				</g>
				<g>
					<path class="st26" d="M656.4,1268.2c-3.2-1.6-11.5-5.4-22.2-3.9c-15.3,2-23.8,13-25.4,15.2c2,1.1,15.1,8.2,30.1,2.7
						C649.1,1278.5,654.5,1271,656.4,1268.2z"/>
					<path class="st27" d="M594.6,1278.3c1.3-0.6,4.4-1.7,8.3-1.2c2.9,0.4,5,1.5,6.2,2.3c-0.1,1.1-0.4,3.4-2,5.7
						c-2.2,3.3-5.5,4.3-6.4,4.6c1.4-2.8,2.8-5.7,4.1-8.5C601.3,1280.2,598,1279.2,594.6,1278.3z"/>
					<path class="st28" d="M640.6,1270.3c-0.1,0.3-0.8,1.9-0.1,3.4c0.8,1.7,3.2,2.7,5.7,2"/>
					<circle class="st29" cx="646" cy="1269" r="1.3"/>
					<path class="st27" d="M632,1272.6c-3.1,0.6-6.3,1.1-9.4,1.7c1.3,0.5,2.5,0.9,3.8,1.4c-0.3,0.5-0.7,1-1,1.4
						c1.1,0.1,2.3,0.2,3.4,0.3c-0.1,0.4-0.1,0.9-0.2,1.3c2.1-1.2,3.2-2.5,3.8-3.4c1-1.5,0.8-2,0.7-2.2
						C632.9,1272.7,632.3,1272.6,632,1272.6z"/>
					<path class="st27" d="M640.1,1264c-3.3-1.1-6.6-2.1-9.9-3.2c0.4,0.6,0.7,1.3,1.1,1.9c-2-0.2-4-0.5-6-0.7
						c0.4,0.6,0.8,1.2,1.2,1.8c-1.9,0.2-3.7,0.4-5.6,0.5c0.5,0.5,1,0.9,1.5,1.4c-1.6,0.4-3.3,0.8-4.9,1.2c1.1,0.6,2.3,1.2,3.4,1.9
						c2.2-1.3,5.5-2.8,9.5-3.8C634.2,1264.1,637.6,1263.9,640.1,1264z"/>
				</g>
				<g>
					<path class="st26" d="M716.6,1251.7c-3.2-1.6-11.5-5.4-22.2-3.9c-15.3,2-23.8,13-25.4,15.2c2,1.1,15.1,8.2,30.1,2.7
						C709.3,1262,714.8,1254.5,716.6,1251.7z"/>
					<path class="st27" d="M654.8,1261.8c1.3-0.6,4.4-1.7,8.3-1.2c2.9,0.4,5,1.5,6.2,2.3c-0.1,1.1-0.4,3.4-2,5.7
						c-2.2,3.3-5.5,4.3-6.4,4.6c1.4-2.8,2.8-5.7,4.1-8.5C661.6,1263.7,658.2,1262.7,654.8,1261.8z"/>
					<path class="st28" d="M700.9,1253.8c-0.1,0.3-0.8,1.9-0.1,3.4c0.8,1.7,3.2,2.7,5.7,2"/>
					<circle class="st29" cx="706.2" cy="1252.6" r="1.3"/>
					<path class="st27" d="M692.2,1256.1c-3.1,0.6-6.3,1.1-9.4,1.7c1.3,0.5,2.5,0.9,3.8,1.4c-0.3,0.5-0.7,1-1,1.4
						c1.1,0.1,2.3,0.2,3.4,0.3c-0.1,0.4-0.1,0.9-0.2,1.3c2.1-1.2,3.2-2.5,3.8-3.4c1-1.5,0.8-2,0.7-2.2
						C693.1,1256.2,692.5,1256.1,692.2,1256.1z"/>
					<path class="st27" d="M700.3,1247.5c-3.3-1.1-6.6-2.1-9.9-3.2c0.4,0.6,0.7,1.3,1.1,1.9c-2-0.2-4-0.5-6-0.7
						c0.4,0.6,0.8,1.2,1.2,1.8c-1.9,0.2-3.7,0.4-5.6,0.5c0.5,0.5,1,0.9,1.5,1.4c-1.6,0.4-3.3,0.8-4.9,1.2c1.1,0.6,2.3,1.2,3.4,1.9
						c2.2-1.3,5.5-2.8,9.5-3.8C694.5,1247.6,697.8,1247.4,700.3,1247.5z"/>
				</g>
				<g>
					<path class="st26" d="M776.8,1235.2c-3.2-1.6-11.5-5.4-22.2-3.9c-15.3,2-23.8,13-25.4,15.2c2,1.1,15.1,8.2,30.1,2.7
						C769.5,1245.5,775,1238,776.8,1235.2z"/>
					<path class="st27" d="M715,1245.3c1.3-0.6,4.4-1.7,8.3-1.2c2.9,0.4,5,1.5,6.2,2.3c-0.1,1.1-0.4,3.4-2,5.7
						c-2.2,3.3-5.5,4.3-6.4,4.6c1.4-2.8,2.8-5.7,4.1-8.5C721.8,1247.2,718.4,1246.2,715,1245.3z"/>
					<path class="st28" d="M761.1,1237.3c-0.1,0.3-0.8,1.9-0.1,3.4c0.8,1.7,3.2,2.7,5.7,2"/>
					<circle class="st29" cx="766.5" cy="1236.1" r="1.3"/>
					<path class="st27" d="M752.4,1239.6c-3.1,0.6-6.3,1.1-9.4,1.7c1.3,0.5,2.5,0.9,3.8,1.4c-0.3,0.5-0.7,1-1,1.4
						c1.1,0.1,2.3,0.2,3.4,0.3c-0.1,0.4-0.1,0.9-0.2,1.3c2.1-1.2,3.2-2.5,3.8-3.4c1-1.5,0.8-2,0.7-2.2
						C753.4,1239.7,752.7,1239.6,752.4,1239.6z"/>
					<path class="st27" d="M760.5,1231c-3.3-1.1-6.6-2.1-9.9-3.2c0.4,0.6,0.7,1.3,1.1,1.9c-2-0.2-4-0.5-6-0.7
						c0.4,0.6,0.8,1.2,1.2,1.8c-1.9,0.2-3.7,0.4-5.6,0.5c0.5,0.5,1,0.9,1.5,1.4c-1.6,0.4-3.3,0.8-4.9,1.2c1.1,0.6,2.3,1.2,3.4,1.9
						c2.2-1.3,5.5-2.8,9.5-3.8C754.7,1231.1,758,1230.9,760.5,1231z"/>
				</g>
				<g>
					<path class="st26" d="M577.1,1240.2c-3.2-1.6-11.5-5.4-22.2-3.9c-15.3,2-23.8,13-25.4,15.2c2,1.1,15.1,8.2,30.1,2.7
						C569.8,1250.4,575.3,1243,577.1,1240.2z"/>
					<path class="st27" d="M515.3,1250.2c1.3-0.6,4.4-1.7,8.3-1.2c2.9,0.4,5,1.5,6.2,2.3c-0.1,1.1-0.4,3.4-2,5.7
						c-2.2,3.3-5.5,4.3-6.4,4.6c1.4-2.8,2.8-5.7,4.1-8.5C522.1,1252.1,518.7,1251.2,515.3,1250.2z"/>
					<path class="st28" d="M561.4,1242.2c-0.1,0.3-0.8,1.9-0.1,3.4c0.8,1.7,3.2,2.7,5.7,2"/>
					<circle class="st29" cx="566.8" cy="1241" r="1.3"/>
					<path class="st27" d="M552.7,1244.5c-3.1,0.6-6.3,1.1-9.4,1.7c1.3,0.5,2.5,0.9,3.8,1.4c-0.3,0.5-0.7,1-1,1.4
						c1.1,0.1,2.3,0.2,3.4,0.3c-0.1,0.4-0.1,0.9-0.2,1.3c2.1-1.2,3.2-2.5,3.8-3.4c1-1.5,0.8-2,0.7-2.2
						C553.7,1244.6,553.1,1244.5,552.7,1244.5z"/>
					<path class="st27" d="M560.8,1235.9c-3.3-1.1-6.6-2.1-9.9-3.2c0.4,0.6,0.7,1.3,1.1,1.9c-2-0.2-4-0.5-6-0.7
						c0.4,0.6,0.8,1.2,1.2,1.8c-1.9,0.2-3.7,0.4-5.6,0.5c0.5,0.5,1,0.9,1.5,1.4c-1.6,0.4-3.3,0.8-4.9,1.2c1.1,0.6,2.3,1.2,3.4,1.9
						c2.2-1.3,5.5-2.8,9.5-3.8C555,1236,558.3,1235.9,560.8,1235.9z"/>
				</g>
				<g>
					<path class="st26" d="M638.6,1223.9c-3.2-1.6-11.5-5.4-22.2-3.9c-15.3,2-23.8,13-25.4,15.2c2,1.1,15.1,8.2,30.1,2.7
						C631.3,1234.2,636.8,1226.8,638.6,1223.9z"/>
					<path class="st27" d="M576.8,1234c1.3-0.6,4.4-1.7,8.3-1.2c2.9,0.4,5,1.5,6.2,2.3c-0.1,1.1-0.4,3.4-2,5.7
						c-2.2,3.3-5.5,4.3-6.4,4.6c1.4-2.8,2.8-5.7,4.1-8.5C583.6,1235.9,580.2,1235,576.8,1234z"/>
					<path class="st28" d="M622.9,1226c-0.1,0.3-0.8,1.9-0.1,3.4c0.8,1.7,3.2,2.7,5.7,2"/>
					<circle class="st29" cx="628.3" cy="1224.8" r="1.3"/>
					<path class="st27" d="M614.2,1228.3c-3.1,0.6-6.3,1.1-9.4,1.7c1.3,0.5,2.5,0.9,3.8,1.4c-0.3,0.5-0.7,1-1,1.4
						c1.1,0.1,2.3,0.2,3.4,0.3c-0.1,0.4-0.1,0.9-0.2,1.3c2.1-1.2,3.2-2.5,3.8-3.4c1-1.5,0.8-2,0.7-2.2
						C615.2,1228.4,614.5,1228.3,614.2,1228.3z"/>
					<path class="st27" d="M622.3,1219.7c-3.3-1.1-6.6-2.1-9.9-3.2c0.4,0.6,0.7,1.3,1.1,1.9c-2-0.2-4-0.5-6-0.7
						c0.4,0.6,0.8,1.2,1.2,1.8c-1.9,0.2-3.7,0.4-5.6,0.5c0.5,0.5,1,0.9,1.5,1.4c-1.6,0.4-3.3,0.8-4.9,1.2c1.1,0.6,2.3,1.2,3.4,1.9
						c2.2-1.3,5.5-2.8,9.5-3.8C616.5,1219.8,619.8,1219.6,622.3,1219.7z"/>
				</g>
				<g>
					<path class="st26" d="M698.9,1207.5c-3.2-1.6-11.5-5.4-22.2-3.9c-15.3,2-23.8,13-25.4,15.2c2,1.1,15.1,8.2,30.1,2.7
						C691.5,1217.7,697,1210.3,698.9,1207.5z"/>
					<path class="st27" d="M637,1217.5c1.3-0.6,4.4-1.7,8.3-1.2c2.9,0.4,5,1.5,6.2,2.3c-0.1,1.1-0.4,3.4-2,5.7
						c-2.2,3.3-5.5,4.3-6.4,4.6c1.4-2.8,2.8-5.7,4.1-8.5C643.8,1219.4,640.4,1218.5,637,1217.5z"/>
					<path class="st28" d="M683.1,1209.5c-0.1,0.3-0.8,1.9-0.1,3.4c0.8,1.7,3.2,2.7,5.7,2"/>
					<circle class="st29" cx="688.5" cy="1208.3" r="1.3"/>
					<path class="st27" d="M674.4,1211.8c-3.1,0.6-6.3,1.1-9.4,1.7c1.3,0.5,2.5,0.9,3.8,1.4c-0.3,0.5-0.7,1-1,1.4
						c1.1,0.1,2.3,0.2,3.4,0.3c-0.1,0.4-0.1,0.9-0.2,1.3c2.1-1.2,3.2-2.5,3.8-3.4c1-1.5,0.8-2,0.7-2.2
						C675.4,1211.9,674.8,1211.8,674.4,1211.8z"/>
					<path class="st27" d="M682.5,1203.2c-3.3-1.1-6.6-2.1-9.9-3.2c0.4,0.6,0.7,1.3,1.1,1.9c-2-0.2-4-0.5-6-0.7
						c0.4,0.6,0.8,1.2,1.2,1.8c-1.9,0.2-3.7,0.4-5.6,0.5c0.5,0.5,1,0.9,1.5,1.4c-1.6,0.4-3.3,0.8-4.9,1.2c1.1,0.6,2.3,1.2,3.4,1.9
						c2.2-1.3,5.5-2.8,9.5-3.8C676.7,1203.3,680.1,1203.2,682.5,1203.2z"/>
				</g>
				<g>
					<path class="st26" d="M759.1,1191c-3.2-1.6-11.5-5.4-22.2-3.9c-15.3,2-23.8,13-25.4,15.2c2,1.1,15.1,8.2,30.1,2.7
						C751.8,1201.3,757.2,1193.8,759.1,1191z"/>
					<path class="st27" d="M697.3,1201c1.3-0.6,4.4-1.7,8.3-1.2c2.9,0.4,5,1.5,6.2,2.3c-0.1,1.1-0.4,3.4-2,5.7
						c-2.2,3.3-5.5,4.3-6.4,4.6c1.4-2.8,2.8-5.7,4.1-8.5C704.1,1202.9,700.7,1202,697.3,1201z"/>
					<path class="st28" d="M743.3,1193c-0.1,0.3-0.8,1.9-0.1,3.4c0.8,1.7,3.2,2.7,5.7,2"/>
					<circle class="st29" cx="748.7" cy="1191.8" r="1.3"/>
					<path class="st27" d="M734.7,1195.3c-3.1,0.6-6.3,1.1-9.4,1.7c1.3,0.5,2.5,0.9,3.8,1.4c-0.3,0.5-0.7,1-1,1.4
						c1.1,0.1,2.3,0.2,3.4,0.3c-0.1,0.4-0.1,0.9-0.2,1.3c2.1-1.2,3.2-2.5,3.8-3.4c1-1.5,0.8-2,0.7-2.2
						C735.6,1195.4,735,1195.3,734.7,1195.3z"/>
					<path class="st27" d="M742.8,1186.7c-3.3-1.1-6.6-2.1-9.9-3.2c0.4,0.6,0.7,1.3,1.1,1.9c-2-0.2-4-0.5-6-0.7
						c0.4,0.6,0.8,1.2,1.2,1.8c-1.9,0.2-3.7,0.4-5.6,0.5c0.5,0.5,1,0.9,1.5,1.4c-1.6,0.4-3.3,0.8-4.9,1.2c1.1,0.6,2.3,1.2,3.4,1.9
						c2.2-1.3,5.5-2.8,9.5-3.8C736.9,1186.8,740.3,1186.7,742.8,1186.7z"/>
				</g>
				<g>
					<path class="st26" d="M739.4,1171.8c1.9-3,7.3-10.4,17.3-14.5c14.3-5.8,27.1-0.6,29.6,0.5c-1.2,2-9.1,14.6-24.7,17.3
						C750.8,1177.1,742.4,1173.3,739.4,1171.8z"/>
					<path class="st27" d="M798,1149.8c-1.5,0.2-4.7,0.7-7.8,3.1c-2.3,1.8-3.6,3.8-4.2,5c0.6,0.9,2,2.8,4.6,4c3.6,1.7,6.9,1,7.9,0.8
						c-2.6-1.8-5.2-3.6-7.8-5.4C793.1,1154.8,795.5,1152.3,798,1149.8z"/>
					<path class="st28" d="M754,1165.7c0.3,0.2,1.7,1.2,1.8,2.9c0.2,1.9-1.4,4-3.9,4.5"/>
					<circle class="st29" cx="748.8" cy="1167.4" r="1.3"/>
					<path class="st27" d="M762.7,1163.4c3-1.1,6-2.2,9-3.2c-0.9,1-1.7,2.1-2.6,3.1c0.5,0.3,1,0.5,1.6,0.8c-1,0.6-1.9,1.3-2.9,1.9
						c0.3,0.4,0.5,0.7,0.8,1.1c-2.4,0-4-0.6-5-1.1c-1.7-0.8-1.7-1.4-1.7-1.5C761.9,1164,762.4,1163.6,762.7,1163.4z"/>
					<path class="st27" d="M751.4,1160c2.3-2.6,4.7-5.1,7-7.7c0,0.7,0,1.5,0,2.2c1.6-1.2,3.2-2.4,4.8-3.6c-0.1,0.7-0.1,1.5-0.2,2.2
						c1.7-0.8,3.4-1.5,5.1-2.3c-0.2,0.6-0.4,1.3-0.6,1.9c1.6-0.5,3.2-0.9,4.9-1.4c-0.7,1.1-1.3,2.2-2,3.3c-2.6,0-6.1,0.3-10.2,1.5
						C756.5,1157.2,753.5,1158.7,751.4,1160z"/>
				</g>
				<g>
					<path class="st26" d="M677.9,1188.3c1.9-3,7.3-10.4,17.3-14.5c14.3-5.8,27.1-0.6,29.6,0.5c-1.2,2-9.1,14.6-24.7,17.3
						C689.4,1193.6,681,1189.8,677.9,1188.3z"/>
					<path class="st27" d="M736.6,1166.3c-1.5,0.2-4.7,0.7-7.8,3.1c-2.3,1.8-3.6,3.8-4.2,5c0.6,0.9,2,2.8,4.6,4
						c3.6,1.7,6.9,1,7.9,0.8c-2.6-1.8-5.2-3.6-7.8-5.4C731.6,1171.3,734.1,1168.8,736.6,1166.3z"/>
					<path class="st28" d="M692.6,1182.2c0.3,0.2,1.7,1.2,1.8,2.9c0.2,1.9-1.4,4-3.9,4.5"/>
					<circle class="st29" cx="687.4" cy="1183.9" r="1.3"/>
					<path class="st27" d="M701.3,1179.9c3-1.1,6-2.2,9-3.2c-0.9,1-1.7,2.1-2.6,3.1c0.5,0.3,1,0.5,1.6,0.8c-1,0.6-1.9,1.3-2.9,1.9
						c0.3,0.4,0.5,0.7,0.8,1.1c-2.4,0-4-0.6-5-1.1c-1.7-0.8-1.7-1.4-1.7-1.5C700.5,1180.5,701,1180.1,701.3,1179.9z"/>
					<path class="st27" d="M690,1176.5c2.3-2.6,4.7-5.1,7-7.7c0,0.7,0,1.5,0,2.2c1.6-1.2,3.2-2.4,4.8-3.6c-0.1,0.7-0.1,1.5-0.2,2.2
						c1.7-0.8,3.4-1.5,5.1-2.3c-0.2,0.6-0.4,1.3-0.6,1.9c1.6-0.5,3.2-0.9,4.9-1.4c-0.7,1.1-1.3,2.2-2,3.3c-2.6,0-6.1,0.3-10.2,1.5
						C695.1,1173.7,692.1,1175.2,690,1176.5z"/>
				</g>
				<g>
					<path class="st26" d="M617.5,1204c1.9-3,7.3-10.4,17.3-14.5c14.3-5.8,27.1-0.6,29.6,0.5c-1.2,2-9.1,14.6-24.7,17.3
						C629,1209.2,620.5,1205.5,617.5,1204z"/>
					<path class="st27" d="M676.1,1181.9c-1.5,0.2-4.7,0.7-7.8,3.1c-2.3,1.8-3.6,3.8-4.2,5c0.6,0.9,2,2.8,4.6,4
						c3.6,1.7,6.9,1,7.9,0.8c-2.6-1.8-5.2-3.6-7.8-5.4C671.2,1187,673.7,1184.5,676.1,1181.9z"/>
					<path class="st28" d="M632.2,1197.9c0.3,0.2,1.7,1.2,1.8,2.9c0.2,1.9-1.4,4-3.9,4.5"/>
					<circle class="st29" cx="626.9" cy="1199.5" r="1.3"/>
					<path class="st27" d="M640.8,1195.6c3-1.1,6-2.2,9-3.2c-0.9,1-1.7,2.1-2.6,3.1c0.5,0.3,1,0.5,1.6,0.8c-1,0.6-1.9,1.3-2.9,1.9
						c0.3,0.4,0.5,0.7,0.8,1.1c-2.4,0-4-0.6-5-1.1c-1.7-0.8-1.7-1.4-1.7-1.5C640.1,1196.2,640.6,1195.8,640.8,1195.6z"/>
					<path class="st27" d="M629.5,1192.2c2.3-2.6,4.7-5.1,7-7.7c0,0.7,0,1.5,0,2.2c1.6-1.2,3.2-2.4,4.8-3.6
						c-0.1,0.7-0.1,1.5-0.2,2.2c1.7-0.8,3.4-1.5,5.1-2.3c-0.2,0.6-0.4,1.3-0.6,1.9c1.6-0.5,3.2-0.9,4.9-1.4c-0.7,1.1-1.3,2.2-2,3.3
						c-2.6,0-6.1,0.3-10.2,1.5C634.6,1189.4,631.7,1190.9,629.5,1192.2z"/>
				</g>
				<g>
					<path class="st26" d="M557.1,1219.6c1.9-3,7.3-10.4,17.3-14.5c14.3-5.8,27.1-0.6,29.6,0.5c-1.2,2-9.1,14.6-24.7,17.3
						C568.5,1224.9,560.1,1221.2,557.1,1219.6z"/>
					<path class="st27" d="M615.7,1197.6c-1.5,0.2-4.7,0.7-7.8,3.1c-2.3,1.8-3.6,3.8-4.2,5c0.6,0.9,2,2.8,4.6,4
						c3.6,1.7,6.9,1,7.9,0.8c-2.6-1.8-5.2-3.6-7.8-5.4C610.8,1202.6,613.2,1200.1,615.7,1197.6z"/>
					<path class="st28" d="M571.7,1213.6c0.3,0.2,1.7,1.2,1.8,2.9c0.2,1.9-1.4,4-3.9,4.5"/>
					<circle class="st29" cx="566.5" cy="1215.2" r="1.3"/>
					<path class="st27" d="M580.4,1211.3c3-1.1,6-2.2,9-3.2c-0.9,1-1.7,2.1-2.6,3.1c0.5,0.3,1,0.5,1.6,0.8c-1,0.6-1.9,1.3-2.9,1.9
						c0.3,0.4,0.5,0.7,0.8,1.1c-2.4,0-4-0.6-5-1.1c-1.7-0.8-1.7-1.4-1.7-1.5C579.6,1211.8,580.1,1211.4,580.4,1211.3z"/>
					<path class="st27" d="M569.1,1207.8c2.3-2.6,4.7-5.1,7-7.7c0,0.7,0,1.5,0,2.2c1.6-1.2,3.2-2.4,4.8-3.6
						c-0.1,0.7-0.1,1.5-0.2,2.2c1.7-0.8,3.4-1.5,5.1-2.3c-0.2,0.6-0.4,1.3-0.6,1.9c1.6-0.5,3.2-0.9,4.9-1.4c-0.7,1.1-1.3,2.2-2,3.3
						c-2.6,0-6.1,0.3-10.2,1.5C574.2,1205,571.2,1206.5,569.1,1207.8z"/>
				</g>
				<g>
					<path class="st26" d="M567,1193.2c-3.2-1.6-11.5-5.4-22.2-3.9c-15.3,2-23.8,13-25.4,15.2c2,1.1,15.1,8.2,30.1,2.7
						C559.7,1203.5,565.2,1196,567,1193.2z"/>
					<path class="st27" d="M505.2,1203.2c1.3-0.6,4.4-1.7,8.3-1.2c2.9,0.4,5,1.5,6.2,2.3c-0.1,1.1-0.4,3.4-2,5.7
						c-2.2,3.3-5.5,4.3-6.4,4.6c1.4-2.8,2.8-5.7,4.1-8.5C512,1205.1,508.6,1204.2,505.2,1203.2z"/>
					<path class="st28" d="M551.3,1195.2c-0.1,0.3-0.8,1.9-0.1,3.4c0.8,1.7,3.2,2.7,5.7,2"/>
					<circle class="st29" cx="556.7" cy="1194" r="1.3"/>
					<path class="st27" d="M542.6,1197.5c-3.1,0.6-6.3,1.1-9.4,1.7c1.3,0.5,2.5,0.9,3.8,1.4c-0.3,0.5-0.7,1-1,1.4
						c1.1,0.1,2.3,0.2,3.4,0.3c-0.1,0.4-0.1,0.9-0.2,1.3c2.1-1.2,3.2-2.5,3.8-3.4c1-1.5,0.8-2,0.7-2.2
						C543.6,1197.6,542.9,1197.5,542.6,1197.5z"/>
					<path class="st27" d="M550.7,1188.9c-3.3-1.1-6.6-2.1-9.9-3.2c0.4,0.6,0.7,1.3,1.1,1.9c-2-0.2-4-0.5-6-0.7
						c0.4,0.6,0.8,1.2,1.2,1.8c-1.9,0.2-3.7,0.4-5.6,0.5c0.5,0.5,1,0.9,1.5,1.4c-1.6,0.4-3.3,0.8-4.9,1.2c1.1,0.6,2.3,1.2,3.4,1.9
						c2.2-1.3,5.5-2.8,9.5-3.8C544.9,1189,548.2,1188.9,550.7,1188.9z"/>
				</g>
				<g>
					<path class="st26" d="M628.5,1177c-3.2-1.6-11.5-5.4-22.2-3.9c-15.3,2-23.8,13-25.4,15.2c2,1.1,15.1,8.2,30.1,2.7
						C621.2,1187.2,626.7,1179.8,628.5,1177z"/>
					<path class="st27" d="M566.7,1187c1.3-0.6,4.4-1.7,8.3-1.2c2.9,0.4,5,1.5,6.2,2.3c-0.1,1.1-0.4,3.4-2,5.7
						c-2.2,3.3-5.5,4.3-6.4,4.6c1.4-2.8,2.8-5.7,4.1-8.5C573.5,1188.9,570.1,1188,566.7,1187z"/>
					<path class="st28" d="M612.8,1179c-0.1,0.3-0.8,1.9-0.1,3.4c0.8,1.7,3.2,2.7,5.7,2"/>
					<circle class="st29" cx="618.2" cy="1177.8" r="1.3"/>
					<path class="st27" d="M604.1,1181.3c-3.1,0.6-6.3,1.1-9.4,1.7c1.3,0.5,2.5,0.9,3.8,1.4c-0.3,0.5-0.7,1-1,1.4
						c1.1,0.1,2.3,0.2,3.4,0.3c-0.1,0.4-0.1,0.9-0.2,1.3c2.1-1.2,3.2-2.5,3.8-3.4c1-1.5,0.8-2,0.7-2.2
						C605.1,1181.4,604.4,1181.3,604.1,1181.3z"/>
					<path class="st27" d="M612.2,1172.7c-3.3-1.1-6.6-2.1-9.9-3.2c0.4,0.6,0.7,1.3,1.1,1.9c-2-0.2-4-0.5-6-0.7
						c0.4,0.6,0.8,1.2,1.2,1.8c-1.9,0.2-3.7,0.4-5.6,0.5c0.5,0.5,1,0.9,1.5,1.4c-1.6,0.4-3.3,0.8-4.9,1.2c1.1,0.6,2.3,1.2,3.4,1.9
						c2.2-1.3,5.5-2.8,9.5-3.8C606.4,1172.8,609.7,1172.6,612.2,1172.7z"/>
				</g>
				<g>
					<path class="st26" d="M688.8,1160.5c-3.2-1.6-11.5-5.4-22.2-3.9c-15.3,2-23.8,13-25.4,15.2c2,1.1,15.1,8.2,30.1,2.7
						C681.4,1170.7,686.9,1163.3,688.8,1160.5z"/>
					<path class="st27" d="M626.9,1170.5c1.3-0.6,4.4-1.7,8.3-1.2c2.9,0.4,5,1.5,6.2,2.3c-0.1,1.1-0.4,3.4-2,5.7
						c-2.2,3.3-5.5,4.3-6.4,4.6c1.4-2.8,2.8-5.7,4.1-8.5C633.7,1172.4,630.3,1171.5,626.9,1170.5z"/>
					<path class="st28" d="M673,1162.5c-0.1,0.3-0.8,1.9-0.1,3.4c0.8,1.7,3.2,2.7,5.7,2"/>
					<circle class="st29" cx="678.4" cy="1161.3" r="1.3"/>
					<path class="st27" d="M664.3,1164.8c-3.1,0.6-6.3,1.1-9.4,1.7c1.3,0.5,2.5,0.9,3.8,1.4c-0.3,0.5-0.7,1-1,1.4
						c1.1,0.1,2.3,0.2,3.4,0.3c-0.1,0.4-0.1,0.9-0.2,1.3c2.1-1.2,3.2-2.5,3.8-3.4c1-1.5,0.8-2,0.7-2.2
						C665.3,1164.9,664.7,1164.8,664.3,1164.8z"/>
					<path class="st27" d="M672.4,1156.2c-3.3-1.1-6.6-2.1-9.9-3.2c0.4,0.6,0.7,1.3,1.1,1.9c-2-0.2-4-0.5-6-0.7
						c0.4,0.6,0.8,1.2,1.2,1.8c-1.9,0.2-3.7,0.4-5.6,0.5c0.5,0.5,1,0.9,1.5,1.4c-1.6,0.4-3.3,0.8-4.9,1.2c1.1,0.6,2.3,1.2,3.4,1.9
						c2.2-1.3,5.5-2.8,9.5-3.8C666.6,1156.3,670,1156.2,672.4,1156.2z"/>
				</g>
				<g>
					<path class="st26" d="M749,1144c-3.2-1.6-11.5-5.4-22.2-3.9c-15.3,2-23.8,13-25.4,15.2c2,1.1,15.1,8.2,30.1,2.7
						C741.7,1154.3,747.1,1146.8,749,1144z"/>
					<path class="st27" d="M687.2,1154c1.3-0.6,4.4-1.7,8.3-1.2c2.9,0.4,5,1.5,6.2,2.3c-0.1,1.1-0.4,3.4-2,5.7
						c-2.2,3.3-5.5,4.3-6.4,4.6c1.4-2.8,2.8-5.7,4.1-8.5C693.9,1156,690.6,1155,687.2,1154z"/>
					<path class="st28" d="M733.2,1146c-0.1,0.3-0.8,1.9-0.1,3.4c0.8,1.7,3.2,2.7,5.7,2"/>
					<circle class="st29" cx="738.6" cy="1144.8" r="1.3"/>
					<path class="st27" d="M724.6,1148.3c-3.1,0.6-6.3,1.1-9.4,1.7c1.3,0.5,2.5,0.9,3.8,1.4c-0.3,0.5-0.7,1-1,1.4
						c1.1,0.1,2.3,0.2,3.4,0.3c-0.1,0.4-0.1,0.9-0.2,1.3c2.1-1.2,3.2-2.5,3.8-3.4c1-1.5,0.8-2,0.7-2.2
						C725.5,1148.4,724.9,1148.3,724.6,1148.3z"/>
					<path class="st27" d="M732.7,1139.7c-3.3-1.1-6.6-2.1-9.9-3.2c0.4,0.6,0.7,1.3,1.1,1.9c-2-0.2-4-0.5-6-0.7
						c0.4,0.6,0.8,1.2,1.2,1.8c-1.9,0.2-3.7,0.4-5.6,0.5c0.5,0.5,1,0.9,1.5,1.4c-1.6,0.4-3.3,0.8-4.9,1.2c1.1,0.6,2.3,1.2,3.4,1.9
						c2.2-1.3,5.5-2.8,9.5-3.8C726.8,1139.8,730.2,1139.7,732.7,1139.7z"/>
				</g>
			</g>
		</g>
		<g>
			<ellipse class="st30" cx="656.2" cy="1213.3" rx="87.7" ry="45.9"/>
			<ellipse class="st30" cx="656.7" cy="1193.3" rx="87.1" ry="45.9"/>
			<line class="st30" x1="568.5" y1="1185" x2="568.5" y2="1213.3"/>
			<line class="st30" x1="589.7" y1="1211.7" x2="589.7" y2="1243.3"/>
			<line class="st30" x1="656.7" y1="1228.1" x2="656.2" y2="1259.2"/>
			<line class="st30" x1="744.4" y1="1183.3" x2="743.8" y2="1214.5"/>
			<line class="st30" x1="656.7" y1="1136.3" x2="656.2" y2="1167.5"/>
			<line class="st30" x1="723.8" y1="1210.6" x2="723.8" y2="1242.1"/>
			<line class="st30" x1="600" y1="1147.2" x2="600" y2="1178.1"/>
			<line class="st30" x1="713.4" y1="1147.2" x2="713.4" y2="1178.6"/>
		</g>
	</g>
	<g>
		<g>
			<defs>
				<ellipse id="SVGID_00000088105542062979020850000007164024184087427253_" cx="881.5" cy="1254.1" rx="88" ry="43.6"/>
			</defs>
			<clipPath id="SVGID_00000071527460668742814970000005302979587155398290_">
				<use xlink:href="#SVGID_00000088105542062979020850000007164024184087427253_"  style="overflow:visible;"/>
			</clipPath>
			<g style="clip-path:url(#SVGID_00000071527460668742814970000005302979587155398290_);">
				<g>
					<path class="st26" d="M974,1260.3c1.9-3,7.3-10.4,17.3-14.5c14.3-5.8,27.1-0.6,29.6,0.5c-1.2,2-9.1,14.6-24.7,17.3
						C985.4,1265.5,977,1261.8,974,1260.3z"/>
					<path class="st27" d="M1032.6,1238.2c-1.5,0.2-4.7,0.7-7.8,3.1c-2.3,1.8-3.6,3.8-4.2,5c0.6,0.9,2,2.8,4.6,4
						c3.6,1.7,6.9,1,7.9,0.8c-2.6-1.8-5.2-3.6-7.8-5.4C1027.7,1243.3,1030.1,1240.7,1032.6,1238.2z"/>
					<path class="st28" d="M988.6,1254.2c0.3,0.2,1.7,1.2,1.8,2.9c0.2,1.9-1.4,4-3.9,4.5"/>
					<circle class="st29" cx="983.4" cy="1255.8" r="1.3"/>
					<path class="st27" d="M997.3,1251.9c3-1.1,6-2.2,9-3.2c-0.9,1-1.7,2.1-2.6,3.1c0.5,0.3,1,0.5,1.6,0.8c-1,0.6-1.9,1.3-2.9,1.9
						c0.3,0.4,0.5,0.7,0.8,1.1c-2.4,0-4-0.6-5-1.1c-1.7-0.8-1.7-1.4-1.7-1.5C996.5,1252.4,997,1252.1,997.3,1251.9z"/>
					<path class="st27" d="M986,1248.5c2.3-2.6,4.7-5.1,7-7.7c0,0.7,0,1.5,0,2.2c1.6-1.2,3.2-2.4,4.8-3.6c-0.1,0.7-0.1,1.5-0.2,2.2
						c1.7-0.8,3.4-1.5,5.1-2.3c-0.2,0.6-0.4,1.3-0.6,1.9c1.6-0.5,3.2-0.9,4.9-1.4c-0.7,1.1-1.3,2.2-2,3.3c-2.6,0-6.1,0.3-10.2,1.5
						C991.1,1245.6,988.1,1247.2,986,1248.5z"/>
				</g>
				<g>
					<path class="st26" d="M912.6,1276.8c1.9-3,7.3-10.4,17.3-14.5c14.3-5.8,27.1-0.6,29.6,0.5c-1.2,2-9.1,14.6-24.7,17.3
						C924,1282.1,915.6,1278.3,912.6,1276.8z"/>
					<path class="st27" d="M971.2,1254.7c-1.5,0.2-4.7,0.7-7.8,3.1c-2.3,1.8-3.6,3.8-4.2,5c0.6,0.9,2,2.8,4.6,4
						c3.6,1.7,6.9,1,7.9,0.8c-2.6-1.8-5.2-3.6-7.8-5.4C966.3,1259.8,968.7,1257.3,971.2,1254.7z"/>
					<path class="st28" d="M927.2,1270.7c0.3,0.2,1.7,1.2,1.8,2.9c0.2,1.9-1.4,4-3.9,4.5"/>
					<circle class="st29" cx="922" cy="1272.4" r="1.3"/>
					<path class="st27" d="M935.9,1268.4c3-1.1,6-2.2,9-3.2c-0.9,1-1.7,2.1-2.6,3.1c0.5,0.3,1,0.5,1.6,0.8c-1,0.6-1.9,1.3-2.9,1.9
						c0.3,0.4,0.5,0.7,0.8,1.1c-2.4,0-4-0.6-5-1.1c-1.7-0.8-1.7-1.4-1.7-1.5C935.1,1269,935.6,1268.6,935.9,1268.4z"/>
					<path class="st27" d="M924.6,1265c2.3-2.6,4.7-5.1,7-7.7c0,0.7,0,1.5,0,2.2c1.6-1.2,3.2-2.4,4.8-3.6c-0.1,0.7-0.1,1.5-0.2,2.2
						c1.7-0.8,3.4-1.5,5.1-2.3c-0.2,0.6-0.4,1.3-0.6,1.9c1.6-0.5,3.2-0.9,4.9-1.4c-0.7,1.1-1.3,2.2-2,3.3c-2.6,0-6.1,0.3-10.2,1.5
						C929.7,1262.2,926.7,1263.7,924.6,1265z"/>
				</g>
				<g>
					<path class="st26" d="M852.1,1292.4c1.9-3,7.3-10.4,17.3-14.5c14.3-5.8,27.1-0.6,29.6,0.5c-1.2,2-9.1,14.6-24.7,17.3
						C863.6,1297.7,855.1,1294,852.1,1292.4z"/>
					<path class="st27" d="M910.7,1270.4c-1.5,0.2-4.7,0.7-7.8,3.1c-2.3,1.8-3.6,3.8-4.2,5c0.6,0.9,2,2.8,4.6,4
						c3.6,1.7,6.9,1,7.9,0.8c-2.6-1.8-5.2-3.6-7.8-5.4C905.8,1275.4,908.3,1272.9,910.7,1270.4z"/>
					<path class="st28" d="M866.8,1286.4c0.3,0.2,1.7,1.2,1.8,2.9c0.2,1.9-1.4,4-3.9,4.5"/>
					<circle class="st29" cx="861.5" cy="1288" r="1.3"/>
					<path class="st27" d="M875.5,1284.1c3-1.1,6-2.2,9-3.2c-0.9,1-1.7,2.1-2.6,3.1c0.5,0.3,1,0.5,1.6,0.8c-1,0.6-1.9,1.3-2.9,1.9
						c0.3,0.4,0.5,0.7,0.8,1.1c-2.4,0-4-0.6-5-1.1c-1.7-0.8-1.7-1.4-1.7-1.5C874.7,1284.6,875.2,1284.2,875.5,1284.1z"/>
					<path class="st27" d="M864.2,1280.6c2.3-2.6,4.7-5.1,7-7.7c0,0.7,0,1.5,0,2.2c1.6-1.2,3.2-2.4,4.8-3.6
						c-0.1,0.7-0.1,1.5-0.2,2.2c1.7-0.8,3.4-1.5,5.1-2.3c-0.2,0.6-0.4,1.3-0.6,1.9c1.6-0.5,3.2-0.9,4.9-1.4c-0.7,1.1-1.3,2.2-2,3.3
						c-2.6,0-6.1,0.3-10.2,1.5C869.3,1277.8,866.3,1279.3,864.2,1280.6z"/>
				</g>
				<g>
					<path class="st26" d="M791.7,1308.1c1.9-3,7.3-10.4,17.3-14.5c14.3-5.8,27.1-0.6,29.6,0.5c-1.2,2-9.1,14.6-24.7,17.3
						C803.1,1313.4,794.7,1309.6,791.7,1308.1z"/>
					<path class="st27" d="M850.3,1286.1c-1.5,0.2-4.7,0.7-7.8,3.1c-2.3,1.8-3.6,3.8-4.2,5c0.6,0.9,2,2.8,4.6,4
						c3.6,1.7,6.9,1,7.9,0.8c-2.6-1.8-5.2-3.6-7.8-5.4C845.4,1291.1,847.8,1288.6,850.3,1286.1z"/>
					<path class="st28" d="M806.3,1302c0.3,0.2,1.7,1.2,1.8,2.9c0.2,1.9-1.4,4-3.9,4.5"/>
					<circle class="st29" cx="801.1" cy="1303.7" r="1.3"/>
					<path class="st27" d="M815,1299.7c3-1.1,6-2.2,9-3.2c-0.9,1-1.7,2.1-2.6,3.1c0.5,0.3,1,0.5,1.6,0.8c-1,0.6-1.9,1.3-2.9,1.9
						c0.3,0.4,0.5,0.7,0.8,1.1c-2.4,0-4-0.6-5-1.1c-1.7-0.8-1.7-1.4-1.7-1.5C814.2,1300.3,814.7,1299.9,815,1299.7z"/>
					<path class="st27" d="M803.7,1296.3c2.3-2.6,4.7-5.1,7-7.7c0,0.7,0,1.5,0,2.2c1.6-1.2,3.2-2.4,4.8-3.6
						c-0.1,0.7-0.1,1.5-0.2,2.2c1.7-0.8,3.4-1.5,5.1-2.3c-0.2,0.6-0.4,1.3-0.6,1.9c1.6-0.5,3.2-0.9,4.9-1.4c-0.7,1.1-1.3,2.2-2,3.3
						c-2.6,0-6.1,0.3-10.2,1.5C808.8,1293.5,805.8,1295,803.7,1296.3z"/>
				</g>
				<g>
					<path class="st26" d="M819.4,1325.9c-3.2-1.6-11.5-5.4-22.2-3.9c-15.3,2-23.8,13-25.4,15.2c2,1.1,15.1,8.2,30.1,2.7
						C812.1,1336.2,817.5,1328.7,819.4,1325.9z"/>
					<path class="st27" d="M757.6,1336c1.3-0.6,4.4-1.7,8.3-1.2c2.9,0.4,5,1.5,6.2,2.3c-0.1,1.1-0.4,3.4-2,5.7
						c-2.2,3.3-5.5,4.3-6.4,4.6c1.4-2.8,2.8-5.7,4.1-8.5C764.4,1337.9,761,1336.9,757.6,1336z"/>
					<path class="st28" d="M803.6,1327.9c-0.1,0.3-0.8,1.9-0.1,3.4c0.8,1.7,3.2,2.7,5.7,2"/>
					<circle class="st29" cx="809" cy="1326.7" r="1.3"/>
					<path class="st27" d="M795,1330.3c-3.1,0.6-6.3,1.1-9.4,1.7c1.3,0.5,2.5,0.9,3.8,1.4c-0.3,0.5-0.7,1-1,1.4
						c1.1,0.1,2.3,0.2,3.4,0.3c-0.1,0.4-0.1,0.9-0.2,1.3c2.1-1.2,3.2-2.5,3.8-3.4c1-1.5,0.8-2,0.7-2.2
						C795.9,1330.4,795.3,1330.3,795,1330.3z"/>
					<path class="st27" d="M803.1,1321.7c-3.3-1.1-6.6-2.1-9.9-3.2c0.4,0.6,0.7,1.3,1.1,1.9c-2-0.2-4-0.5-6-0.7
						c0.4,0.6,0.8,1.2,1.2,1.8c-1.9,0.2-3.7,0.4-5.6,0.5c0.5,0.5,1,0.9,1.5,1.4c-1.6,0.4-3.3,0.8-4.9,1.2c1.1,0.6,2.3,1.2,3.4,1.9
						c2.2-1.3,5.5-2.8,9.5-3.8C797.3,1321.8,800.6,1321.6,803.1,1321.7z"/>
				</g>
				<g>
					<path class="st26" d="M880.9,1309.7c-3.2-1.6-11.5-5.4-22.2-3.9c-15.3,2-23.8,13-25.4,15.2c2,1.1,15.1,8.2,30.1,2.7
						C873.6,1320,879,1312.5,880.9,1309.7z"/>
					<path class="st27" d="M819.1,1319.7c1.3-0.6,4.4-1.7,8.3-1.2c2.9,0.4,5,1.5,6.2,2.3c-0.1,1.1-0.4,3.4-2,5.7
						c-2.2,3.3-5.5,4.3-6.4,4.6c1.4-2.8,2.8-5.7,4.1-8.5C825.8,1321.7,822.5,1320.7,819.1,1319.7z"/>
					<path class="st28" d="M865.1,1311.7c-0.1,0.3-0.8,1.9-0.1,3.4c0.8,1.7,3.2,2.7,5.7,2"/>
					<circle class="st29" cx="870.5" cy="1310.5" r="1.3"/>
					<path class="st27" d="M856.5,1314c-3.1,0.6-6.3,1.1-9.4,1.7c1.3,0.5,2.5,0.9,3.8,1.4c-0.3,0.5-0.7,1-1,1.4
						c1.1,0.1,2.3,0.2,3.4,0.3c-0.1,0.4-0.1,0.9-0.2,1.3c2.1-1.2,3.2-2.5,3.8-3.4c1-1.5,0.8-2,0.7-2.2
						C857.4,1314.1,856.8,1314.1,856.5,1314z"/>
					<path class="st27" d="M864.6,1305.4c-3.3-1.1-6.6-2.1-9.9-3.2c0.4,0.6,0.7,1.3,1.1,1.9c-2-0.2-4-0.5-6-0.7
						c0.4,0.6,0.8,1.2,1.2,1.8c-1.9,0.2-3.7,0.4-5.6,0.5c0.5,0.5,1,0.9,1.5,1.4c-1.6,0.4-3.3,0.8-4.9,1.2c1.1,0.6,2.3,1.2,3.4,1.9
						c2.2-1.3,5.5-2.8,9.5-3.8C858.7,1305.5,862.1,1305.4,864.6,1305.4z"/>
				</g>
				<g>
					<path class="st26" d="M941.1,1293.2c-3.2-1.6-11.5-5.4-22.2-3.9c-15.3,2-23.8,13-25.4,15.2c2,1.1,15.1,8.2,30.1,2.7
						C933.8,1303.5,939.3,1296,941.1,1293.2z"/>
					<path class="st27" d="M879.3,1303.3c1.3-0.6,4.4-1.7,8.3-1.2c2.9,0.4,5,1.5,6.2,2.3c-0.1,1.1-0.4,3.4-2,5.7
						c-2.2,3.3-5.5,4.3-6.4,4.6c1.4-2.8,2.8-5.7,4.1-8.5C886.1,1305.2,882.7,1304.2,879.3,1303.3z"/>
					<path class="st28" d="M925.4,1295.2c-0.1,0.3-0.8,1.9-0.1,3.4c0.8,1.7,3.2,2.7,5.7,2"/>
					<circle class="st29" cx="930.7" cy="1294" r="1.3"/>
					<path class="st27" d="M916.7,1297.5c-3.1,0.6-6.3,1.1-9.4,1.7c1.3,0.5,2.5,0.9,3.8,1.4c-0.3,0.5-0.7,1-1,1.4
						c1.1,0.1,2.3,0.2,3.4,0.3c-0.1,0.4-0.1,0.9-0.2,1.3c2.1-1.2,3.2-2.5,3.8-3.4c1-1.5,0.8-2,0.7-2.2
						C917.6,1297.7,917,1297.6,916.7,1297.5z"/>
					<path class="st27" d="M924.8,1289c-3.3-1.1-6.6-2.1-9.9-3.2c0.4,0.6,0.7,1.3,1.1,1.9c-2-0.2-4-0.5-6-0.7
						c0.4,0.6,0.8,1.2,1.2,1.8c-1.9,0.2-3.7,0.4-5.6,0.5c0.5,0.5,1,0.9,1.5,1.4c-1.6,0.4-3.3,0.8-4.9,1.2c1.1,0.6,2.3,1.2,3.4,1.9
						c2.2-1.3,5.5-2.8,9.5-3.8C919,1289.1,922.3,1288.9,924.8,1289z"/>
				</g>
				<g>
					<path class="st26" d="M1001.3,1276.7c-3.2-1.6-11.5-5.4-22.2-3.9c-15.3,2-23.8,13-25.4,15.2c2,1.1,15.1,8.2,30.1,2.7
						C994,1287,999.5,1279.5,1001.3,1276.7z"/>
					<path class="st27" d="M939.5,1286.8c1.3-0.6,4.4-1.7,8.3-1.2c2.9,0.4,5,1.5,6.2,2.3c-0.1,1.1-0.4,3.4-2,5.7
						c-2.2,3.3-5.5,4.3-6.4,4.6c1.4-2.8,2.8-5.7,4.1-8.5C946.3,1288.7,942.9,1287.7,939.5,1286.8z"/>
					<path class="st28" d="M985.6,1278.8c-0.1,0.3-0.8,1.9-0.1,3.4c0.8,1.7,3.2,2.7,5.7,2"/>
					<circle class="st29" cx="991" cy="1277.5" r="1.3"/>
					<path class="st27" d="M976.9,1281.1c-3.1,0.6-6.3,1.1-9.4,1.7c1.3,0.5,2.5,0.9,3.8,1.4c-0.3,0.5-0.7,1-1,1.4
						c1.1,0.1,2.3,0.2,3.4,0.3c-0.1,0.4-0.1,0.9-0.2,1.3c2.1-1.2,3.2-2.5,3.8-3.4c1-1.5,0.8-2,0.7-2.2
						C977.9,1281.2,977.2,1281.1,976.9,1281.1z"/>
					<path class="st27" d="M985,1272.5c-3.3-1.1-6.6-2.1-9.9-3.2c0.4,0.6,0.7,1.3,1.1,1.9c-2-0.2-4-0.5-6-0.7
						c0.4,0.6,0.8,1.2,1.2,1.8c-1.9,0.2-3.7,0.4-5.6,0.5c0.5,0.5,1,0.9,1.5,1.4c-1.6,0.4-3.3,0.8-4.9,1.2c1.1,0.6,2.3,1.2,3.4,1.9
						c2.2-1.3,5.5-2.8,9.5-3.8C979.2,1272.6,982.5,1272.4,985,1272.5z"/>
				</g>
				<g>
					<path class="st26" d="M801.6,1281.6c-3.2-1.6-11.5-5.4-22.2-3.9c-15.3,2-23.8,13-25.4,15.2c2,1.1,15.1,8.2,30.1,2.7
						C794.3,1291.9,799.8,1284.5,801.6,1281.6z"/>
					<path class="st27" d="M739.8,1291.7c1.3-0.6,4.4-1.7,8.3-1.2c2.9,0.4,5,1.5,6.2,2.3c-0.1,1.1-0.4,3.4-2,5.7
						c-2.2,3.3-5.5,4.3-6.4,4.6c1.4-2.8,2.8-5.7,4.1-8.5C746.6,1293.6,743.2,1292.7,739.8,1291.7z"/>
					<path class="st28" d="M785.9,1283.7c-0.1,0.3-0.8,1.9-0.1,3.4c0.8,1.7,3.2,2.7,5.7,2"/>
					<circle class="st29" cx="791.3" cy="1282.5" r="1.3"/>
					<path class="st27" d="M777.2,1286c-3.1,0.6-6.3,1.1-9.4,1.7c1.3,0.5,2.5,0.9,3.8,1.4c-0.3,0.5-0.7,1-1,1.4
						c1.1,0.1,2.3,0.2,3.4,0.3c-0.1,0.4-0.1,0.9-0.2,1.3c2.1-1.2,3.2-2.5,3.8-3.4c1-1.5,0.8-2,0.7-2.2
						C778.2,1286.1,777.6,1286,777.2,1286z"/>
					<path class="st27" d="M785.3,1277.4c-3.3-1.1-6.6-2.1-9.9-3.2c0.4,0.6,0.7,1.3,1.1,1.9c-2-0.2-4-0.5-6-0.7
						c0.4,0.6,0.8,1.2,1.2,1.8c-1.9,0.2-3.7,0.4-5.6,0.5c0.5,0.5,1,0.9,1.5,1.4c-1.6,0.4-3.3,0.8-4.9,1.2c1.1,0.6,2.3,1.2,3.4,1.9
						c2.2-1.3,5.5-2.8,9.5-3.8C779.5,1277.5,782.8,1277.3,785.3,1277.4z"/>
				</g>
				<g>
					<path class="st26" d="M863.1,1265.4c-3.2-1.6-11.5-5.4-22.2-3.9c-15.3,2-23.8,13-25.4,15.2c2,1.1,15.1,8.2,30.1,2.7
						C855.8,1275.7,861.3,1268.2,863.1,1265.4z"/>
					<path class="st27" d="M801.3,1275.5c1.3-0.6,4.4-1.7,8.3-1.2c2.9,0.4,5,1.5,6.2,2.3c-0.1,1.1-0.4,3.4-2,5.7
						c-2.2,3.3-5.5,4.3-6.4,4.6c1.4-2.8,2.8-5.7,4.1-8.5C808.1,1277.4,804.7,1276.4,801.3,1275.5z"/>
					<path class="st28" d="M847.4,1267.5c-0.1,0.3-0.8,1.9-0.1,3.4c0.8,1.7,3.2,2.7,5.7,2"/>
					<circle class="st29" cx="852.8" cy="1266.3" r="1.3"/>
					<path class="st27" d="M838.7,1269.8c-3.1,0.6-6.3,1.1-9.4,1.7c1.3,0.5,2.5,0.9,3.8,1.4c-0.3,0.5-0.7,1-1,1.4
						c1.1,0.1,2.3,0.2,3.4,0.3c-0.1,0.4-0.1,0.9-0.2,1.3c2.1-1.2,3.2-2.5,3.8-3.4c1-1.5,0.8-2,0.7-2.2
						C839.7,1269.9,839,1269.8,838.7,1269.8z"/>
					<path class="st27" d="M846.8,1261.2c-3.3-1.1-6.6-2.1-9.9-3.2c0.4,0.6,0.7,1.3,1.1,1.9c-2-0.2-4-0.5-6-0.7
						c0.4,0.6,0.8,1.2,1.2,1.8c-1.9,0.2-3.7,0.4-5.6,0.5c0.5,0.5,1,0.9,1.5,1.4c-1.6,0.4-3.3,0.8-4.9,1.2c1.1,0.6,2.3,1.2,3.4,1.9
						c2.2-1.3,5.5-2.8,9.5-3.8C841,1261.3,844.3,1261.1,846.8,1261.2z"/>
				</g>
				<g>
					<path class="st26" d="M923.4,1248.9c-3.2-1.6-11.5-5.4-22.2-3.9c-15.3,2-23.8,13-25.4,15.2c2,1.1,15.1,8.2,30.1,2.7
						C916,1259.2,921.5,1251.8,923.4,1248.9z"/>
					<path class="st27" d="M861.5,1259c1.3-0.6,4.4-1.7,8.3-1.2c2.9,0.4,5,1.5,6.2,2.3c-0.1,1.1-0.4,3.4-2,5.7
						c-2.2,3.3-5.5,4.3-6.4,4.6c1.4-2.8,2.8-5.7,4.1-8.5C868.3,1260.9,864.9,1260,861.5,1259z"/>
					<path class="st28" d="M907.6,1251c-0.1,0.3-0.8,1.9-0.1,3.4c0.8,1.7,3.2,2.7,5.7,2"/>
					<circle class="st29" cx="913" cy="1249.8" r="1.3"/>
					<path class="st27" d="M898.9,1253.3c-3.1,0.6-6.3,1.1-9.4,1.7c1.3,0.5,2.5,0.9,3.8,1.4c-0.3,0.5-0.7,1-1,1.4
						c1.1,0.1,2.3,0.2,3.4,0.3c-0.1,0.4-0.1,0.9-0.2,1.3c2.1-1.2,3.2-2.5,3.8-3.4c1-1.5,0.8-2,0.7-2.2
						C899.9,1253.4,899.3,1253.3,898.9,1253.3z"/>
					<path class="st27" d="M907,1244.7c-3.3-1.1-6.6-2.1-9.9-3.2c0.4,0.6,0.7,1.3,1.1,1.9c-2-0.2-4-0.5-6-0.7
						c0.4,0.6,0.8,1.2,1.2,1.8c-1.9,0.2-3.7,0.4-5.6,0.5c0.5,0.5,1,0.9,1.5,1.4c-1.6,0.4-3.3,0.8-4.9,1.2c1.1,0.6,2.3,1.2,3.4,1.9
						c2.2-1.3,5.5-2.8,9.5-3.8C901.2,1244.8,904.6,1244.6,907,1244.7z"/>
				</g>
				<g>
					<path class="st26" d="M983.6,1232.4c-3.2-1.6-11.5-5.4-22.2-3.9c-15.3,2-23.8,13-25.4,15.2c2,1.1,15.1,8.2,30.1,2.7
						C976.3,1242.7,981.7,1235.3,983.6,1232.4z"/>
					<path class="st27" d="M921.8,1242.5c1.3-0.6,4.4-1.7,8.3-1.2c2.9,0.4,5,1.5,6.2,2.3c-0.1,1.1-0.4,3.4-2,5.7
						c-2.2,3.3-5.5,4.3-6.4,4.6c1.4-2.8,2.8-5.7,4.1-8.5C928.6,1244.4,925.2,1243.5,921.8,1242.5z"/>
					<path class="st28" d="M967.8,1234.5c-0.1,0.3-0.8,1.9-0.1,3.4c0.8,1.7,3.2,2.7,5.7,2"/>
					<circle class="st29" cx="973.2" cy="1233.3" r="1.3"/>
					<path class="st27" d="M959.2,1236.8c-3.1,0.6-6.3,1.1-9.4,1.7c1.3,0.5,2.5,0.9,3.8,1.4c-0.3,0.5-0.7,1-1,1.4
						c1.1,0.1,2.3,0.2,3.4,0.3c-0.1,0.4-0.1,0.9-0.2,1.3c2.1-1.2,3.2-2.5,3.8-3.4c1-1.5,0.8-2,0.7-2.2
						C960.1,1236.9,959.5,1236.8,959.2,1236.8z"/>
					<path class="st27" d="M967.3,1228.2c-3.3-1.1-6.6-2.1-9.9-3.2c0.4,0.6,0.7,1.3,1.1,1.9c-2-0.2-4-0.5-6-0.7
						c0.4,0.6,0.8,1.2,1.2,1.8c-1.9,0.2-3.7,0.4-5.6,0.5c0.5,0.5,1,0.9,1.5,1.4c-1.6,0.4-3.3,0.8-4.9,1.2c1.1,0.6,2.3,1.2,3.4,1.9
						c2.2-1.3,5.5-2.8,9.5-3.8C961.4,1228.3,964.8,1228.1,967.3,1228.2z"/>
				</g>
				<g>
					<path class="st26" d="M963.9,1213.3c1.9-3,7.3-10.4,17.3-14.5c14.3-5.8,27.1-0.6,29.6,0.5c-1.2,2-9.1,14.6-24.7,17.3
						C975.3,1218.5,966.9,1214.8,963.9,1213.3z"/>
					<path class="st27" d="M1022.5,1191.2c-1.5,0.2-4.7,0.7-7.8,3.1c-2.3,1.8-3.6,3.8-4.2,5c0.6,0.9,2,2.8,4.6,4
						c3.6,1.7,6.9,1,7.9,0.8c-2.6-1.8-5.2-3.6-7.8-5.4C1017.6,1196.3,1020,1193.7,1022.5,1191.2z"/>
					<path class="st28" d="M978.5,1207.2c0.3,0.2,1.7,1.2,1.8,2.9c0.2,1.9-1.4,4-3.9,4.5"/>
					<circle class="st29" cx="973.3" cy="1208.8" r="1.3"/>
					<path class="st27" d="M987.2,1204.9c3-1.1,6-2.2,9-3.2c-0.9,1-1.7,2.1-2.6,3.1c0.5,0.3,1,0.5,1.6,0.8c-1,0.6-1.9,1.3-2.9,1.9
						c0.3,0.4,0.5,0.7,0.8,1.1c-2.4,0-4-0.6-5-1.1c-1.7-0.8-1.7-1.4-1.7-1.5C986.4,1205.5,986.9,1205.1,987.2,1204.9z"/>
					<path class="st27" d="M975.9,1201.5c2.3-2.6,4.7-5.1,7-7.7c0,0.7,0,1.5,0,2.2c1.6-1.2,3.2-2.4,4.8-3.6
						c-0.1,0.7-0.1,1.5-0.2,2.2c1.7-0.8,3.4-1.5,5.1-2.3c-0.2,0.6-0.4,1.3-0.6,1.9c1.6-0.5,3.2-0.9,4.9-1.4c-0.7,1.1-1.3,2.2-2,3.3
						c-2.6,0-6.1,0.3-10.2,1.5C981,1198.7,978,1200.2,975.9,1201.5z"/>
				</g>
				<g>
					<path class="st26" d="M902.4,1229.8c1.9-3,7.3-10.4,17.3-14.5c14.3-5.8,27.1-0.6,29.6,0.5c-1.2,2-9.1,14.6-24.7,17.3
						C913.9,1235.1,905.5,1231.3,902.4,1229.8z"/>
					<path class="st27" d="M961.1,1207.8c-1.5,0.2-4.7,0.7-7.8,3.1c-2.3,1.8-3.6,3.8-4.2,5c0.6,0.9,2,2.8,4.6,4
						c3.6,1.7,6.9,1,7.9,0.8c-2.6-1.8-5.2-3.6-7.8-5.4C956.1,1212.8,958.6,1210.3,961.1,1207.8z"/>
					<path class="st28" d="M917.1,1223.7c0.3,0.2,1.7,1.2,1.8,2.9c0.2,1.9-1.4,4-3.9,4.5"/>
					<circle class="st29" cx="911.9" cy="1225.4" r="1.3"/>
					<path class="st27" d="M925.8,1221.4c3-1.1,6-2.2,9-3.2c-0.9,1-1.7,2.1-2.6,3.1c0.5,0.3,1,0.5,1.6,0.8c-1,0.6-1.9,1.3-2.9,1.9
						c0.3,0.4,0.5,0.7,0.8,1.1c-2.4,0-4-0.6-5-1.1c-1.7-0.8-1.7-1.4-1.7-1.5C925,1222,925.5,1221.6,925.8,1221.4z"/>
					<path class="st27" d="M914.5,1218c2.3-2.6,4.7-5.1,7-7.7c0,0.7,0,1.5,0,2.2c1.6-1.2,3.2-2.4,4.8-3.6c-0.1,0.7-0.1,1.5-0.2,2.2
						c1.7-0.8,3.4-1.5,5.1-2.3c-0.2,0.6-0.4,1.3-0.6,1.9c1.6-0.5,3.2-0.9,4.9-1.4c-0.7,1.1-1.3,2.2-2,3.3c-2.6,0-6.1,0.3-10.2,1.5
						C919.6,1215.2,916.6,1216.7,914.5,1218z"/>
				</g>
				<g>
					<path class="st26" d="M842,1245.4c1.9-3,7.3-10.4,17.3-14.5c14.3-5.8,27.1-0.6,29.6,0.5c-1.2,2-9.1,14.6-24.7,17.3
						C853.5,1250.7,845,1247,842,1245.4z"/>
					<path class="st27" d="M900.6,1223.4c-1.5,0.2-4.7,0.7-7.8,3.1c-2.3,1.8-3.6,3.8-4.2,5c0.6,0.9,2,2.8,4.6,4
						c3.6,1.7,6.9,1,7.9,0.8c-2.6-1.8-5.2-3.6-7.8-5.4C895.7,1228.5,898.2,1225.9,900.6,1223.4z"/>
					<path class="st28" d="M856.7,1239.4c0.3,0.2,1.7,1.2,1.8,2.9c0.2,1.9-1.4,4-3.9,4.5"/>
					<circle class="st29" cx="851.4" cy="1241" r="1.3"/>
					<path class="st27" d="M865.3,1237.1c3-1.1,6-2.2,9-3.2c-0.9,1-1.7,2.1-2.6,3.1c0.5,0.3,1,0.5,1.6,0.8c-1,0.6-1.9,1.3-2.9,1.9
						c0.3,0.4,0.5,0.7,0.8,1.1c-2.4,0-4-0.6-5-1.1c-1.7-0.8-1.7-1.4-1.7-1.5C864.6,1237.6,865.1,1237.3,865.3,1237.1z"/>
					<path class="st27" d="M854,1233.6c2.3-2.6,4.7-5.1,7-7.7c0,0.7,0,1.5,0,2.2c1.6-1.2,3.2-2.4,4.8-3.6c-0.1,0.7-0.1,1.5-0.2,2.2
						c1.7-0.8,3.4-1.5,5.1-2.3c-0.2,0.6-0.4,1.3-0.6,1.9c1.6-0.5,3.2-0.9,4.9-1.4c-0.7,1.1-1.3,2.2-2,3.3c-2.6,0-6.1,0.3-10.2,1.5
						C859.1,1230.8,856.2,1232.4,854,1233.6z"/>
				</g>
				<g>
					<path class="st26" d="M781.6,1261.1c1.9-3,7.3-10.4,17.3-14.5c14.3-5.8,27.1-0.6,29.6,0.5c-1.2,2-9.1,14.6-24.7,17.3
						C793,1266.4,784.6,1262.6,781.6,1261.1z"/>
					<path class="st27" d="M840.2,1239.1c-1.5,0.2-4.7,0.7-7.8,3.1c-2.3,1.8-3.6,3.8-4.2,5c0.6,0.9,2,2.8,4.6,4
						c3.6,1.7,6.9,1,7.9,0.8c-2.6-1.8-5.2-3.6-7.8-5.4C835.3,1244.1,837.7,1241.6,840.2,1239.1z"/>
					<path class="st28" d="M796.2,1255c0.3,0.2,1.7,1.2,1.8,2.9c0.2,1.9-1.4,4-3.9,4.5"/>
					<circle class="st29" cx="791" cy="1256.7" r="1.3"/>
					<path class="st27" d="M804.9,1252.7c3-1.1,6-2.2,9-3.2c-0.9,1-1.7,2.1-2.6,3.1c0.5,0.3,1,0.5,1.6,0.8c-1,0.6-1.9,1.3-2.9,1.9
						c0.3,0.4,0.5,0.7,0.8,1.1c-2.4,0-4-0.6-5-1.1c-1.7-0.8-1.7-1.4-1.7-1.5C804.1,1253.3,804.6,1252.9,804.9,1252.7z"/>
					<path class="st27" d="M793.6,1249.3c2.3-2.6,4.7-5.1,7-7.7c0,0.7,0,1.5,0,2.2c1.6-1.2,3.2-2.4,4.8-3.6
						c-0.1,0.7-0.1,1.5-0.2,2.2c1.7-0.8,3.4-1.5,5.1-2.3c-0.2,0.6-0.4,1.3-0.6,1.9c1.6-0.5,3.2-0.9,4.9-1.4c-0.7,1.1-1.3,2.2-2,3.3
						c-2.6,0-6.1,0.3-10.2,1.5C798.7,1246.5,795.7,1248,793.6,1249.3z"/>
				</g>
				<g>
					<path class="st26" d="M791.5,1234.7c-3.2-1.6-11.5-5.4-22.2-3.9c-15.3,2-23.8,13-25.4,15.2c2,1.1,15.1,8.2,30.1,2.7
						C784.2,1244.9,789.7,1237.5,791.5,1234.7z"/>
					<path class="st27" d="M729.7,1244.7c1.3-0.6,4.4-1.7,8.3-1.2c2.9,0.4,5,1.5,6.2,2.3c-0.1,1.1-0.4,3.4-2,5.7
						c-2.2,3.3-5.5,4.3-6.4,4.6c1.4-2.8,2.8-5.7,4.1-8.5C736.5,1246.6,733.1,1245.7,729.7,1244.7z"/>
					<path class="st28" d="M775.8,1236.7c-0.1,0.3-0.8,1.9-0.1,3.4c0.8,1.7,3.2,2.7,5.7,2"/>
					<circle class="st29" cx="781.2" cy="1235.5" r="1.3"/>
					<path class="st27" d="M767.1,1239c-3.1,0.6-6.3,1.1-9.4,1.7c1.3,0.5,2.5,0.9,3.8,1.4c-0.3,0.5-0.7,1-1,1.4
						c1.1,0.1,2.3,0.2,3.4,0.3c-0.1,0.4-0.1,0.9-0.2,1.3c2.1-1.2,3.2-2.5,3.8-3.4c1-1.5,0.8-2,0.7-2.2
						C768.1,1239.1,767.4,1239,767.1,1239z"/>
					<path class="st27" d="M775.2,1230.4c-3.3-1.1-6.6-2.1-9.9-3.2c0.4,0.6,0.7,1.3,1.1,1.9c-2-0.2-4-0.5-6-0.7
						c0.4,0.6,0.8,1.2,1.2,1.8c-1.9,0.2-3.7,0.4-5.6,0.5c0.5,0.5,1,0.9,1.5,1.4c-1.6,0.4-3.3,0.8-4.9,1.2c1.1,0.6,2.3,1.2,3.4,1.9
						c2.2-1.3,5.5-2.8,9.5-3.8C769.4,1230.5,772.7,1230.3,775.2,1230.4z"/>
				</g>
				<g>
					<path class="st26" d="M853,1218.4c-3.2-1.6-11.5-5.4-22.2-3.9c-15.3,2-23.8,13-25.4,15.2c2,1.1,15.1,8.2,30.1,2.7
						C845.7,1228.7,851.2,1221.3,853,1218.4z"/>
					<path class="st27" d="M791.2,1228.5c1.3-0.6,4.4-1.7,8.3-1.2c2.9,0.4,5,1.5,6.2,2.3c-0.1,1.1-0.4,3.4-2,5.7
						c-2.2,3.3-5.5,4.3-6.4,4.6c1.4-2.8,2.8-5.7,4.1-8.5C798,1230.4,794.6,1229.5,791.2,1228.5z"/>
					<path class="st28" d="M837.3,1220.5c-0.1,0.3-0.8,1.9-0.1,3.4c0.8,1.7,3.2,2.7,5.7,2"/>
					<circle class="st29" cx="842.7" cy="1219.3" r="1.3"/>
					<path class="st27" d="M828.6,1222.8c-3.1,0.6-6.3,1.1-9.4,1.7c1.3,0.5,2.5,0.9,3.8,1.4c-0.3,0.5-0.7,1-1,1.4
						c1.1,0.1,2.3,0.2,3.4,0.3c-0.1,0.4-0.1,0.9-0.2,1.3c2.1-1.2,3.2-2.5,3.8-3.4c1-1.5,0.8-2,0.7-2.2
						C829.6,1222.9,828.9,1222.8,828.6,1222.8z"/>
					<path class="st27" d="M836.7,1214.2c-3.3-1.1-6.6-2.1-9.9-3.2c0.4,0.6,0.7,1.3,1.1,1.9c-2-0.2-4-0.5-6-0.7
						c0.4,0.6,0.8,1.2,1.2,1.8c-1.9,0.2-3.7,0.4-5.6,0.5c0.5,0.5,1,0.9,1.5,1.4c-1.6,0.4-3.3,0.8-4.9,1.2c1.1,0.6,2.3,1.2,3.4,1.9
						c2.2-1.3,5.5-2.8,9.5-3.8C830.9,1214.3,834.2,1214.1,836.7,1214.2z"/>
				</g>
				<g>
					<path class="st26" d="M913.3,1201.9c-3.2-1.6-11.5-5.4-22.2-3.9c-15.3,2-23.8,13-25.4,15.2c2,1.1,15.1,8.2,30.1,2.7
						C905.9,1212.2,911.4,1204.8,913.3,1201.9z"/>
					<path class="st27" d="M851.4,1212c1.3-0.6,4.4-1.7,8.3-1.2c2.9,0.4,5,1.5,6.2,2.3c-0.1,1.1-0.4,3.4-2,5.7
						c-2.2,3.3-5.5,4.3-6.4,4.6c1.4-2.8,2.8-5.7,4.1-8.5C858.2,1213.9,854.8,1213,851.4,1212z"/>
					<path class="st28" d="M897.5,1204c-0.1,0.3-0.8,1.9-0.1,3.4c0.8,1.7,3.2,2.7,5.7,2"/>
					<circle class="st29" cx="902.9" cy="1202.8" r="1.3"/>
					<path class="st27" d="M888.8,1206.3c-3.1,0.6-6.3,1.1-9.4,1.7c1.3,0.5,2.5,0.9,3.8,1.4c-0.3,0.5-0.7,1-1,1.4
						c1.1,0.1,2.3,0.2,3.4,0.3c-0.1,0.4-0.1,0.9-0.2,1.3c2.1-1.2,3.2-2.5,3.8-3.4c1-1.5,0.8-2,0.7-2.2
						C889.8,1206.4,889.2,1206.3,888.8,1206.3z"/>
					<path class="st27" d="M896.9,1197.7c-3.3-1.1-6.6-2.1-9.9-3.2c0.4,0.6,0.7,1.3,1.1,1.9c-2-0.2-4-0.5-6-0.7
						c0.4,0.6,0.8,1.2,1.2,1.8c-1.9,0.2-3.7,0.4-5.6,0.5c0.5,0.5,1,0.9,1.5,1.4c-1.6,0.4-3.3,0.8-4.9,1.2c1.1,0.6,2.3,1.2,3.4,1.9
						c2.2-1.3,5.5-2.8,9.5-3.8C891.1,1197.8,894.5,1197.6,896.9,1197.7z"/>
				</g>
				<g>
					<path class="st26" d="M973.5,1185.5c-3.2-1.6-11.5-5.4-22.2-3.9c-15.3,2-23.8,13-25.4,15.2c2,1.1,15.1,8.2,30.1,2.7
						C966.2,1195.7,971.6,1188.3,973.5,1185.5z"/>
					<path class="st27" d="M911.7,1195.5c1.3-0.6,4.4-1.7,8.3-1.2c2.9,0.4,5,1.5,6.2,2.3c-0.1,1.1-0.4,3.4-2,5.7
						c-2.2,3.3-5.5,4.3-6.4,4.6c1.4-2.8,2.8-5.7,4.1-8.5C918.4,1197.4,915.1,1196.5,911.7,1195.5z"/>
					<path class="st28" d="M957.7,1187.5c-0.1,0.3-0.8,1.9-0.1,3.4c0.8,1.7,3.2,2.7,5.7,2"/>
					<circle class="st29" cx="963.1" cy="1186.3" r="1.3"/>
					<path class="st27" d="M949.1,1189.8c-3.1,0.6-6.3,1.1-9.4,1.7c1.3,0.5,2.5,0.9,3.8,1.4c-0.3,0.5-0.7,1-1,1.4
						c1.1,0.1,2.3,0.2,3.4,0.3c-0.1,0.4-0.1,0.9-0.2,1.3c2.1-1.2,3.2-2.5,3.8-3.4c1-1.5,0.8-2,0.7-2.2
						C950,1189.9,949.4,1189.8,949.1,1189.8z"/>
					<path class="st27" d="M957.2,1181.2c-3.3-1.1-6.6-2.1-9.9-3.2c0.4,0.6,0.7,1.3,1.1,1.9c-2-0.2-4-0.5-6-0.7
						c0.4,0.6,0.8,1.2,1.2,1.8c-1.9,0.2-3.7,0.4-5.6,0.5c0.5,0.5,1,0.9,1.5,1.4c-1.6,0.4-3.3,0.8-4.9,1.2c1.1,0.6,2.3,1.2,3.4,1.9
						c2.2-1.3,5.5-2.8,9.5-3.8C951.3,1181.3,954.7,1181.1,957.2,1181.2z"/>
				</g>
			</g>
		</g>
		<g>
			<ellipse class="st30" cx="880.7" cy="1254.8" rx="87.7" ry="45.9"/>
			<ellipse class="st30" cx="881.2" cy="1234.8" rx="87.1" ry="45.9"/>
			<line class="st30" x1="793" y1="1226.5" x2="793" y2="1254.8"/>
			<line class="st30" x1="814.2" y1="1253.2" x2="814.2" y2="1284.8"/>
			<line class="st30" x1="881.2" y1="1269.5" x2="880.7" y2="1300.7"/>
			<line class="st30" x1="968.9" y1="1224.8" x2="968.3" y2="1256"/>
			<line class="st30" x1="881.2" y1="1177.7" x2="880.7" y2="1208.9"/>
			<line class="st30" x1="948.3" y1="1252" x2="948.3" y2="1283.6"/>
			<line class="st30" x1="824.5" y1="1188.6" x2="824.5" y2="1219.6"/>
			<line class="st30" x1="937.9" y1="1188.6" x2="937.9" y2="1220.1"/>
		</g>
	</g>
	<path class="st5" d="M765.9,819.8c0,0,111.7,1.2,0,107.8s-51.8,127.2-152.8,128.9s-135.9,21.9-221.5,68.2
		c-79.9,43.2-204.3,118.4-254.5,149c-13.4,8.2-30.4,7.7-43.4-1.3L0.1,1086.8l115-51L321.9,904l287.8-123.2L765.9,819.8z"/>
	<path class="st33" d="M457.2,876.6l155,30.3c11.7,2.3,23.7,2,35.2-1l116.3-29.3c4.2,0,6.7-4.6,4.5-8.1l-60.2-96.5
		c-0.3-0.4-0.5-0.9-0.6-1.3l-45.6-157.4c-0.7-2.3-2.7-3.8-5.1-3.8h-41.9c-1.7,0-3.2-0.8-4.2-2.1l-52.4-69.7
		c-4.7-6.2-14.4-4.3-16.5,3.1l-12.2,44.7c-0.9,3.2-4.4,4.8-7.4,3.4l-24.7-12c-3.3-1.6-7.1,0.5-7.6,4.1l-38,289.7
		C451.6,873.8,454,876.6,457.2,876.6z"/>
	<g>
		<path class="st33" d="M145.2,1004.1l257,29.1c4.8,0.5,9.7,0.4,14.5-0.4l172-28.7c2.8,0,4.8-2.5,4.3-5.2l-102-516
			c-0.7-3.4-4.9-4.7-7.4-2.2L437,527.3c-2.1,2.1-5.7,1.5-7-1.1l-58.6-117.3c-1.7-3.3-6.5-3.2-7.9,0.3l-50.7,120.5
			c-1.1,2.7-4.6,3.5-6.9,1.6l-25.7-21.8c-2.4-2.1-6.2-0.9-7,2.2l-23,84.4c-0.8,3.1-4.6,4.2-7,2.2l-27.9-23.1
			c-2.6-2.2-6.6-0.7-7.1,2.7l-8.4,52.8L140.9,999C140.5,1001.7,142.6,1004.1,145.2,1004.1z"/>
		<path class="st34" d="M260.5,677l-58.7-44.9c-1.3-1-1.9-2.6-1.7-4.2l8-50.2c0.5-3.3,4.5-4.8,7.1-2.7l27.9,23.1
			c2.4,2,6.2,0.8,7-2.2l23-84.4c0.8-3.1,4.6-4.2,7-2.2l25.7,21.8c2.2,1.9,5.7,1.1,6.8-1.6l50.7-120.5c1.4-3.4,6.3-3.6,7.9-0.3
			L430,526.2c1.3,2.7,4.9,3.2,7,1.1l46.7-46.7c2.5-2.5,6.7-1.2,7.4,2.2l9.3,47.1c0.2,1,0,2.1-0.5,3l-40,69c-1.1,1.9-3.4,2.7-5.4,1.8
			l-41.8-17.3c-1.3-0.5-2.8-0.4-4,0.3l-53,32.5c-1.8,1.1-4.1,0.8-5.6-0.8l-19-21.5c-1.8-2.1-5.1-1.9-6.8,0.3l-57.6,78.7
			C265.2,678.1,262.4,678.5,260.5,677z"/>
	</g>
	<g>
		<path class="st33" d="M346.8,1090.3l-231.7,80.6L3.6,1090.3c-2.1,0-3.7-1.7-3.3-3.5l78.9-350.4c0.5-2.3,3.8-3.2,5.7-1.5l36.1,31.7
			c1.6,1.4,4.4,1,5.4-0.8l45.4-79.7c1.3-2.3,5-2.2,6.1,0.2l39.3,81.8c0.9,1.8,3.6,2.4,5.3,1.1l19.9-14.8c1.9-1.4,4.8-0.6,5.5,1.5
			l17.8,57.3c0.6,2.1,3.5,2.9,5.4,1.5l21.6-15.7c2-1.5,5.1-0.5,5.5,1.8l6.5,35.9l45.5,250.2C350.5,1088.6,348.9,1090.3,346.8,1090.3
			z"/>
		<path class="st34" d="M257.6,868.1l45.5-30.5c1-0.7,1.5-1.7,1.3-2.8l-6.2-34.1c-0.4-2.3-3.5-3.3-5.5-1.8l-21.6,15.7
			c-1.9,1.4-4.8,0.6-5.4-1.5l-17.8-57.3c-0.7-2.1-3.6-2.9-5.4-1.5l-19.9,14.8c-1.7,1.3-4.4,0.7-5.3-1.1l-40.4-108.2
			c-1.1-2.3-5.2-2.4-6.5-0.1l-43.9,106c-1,1.8-3.8,2.2-5.4,0.8l-36.1-31.7c-1.9-1.7-5.2-0.8-5.7,1.5l-7.2,32c-0.2,0.7,0,1.4,0.4,2.1
			l31,46.9c0.8,1.3,2.7,1.8,4.2,1.3l32.4-11.8c1-0.4,2.1-0.3,3.1,0.2l41,22.1c1.4,0.8,3.2,0.5,4.3-0.6l14.7-14.6
			c1.4-1.4,4-1.3,5.3,0.2l44.6,53.5C254,868.9,256.1,869.1,257.6,868.1z"/>
	</g>
	<path class="st35" d="M156.1,1044.9c-7.4,26.7-6.3,51.8-24.3,80.6c0,0,19.3,0,52.7,0C181,1118,156.1,1044.9,156.1,1044.9z"/>
	<rect x="154.9" y="1125.5" class="st11" width="6.6" height="64.1"/>
	<path class="st35" d="M190.4,1035.8c-7.4,26.7-6.3,51.8-24.3,80.6c0,0,19.3,0,52.7,0C215.3,1109,190.4,1035.8,190.4,1035.8z"/>
	<rect x="189.2" y="1116.4" class="st11" width="6.6" height="64.1"/>
	<g>
		<path class="st8" d="M948.2,509.8c-15.6,9-20.3,6-30.1,12.8c-10.3,7.2-14.7,17.2-15,18c4.6-2.8,11.9-5.3,23.6-4.3
			c2.8,0.2,5.7,0.3,8.3,0.5c7.5-10.6,18.1-18.5,23.5-28C959.9,502.3,950.3,508.6,948.2,509.8z"/>
		<path class="st8" d="M956.8,557.5c-1-0.1-5.3-4.3-7.3-4.4c-2-0.2-7.5,2.5-9.3,4c-5.2,4.6-21.4,5-21.4,5l-2-0.2
			c-11.1,13.6-69.5,75.1-66.3,56.5c3.6-20.4,31.2-46.7,30.5-50.4c-0.6-3.7,1.5-10.5,1.5-10.5s-24.6,0.1-22.3-2.1
			c2.7-2.5,8.5-5.5,10.4-8.3c1-1.5-0.4-9.5-0.4-9.5l22.4,5l10.2-2.1c4.5-2.9,11.9-5.4,23.8-4.4c4,0.3,8.1,0.3,11.6,0.9
			c16.4,2.6,10.8,11.2,15.5,13.8C957.8,553.2,957.9,557.6,956.8,557.5z"/>
	</g>
</g>
</svg>
