<?xml version="1.0" encoding="utf-8"?>
<!-- Generator: Adobe Illustrator 26.2.1, SVG Export Plug-In . SVG Version: 6.00 Build 0)  -->
<svg version="1.1" xmlns="http://www.w3.org/2000/svg" xmlns:xlink="http://www.w3.org/1999/xlink" x="0px" y="0px"
	 viewBox="0 0 3458.3 1927.6" style="enable-background:new 0 0 3458.3 1927.6;" xml:space="preserve">
<style type="text/css">
	.st0{fill:none;}
	.st1{fill:#0F7ABD;}
	.st2{opacity:0.5;fill:none;stroke:#FFFFFF;stroke-width:0.3;}
	.st3{fill:#0669B1;}
	.st4{fill:#64BFC1;}
	.st5{fill:#095F93;}
	.st6{opacity:0.2;fill:#5B9ED6;}
	.st7{opacity:0.94;fill:url(#SVGID_1_);}
	.st8{fill:#FFFFFF;}
	.st9{fill:#7AB7E2;}
	.st10{fill:#5B9ED6;}
	.st11{fill:#69574B;}
	.st12{fill:none;stroke:#FFFFFF;stroke-miterlimit:10;}
	.st13{fill:#045C83;}
	.st14{fill:#C9A593;}
	.st15{fill:#E9660B;}
	.st16{fill:#E5BCA4;}
	.st17{fill:#3C2313;}
	.st18{fill:none;stroke:#AB1917;stroke-linecap:round;stroke-linejoin:round;stroke-miterlimit:10;}
	.st19{fill:#AB1917;}
	.st20{fill:#4CB0E4;}
	.st21{fill:#1990CF;stroke:#1990CF;stroke-width:2;stroke-linecap:round;stroke-linejoin:round;stroke-miterlimit:10;}
	.st22{fill:none;stroke:#1990CF;stroke-width:3;stroke-linecap:round;stroke-linejoin:round;stroke-miterlimit:10;}
	.st23{fill:#1990CF;}
	.st24{opacity:0.94;fill:url(#SVGID_00000117675482539544441900000011058854812039121042_);}
	.st25{clip-path:url(#SVGID_00000041266750148163848830000016150924137797393547_);}
	.st26{fill:#4BAFE3;}
	.st27{fill:#1D8ECE;stroke:#1D8ECE;stroke-width:2;stroke-linecap:round;stroke-linejoin:round;stroke-miterlimit:10;}
	.st28{fill:none;stroke:#1D8ECE;stroke-width:3;stroke-linecap:round;stroke-linejoin:round;stroke-miterlimit:10;}
	.st29{fill:#1D8ECE;}
	.st30{fill:none;stroke:#095F93;stroke-width:2;stroke-miterlimit:10;}
	.st31{clip-path:url(#SVGID_00000178926985661899999680000010419663124475643799_);}
	.st32{clip-path:url(#SVGID_00000042712901923644014480000008952935636228415369_);}
	.st33{fill:#0B72B2;}
	.st34{fill:#0B79BC;}
	.st35{fill:#5FB353;}
	.st36{opacity:0.94;fill:url(#SVGID_00000085220111325532612500000003485958547672321202_);}
	.st37{fill:#025D86;}
	.st38{fill:#0569B0;}
	.st39{fill:#DEBAA1;}
	.st40{fill:#F4CBAB;}
	.st41{fill:#D4976E;}
	.st42{fill:#096199;}
	.st43{fill:#D09E61;}
	.st44{fill:#AF793B;}
	.st45{fill:#EAC295;}
	.st46{font-family:'ComicSansMS';}
	.st47{font-size:3.4624px;}
	.st48{fill:#F4A304;}
	.st49{opacity:0.94;fill:url(#SVGID_00000119837764485288615520000000136048085407843505_);}
	.st50{opacity:0.94;fill:url(#SVGID_00000168803923904638047610000006783431934533831825_);}
	.st51{fill:none;stroke:#095F93;stroke-width:1.5;stroke-miterlimit:10;}
	.st52{fill:none;stroke:#095F93;stroke-miterlimit:10;}
	.st53{fill:#086096;}
	.st54{fill:#5BA0D7;}
	.st55{fill:none;stroke:#1D1E1C;stroke-width:0.5;stroke-miterlimit:10;}
	.st56{fill:#53302C;}
	.st57{fill:#4DB2E6;}
	.st58{fill:#90573F;}
	.st59{fill:#AB1917;stroke:#0669B1;stroke-linecap:round;stroke-linejoin:round;stroke-miterlimit:10;}
	.st60{fill:none;stroke:#000000;stroke-linecap:round;stroke-linejoin:round;stroke-miterlimit:10;}
	.st61{fill:#F4CBAC;}
	.st62{fill:#0469B1;}
	.st63{fill:#DFBAA2;}
	.st64{fill:#D5986F;}
	.st65{fill:#D1A794;}
	.st66{fill:#D7E0EE;}
	.st67{opacity:0.33;fill:#E2EBF8;stroke:#B5BBC5;stroke-width:5;stroke-miterlimit:10;}
	.st68{fill:#CECC90;}
	.st69{fill:#E7E890;}
	.st70{fill:#479535;}
	.st71{fill:#E7E7E8;}
	.st72{opacity:0.49;}
	.st73{fill:#C9CED3;}
	.st74{clip-path:url(#SVGID_00000016795697388801304630000008950455743482430105_);}
	.st75{fill:none;stroke:#FFFFFF;stroke-width:2;stroke-linecap:round;stroke-miterlimit:10;}
	.st76{clip-path:url(#SVGID_00000065765237988247691700000007624212361503151498_);}
	.st77{clip-path:url(#SVGID_00000028319741114409311650000002163787426940044725_);}
	.st78{fill:#FFFFFF;stroke:#FFFFFF;stroke-miterlimit:10;}
	.st79{fill:#B06A26;}
	.st80{fill:#B9793D;}
	.st81{fill:#9F561A;}
	.st82{fill:#1892D1;}
	.st83{fill:#1D1D1B;}
	.st84{fill:none;stroke:#0669B1;stroke-width:10;stroke-miterlimit:10;}
	.st85{fill:none;stroke:#0669B1;stroke-width:10;stroke-miterlimit:10;stroke-dasharray:20.4087,20.4087;}
	.st86{fill:none;stroke:#0669B1;stroke-width:5;stroke-miterlimit:10;}
	.st87{fill:none;stroke:#0669B1;stroke-width:5;stroke-miterlimit:10;stroke-dasharray:10.0885,10.0885;}
	.st88{fill:none;stroke:#0669B1;stroke-width:2.5;stroke-miterlimit:10;}
	.st89{fill:none;stroke:#086096;stroke-width:2;stroke-miterlimit:10;}
	.st90{fill:none;stroke:#0669B1;stroke-width:10;stroke-miterlimit:10;stroke-dasharray:20.2919,20.2919;}
	.st91{fill:none;stroke:#0669B1;stroke-width:5;stroke-miterlimit:10;stroke-dasharray:9.8933,9.8933;}
	.st92{fill:none;stroke:#0669B1;stroke-width:2;stroke-miterlimit:10;}
</style>
<pattern  x="4927.1" y="-4045.2" width="57.6" height="57.6" patternUnits="userSpaceOnUse" id="Kors" viewBox="0 -57.6 57.6 57.6" style="overflow:visible;">
	<g>
		<rect x="0" y="-57.6" class="st0" width="57.6" height="57.6"/>
		<rect x="0" y="-57.6" class="st1" width="57.6" height="57.6"/>
		<line class="st2" x1="52.5" y1="-54" x2="55.5" y2="-54"/>
		<line class="st2" x1="38.1" y1="-54" x2="41.1" y2="-54"/>
		<line class="st2" x1="23.7" y1="-54" x2="26.7" y2="-54"/>
		<line class="st2" x1="9.3" y1="-54" x2="12.3" y2="-54"/>
		<line class="st2" x1="45.3" y1="-46.8" x2="48.3" y2="-46.8"/>
		<line class="st2" x1="30.9" y1="-46.8" x2="33.9" y2="-46.8"/>
		<line class="st2" x1="16.5" y1="-46.8" x2="19.5" y2="-46.8"/>
		<line class="st2" x1="2.1" y1="-46.8" x2="5.1" y2="-46.8"/>
		<line class="st2" x1="52.5" y1="-39.6" x2="55.5" y2="-39.6"/>
		<line class="st2" x1="38.1" y1="-39.6" x2="41.1" y2="-39.6"/>
		<line class="st2" x1="23.7" y1="-39.6" x2="26.7" y2="-39.6"/>
		<line class="st2" x1="9.3" y1="-39.6" x2="12.3" y2="-39.6"/>
		<line class="st2" x1="45.3" y1="-32.4" x2="48.3" y2="-32.4"/>
		<line class="st2" x1="30.9" y1="-32.4" x2="33.9" y2="-32.4"/>
		<line class="st2" x1="16.5" y1="-32.4" x2="19.5" y2="-32.4"/>
		<line class="st2" x1="2.1" y1="-32.4" x2="5.1" y2="-32.4"/>
		<line class="st2" x1="52.5" y1="-25.2" x2="55.5" y2="-25.2"/>
		<line class="st2" x1="38.1" y1="-25.2" x2="41.1" y2="-25.2"/>
		<line class="st2" x1="23.7" y1="-25.2" x2="26.7" y2="-25.2"/>
		<line class="st2" x1="9.3" y1="-25.2" x2="12.3" y2="-25.2"/>
		<line class="st2" x1="45.3" y1="-18" x2="48.3" y2="-18"/>
		<line class="st2" x1="30.9" y1="-18" x2="33.9" y2="-18"/>
		<line class="st2" x1="16.5" y1="-18" x2="19.5" y2="-18"/>
		<line class="st2" x1="2.1" y1="-18" x2="5.1" y2="-18"/>
		<line class="st2" x1="52.5" y1="-10.8" x2="55.5" y2="-10.8"/>
		<line class="st2" x1="38.1" y1="-10.8" x2="41.1" y2="-10.8"/>
		<line class="st2" x1="23.7" y1="-10.8" x2="26.7" y2="-10.8"/>
		<line class="st2" x1="9.3" y1="-10.8" x2="12.3" y2="-10.8"/>
		<line class="st2" x1="45.3" y1="-3.6" x2="48.3" y2="-3.6"/>
		<line class="st2" x1="30.9" y1="-3.6" x2="33.9" y2="-3.6"/>
		<line class="st2" x1="16.5" y1="-3.6" x2="19.5" y2="-3.6"/>
		<line class="st2" x1="2.1" y1="-3.6" x2="5.1" y2="-3.6"/>
		<line class="st2" x1="54" y1="-55.5" x2="54" y2="-52.5"/>
		<line class="st2" x1="39.6" y1="-55.5" x2="39.6" y2="-52.5"/>
		<line class="st2" x1="25.2" y1="-55.5" x2="25.2" y2="-52.5"/>
		<line class="st2" x1="10.8" y1="-55.5" x2="10.8" y2="-52.5"/>
		<line class="st2" x1="46.8" y1="-48.3" x2="46.8" y2="-45.3"/>
		<line class="st2" x1="32.4" y1="-48.3" x2="32.4" y2="-45.3"/>
		<line class="st2" x1="18" y1="-48.3" x2="18" y2="-45.3"/>
		<line class="st2" x1="3.6" y1="-48.3" x2="3.6" y2="-45.3"/>
		<line class="st2" x1="54" y1="-41.1" x2="54" y2="-38.1"/>
		<line class="st2" x1="39.6" y1="-41.1" x2="39.6" y2="-38.1"/>
		<line class="st2" x1="25.2" y1="-41.1" x2="25.2" y2="-38.1"/>
		<line class="st2" x1="10.8" y1="-41.1" x2="10.8" y2="-38.1"/>
		<line class="st2" x1="46.8" y1="-33.9" x2="46.8" y2="-30.9"/>
		<line class="st2" x1="32.4" y1="-33.9" x2="32.4" y2="-30.9"/>
		<line class="st2" x1="18" y1="-33.9" x2="18" y2="-30.9"/>
		<line class="st2" x1="3.6" y1="-33.9" x2="3.6" y2="-30.9"/>
		<line class="st2" x1="54" y1="-26.7" x2="54" y2="-23.7"/>
		<line class="st2" x1="39.6" y1="-26.7" x2="39.6" y2="-23.7"/>
		<line class="st2" x1="25.2" y1="-26.7" x2="25.2" y2="-23.7"/>
		<line class="st2" x1="10.8" y1="-26.7" x2="10.8" y2="-23.7"/>
		<line class="st2" x1="46.8" y1="-19.5" x2="46.8" y2="-16.5"/>
		<line class="st2" x1="32.4" y1="-19.5" x2="32.4" y2="-16.5"/>
		<line class="st2" x1="18" y1="-19.5" x2="18" y2="-16.5"/>
		<line class="st2" x1="3.6" y1="-19.5" x2="3.6" y2="-16.5"/>
		<line class="st2" x1="54" y1="-12.3" x2="54" y2="-9.3"/>
		<line class="st2" x1="39.6" y1="-12.3" x2="39.6" y2="-9.3"/>
		<line class="st2" x1="25.2" y1="-12.3" x2="25.2" y2="-9.3"/>
		<line class="st2" x1="10.8" y1="-12.3" x2="10.8" y2="-9.3"/>
		<line class="st2" x1="46.8" y1="-5.1" x2="46.8" y2="-2.1"/>
		<line class="st2" x1="32.4" y1="-5.1" x2="32.4" y2="-2.1"/>
		<line class="st2" x1="18" y1="-5.1" x2="18" y2="-2.1"/>
		<line class="st2" x1="3.6" y1="-5.1" x2="3.6" y2="-2.1"/>
	</g>
</pattern>
<g id="Lager_1">
	<rect x="-0.2" y="-0.1" class="st3" width="3458.3" height="1927.6"/>
</g>
<g id="Lager_2">
	<pattern  id="SVGID_1_" xlink:href="#Kors" patternTransform="matrix(1.2964 0 0 1.7053 2686.9084 878.5139)">
	</pattern>
	<path class="st7" d="M218.1,812.1c0,0,390.1-125.6,643.5-94.3c141.3,17.5,289.3,102.6,181.6,254.3
		C940,1117.5,960.2,1194,801.3,1270.6c-154.2,74.3-287.7,37.8-376.2,72.7c-97.9,38.5-165.9,30.5-165.9,30.5L218.1,812.1z"/>
	<path class="st34" d="M-0.4,716.3c0,0,487.8-23.2,750.7-10.8c160.3,7.5,320.1,83.5,252.8,180.1c-139.6,200.6-347.9,294.2-415.9,334
		c-61,52.2-209,154.2-315,154.2s-273.7-46-273-46L-0.4,716.3z"/>
	<path class="st34" d="M148.7,590.7c-8.5,30.7-7.3,59.5-27.9,92.6c0,0,22.2,0,60.6,0C177.2,674.8,148.7,590.7,148.7,590.7z"/>
	<rect x="147.3" y="683.3" class="st37" width="7.6" height="73.7"/>
	<path class="st34" d="M188,580.3c-8.5,30.7-7.3,59.5-27.9,92.6c0,0,22.2,0,60.6,0C216.6,664.3,188,580.3,188,580.3z"/>
	<rect x="186.7" y="672.9" class="st37" width="7.6" height="73.7"/>
	<path class="st34" d="M493.7,614.6c6.5,23.4,5.6,45.3,21.2,70.6c0,0-16.9,0-46.2,0C471.9,678.6,493.7,614.6,493.7,614.6z"/>
	<rect x="488.9" y="685.2" class="st37" width="5.8" height="56.1"/>
	<path class="st34" d="M463.7,606.7c6.5,23.4,5.6,45.3,21.2,70.6c0,0-16.9,0-46.2,0C441.9,670.7,463.7,606.7,463.7,606.7z"/>
	<rect x="458.9" y="677.2" class="st37" width="5.8" height="56.1"/>
	<path class="st34" d="M88.2,627c6.5,23.4,5.6,45.3,21.2,70.6c0,0-16.9,0-46.2,0C66.4,691.1,88.2,627,88.2,627z"/>
	<rect x="83.5" y="697.6" class="st37" width="5.8" height="56.1"/>
	<path class="st34" d="M58.2,619.1c6.5,23.4,5.6,45.3,21.2,70.6c0,0-16.9,0-46.2,0C36.4,683.1,58.2,619.1,58.2,619.1z"/>
	<rect x="53.5" y="689.6" class="st37" width="5.8" height="56.1"/>
	<g>
		<polygon class="st34" points="833,646.5 762.5,609.3 693.2,646.5 		"/>
		<polygon class="st33" points="695.4,646.5 695.4,759.6 829.6,759.6 829.6,646.5 777.2,646.5 777.2,628.3 771.7,628.3 763.1,622.6 
			754.5,628.3 754.5,628.3 749,628.3 749,646.5 		"/>
		<rect x="565.4" y="656.8" class="st33" width="130.1" height="102.7"/>
		<polygon class="st34" points="726.4,628.7 565.4,628.7 565.4,656.8 695.4,656.8 695.4,646.5 693.2,646.5 		"/>
		<polygon class="st34" points="624.8,631.7 615.5,484.8 597.8,484.8 587.1,631.7 		"/>
	</g>
	<g>
		<path class="st37" d="M-0.4,1050.1c25.6-20.6,68-43,134.2-59.9l310.6-75.3l0.4-0.1c60.6-15.2,115.1-17.9,153.4-7.6
			c26.5,7.2,38.1,18.5,40,26.1c0.3,1,0.4,2.2,0.4,3.6l101.8-26.6c-0.2-0.9-0.4-1.8-0.6-2.7C727.7,859.3,686,822.3,625.6,806
			c-56.1-15.2-127.3-12.7-206.1,7.1l-310.7,75.4l-0.6,0.1c-40.6,10.3-76.9,23.4-108.6,38.9"/>
		<g>
			<path class="st20" d="M332,1176.7c0.6,0.3,2.1,5.5,3.2,7.1c2,3,4,4.6,7.2,6.1c6.8,3.1,15.5,2.4,21.7,6.6
				c4.9,3.3,6.7,9.3,6.5,15.1c-0.2,4.8-3,4-7.7,5.2c-15.4,4.2-34.9,3-50.3,0c-2.8-0.5-7-0.7-9.4-2.6c-2.7-2.1-2.8-7.1-2.9-10.9
				c-0.4-10.7,9.6-16.6,9.5-26.7c4.4-0.9,9.4-1.4,13.9-1.9C326.6,1174.5,331,1173.9,332,1176.7z"/>
			<path class="st20" d="M182,1217.4c-0.5-1.5-1-3.9-1-6.6c0-4.7,1.6-7.9,3.1-11.3c1.5-3.6,3.4-8.7,5.1-15.3c0.4-0.7,1.2-1.1,2-1
				c1,0.1,1.5,0.9,1.5,1c0.3,1.7,0.7,3.4,1,5.1c0.3-1.4,1-3.9,3.1-5.1c1.1-0.7,1.8-0.5,6.6-0.5c5.2,0,5.9-0.2,7.2,0.5
				c0.9,0.5,2.5,1.6,3.6,4.6c0.2-1.5,0.3-3.1,0.5-4.6c0.3-1,1.2-1.6,2-1.5c1,0.1,1.5,0.9,1.5,1c3,6.3,4.9,11.8,6.1,15.9
				c1.5,5,2.1,8,2,11.3c0,3.2-0.5,5.9-1,7.7c-3.6,1.9-11,5.1-21,5.1C193.6,1223.5,185.5,1219.5,182,1217.4z"/>
			<path class="st38" d="M296.5,886.7c2.8,14.1,5.5,28.4,8,43.1c6.7,39,11.4,76.6,14.7,112.4c4,15.7,7.8,32.1,11.3,49.1
				c7.1,34.3,12,67,15.5,97.6c-4.7,2.6-19.4,9.9-37,5.6c-6.2-1.5-11.1-4-14.7-6.4c-1.7-19.9-3.8-40.3-6.4-61.3
				c-3.5-28.8-7.7-56.5-12.3-82.9c-6.8-13.3-13.7-28.3-20.1-44.9c-7.3-18.7-12.8-36.3-17-52.3c-3.8,32.1-7.7,64.2-11.5,96.2
				c1.9,28.8,3.8,57.6,5.6,86.3c1.3,19.9,2.5,39.7,3.7,59.6c-3.4,2.9-9.1,6.8-16.9,8.8c-18.1,4.7-33.2-4.6-36.3-6.6
				c0.4-49,0.8-98,1.2-146.9c-7.3-29-13.2-67.6-9.8-112.6c1.3-16.8,3.6-32.2,6.6-46.1C219.6,885.8,258,886.3,296.5,886.7z"/>
			<path class="st39" d="M240.5,763.1c-8.6,0.2-16.6-4.6-20.6-12.3c0.2-3.7,0.4-7.4,0.5-11.1c0-1.2,0-2.5,0-3.7
				c2.1-2.3,4.1-4.7,6.2-7h26.8c5.5,3.5,6.7,5.5,6.7,6.7c0,0.2,0,1.6,0,4c0,0.4,0,0.7,0,0.9c0,2.5,0,8.2,0,10.2
				C256.2,758.2,248.7,762.9,240.5,763.1z"/>
			<path class="st40" d="M279.5,698.8c-1.3-1.3-2.7-1.1-4.1-0.3c0.1-6.7,0.1-18.7-8.8-29.2c-11.3-13.3-27.9-13.2-29.9-13.2
				c-2.5,0.1-18.5,0.6-28.7,13.6c-8.5,10.9-7.4,23.3-6.6,31.5c0,0.1,0,0.2,0,0.3c-2-2-4.5-3.8-6.7-1.7c-3.4,3.3,3,11.7,5.4,14.1
				c1.1,1.2,2.6,2,3.9,2c2.2,7.2,6.4,15.3,14.5,20.9c2.3,1.6,10.2,6.9,21.2,6.3c13.2-0.7,21.5-9.6,24.2-12.4
				c5.1-5.5,8-11.6,9.5-17.1c0.2-0.2,0.4-0.4,0.7-0.6C276.5,710.5,282.9,702.1,279.5,698.8z"/>
			<path d="M219.2,693.3c-1.7,0.5-2.9,1.4-3.6,2c0.4-0.7,1.1-1.8,2.3-2.8c0.5-0.3,2.8-2.1,5.6-1.4c0.4,0.1,1.9,0.5,2.8,1.9
				c0.2,0.3,0.6,1,0.6,1.9c0,1.5-1.2,2.8-2.8,2.8c-0.4,0-0.7-0.1-1-0.2c-1.1-0.4-1.8-1.4-1.8-2.6c0-0.7,0.3-1.4,0.8-1.9
				C221.4,692.9,220.3,692.9,219.2,693.3z"/>
			<path d="M247.6,695.2c0.4-0.7,1.1-1.8,2.3-2.8c0.5-0.3,2.8-2.1,5.6-1.4c0.4,0.1,1.9,0.5,2.8,1.9c0.2,0.3,0.6,1,0.6,1.9
				c0,1.5-1.2,2.8-2.8,2.8c-1.9,0-2.8-1.9-2.8-2.8c0-0.4,0.1-0.8,0.1-0.8c0.2-0.5,0.5-0.9,0.6-1.1c-0.7,0-1.8,0-2.9,0.4
				C249.5,693.8,248.3,694.7,247.6,695.2z"/>
			<path class="st41" d="M237.3,726.7c-7.3,0.3-12.3-3.5-13.7-4.7c8.8-0.2,17.7-0.3,26.5-0.5C248.8,722.8,244.2,726.5,237.3,726.7z"
				/>
			<path class="st38" d="M179,757.2c-0.7,0.4-1.6,1-2.8,1.8c-6.9,5.1-10.3,11.4-12,14.7c-19.2,38-27.9,76.1-27.9,76.1
				c-1.7,7.6-3,13.9-3.7,17.9c9.4,0.9,18.8,1.8,28.2,2.7c8.8-21.5,17.7-42.9,26.5-64.4c-0.2-1.7-0.4-3.4-0.6-5.1
				C185,785.6,182.3,771.1,179,757.2z"/>
			<path class="st38" d="M295.7,758.1c2.1,0.9,5,2.5,7.7,5c4.7,4.3,6.6,9.2,7.4,11.2c7.1,17.6,13.4,27.7,19.7,43.8
				c4.9,12.4,3.8,13.5,9.9,31.6c3.1,9.3,3.7,17.7,5.6,22.7c-2.9,1.2-5.6,1.9-11.5,1.3c-14.6-1.5-22.4-14.3-23.4-16
				c-7.6-16.9-15.2-33.8-22.7-50.7c0.1-1.7,0.3-3.4,0.5-5.1C290.4,786.6,292.8,772,295.7,758.1z"/>
			<path class="st38" d="M302.7,777.3c-2.8,14.1-7.6,41.3-7.6,68.6c0,10.9,0.8,22.8,0.8,22.8c0.9,13.1,2.3,24.3,3.6,33
				c-18.1,3.3-40.6,5.9-66.3,5.5c-21-0.4-39.6-2.6-55.2-5.5c1.7-8.7,3.6-20.6,4.7-34.9c0.2-3.1,0.7-7.9,0.8-14.2
				c0.4-30.7-7.2-70.5-7.3-71.2c0,0,0-0.1,0-0.1c0-0.4,0-0.7,0-0.8c0-0.6-3-13-1.8-17.9c2.5-10.4,29.4-12.4,31.8-12.6
				c4.5-0.3,8.3-0.2,10.9,0c0,0,0.1,0.1,0.1,0.2l3.4-0.5c0,0,13.6,9.7,38.9,1.9l1.9-1.9c2.9,0.3,12.2,0.3,14.8,1
				c15,4.4,25.3,7.5,27.9,14.7C304.9,767.4,305.6,771.2,302.7,777.3z"/>
			<path class="st39" d="M154.1,937.7c4-0.9,6.8-0.4,8.3,0.1c2.7,0.8,4.6,2.4,7.2,4.6c3.3,2.7,3.2,3.6,5.6,4.7
				c1.7,0.8,3.5,1.1,5.9,1.6c4,0.8,5,0.5,5.3,1.2c0.8,1.8-3.7,6.9-7.3,6.7c-2-0.1-2.9-1.9-6.3-2.2c-1-0.1-1.9,0-2.5,0.5
				c-1,0.8-1,2.2-1,2.4c0,0.5,0.1,0.9,0.2,1.1c2.3,7.1,4.6,14.2,6.9,21.3c0,0.4-0.1,1-0.4,1.8c-0.1,0.3-0.7,1.5-1.6,1.9
				c-1.2,0.6-3.3-0.2-4.8-2.3c-1.8-5.1-3.5-10.2-5.3-15.3c-0.1-0.4-0.3-0.6-0.4-0.6c-0.2,0-0.4,0.4-0.4,0.9
				c1.7,6.6,3.5,13.2,5.2,19.8c0.1,0.3,0.2,0.8,0,1.5c0,0.2-0.4,2-2,2.7c-1.2,0.5-2.3,0.1-2.6-0.1c-1.7-0.7-2.1-2.4-2.1-2.7
				c-1.8-6.9-3.7-13.8-5.5-20.7c-0.2-0.4-0.5-0.7-0.8-0.7c-0.3,0.1-0.4,0.6-0.3,1.4c1.2,5.3,2.3,10.6,3.5,15.9
				c0.1,0.4,0.2,1.7-0.5,3c-0.2,0.4-1.2,2-2.7,2.1c-1.3,0.1-2.5-0.9-2.9-2.4c-1.3-5.7-2.6-11.4-4-17.1c-0.2-2.3-0.6-4.3-1-4.3
				c-0.1,0-0.1,0.1-0.2,0.1c-0.6,0.6-0.4,1.6-0.3,2c0.5,3.3,0.9,6.7,1.4,10c0,0.3,0,2.7-1.6,3.8c-1.3,0.8-2.9,0.3-3,0.3
				c-2.5-0.8-2.3-4.6-4.1-17.3c-0.3-2.4-0.8-5.6-0.7-9.9c0.1-2.6,0.2-4,0.7-5.5c1.9-5.1,6.7-7.8,8-8.4
				C150.2,938.4,152.4,937.9,154.1,937.7z"/>
			<path class="st8" d="M275.4,698.4c-0.9,0.6-1.8,1.3-2.7,1.9c-0.1-3-0.5-6.4-1.1-10c-0.9-4.9-2.5-6.6-4.6-9.4
				c-21.2-14.7-40.6-12.7-57.5,1.9c-0.6,0.9-3.9,5-5.4,9.8c-0.9,2.9-1.7,5.7-2.6,8.5c-0.5-0.8-1.7-2.3-2.3-3.8
				c-5.1-12.3-0.2-30.2,13.6-38.9c0.8-0.5-0.5-2.6,2.4-3.9c3.5-1.2,1.5-1.6,1.5-2.9c0-4.8,9.1-8.7,20.4-8.7
				c11.3,0,20.4,3.9,20.4,8.7c0,1.3,2,2.9,0.7,4.1c2.2,1,1.5,1.7,3.1,2.7c4.4,2.8,7.4,7.3,10,12c1.5,2.7,2.5,4.6,3.6,7.5
				c2.1,5.6,1.7,7.8,1.9,9.7C277.3,690,277.4,693.7,275.4,698.4z"/>
			<path class="st8" d="M210.9,749.8l-5.9,54.4l68,1.9l-7.8-56.4h7.8c0,0,17.7,80.2,22.1,96.2c5.1,18.5,32.3,193.4,32.3,210.9
				c-9.7,11.7-143.8,17.5-153.6,9.7c0-17.5,5.9-181.7,7.8-213.8c0.8-13.2,11.7-48.6,11.7-48.6l9.7-54.4H210.9z"/>
			<path class="st38" d="M132.7,867.7l28.2,2.7l2.9,70c0,0-9.3,7.6-22.9,3.7C127.3,940.3,132.7,867.7,132.7,867.7z"/>
			<polygon class="st42" points="311.4,840.5 238.1,911.1 329.8,920.8 355.4,840.5 			"/>
			<polygon class="st38" points="329.8,920.8 341.9,820.2 399.4,771.1 384.6,865.3 			"/>
		</g>
		<path class="st37" d="M-0.4,1231.5c17.5,3,36.4,4.6,56.4,4.6c41,0,86.8-6.5,135.9-19.5l310.3-75.3l0.6-0.1
			C582,1121,646,1089.5,687.9,1050c44.4-41.8,63.4-92.6,52.6-139.8l-101.8,26.6c-0.2,8.1-6,21.3-22.6,36.9
			c-28.5,26.9-77.9,50.2-138.9,65.8l-310.6,75.3l-1.2,0.3c-81.3,21.7-135,18.5-166,8.7"/>
		<g>
			<g>
				<polygon class="st43" points="646.3,952 621.5,976.8 721.8,976.8 746.5,952.1 				"/>
				<polygon class="st43" points="621.5,976.8 621.5,1027.4 721.6,1027.4 721.8,976.8 				"/>
				<polygon class="st44" points="721.6,1027.4 721.8,976.8 746.5,952.1 746.5,1002.1 				"/>
				<polygon class="st45" points="639,959.4 633.9,964.4 734.2,964.4 734.2,972.3 739,966.6 739.2,959.4 				"/>
				<rect x="627.4" y="1004.6" class="st8" width="35.2" height="18.3"/>
				<g>
					<path class="st20" d="M661,1017.1c-0.9-0.6-3.2-2-6.4-2c-4.6,0-7.5,3-8.1,3.6c0.6,0.4,4.2,3,8.8,1.9
						C658.5,1019.9,660.4,1017.9,661,1017.1z"/>
					<g>
						<path class="st23" d="M642.4,1017.8c0.4-0.1,1.4-0.3,2.5,0c0.8,0.2,1.4,0.6,1.7,0.9c-0.1,0.3-0.2,1-0.8,1.6
							c-0.8,0.9-1.8,1.1-2.1,1.1c0.5-0.8,1-1.6,1.5-2.4C644.3,1018.7,643.4,1018.2,642.4,1017.8z"/>
						<path class="st23" d="M643.8,1021.7c-0.1,0-0.2,0-0.2-0.1c-0.1-0.1-0.1-0.2,0-0.3l1.4-2.1l-2.6-1.1c-0.1,0-0.2-0.1-0.1-0.2
							c0-0.1,0.1-0.2,0.2-0.2c0.6-0.2,1.5-0.3,2.6,0c0.7,0.2,1.3,0.5,1.8,0.9c0.1,0.1,0.1,0.1,0.1,0.2c-0.1,0.5-0.3,1.1-0.8,1.7
							C645.3,1021.3,644.3,1021.6,643.8,1021.7C643.8,1021.7,643.8,1021.7,643.8,1021.7z M643.2,1017.9l2.2,0.9
							c0.1,0,0.1,0.1,0.1,0.2c0,0.1,0,0.1,0,0.2l-1.2,1.9c0.4-0.1,0.9-0.4,1.4-0.9c0.4-0.5,0.6-1,0.7-1.4c-0.5-0.3-1-0.6-1.5-0.8
							C644.2,1017.9,643.7,1017.9,643.2,1017.9z"/>
					</g>
					<g>
						<path class="st23" d="M657.4,1019.3c-0.8,0-1.4-0.4-1.6-1.1c-0.2-0.6,0.1-1.1,0.2-1.3c0.1-0.2,0.3-0.2,0.5-0.1
							c0.2,0.1,0.2,0.3,0.1,0.5c-0.1,0.1-0.2,0.4-0.1,0.7c0.1,0.4,0.6,0.6,1.2,0.5c0.2,0,0.4,0.1,0.4,0.3c0,0.2-0.1,0.4-0.3,0.4
							C657.7,1019.3,657.5,1019.3,657.4,1019.3z"/>
					</g>
					<circle class="st23" cx="657.9" cy="1017" r="0.4"/>
					<g>
						<path class="st23" d="M653.6,1017.5c-0.9,0-1.9,0.1-2.8,0.1c0.4,0.2,0.7,0.4,1.1,0.6c-0.1,0.1-0.2,0.3-0.3,0.4
							c0.3,0.1,0.7,0.1,1,0.2c0,0.1-0.1,0.3-0.1,0.4c0.6-0.3,1-0.6,1.2-0.9c0.4-0.4,0.3-0.6,0.3-0.6
							C653.9,1017.6,653.7,1017.5,653.6,1017.5z"/>
						<path class="st23" d="M652.4,1019.4c-0.1,0-0.1,0-0.2-0.1c-0.1-0.1-0.1-0.2-0.1-0.2l0-0.1l-0.8-0.2c-0.1,0-0.2-0.1-0.2-0.2
							c0-0.1,0-0.2,0-0.2l0.1-0.2l-0.8-0.4c-0.1,0-0.1-0.2-0.1-0.3c0-0.1,0.1-0.2,0.2-0.2l2.8-0.1c0,0,0,0,0.1,0
							c0.3,0.1,0.5,0.2,0.5,0.3c0.1,0.2,0,0.5-0.3,0.9C653.5,1018.9,653.1,1019.2,652.4,1019.4
							C652.5,1019.4,652.5,1019.4,652.4,1019.4z M652,1018.5l0.6,0.1c0.1,0,0.1,0.1,0.2,0.1c0,0,0,0,0,0.1c0.3-0.2,0.5-0.4,0.7-0.6
							c0.2-0.2,0.2-0.3,0.2-0.4c0,0-0.1,0-0.1,0l-1.9,0.1l0.3,0.1c0.1,0,0.1,0.1,0.1,0.2C652.1,1018.3,652.1,1018.3,652,1018.5
							L652,1018.5z"/>
					</g>
					<g>
						<path class="st23" d="M656.3,1015.3c-0.9-0.4-1.9-0.9-2.8-1.3c0.1,0.2,0.2,0.4,0.2,0.6c-0.6-0.1-1.2-0.3-1.7-0.4
							c0.1,0.2,0.2,0.4,0.3,0.6c-0.6,0-1.1,0-1.7,0c0.1,0.2,0.3,0.3,0.4,0.5c-0.5,0.1-1,0.1-1.5,0.2c0.3,0.2,0.6,0.4,0.9,0.7
							c0.7-0.3,1.7-0.6,3-0.8C654.6,1015.1,655.6,1015.2,656.3,1015.3z"/>
						<path class="st23" d="M650.5,1016.2c0,0-0.1,0-0.1,0l-0.9-0.7c-0.1-0.1-0.1-0.2-0.1-0.3c0-0.1,0.1-0.2,0.2-0.2l1-0.1l-0.1-0.1
							c-0.1-0.1-0.1-0.2,0-0.3c0-0.1,0.1-0.1,0.2-0.1l1.3,0l-0.1-0.2c0-0.1,0-0.2,0-0.3c0.1-0.1,0.2-0.1,0.2-0.1l1.3,0.3l-0.1-0.2
							c0-0.1,0-0.2,0.1-0.3c0.1-0.1,0.2-0.1,0.3,0l2.8,1.3c0.1,0.1,0.2,0.2,0.1,0.3c0,0.1-0.1,0.2-0.3,0.2c-0.9-0.1-1.9-0.2-2.8,0
							C652.5,1015.6,651.5,1015.8,650.5,1016.2C650.6,1016.2,650.5,1016.2,650.5,1016.2z M650.2,1015.5l0.3,0.2
							c0.9-0.4,1.9-0.6,2.9-0.7c0.5-0.1,1-0.1,1.6-0.1l-1-0.5l0,0c0,0.1,0,0.2,0,0.2c-0.1,0.1-0.2,0.1-0.2,0.1l-1.2-0.3l0.1,0.1
							c0,0.1,0,0.2,0,0.2c0,0.1-0.1,0.1-0.2,0.1l-1.1,0l0,0c0.1,0.1,0.1,0.2,0,0.2c0,0.1-0.1,0.1-0.2,0.2L650.2,1015.5z"/>
					</g>
				</g>
				<text transform="matrix(1 0 0 1 630.0308 1009.9182)"><tspan x="0" y="0" class="st23 st46 st47">Batch </tspan><tspan x="0" y="3.5" class="st23 st46 st47">no7685</tspan></text>
			</g>
		</g>
		<g>
			<g>
				<polygon class="st43" points="531.6,1027.4 506.7,1052.2 607,1052.2 631.7,1027.4 				"/>
				<polygon class="st43" points="506.7,1052.2 506.7,1102.8 606.8,1102.8 607,1052.2 				"/>
				<polygon class="st44" points="606.8,1102.8 607,1052.2 631.7,1027.4 631.7,1077.5 				"/>
				<polygon class="st45" points="524.2,1034.8 519.1,1039.8 619.4,1039.8 619.4,1047.7 624.2,1042 624.4,1034.8 				"/>
				<rect x="512.6" y="1080" class="st8" width="35.2" height="18.3"/>
				<g>
					<path class="st20" d="M546.2,1092.5c-0.9-0.6-3.2-2-6.4-2c-4.6,0-7.5,3-8.1,3.6c0.6,0.4,4.2,3,8.8,1.9
						C543.7,1095.3,545.6,1093.3,546.2,1092.5z"/>
					<g>
						<path class="st23" d="M527.6,1093.2c0.4-0.1,1.4-0.3,2.5,0c0.8,0.2,1.4,0.6,1.7,0.9c-0.1,0.3-0.2,1-0.8,1.6
							c-0.8,0.9-1.8,1.1-2.1,1.1c0.5-0.8,1-1.6,1.5-2.4C529.6,1094,528.6,1093.6,527.6,1093.2z"/>
						<path class="st23" d="M529,1097c-0.1,0-0.2,0-0.2-0.1c-0.1-0.1-0.1-0.2,0-0.3l1.4-2.1l-2.6-1.1c-0.1,0-0.2-0.1-0.1-0.2
							c0-0.1,0.1-0.2,0.2-0.2c0.6-0.2,1.5-0.3,2.6,0c0.7,0.2,1.3,0.5,1.8,0.9c0.1,0.1,0.1,0.1,0.1,0.2c-0.1,0.5-0.3,1.1-0.8,1.7
							C530.5,1096.7,529.5,1097,529,1097C529,1097,529,1097,529,1097z M528.4,1093.3l2.2,0.9c0.1,0,0.1,0.1,0.1,0.2
							c0,0.1,0,0.1,0,0.2l-1.2,1.9c0.4-0.1,0.9-0.4,1.4-0.9c0.4-0.5,0.6-1,0.7-1.4c-0.5-0.3-1-0.6-1.5-0.8
							C529.4,1093.2,528.9,1093.2,528.4,1093.3z"/>
					</g>
					<g>
						<path class="st23" d="M542.6,1094.7c-0.8,0-1.4-0.4-1.6-1.1c-0.2-0.6,0.1-1.1,0.2-1.3c0.1-0.2,0.3-0.2,0.5-0.1
							c0.2,0.1,0.2,0.3,0.1,0.5c-0.1,0.1-0.2,0.4-0.1,0.7c0.1,0.3,0.6,0.6,1.2,0.5c0.2,0,0.4,0.1,0.4,0.3c0,0.2-0.1,0.4-0.3,0.4
							C542.9,1094.7,542.8,1094.7,542.6,1094.7z"/>
					</g>
					<circle class="st23" cx="543.1" cy="1092.4" r="0.4"/>
					<g>
						<path class="st23" d="M538.9,1092.9c-0.9,0-1.9,0.1-2.8,0.1c0.4,0.2,0.7,0.4,1.1,0.6c-0.1,0.1-0.2,0.3-0.3,0.4
							c0.3,0.1,0.7,0.1,1,0.2c0,0.1-0.1,0.3-0.1,0.4c0.6-0.3,1-0.6,1.2-0.9c0.4-0.4,0.3-0.6,0.3-0.6
							C539.1,1093,539,1092.9,538.9,1092.9z"/>
						<path class="st23" d="M537.7,1094.8c-0.1,0-0.1,0-0.2-0.1c-0.1-0.1-0.1-0.2-0.1-0.2l0-0.1l-0.8-0.2c-0.1,0-0.2-0.1-0.2-0.2
							c0-0.1,0-0.2,0-0.2l0.1-0.2l-0.8-0.4c-0.1,0-0.1-0.2-0.1-0.3c0-0.1,0.1-0.2,0.2-0.2l2.8-0.1c0,0,0,0,0.1,0
							c0.3,0.1,0.5,0.2,0.5,0.3c0.1,0.2,0,0.5-0.3,0.9C538.7,1094.2,538.3,1094.6,537.7,1094.8
							C537.7,1094.8,537.7,1094.8,537.7,1094.8z M537.2,1093.8l0.6,0.1c0.1,0,0.1,0.1,0.2,0.1c0,0,0,0,0,0.1
							c0.3-0.2,0.5-0.4,0.7-0.6c0.2-0.2,0.2-0.3,0.2-0.4c0,0-0.1,0-0.1,0l-1.9,0.1l0.3,0.1c0.1,0,0.1,0.1,0.1,0.2
							C537.4,1093.6,537.3,1093.7,537.2,1093.8L537.2,1093.8z"/>
					</g>
					<g>
						<path class="st23" d="M541.6,1090.7c-0.9-0.4-1.9-0.9-2.8-1.3c0.1,0.2,0.2,0.4,0.2,0.6c-0.6-0.1-1.2-0.3-1.7-0.4
							c0.1,0.2,0.2,0.4,0.3,0.6c-0.6,0-1.1,0-1.7,0c0.1,0.2,0.3,0.3,0.4,0.5c-0.5,0.1-1,0.1-1.5,0.2c0.3,0.2,0.6,0.4,0.9,0.7
							c0.7-0.3,1.7-0.6,3-0.8C539.8,1090.5,540.8,1090.5,541.6,1090.7z"/>
						<path class="st23" d="M535.7,1091.6c0,0-0.1,0-0.1,0l-0.9-0.7c-0.1-0.1-0.1-0.2-0.1-0.3c0-0.1,0.1-0.2,0.2-0.2l1-0.1l-0.1-0.1
							c-0.1-0.1-0.1-0.2,0-0.3c0-0.1,0.1-0.1,0.2-0.1l1.3,0l-0.1-0.2c0-0.1,0-0.2,0-0.3c0.1-0.1,0.2-0.1,0.2-0.1l1.3,0.3l-0.1-0.2
							c0-0.1,0-0.2,0.1-0.3c0.1-0.1,0.2-0.1,0.3,0l2.8,1.3c0.1,0,0.2,0.2,0.1,0.3c0,0.1-0.1,0.2-0.3,0.2c-0.9-0.1-1.9-0.2-2.8,0
							C537.7,1091,536.7,1091.2,535.7,1091.6C535.8,1091.6,535.8,1091.6,535.7,1091.6z M535.4,1090.9l0.3,0.2
							c0.9-0.4,1.9-0.6,2.9-0.7c0.5-0.1,1-0.1,1.6-0.1l-1-0.5l0,0c0,0.1,0,0.2,0,0.2c-0.1,0.1-0.2,0.1-0.2,0.1l-1.2-0.3l0.1,0.1
							c0,0.1,0,0.2,0,0.2c0,0.1-0.1,0.1-0.2,0.1l-1.1,0l0,0c0.1,0.1,0.1,0.2,0,0.2c0,0.1-0.1,0.1-0.2,0.2L535.4,1090.9z"/>
					</g>
				</g>
				<text transform="matrix(1 0 0 1 515.2481 1085.2864)"><tspan x="0" y="0" class="st23 st46 st47">Batch </tspan><tspan x="0" y="3.5" class="st23 st46 st47">no7685</tspan></text>
			</g>
		</g>
		<g>
			<g>
				<polygon class="st43" points="397.5,1072.7 372.7,1097.6 472.9,1097.6 497.7,1072.8 				"/>
				<polygon class="st43" points="372.7,1097.6 372.7,1148.1 472.7,1148.1 472.9,1097.6 				"/>
				<polygon class="st44" points="472.7,1148.1 472.9,1097.6 497.7,1072.8 497.7,1122.8 				"/>
				<polygon class="st45" points="390.1,1080.1 385.1,1085.2 485.3,1085.2 485.3,1093 490.1,1087.4 490.4,1080.1 				"/>
				<rect x="378.5" y="1125.3" class="st8" width="35.2" height="18.3"/>
				<g>
					<path class="st20" d="M412.1,1137.9c-0.9-0.6-3.2-2-6.4-2c-4.6,0-7.5,3-8.1,3.6c0.6,0.4,4.2,3,8.8,1.9
						C409.6,1140.6,411.5,1138.6,412.1,1137.9z"/>
					<g>
						<path class="st23" d="M393.5,1138.6c0.4-0.1,1.4-0.3,2.5,0c0.8,0.2,1.4,0.6,1.7,0.9c-0.1,0.3-0.2,1-0.8,1.6
							c-0.8,0.9-1.8,1.1-2.1,1.1c0.5-0.8,1-1.6,1.5-2.4C395.5,1139.4,394.5,1139,393.5,1138.6z"/>
						<path class="st23" d="M394.9,1142.4c-0.1,0-0.2,0-0.2-0.1c-0.1-0.1-0.1-0.2,0-0.3l1.4-2.1l-2.6-1.1c-0.1,0-0.2-0.1-0.1-0.2
							c0-0.1,0.1-0.2,0.2-0.2c0.6-0.2,1.5-0.3,2.6,0c0.7,0.2,1.3,0.5,1.8,0.9c0.1,0.1,0.1,0.1,0.1,0.2c-0.1,0.5-0.3,1.1-0.8,1.7
							C396.4,1142.1,395.4,1142.3,394.9,1142.4C394.9,1142.4,394.9,1142.4,394.9,1142.4z M394.4,1138.6l2.2,0.9
							c0.1,0,0.1,0.1,0.1,0.2c0,0.1,0,0.1,0,0.2l-1.2,1.9c0.4-0.1,0.9-0.4,1.4-0.9c0.4-0.5,0.6-1,0.7-1.4c-0.5-0.3-1-0.6-1.5-0.8
							C395.4,1138.6,394.8,1138.6,394.4,1138.6z"/>
					</g>
					<g>
						<path class="st23" d="M408.6,1140c-0.8,0-1.4-0.4-1.6-1.1c-0.2-0.6,0.1-1.1,0.2-1.3c0.1-0.2,0.3-0.2,0.5-0.1
							c0.2,0.1,0.2,0.3,0.1,0.5c-0.1,0.1-0.2,0.4-0.1,0.7c0.1,0.4,0.6,0.6,1.2,0.5c0.2,0,0.4,0.1,0.4,0.3c0,0.2-0.1,0.4-0.3,0.4
							C408.8,1140,408.7,1140,408.6,1140z"/>
					</g>
					<circle class="st23" cx="409.1" cy="1137.7" r="0.4"/>
					<g>
						<path class="st23" d="M404.8,1138.2c-0.9,0-1.9,0.1-2.8,0.1c0.4,0.2,0.7,0.4,1.1,0.6c-0.1,0.1-0.2,0.3-0.3,0.4
							c0.3,0.1,0.7,0.1,1,0.2c0,0.1-0.1,0.3-0.1,0.4c0.6-0.3,1-0.6,1.2-0.9c0.4-0.4,0.3-0.6,0.3-0.6
							C405.1,1138.3,404.9,1138.3,404.8,1138.2z"/>
						<path class="st23" d="M403.6,1140.2c-0.1,0-0.1,0-0.2-0.1c-0.1-0.1-0.1-0.2-0.1-0.2l0-0.1l-0.8-0.2c-0.1,0-0.2-0.1-0.2-0.2
							s0-0.2,0-0.2l0.1-0.2l-0.8-0.4c-0.1,0-0.1-0.2-0.1-0.3c0-0.1,0.1-0.2,0.2-0.2l2.8-0.1c0,0,0,0,0.1,0c0.3,0.1,0.5,0.2,0.5,0.3
							c0.1,0.2,0,0.5-0.3,0.9C404.7,1139.6,404.2,1139.9,403.6,1140.2C403.7,1140.2,403.6,1140.2,403.6,1140.2z M403.1,1139.2
							l0.6,0.1c0.1,0,0.1,0.1,0.2,0.1c0,0,0,0,0,0.1c0.3-0.2,0.5-0.4,0.7-0.6c0.2-0.2,0.2-0.3,0.2-0.4c0,0-0.1,0-0.1,0l-1.9,0.1
							l0.3,0.1c0.1,0,0.1,0.1,0.1,0.2C403.3,1139,403.3,1139.1,403.1,1139.2L403.1,1139.2z"/>
					</g>
					<g>
						<path class="st23" d="M407.5,1136c-0.9-0.4-1.9-0.9-2.8-1.3c0.1,0.2,0.2,0.4,0.2,0.6c-0.6-0.1-1.2-0.3-1.7-0.4
							c0.1,0.2,0.2,0.4,0.3,0.6c-0.6,0-1.1,0-1.7,0c0.1,0.2,0.3,0.3,0.4,0.5c-0.5,0.1-1,0.1-1.5,0.2c0.3,0.2,0.6,0.4,0.9,0.7
							c0.7-0.3,1.7-0.6,3-0.8C405.8,1135.8,406.8,1135.9,407.5,1136z"/>
						<path class="st23" d="M401.7,1137c0,0-0.1,0-0.1,0l-0.9-0.7c-0.1-0.1-0.1-0.2-0.1-0.3c0-0.1,0.1-0.2,0.2-0.2l1-0.1l-0.1-0.1
							c-0.1-0.1-0.1-0.2,0-0.3c0-0.1,0.1-0.1,0.2-0.1l1.3,0l-0.1-0.2c0-0.1,0-0.2,0-0.3c0.1-0.1,0.2-0.1,0.2-0.1l1.3,0.3l-0.1-0.2
							c0-0.1,0-0.2,0.1-0.3c0.1-0.1,0.2-0.1,0.3,0l2.8,1.3c0.1,0.1,0.2,0.2,0.1,0.3s-0.1,0.2-0.3,0.2c-0.9-0.1-1.9-0.2-2.8,0
							C403.6,1136.3,402.7,1136.6,401.7,1137C401.7,1137,401.7,1137,401.7,1137z M401.4,1136.2l0.3,0.2c0.9-0.4,1.9-0.6,2.9-0.7
							c0.5-0.1,1-0.1,1.6-0.1l-1-0.5l0,0c0,0.1,0,0.2,0,0.2c-0.1,0.1-0.2,0.1-0.2,0.1l-1.2-0.3l0.1,0.1c0,0.1,0,0.2,0,0.2
							c0,0.1-0.1,0.1-0.2,0.1l-1.1,0l0,0c0.1,0.1,0.1,0.2,0,0.2c0,0.1-0.1,0.1-0.2,0.2L401.4,1136.2z"/>
					</g>
				</g>
				<text transform="matrix(1 0 0 1 381.1732 1130.6428)"><tspan x="0" y="0" class="st23 st46 st47">Batch </tspan><tspan x="0" y="3.5" class="st23 st46 st47">no7685</tspan></text>
			</g>
		</g>
		<g>
			<g>
				<polygon class="st43" points="261.8,1104.1 237,1128.9 337.2,1128.9 362,1104.1 				"/>
				<polygon class="st43" points="237,1128.9 237,1179.4 337,1179.4 337.2,1128.9 				"/>
				<polygon class="st44" points="337,1179.4 337.2,1128.9 362,1104.1 362,1154.2 				"/>
				<polygon class="st45" points="254.4,1111.4 249.4,1116.5 349.6,1116.5 349.6,1124.4 354.5,1118.7 354.7,1111.4 				"/>
				<rect x="242.8" y="1156.6" class="st8" width="35.2" height="18.3"/>
				<g>
					<path class="st20" d="M276.5,1169.2c-0.9-0.6-3.2-2-6.4-2c-4.6,0-7.5,3-8.1,3.6c0.6,0.4,4.2,3,8.8,1.9
						C273.9,1172,275.8,1170,276.5,1169.2z"/>
					<g>
						<path class="st23" d="M257.9,1169.9c0.4-0.1,1.4-0.3,2.5,0c0.8,0.2,1.4,0.6,1.7,0.9c-0.1,0.3-0.2,1-0.8,1.6
							c-0.8,0.9-1.8,1.1-2.1,1.1c0.5-0.8,1-1.6,1.5-2.4C259.8,1170.7,258.8,1170.3,257.9,1169.9z"/>
						<path class="st23" d="M259.2,1173.7c-0.1,0-0.2,0-0.2-0.1c-0.1-0.1-0.1-0.2,0-0.3l1.4-2.1l-2.6-1.1c-0.1,0-0.2-0.1-0.1-0.2
							c0-0.1,0.1-0.2,0.2-0.2c0.6-0.2,1.5-0.3,2.6,0c0.7,0.2,1.3,0.5,1.8,0.9c0.1,0.1,0.1,0.1,0.1,0.2c-0.1,0.5-0.3,1.1-0.8,1.7
							C260.7,1173.4,259.8,1173.7,259.2,1173.7C259.3,1173.7,259.2,1173.7,259.2,1173.7z M258.7,1170l2.2,0.9c0.1,0,0.1,0.1,0.1,0.2
							c0,0.1,0,0.1,0,0.2l-1.2,1.9c0.4-0.1,0.9-0.4,1.4-0.9c0.4-0.5,0.6-1,0.7-1.4c-0.5-0.3-1-0.6-1.5-0.8
							C259.7,1169.9,259.1,1169.9,258.7,1170z"/>
					</g>
					<g>
						<path class="st23" d="M272.9,1171.4c-0.8,0-1.4-0.4-1.6-1.1c-0.2-0.6,0.1-1.1,0.2-1.3c0.1-0.2,0.3-0.2,0.5-0.1
							c0.2,0.1,0.2,0.3,0.1,0.5c-0.1,0.1-0.2,0.4-0.1,0.7c0.1,0.4,0.6,0.6,1.2,0.5c0.2,0,0.4,0.1,0.4,0.3c0,0.2-0.1,0.4-0.3,0.4
							C273.1,1171.4,273,1171.4,272.9,1171.4z"/>
					</g>
					<circle class="st23" cx="273.4" cy="1169.1" r="0.4"/>
					<g>
						<path class="st23" d="M269.1,1169.6c-0.9,0-1.9,0.1-2.8,0.1c0.4,0.2,0.7,0.4,1.1,0.6c-0.1,0.1-0.2,0.3-0.3,0.4
							c0.3,0.1,0.7,0.1,1,0.2c0,0.1-0.1,0.3-0.1,0.4c0.6-0.3,1-0.6,1.2-0.9c0.4-0.4,0.3-0.6,0.3-0.6
							C269.4,1169.6,269.2,1169.6,269.1,1169.6z"/>
						<path class="st23" d="M267.9,1171.5c-0.1,0-0.1,0-0.2-0.1c-0.1-0.1-0.1-0.2-0.1-0.2l0-0.1l-0.8-0.2c-0.1,0-0.2-0.1-0.2-0.2
							s0-0.2,0-0.2l0.1-0.2l-0.8-0.4c-0.1,0-0.1-0.2-0.1-0.3c0-0.1,0.1-0.2,0.2-0.2l2.8-0.1c0,0,0,0,0.1,0c0.3,0.1,0.5,0.2,0.5,0.3
							c0.1,0.2,0,0.5-0.3,0.9C269,1170.9,268.5,1171.2,267.9,1171.5C268,1171.5,267.9,1171.5,267.9,1171.5z M267.5,1170.5l0.6,0.1
							c0.1,0,0.1,0.1,0.2,0.1c0,0,0,0,0,0.1c0.3-0.2,0.5-0.4,0.7-0.6c0.2-0.2,0.2-0.3,0.2-0.4c0,0-0.1,0-0.1,0l-1.9,0.1l0.3,0.1
							c0.1,0,0.1,0.1,0.1,0.2C267.6,1170.3,267.6,1170.4,267.5,1170.5L267.5,1170.5z"/>
					</g>
					<g>
						<path class="st23" d="M271.8,1167.3c-0.9-0.4-1.9-0.9-2.8-1.3c0.1,0.2,0.2,0.4,0.2,0.6c-0.6-0.1-1.2-0.3-1.7-0.4
							c0.1,0.2,0.2,0.4,0.3,0.6c-0.6,0-1.1,0-1.7,0c0.1,0.2,0.3,0.3,0.4,0.5c-0.5,0.1-1,0.1-1.5,0.2c0.3,0.2,0.6,0.4,0.9,0.7
							c0.7-0.3,1.7-0.6,3-0.8C270.1,1167.2,271.1,1167.2,271.8,1167.3z"/>
						<path class="st23" d="M266,1168.3c0,0-0.1,0-0.1,0l-0.9-0.7c-0.1-0.1-0.1-0.2-0.1-0.3c0-0.1,0.1-0.2,0.2-0.2l1-0.1l-0.1-0.1
							c-0.1-0.1-0.1-0.2,0-0.3c0-0.1,0.1-0.1,0.2-0.1l1.3,0l-0.1-0.2c0-0.1,0-0.2,0-0.3c0.1-0.1,0.2-0.1,0.2-0.1l1.3,0.3l-0.1-0.2
							c0-0.1,0-0.2,0.1-0.3c0.1-0.1,0.2-0.1,0.3,0l2.8,1.3c0.1,0.1,0.2,0.2,0.1,0.3c0,0.1-0.1,0.2-0.3,0.2c-0.9-0.1-1.9-0.2-2.8,0
							C268,1167.6,267,1167.9,266,1168.3C266,1168.3,266,1168.3,266,1168.3z M265.7,1167.6l0.3,0.2c0.9-0.4,1.9-0.6,2.9-0.7
							c0.5-0.1,1-0.1,1.6-0.1l-1-0.5l0,0c0,0.1,0,0.2,0,0.2c-0.1,0.1-0.2,0.1-0.2,0.1l-1.2-0.3l0.1,0.1c0,0.1,0,0.2,0,0.2
							c0,0.1-0.1,0.1-0.2,0.1l-1.1,0l0,0c0.1,0.1,0.1,0.2,0,0.2c0,0.1-0.1,0.1-0.2,0.2L265.7,1167.6z"/>
					</g>
				</g>
				<text transform="matrix(1 0 0 1 245.4935 1161.9778)"><tspan x="0" y="0" class="st23 st46 st47">Batch </tspan><tspan x="0" y="3.5" class="st23 st46 st47">no7685</tspan></text>
			</g>
		</g>
		<g>
			<g>
				<polygon class="st43" points="112.1,1128.4 87.2,1153.2 187.5,1153.2 212.3,1128.4 				"/>
				<polygon class="st43" points="87.2,1153.2 87.2,1203.7 187.3,1203.7 187.5,1153.2 				"/>
				<polygon class="st44" points="187.3,1203.7 187.5,1153.2 212.3,1128.4 212.3,1178.5 				"/>
				<polygon class="st45" points="104.7,1135.7 99.7,1140.8 199.9,1140.8 199.9,1148.6 204.7,1143 205,1135.7 				"/>
				<rect x="93.1" y="1180.9" class="st8" width="35.2" height="18.3"/>
				<g>
					<path class="st20" d="M126.7,1193.5c-0.9-0.6-3.2-2-6.4-2c-4.6,0-7.5,3-8.1,3.6c0.6,0.4,4.2,3,8.8,1.9
						C124.2,1196.3,126.1,1194.2,126.7,1193.5z"/>
					<g>
						<path class="st23" d="M108.1,1194.2c0.4-0.1,1.4-0.3,2.5,0c0.8,0.2,1.4,0.6,1.7,0.9c-0.1,0.3-0.2,1-0.8,1.6
							c-0.8,0.9-1.8,1.1-2.1,1.1c0.5-0.8,1-1.6,1.5-2.4C110.1,1195,109.1,1194.6,108.1,1194.2z"/>
						<path class="st23" d="M109.5,1198c-0.1,0-0.2,0-0.2-0.1c-0.1-0.1-0.1-0.2,0-0.3l1.4-2.1l-2.6-1.1c-0.1,0-0.2-0.1-0.1-0.2
							c0-0.1,0.1-0.2,0.2-0.2c0.6-0.2,1.5-0.3,2.6,0c0.7,0.2,1.3,0.5,1.8,0.9c0.1,0.1,0.1,0.1,0.1,0.2c-0.1,0.5-0.3,1.1-0.8,1.7
							C111,1197.7,110,1197.9,109.5,1198C109.5,1198,109.5,1198,109.5,1198z M108.9,1194.3l2.2,0.9c0.1,0,0.1,0.1,0.1,0.2
							c0,0.1,0,0.1,0,0.2l-1.2,1.9c0.4-0.1,0.9-0.4,1.4-0.9c0.4-0.5,0.6-1,0.7-1.4c-0.5-0.3-1-0.6-1.5-0.8
							C110,1194.2,109.4,1194.2,108.9,1194.3z"/>
					</g>
					<g>
						<path class="st23" d="M123.1,1195.7c-0.8,0-1.4-0.4-1.6-1.1c-0.2-0.6,0.1-1.1,0.2-1.3c0.1-0.2,0.3-0.2,0.5-0.1
							c0.2,0.1,0.2,0.3,0.1,0.5c-0.1,0.1-0.2,0.4-0.1,0.7c0.1,0.4,0.6,0.6,1.2,0.5c0.2,0,0.4,0.1,0.4,0.3c0,0.2-0.1,0.4-0.3,0.4
							C123.4,1195.7,123.3,1195.7,123.1,1195.7z"/>
					</g>
					<circle class="st23" cx="123.6" cy="1193.4" r="0.4"/>
					<g>
						<path class="st23" d="M119.4,1193.9c-0.9,0-1.9,0.1-2.8,0.1c0.4,0.2,0.7,0.4,1.1,0.6c-0.1,0.1-0.2,0.3-0.3,0.4
							c0.3,0.1,0.7,0.1,1,0.2c0,0.1-0.1,0.3-0.1,0.4c0.6-0.3,1-0.6,1.2-0.9c0.4-0.4,0.3-0.6,0.3-0.6
							C119.6,1193.9,119.5,1193.9,119.4,1193.9z"/>
						<path class="st23" d="M118.2,1195.8c-0.1,0-0.1,0-0.2-0.1c-0.1-0.1-0.1-0.2-0.1-0.2l0-0.1l-0.8-0.2c-0.1,0-0.2-0.1-0.2-0.2
							s0-0.2,0-0.2l0.1-0.2l-0.8-0.4c-0.1,0-0.1-0.2-0.1-0.3c0-0.1,0.1-0.2,0.2-0.2l2.8-0.1c0,0,0,0,0.1,0c0.3,0.1,0.5,0.2,0.5,0.3
							c0.1,0.2,0,0.5-0.3,0.9C119.2,1195.2,118.8,1195.5,118.2,1195.8C118.2,1195.8,118.2,1195.8,118.2,1195.8z M117.7,1194.8
							l0.6,0.1c0.1,0,0.1,0.1,0.2,0.1c0,0,0,0,0,0.1c0.3-0.2,0.5-0.4,0.7-0.6c0.2-0.2,0.2-0.3,0.2-0.4c0,0-0.1,0-0.1,0l-1.9,0.1
							l0.3,0.1c0.1,0,0.1,0.1,0.1,0.2C117.9,1194.6,117.8,1194.7,117.7,1194.8L117.7,1194.8z"/>
					</g>
					<g>
						<path class="st23" d="M122.1,1191.6c-0.9-0.4-1.9-0.9-2.8-1.3c0.1,0.2,0.2,0.4,0.2,0.6c-0.6-0.1-1.2-0.3-1.7-0.4
							c0.1,0.2,0.2,0.4,0.3,0.6c-0.6,0-1.1,0-1.7,0c0.1,0.2,0.3,0.3,0.4,0.5c-0.5,0.1-1,0.1-1.5,0.2c0.3,0.2,0.6,0.4,0.9,0.7
							c0.7-0.3,1.7-0.6,3-0.8C120.3,1191.5,121.3,1191.5,122.1,1191.6z"/>
						<path class="st23" d="M116.2,1192.6c0,0-0.1,0-0.1,0l-0.9-0.7c-0.1-0.1-0.1-0.2-0.1-0.3c0-0.1,0.1-0.2,0.2-0.2l1-0.1l-0.1-0.1
							c-0.1-0.1-0.1-0.2,0-0.3c0-0.1,0.1-0.1,0.2-0.1l1.3,0l-0.1-0.2c0-0.1,0-0.2,0-0.3c0.1-0.1,0.2-0.1,0.2-0.1l1.3,0.3l-0.1-0.2
							c0-0.1,0-0.2,0.1-0.3c0.1-0.1,0.2-0.1,0.3,0l2.8,1.3c0.1,0.1,0.2,0.2,0.1,0.3c0,0.1-0.1,0.2-0.3,0.2c-0.9-0.1-1.9-0.2-2.8,0
							C118.2,1191.9,117.3,1192.2,116.2,1192.6C116.3,1192.6,116.3,1192.6,116.2,1192.6z M115.9,1191.9l0.3,0.2
							c0.9-0.4,1.9-0.6,2.9-0.7c0.5-0.1,1-0.1,1.6-0.1l-1-0.5l0,0c0,0.1,0,0.2,0,0.2c-0.1,0.1-0.2,0.1-0.2,0.1l-1.2-0.3l0.1,0.1
							c0,0.1,0,0.2,0,0.2c0,0.1-0.1,0.1-0.2,0.1l-1.1,0l0,0c0.1,0.1,0.1,0.2,0,0.2c0,0.1-0.1,0.1-0.2,0.2L115.9,1191.9z"/>
					</g>
				</g>
				<text transform="matrix(1 0 0 1 95.7567 1186.2717)"><tspan x="0" y="0" class="st23 st46 st47">Batch </tspan><tspan x="0" y="3.5" class="st23 st46 st47">no7685</tspan></text>
			</g>
		</g>
		<g>
			<g>
				<polygon class="st43" points="662.9,856.4 638.1,881.2 738.3,881.2 763.1,856.4 				"/>
				<polygon class="st43" points="638.1,881.2 638.1,931.7 738.1,931.7 738.3,881.2 				"/>
				<polygon class="st44" points="738.1,931.7 738.3,881.2 763.1,856.4 763.1,906.5 				"/>
				<polygon class="st45" points="655.5,863.7 650.5,868.8 750.7,868.8 750.7,876.7 755.6,871 755.8,863.7 				"/>
				<rect x="643.9" y="908.9" class="st8" width="35.2" height="18.3"/>
				<g>
					<path class="st20" d="M677.6,921.5c-0.9-0.6-3.2-2-6.4-2c-4.6,0-7.5,3-8.1,3.6c0.6,0.4,4.2,3,8.8,1.9
						C675,924.3,676.9,922.3,677.6,921.5z"/>
					<g>
						<path class="st23" d="M659,922.2c0.4-0.1,1.4-0.3,2.5,0c0.8,0.2,1.4,0.6,1.7,0.9c-0.1,0.3-0.2,1-0.8,1.6
							c-0.8,0.9-1.8,1.1-2.1,1.1c0.5-0.8,1-1.6,1.5-2.4C660.9,923,659.9,922.6,659,922.2z"/>
						<path class="st23" d="M660.3,926c-0.1,0-0.2,0-0.2-0.1c-0.1-0.1-0.1-0.2,0-0.3l1.4-2.1l-2.6-1.1c-0.1,0-0.2-0.1-0.1-0.2
							c0-0.1,0.1-0.2,0.2-0.2c0.6-0.2,1.5-0.3,2.6,0c0.7,0.2,1.3,0.5,1.8,0.9c0.1,0.1,0.1,0.1,0.1,0.2c-0.1,0.5-0.3,1.1-0.8,1.7
							C661.8,925.7,660.9,926,660.3,926C660.4,926,660.3,926,660.3,926z M659.8,922.3l2.2,0.9c0.1,0,0.1,0.1,0.1,0.2
							c0,0.1,0,0.1,0,0.2l-1.2,1.9c0.4-0.1,0.9-0.4,1.4-0.9c0.4-0.5,0.6-1,0.7-1.4c-0.5-0.3-1-0.6-1.5-0.8
							C660.8,922.2,660.2,922.2,659.8,922.3z"/>
					</g>
					<g>
						<path class="st23" d="M674,923.7c-0.8,0-1.4-0.4-1.6-1.1c-0.2-0.6,0.1-1.1,0.2-1.3c0.1-0.2,0.3-0.2,0.5-0.1
							c0.2,0.1,0.2,0.3,0.1,0.5c-0.1,0.1-0.2,0.4-0.1,0.7c0.1,0.4,0.6,0.6,1.2,0.5c0.2,0,0.4,0.1,0.4,0.3c0,0.2-0.1,0.4-0.3,0.4
							C674.2,923.7,674.1,923.7,674,923.7z"/>
					</g>
					<circle class="st23" cx="674.5" cy="921.4" r="0.4"/>
					<g>
						<path class="st23" d="M670.2,921.9c-0.9,0-1.9,0.1-2.8,0.1c0.4,0.2,0.7,0.4,1.1,0.6c-0.1,0.1-0.2,0.3-0.3,0.4
							c0.3,0.1,0.7,0.1,1,0.2c0,0.1-0.1,0.3-0.1,0.4c0.6-0.3,1-0.6,1.2-0.9c0.4-0.4,0.3-0.6,0.3-0.6
							C670.5,922,670.3,921.9,670.2,921.9z"/>
						<path class="st23" d="M669,923.8c-0.1,0-0.1,0-0.2-0.1c-0.1-0.1-0.1-0.2-0.1-0.2l0-0.1l-0.8-0.2c-0.1,0-0.2-0.1-0.2-0.2
							c0-0.1,0-0.2,0-0.2l0.1-0.2l-0.8-0.4c-0.1,0-0.1-0.2-0.1-0.3c0-0.1,0.1-0.2,0.2-0.2l2.8-0.1c0,0,0,0,0.1,0
							c0.3,0.1,0.5,0.2,0.5,0.3c0.1,0.2,0,0.5-0.3,0.9C670.1,923.2,669.6,923.6,669,923.8C669.1,923.8,669,923.8,669,923.8z
							 M668.6,922.8l0.6,0.1c0.1,0,0.1,0.1,0.2,0.1c0,0,0,0,0,0.1c0.3-0.2,0.5-0.4,0.7-0.6c0.2-0.2,0.2-0.3,0.2-0.4c0,0-0.1,0-0.1,0
							l-1.9,0.1l0.3,0.1c0.1,0,0.1,0.1,0.1,0.2C668.7,922.6,668.7,922.7,668.6,922.8L668.6,922.8z"/>
					</g>
					<g>
						<path class="st23" d="M672.9,919.6c-0.9-0.4-1.9-0.9-2.8-1.3c0.1,0.2,0.2,0.4,0.2,0.6c-0.6-0.1-1.2-0.3-1.7-0.4
							c0.1,0.2,0.2,0.4,0.3,0.6c-0.6,0-1.1,0-1.7,0c0.1,0.2,0.3,0.3,0.4,0.5c-0.5,0.1-1,0.1-1.5,0.2c0.3,0.2,0.6,0.4,0.9,0.7
							c0.7-0.3,1.7-0.6,3-0.8C671.2,919.5,672.2,919.5,672.9,919.6z"/>
						<path class="st23" d="M667.1,920.6c0,0-0.1,0-0.1,0l-0.9-0.7c-0.1-0.1-0.1-0.2-0.1-0.3c0-0.1,0.1-0.2,0.2-0.2l1-0.1l-0.1-0.1
							c-0.1-0.1-0.1-0.2,0-0.3c0-0.1,0.1-0.1,0.2-0.1l1.3,0l-0.1-0.2c0-0.1,0-0.2,0-0.3c0.1-0.1,0.2-0.1,0.2-0.1l1.3,0.3l-0.1-0.2
							c0-0.1,0-0.2,0.1-0.3c0.1-0.1,0.2-0.1,0.3,0l2.8,1.3c0.1,0.1,0.2,0.2,0.1,0.3c0,0.1-0.1,0.2-0.3,0.2c-0.9-0.1-1.9-0.2-2.8,0
							C669.1,920,668.1,920.2,667.1,920.6C667.1,920.6,667.1,920.6,667.1,920.6z M666.8,919.9l0.3,0.2c0.9-0.4,1.9-0.6,2.9-0.7
							c0.5-0.1,1-0.1,1.6-0.1l-1-0.5l0,0c0,0.1,0,0.2,0,0.2c-0.1,0.1-0.2,0.1-0.2,0.1l-1.2-0.3l0.1,0.1c0,0.1,0,0.2,0,0.2
							c0,0.1-0.1,0.1-0.2,0.1l-1.1,0l0,0c0.1,0.1,0.1,0.2,0,0.2c0,0.1-0.1,0.1-0.2,0.2L666.8,919.9z"/>
					</g>
				</g>
				<text transform="matrix(1 0 0 1 646.5928 914.2815)"><tspan x="0" y="0" class="st23 st46 st47">Batch </tspan><tspan x="0" y="3.5" class="st23 st46 st47">no7685</tspan></text>
			</g>
		</g>
	</g>
</g>
</svg>
