<?xml version="1.0" encoding="utf-8"?>
<!-- Generator: Adobe Illustrator 26.2.1, SVG Export Plug-In . SVG Version: 6.00 Build 0)  -->
<svg version="1.1" xmlns="http://www.w3.org/2000/svg" xmlns:xlink="http://www.w3.org/1999/xlink" x="0px" y="0px"
	 viewBox="0 0 3458.3 1927.6" style="enable-background:new 0 0 3458.3 1927.6;" xml:space="preserve">
<style type="text/css">
	.st0{fill:#0669B1;}
	.st1{fill:#64BFC1;}
	.st2{fill:#095F93;}
	.st3{opacity:0.2;fill:#5B9ED6;}
	.st4{opacity:0.94;fill:url(#);}
	.st5{fill:#FFFFFF;}
	.st6{fill:#7AB7E2;}
	.st7{fill:#5B9ED6;}
	.st8{fill:#69574B;}
	.st9{fill:none;stroke:#FFFFFF;stroke-miterlimit:10;}
	.st10{fill:#045C83;}
	.st11{fill:#C9A593;}
	.st12{fill:#E9660B;}
	.st13{fill:#E5BCA4;}
	.st14{fill:#3C2313;}
	.st15{fill:none;stroke:#AB1917;stroke-linecap:round;stroke-linejoin:round;stroke-miterlimit:10;}
	.st16{fill:#AB1917;}
	.st17{fill:#4CB0E4;}
	.st18{fill:#1990CF;stroke:#1990CF;stroke-width:2;stroke-linecap:round;stroke-linejoin:round;stroke-miterlimit:10;}
	.st19{fill:none;stroke:#1990CF;stroke-width:3;stroke-linecap:round;stroke-linejoin:round;stroke-miterlimit:10;}
	.st20{fill:#1990CF;}
	.st21{clip-path:url(#SVGID_00000003813962183210276620000000870530538649563520_);}
	.st22{fill:#4BAFE3;}
	.st23{fill:#1D8ECE;stroke:#1D8ECE;stroke-width:2;stroke-linecap:round;stroke-linejoin:round;stroke-miterlimit:10;}
	.st24{fill:none;stroke:#1D8ECE;stroke-width:3;stroke-linecap:round;stroke-linejoin:round;stroke-miterlimit:10;}
	.st25{fill:#1D8ECE;}
	.st26{fill:none;stroke:#095F93;stroke-width:2;stroke-miterlimit:10;}
	.st27{clip-path:url(#SVGID_00000120518540358543131780000015538688271268483474_);}
	.st28{clip-path:url(#SVGID_00000013180641519696861760000000851202457729465269_);}
	.st29{fill:#0B72B2;}
	.st30{fill:#0B79BC;}
	.st31{fill:#5FB353;}
	.st32{fill:#025D86;}
	.st33{fill:#0569B0;}
	.st34{fill:#DEBAA1;}
	.st35{fill:#F4CBAB;}
	.st36{fill:#D4976E;}
	.st37{fill:#096199;}
	.st38{fill:#D09E61;}
	.st39{fill:#AF793B;}
	.st40{fill:#EAC295;}
	.st41{fill:#F4A304;}
	.st42{fill:none;stroke:#095F93;stroke-width:1.5;stroke-miterlimit:10;}
	.st43{fill:none;stroke:#095F93;stroke-miterlimit:10;}
	.st44{fill:#086096;}
	.st45{fill:#5BA0D7;}
	.st46{fill:none;stroke:#1D1E1C;stroke-width:0.5;stroke-miterlimit:10;}
	.st47{fill:#53302C;}
	.st48{fill:#4DB2E6;}
	.st49{fill:#90573F;}
	.st50{fill:#AB1917;stroke:#0669B1;stroke-linecap:round;stroke-linejoin:round;stroke-miterlimit:10;}
	.st51{fill:none;stroke:#000000;stroke-linecap:round;stroke-linejoin:round;stroke-miterlimit:10;}
	.st52{fill:#F4CBAC;}
	.st53{fill:#0469B1;}
	.st54{fill:#DFBAA2;}
	.st55{fill:#D5986F;}
	.st56{fill:#D1A794;}
	.st57{fill:#D7E0EE;}
	.st58{opacity:0.33;fill:#E2EBF8;stroke:#B5BBC5;stroke-width:5;stroke-miterlimit:10;}
	.st59{fill:#CECC90;}
	.st60{fill:#E7E890;}
	.st61{fill:#479535;}
	.st62{fill:#E7E7E8;}
	.st63{opacity:0.49;}
	.st64{fill:#C9CED3;}
	.st65{clip-path:url(#SVGID_00000176743802136615581840000013943379495740779709_);}
	.st66{fill:none;stroke:#FFFFFF;stroke-width:2;stroke-linecap:round;stroke-miterlimit:10;}
	.st67{clip-path:url(#SVGID_00000129896517724145338560000007099480490195842236_);}
	.st68{clip-path:url(#SVGID_00000183228651678089475730000014492605482839891619_);}
	.st69{fill:#FFFFFF;stroke:#FFFFFF;stroke-miterlimit:10;}
	.st70{fill:#B06A26;}
	.st71{fill:#B9793D;}
	.st72{fill:#9F561A;}
	.st73{fill:#1892D1;}
	.st74{fill:#1D1D1B;}
	.st75{font-family:'ComicSansMS';}
	.st76{font-size:3.8555px;}
	.st77{font-size:4.5087px;}
	.st78{fill:none;stroke:#0669B1;stroke-width:10;stroke-miterlimit:10;}
	.st79{fill:none;stroke:#0669B1;stroke-width:10;stroke-miterlimit:10;stroke-dasharray:20.4087,20.4087;}
	.st80{fill:none;stroke:#0669B1;stroke-width:5;stroke-miterlimit:10;}
	.st81{fill:none;stroke:#0669B1;stroke-width:5;stroke-miterlimit:10;stroke-dasharray:10.0885,10.0885;}
	.st82{fill:none;stroke:#0669B1;stroke-width:2.5;stroke-miterlimit:10;}
	.st83{fill:none;stroke:#086096;stroke-width:2;stroke-miterlimit:10;}
	.st84{fill:none;stroke:#0669B1;stroke-width:10;stroke-miterlimit:10;stroke-dasharray:20.2919,20.2919;}
	.st85{fill:none;stroke:#0669B1;stroke-width:5;stroke-miterlimit:10;stroke-dasharray:9.8933,9.8933;}
	.st86{fill:none;stroke:#0669B1;stroke-width:2;stroke-miterlimit:10;}
</style>
<g id="Lager_1">
	<rect x="0.4" y="1.8" class="st0" width="3458.3" height="1927.6"/>
</g>
<g id="Lager_2">
	<path class="st30" d="M3148.9,964.8c-50.2,91.6-206,281.1-325,333.7c-243.5,107.7-519.7,121.4-387.5-8.8
		c103.7-102.2-62-108.3,185.5-320.9c94.5-81.2,15-65.4,113.4-189.6c38.6-48.7,25.3-101.8,81.9-133.7
		c50.8-28.6,343.8-1.1,456.4-116.8C3359.4,440.7,3250.1,780,3148.9,964.8z"/>
	<g>
		<path class="st73" d="M3351.3,378.3c0,19.9-12.6,36.9-30.3,43.4c-4.1,30.7-30.4,54.4-62.2,54.4c-34.7,0-62.8-28.1-62.8-62.8
			c0-19.5,8.9-36.9,22.8-48.4c-4-6.8-6.3-14.8-6.3-23.3c0-25.5,20.7-46.2,46.2-46.2c22.2,0,40.8,15.7,45.2,36.6c0.3,0,0.7,0,1,0
			C3330.6,332.1,3351.3,352.8,3351.3,378.3z"/>
		<path class="st44" d="M3250.3,494.2c1.1,9.3,4.5,79.4-4.4,94.7c11.2,1.4,27.6,0.3,27.2,0.4c0,0-1.4-77.3,1.2-88.7
			c2.3-10.5,10.7-73.6,11.7-91.9c-5.9,10.1-12.3,45.3-21.5,84.3c-1.8,7.8-19.3-60-19.3-60C3245.1,432.4,3249.6,487.3,3250.3,494.2z"
			/>
	</g>
	<g>
		<polygon class="st0" points="2839.3,652.4 3040.7,514.4 3235.3,444.3 3238.2,647.7 2839.3,873.7 2721.9,821.7 2711.2,589.3 		"/>
		<polygon class="st30" points="3244.3,441.1 3040.7,514.4 2825.3,665.8 2698.5,597.4 2934.5,446.3 3130.8,385.2 		"/>
		<polygon class="st44" points="3019.8,771.3 3019.8,626.2 2902.1,685.9 2902.1,838 		"/>
		<polygon class="st0" points="2941.7,726.5 2941.7,688.7 2913.8,703.6 2913.8,741.4 		"/>
		<polygon class="st0" points="2977,708.2 2977,670.3 2949.1,685.4 2949.1,723.2 		"/>
		<polygon class="st0" points="3011.6,689.7 3011.3,652.1 2983.1,666.9 2983.1,705.1 		"/>
	</g>
	<g>
		<path class="st73" d="M2757.1,692.6c0,37.5-23.7,69.4-56.9,81.7c-7.7,57.8-57.1,102.3-117,102.3c-65.2,0-118.1-52.9-118.1-118.1
			c0-36.6,16.7-69.4,42.9-91c-7.5-12.8-11.8-27.8-11.8-43.7c0-48,38.9-87,87-87c41.8,0,76.7,29.5,85.1,68.9c0.6,0,1.3,0,1.9,0
			C2718.2,605.6,2757.1,644.6,2757.1,692.6z"/>
		<path class="st44" d="M2567.2,910.6c2,17.4,8.5,149.4-8.3,178.1c21,2.6,52,0.6,51.1,0.7c0,0-2.6-145.3,2.2-166.9
			c4.4-19.7,20-138.4,21.9-172.9c-11,19-23.1,85.2-40.4,158.5c-3.5,14.7-36.3-112.9-36.3-112.9
			C2557.3,794.3,2565.7,897.7,2567.2,910.6z"/>
	</g>
	<g>
		<path class="st62" d="M2956.8,1048.1h-121.7V857c0-4.4,3.6-8,8-8h105.8c4.4,0,7.9,3.5,7.9,7.9V1048.1z"/>
		<polygon class="st62" points="2898.1,1106.7 2956.8,1048.1 2834.6,1048.1 2775,1107.8 		"/>
		<circle class="st2" cx="2788.6" cy="1120.1" r="14.7"/>
		<circle class="st2" cx="2888.2" cy="1120.3" r="14.4"/>
		<path class="st2" d="M2956.7,1048.1c2.6,2.6,4.2,6.2,4.2,10.2c0,7.9-6.4,14.4-14.4,14.4c-4,0-7.6-1.6-10.2-4.2L2956.7,1048.1z"/>
		<g>
			<g>
				<polygon class="st38" points="2822.9,1003.8 2795.3,1031.5 2906.9,1031.5 2934.5,1003.9 				"/>
				<polygon class="st38" points="2795.3,1031.5 2795.3,1087.7 2906.7,1087.7 2906.9,1031.5 				"/>
				<polygon class="st39" points="2906.7,1087.7 2906.9,1031.5 2934.5,1003.9 2934.5,1059.6 				"/>
				<polygon class="st40" points="2814.7,1012 2809.1,1017.6 2920.7,1017.6 2920.7,1026.4 2926.1,1020.1 2926.4,1012 				"/>
				<rect x="2801.8" y="1062.4" class="st5" width="39.2" height="20.4"/>
				<g>
					<path class="st17" d="M2839.3,1076.3c-1-0.7-3.6-2.2-7.1-2.2c-5.1,0-8.3,3.3-9,4c0.6,0.5,4.6,3.3,9.8,2.1
						C2836.4,1079.4,2838.5,1077.2,2839.3,1076.3z"/>
					<g>
						<path class="st20" d="M2818.5,1077.1c0.5-0.1,1.5-0.4,2.8,0c0.9,0.2,1.6,0.7,1.9,1c-0.1,0.4-0.3,1.1-0.9,1.8
							c-0.9,1-2,1.2-2.3,1.3c0.6-0.9,1.1-1.8,1.7-2.6C2820.7,1078,2819.6,1077.6,2818.5,1077.1z"/>
						<path class="st20" d="M2820.1,1081.4c-0.1,0-0.2,0-0.2-0.1c-0.1-0.1-0.1-0.2,0-0.3l1.5-2.4l-2.9-1.2c-0.1,0-0.2-0.1-0.2-0.3
							s0.1-0.2,0.2-0.2c0.7-0.2,1.7-0.4,2.9-0.1c0.7,0.2,1.4,0.6,2,1c0.1,0.1,0.1,0.2,0.1,0.3c-0.1,0.5-0.3,1.2-0.9,1.9
							C2821.7,1081,2820.7,1081.3,2820.1,1081.4C2820.1,1081.4,2820.1,1081.4,2820.1,1081.4z M2819.4,1077.2l2.4,1
							c0.1,0,0.1,0.1,0.2,0.2c0,0.1,0,0.2,0,0.2l-1.3,2.1c0.5-0.2,1-0.5,1.5-1c0.5-0.5,0.7-1.1,0.8-1.5c-0.5-0.4-1.1-0.7-1.7-0.8
							C2820.6,1077.2,2820,1077.1,2819.4,1077.2z"/>
					</g>
					<g>
						<path class="st20" d="M2835.3,1078.8c-0.8,0-1.6-0.5-1.8-1.2c-0.2-0.6,0.1-1.2,0.2-1.4c0.1-0.2,0.4-0.2,0.6-0.1
							c0.2,0.1,0.2,0.4,0.1,0.6c-0.1,0.1-0.2,0.4-0.1,0.8c0.1,0.4,0.7,0.7,1.3,0.6c0.2,0,0.4,0.1,0.5,0.3c0,0.2-0.1,0.4-0.3,0.5
							C2835.5,1078.8,2835.4,1078.8,2835.3,1078.8z"/>
					</g>
					<circle class="st20" cx="2835.8" cy="1076.2" r="0.4"/>
					<g>
						<path class="st20" d="M2831.1,1076.8c-1,0.1-2.1,0.1-3.1,0.2c0.4,0.2,0.8,0.4,1.2,0.6c-0.1,0.1-0.3,0.3-0.4,0.4
							c0.4,0.1,0.7,0.2,1.1,0.2c0,0.1-0.1,0.3-0.1,0.4c0.7-0.3,1.1-0.7,1.4-1c0.4-0.5,0.3-0.6,0.3-0.7
							C2831.4,1076.8,2831.2,1076.8,2831.1,1076.8z"/>
						<path class="st20" d="M2829.7,1078.9c-0.1,0-0.1,0-0.2-0.1c-0.1-0.1-0.1-0.2-0.1-0.3l0-0.2l-0.8-0.2c-0.1,0-0.2-0.1-0.2-0.2
							c0-0.1,0-0.2,0.1-0.3l0.2-0.2l-0.9-0.5c-0.1-0.1-0.2-0.2-0.1-0.3c0-0.1,0.1-0.2,0.2-0.2l3.1-0.2c0,0,0,0,0.1,0
							c0.4,0.1,0.5,0.2,0.6,0.4c0.1,0.2,0,0.6-0.4,1c-0.4,0.4-0.9,0.8-1.5,1C2829.8,1078.9,2829.8,1078.9,2829.7,1078.9z
							 M2829.2,1077.8l0.7,0.1c0.1,0,0.1,0.1,0.2,0.1c0,0,0,0.1,0,0.1c0.3-0.2,0.6-0.4,0.8-0.6c0.2-0.2,0.3-0.4,0.3-0.4
							c0,0-0.1,0-0.1-0.1l-2.1,0.1l0.3,0.2c0.1,0,0.1,0.1,0.1,0.2C2829.4,1077.6,2829.4,1077.7,2829.2,1077.8L2829.2,1077.8z"/>
					</g>
					<g>
						<path class="st20" d="M2834.1,1074.3c-1-0.5-2.1-1-3.1-1.4c0.1,0.2,0.2,0.4,0.3,0.7c-0.6-0.2-1.3-0.3-1.9-0.5
							c0.1,0.2,0.2,0.4,0.3,0.6c-0.6,0-1.2,0-1.8,0c0.1,0.2,0.3,0.3,0.4,0.5c-0.6,0.1-1.1,0.1-1.7,0.2c0.3,0.3,0.7,0.5,1,0.8
							c0.8-0.3,1.9-0.7,3.3-0.9C2832.1,1074.1,2833.3,1074.1,2834.1,1074.3z"/>
						<path class="st20" d="M2827.6,1075.3c-0.1,0-0.1,0-0.2-0.1l-1-0.8c-0.1-0.1-0.1-0.2-0.1-0.3c0-0.1,0.1-0.2,0.2-0.2l1.2-0.1
							l-0.1-0.1c-0.1-0.1-0.1-0.2,0-0.3c0-0.1,0.1-0.1,0.2-0.2l1.4,0l-0.1-0.2c0-0.1,0-0.2,0-0.3c0.1-0.1,0.2-0.1,0.3-0.1l1.4,0.4
							l-0.1-0.2c0-0.1,0-0.2,0.1-0.3c0.1-0.1,0.2-0.1,0.3,0l3.1,1.4c0.1,0.1,0.2,0.2,0.1,0.3s-0.2,0.2-0.3,0.2
							c-1-0.2-2.1-0.2-3.1-0.1c-1.1,0.1-2.2,0.4-3.2,0.8C2827.6,1075.3,2827.6,1075.3,2827.6,1075.3z M2827.2,1074.5l0.4,0.3
							c1-0.4,2.1-0.7,3.2-0.8c0.6-0.1,1.2-0.1,1.7-0.1l-1.1-0.5l0,0c0,0.1,0,0.2,0,0.3c-0.1,0.1-0.2,0.1-0.3,0.1l-1.4-0.3l0.1,0.1
							c0,0.1,0,0.2,0,0.3c-0.1,0.1-0.1,0.1-0.2,0.1l-1.2,0l0,0c0.1,0.1,0.1,0.2,0,0.3c0,0.1-0.1,0.2-0.2,0.2L2827.2,1074.5z"/>
					</g>
				</g>
				<text transform="matrix(1 0 0 1 2804.7637 1068.2952)"><tspan x="0" y="0" class="st20 st75 st76">Batch </tspan><tspan x="0" y="3.9" class="st20 st75 st76">no7685</tspan></text>
			</g>
		</g>
		<path class="st69" d="M2897.1,1106.6l-123.1,1.2l1.4-209.8c0-8.5,6.9-15.4,15.4-15.4h91c8.4,0,15.2,6.8,15.2,15.2V1106.6z"/>
	</g>
	<g>
		<path class="st48" d="M2788.5,1191.5c0.5,0.3,1.7,4.4,2.6,5.7c1.6,2.4,3.3,3.7,5.9,4.9c5.6,2.5,12.6,2,17.6,5.3
			c4,2.7,5.5,7.5,5.3,12.2c-0.2,3.9-2.4,3.2-6.2,4.2c-12.5,3.4-28.3,2.5-40.9,0c-2.3-0.4-5.7-0.6-7.6-2.1c-2.2-1.7-2.3-5.8-2.4-8.8
			c-0.3-8.7,7.8-13.4,7.7-21.7c3.6-0.7,7.7-1.2,11.3-1.5C2784,1189.7,2787.6,1189.2,2788.5,1191.5z"/>
		<path class="st48" d="M2666.6,1224.6c-0.4-1.3-0.8-3.1-0.8-5.4c0-3.8,1.3-6.4,2.5-9.1c1.2-2.9,2.8-7,4.2-12.5
			c0.4-0.6,1-0.9,1.7-0.8c0.8,0.1,1.2,0.7,1.2,0.8c0.3,1.4,0.6,2.8,0.8,4.2c0.2-1.1,0.8-3.1,2.5-4.2c0.9-0.5,1.5-0.4,5.4-0.4
			c4.2,0,4.8-0.1,5.8,0.4c0.7,0.4,2.1,1.3,2.9,3.7c0.1-1.2,0.3-2.5,0.4-3.7c0.2-0.8,0.9-1.3,1.7-1.2c0.8,0.1,1.2,0.8,1.2,0.8
			c2.4,5.1,4,9.6,5,12.9c1.3,4.1,1.7,6.5,1.7,9.1c0,2.6-0.4,4.8-0.8,6.2c-2.9,1.5-9,4.2-17,4.2
			C2676,1229.6,2669.4,1226.3,2666.6,1224.6z"/>
		<path class="st0" d="M2759.6,955.9c2.3,11.4,4.5,23.1,6.5,35.1c5.4,31.7,9.3,62.2,12,91.3c3.3,12.8,6.3,26.1,9.2,39.9
			c5.7,27.9,9.8,54.4,12.6,79.3c-3.8,2.1-15.8,8-30.1,4.6c-5-1.2-9-3.3-12-5.2c-1.4-16.2-3.1-32.8-5.2-49.8
			c-2.9-23.4-6.2-45.9-10-67.4c-5.5-10.8-11.1-23-16.3-36.5c-5.9-15.2-10.4-29.5-13.8-42.5c-3.1,26.1-6.2,52.1-9.3,78.2
			c1.6,23.4,3.1,46.8,4.6,70.2c1,16.1,2,32.3,3,48.4c-2.8,2.3-7.4,5.5-13.8,7.2c-14.7,3.8-27-3.8-29.5-5.4
			c0.3-39.8,0.7-79.6,1-119.4c-5.9-23.6-10.7-55-7.9-91.5c1-13.6,3-26.2,5.4-37.5C2697.1,955.2,2728.3,955.5,2759.6,955.9z"/>
		<path d="M2690.1,768.2c-1.3,0.9-5.3,3.7-8.4,8.7c-2.2,3.6-1.9,4.9-4.7,9.3c-3.3,5.3-4.5,4.6-6.1,8c-3.1,6.8-0.5,14-0.2,14.8
			c1.6,4.3,3.4,4,3.8,7.2c0.8,5.4-3.8,7.9-3,12.5c0.3,1.8,1.6,4.4,6.1,7c2.5,0.1,4.4,0.2,5.4,0.2c28.1,0.7,39.9-2.2,62.6-0.2
			c1.4,0.1,2.5,0.2,2.9,0.3c3-2.9,6.1-6.9,5.5-11.1c-0.5-3.4-3-3.8-4.2-7.5c-2.2-6.3,3.5-9.8,3.3-17.6c-0.1-3.7-2.5-7.4-7.2-15
			c-4-6.4-7.1-11.3-13.1-15.7c-2.2-1.7-5.6-4.1-10.8-5.6c-5.7-1.6-10.6-1.1-13.3-0.6C2705.2,762.8,2697.4,763.1,2690.1,768.2z"/>
		<path class="st70" d="M2714.1,855.4c-7,0.2-13.5-3.7-16.8-10c0.1-3,0.3-6,0.4-9c0-1,0-2,0-3c1.7-1.9,3.3-3.8,5-5.7h21.7
			c4.5,2.9,5.4,4.5,5.4,5.4c0,0.2,0,1.3,0,3.2c0,0.3,0,0.6,0,0.7c0,2,0,6.7,0,8.3C2726.8,851.4,2720.8,855.3,2714.1,855.4z"/>
		<path class="st71" d="M2745.8,803.2c-1.1-1-2.2-0.9-3.4-0.3c0.1-5.4,0.1-15.2-7.1-23.7c-9.2-10.8-22.7-10.8-24.3-10.7
			c-2,0-15,0.5-23.3,11c-6.9,8.8-6,18.9-5.4,25.6c0,0.1,0,0.1,0,0.2c-1.7-1.6-3.7-3.1-5.4-1.4c-2.7,2.7,2.5,9.5,4.4,11.5
			c0.9,0.9,2.1,1.7,3.2,1.6c1.8,5.9,5.2,12.4,11.8,17c1.8,1.3,8.3,5.6,17.2,5.2c10.8-0.6,17.5-7.8,19.7-10.1
			c4.2-4.5,6.5-9.4,7.7-13.9c0.2-0.2,0.4-0.3,0.5-0.5C2743.3,812.7,2748.5,805.9,2745.8,803.2z"/>
		<path d="M2696.8,798.7c-1.4,0.4-2.4,1.1-2.9,1.6c0.3-0.6,0.9-1.5,1.9-2.3c0.4-0.3,2.3-1.7,4.5-1.1c0.3,0.1,1.5,0.4,2.3,1.5
			c0.2,0.3,0.5,0.8,0.5,1.5c0,1.2-1,2.2-2.2,2.2c-0.3,0-0.6-0.1-0.8-0.2c-0.9-0.3-1.5-1.1-1.5-2.1c0-0.6,0.2-1.1,0.6-1.5
			C2698.5,798.4,2697.7,798.4,2696.8,798.7z"/>
		<path d="M2719.9,800.3c0.3-0.6,0.9-1.5,1.9-2.3c0.4-0.3,2.3-1.7,4.5-1.1c0.3,0.1,1.5,0.4,2.3,1.5c0.2,0.3,0.5,0.8,0.5,1.5
			c0,1.2-1,2.2-2.2,2.2c-1.5,0-2.2-1.5-2.2-2.2c0-0.3,0.1-0.6,0.1-0.6c0.1-0.4,0.4-0.7,0.5-0.9c-0.6,0-1.4,0-2.4,0.3
			C2721.4,799.1,2720.4,799.8,2719.9,800.3z"/>
		<path class="st72" d="M2711.5,825.9c-5.9,0.2-10-2.9-11.1-3.8c7.2-0.1,14.4-0.3,21.6-0.4C2720.8,822.7,2717.1,825.7,2711.5,825.9z
			"/>
		<path d="M2680.8,802.2c0.5,1.2,1.1,2.2,1.5,2.8c0.7-2.3,1.4-4.6,2.1-6.9c1.2-3.9,2.4-7.8,3.7-11.6c0.2,0.7,0.4,1.4,0.5,2.2
			c0.1,0.5,0.2,1,0.2,1.4c1,0.5,3,1.3,5.6,1.2c3.4-0.1,5.8-1.5,6.7-2.2c0.2-2.1,0.4-4.1,0.6-6.2c0.2,2.1,0.4,4.1,0.6,6.2
			c4,0.8,9,1.5,14.7,1.6c7.4,0,13.6-1,18.4-2.2c0.3-0.9,0.6-1.9,0.9-2.8c1.1,2.9,2.1,6.4,2.8,10.4c0.5,3,0.8,5.7,0.9,8.2
			c0.7-0.5,1.4-1,2.2-1.5c1.6-3.8,1.6-6.8,1.4-8.7c-0.2-1.6-0.5-2.3-2.2-6.8c-0.9-2.4-1.2-5-2.4-7.2c-2.1-3.8-6.7-6.7-10.3-8.9
			c-4.8-3-10.8-5.5-16.6-5.7c-8.7-0.3-15.1,3.6-16.9,4.7C2684.3,777.3,2676.7,792.2,2680.8,802.2z"/>
		<path class="st73" d="M2664.1,850.7c-0.5,0.3-1.3,0.8-2.2,1.5c-5.6,4.1-8.4,9.3-9.7,12c-15.6,30.9-22.7,61.8-22.7,61.8
			c-1.4,6.2-2.4,11.3-3,14.5c7.6,0.7,15.3,1.4,22.9,2.2c7.2-17.4,14.4-34.9,21.6-52.3c-0.1-1.4-0.3-2.7-0.5-4.1
			C2669,873.7,2666.8,861.9,2664.1,850.7z"/>
		<path class="st73" d="M2759.7,851.6c1.8,0.6,4.2,1.6,6.7,3.4c4.1,3.1,6.1,6.8,6.9,8.4c7.3,13.6,13.2,21.2,19.8,33.7
			c5,9.6,4.3,10.6,10.8,24.6c3.4,7.3,4.6,14,6.5,17.9c-2.3,1.2-4.4,2-9.2,2.1c-11.9,0.1-19.3-9.6-20.3-10.9c-7.6-13-15.2-26-22.8-39
			c0-1.4-0.1-2.8-0.1-4.1C2757.9,875.1,2758.5,863.1,2759.7,851.6z"/>
		<path class="st73" d="M2764.7,867c-2.3,11.5-6.2,33.6-6.1,55.7c0,8.8,0.6,18.5,0.6,18.5c0.7,10.7,1.8,19.8,2.9,26.8
			c-14.7,2.7-33,4.8-53.8,4.5c-17-0.3-32.1-2.1-44.9-4.5c1.4-7,3-16.7,3.9-28.3c0.2-2.5,0.5-6.4,0.6-11.6c0.3-25-5.9-57.2-5.9-57.8
			c0,0,0-0.1,0-0.1c0-0.4,0-0.6,0-0.6c0-0.5-2.4-10.5-1.5-14.5c2-8.4,23.9-10.1,25.8-10.2c3.7-0.3,6.7-0.2,8.8,0
			c0,0,0.1,0.1,0.1,0.1l0.5-8.1c0,0,15.7,15.3,36.4-0.9v8.8c2.3,0.2,9,0.1,11.1,0.7c12.2,3.6,20.5,6.1,22.7,11.9
			C2766.4,858.9,2767,862,2764.7,867z"/>
		<polygon class="st38" points="2670.8,896.3 2638.5,928.6 2769,928.6 2801.3,896.4 		"/>
		<polygon class="st38" points="2638.5,928.6 2638.5,994.4 2768.8,994.4 2769,928.6 		"/>
		<polygon class="st39" points="2768.8,994.4 2769,928.6 2801.3,896.4 2801.3,961.5 		"/>
		<polygon class="st40" points="2661.2,905.9 2654.7,912.5 2785.2,912.5 2785.2,922.7 2791.5,915.3 2791.8,905.9 		"/>
		<rect x="2646.1" y="964.8" class="st5" width="45.8" height="23.9"/>
		<g>
			<path class="st17" d="M2689.9,981.1c-1.1-0.8-4.2-2.6-8.3-2.6c-6,0.1-9.8,3.9-10.5,4.6c0.7,0.5,5.4,3.9,11.4,2.5
				C2686.6,984.7,2689.1,982.1,2689.9,981.1z"/>
			<g>
				<path class="st20" d="M2665.7,982c0.5-0.2,1.8-0.4,3.2-0.1c1.1,0.3,1.8,0.8,2.3,1.2c-0.1,0.4-0.3,1.3-1,2.1
					c-1,1.1-2.3,1.4-2.7,1.5c0.7-1,1.3-2.1,2-3.1C2668.2,983.1,2667,982.5,2665.7,982z"/>
				<path class="st20" d="M2667.5,987c-0.1,0-0.2-0.1-0.3-0.1c-0.1-0.1-0.1-0.2,0-0.3l1.8-2.8l-3.4-1.4c-0.1-0.1-0.2-0.2-0.2-0.3
					c0-0.1,0.1-0.2,0.2-0.3c0.8-0.2,2-0.4,3.4-0.1c0.9,0.2,1.7,0.6,2.4,1.2c0.1,0.1,0.1,0.2,0.1,0.3c-0.1,0.6-0.4,1.5-1.1,2.3
					C2669.4,986.6,2668.2,986.9,2667.5,987C2667.5,987,2667.5,987,2667.5,987z M2666.7,982.1l2.8,1.2c0.1,0,0.2,0.1,0.2,0.2
					c0,0.1,0,0.2,0,0.3l-1.6,2.4c0.5-0.2,1.2-0.5,1.8-1.2c0.5-0.6,0.8-1.3,0.9-1.8c-0.6-0.5-1.3-0.8-2-1
					C2668.1,982.1,2667.3,982,2666.7,982.1z"/>
			</g>
			<g>
				<path class="st20" d="M2685.2,983.9c-1,0-1.9-0.5-2.1-1.4c-0.2-0.8,0.1-1.4,0.3-1.7c0.1-0.2,0.4-0.3,0.6-0.1
					c0.2,0.1,0.3,0.4,0.1,0.6c-0.1,0.1-0.3,0.5-0.2,0.9c0.1,0.5,0.8,0.8,1.6,0.7c0.3,0,0.5,0.1,0.5,0.4c0,0.3-0.1,0.5-0.4,0.5
					C2685.6,983.9,2685.4,983.9,2685.2,983.9z"/>
			</g>
			<circle class="st20" cx="2685.9" cy="980.9" r="0.5"/>
			<g>
				<path class="st20" d="M2680.3,981.6c-1.2,0.1-2.5,0.1-3.7,0.2c0.5,0.2,0.9,0.5,1.4,0.7c-0.1,0.2-0.3,0.3-0.4,0.5
					c0.4,0.1,0.9,0.2,1.3,0.3c0,0.2-0.1,0.3-0.1,0.5c0.8-0.4,1.3-0.8,1.6-1.1c0.5-0.5,0.4-0.7,0.4-0.8
					C2680.7,981.7,2680.5,981.6,2680.3,981.6z"/>
				<path class="st20" d="M2678.8,984.1c-0.1,0-0.1,0-0.2-0.1c-0.1-0.1-0.1-0.2-0.1-0.3l0-0.2l-1-0.2c-0.1,0-0.2-0.1-0.2-0.2
					s0-0.2,0.1-0.3l0.2-0.2l-1-0.5c-0.1-0.1-0.2-0.2-0.2-0.3c0-0.1,0.1-0.2,0.3-0.2l3.7-0.2c0,0,0,0,0.1,0c0.4,0.1,0.6,0.3,0.7,0.5
					c0.1,0.3,0,0.7-0.4,1.1c-0.4,0.5-1,0.9-1.7,1.2C2678.9,984.1,2678.8,984.1,2678.8,984.1z M2678.2,982.8l0.8,0.2
					c0.1,0,0.2,0.1,0.2,0.1c0,0,0,0.1,0,0.1c0.4-0.2,0.7-0.5,0.9-0.8c0.2-0.3,0.3-0.4,0.3-0.5c0,0-0.1,0-0.2-0.1l-2.5,0.1l0.4,0.2
					c0.1,0,0.1,0.1,0.2,0.2C2678.4,982.5,2678.3,982.6,2678.2,982.8L2678.2,982.8z"/>
			</g>
			<g>
				<path class="st20" d="M2683.8,978.7c-1.2-0.6-2.4-1.1-3.7-1.7c0.1,0.3,0.2,0.5,0.3,0.8c-0.8-0.2-1.5-0.4-2.3-0.6
					c0.1,0.3,0.3,0.5,0.4,0.8c-0.7,0-1.4,0-2.2-0.1c0.2,0.2,0.3,0.4,0.5,0.6c-0.6,0.1-1.3,0.1-1.9,0.2c0.4,0.3,0.8,0.6,1.2,0.9
					c0.9-0.4,2.2-0.8,3.8-1C2681.6,978.4,2682.9,978.5,2683.8,978.7z"/>
				<path class="st20" d="M2676.3,979.9c-0.1,0-0.1,0-0.2-0.1l-1.2-0.9c-0.1-0.1-0.2-0.2-0.1-0.3c0-0.1,0.1-0.2,0.3-0.2l1.4-0.2
					l-0.1-0.1c-0.1-0.1-0.1-0.2,0-0.3c0.1-0.1,0.2-0.2,0.3-0.2l1.6,0l-0.1-0.3c-0.1-0.1,0-0.2,0-0.3c0.1-0.1,0.2-0.1,0.3-0.1
					l1.7,0.4l-0.1-0.2c0-0.1,0-0.3,0.1-0.3c0.1-0.1,0.2-0.1,0.3-0.1l3.7,1.7c0.1,0.1,0.2,0.2,0.2,0.4s-0.2,0.2-0.3,0.2
					c-1.2-0.2-2.4-0.2-3.7-0.1c-1.3,0.1-2.6,0.5-3.8,1C2676.3,979.9,2676.3,979.9,2676.3,979.9z M2675.9,979l0.4,0.3
					c1.2-0.5,2.5-0.8,3.8-1c0.7-0.1,1.3-0.1,2-0.1l-1.3-0.6l0,0.1c0,0.1,0,0.2-0.1,0.3c-0.1,0.1-0.2,0.1-0.3,0.1l-1.6-0.4l0.1,0.1
					c0.1,0.1,0,0.2,0,0.3c-0.1,0.1-0.2,0.2-0.3,0.1l-1.4,0l0,0.1c0.1,0.1,0.1,0.2,0.1,0.3c0,0.1-0.1,0.2-0.3,0.2L2675.9,979z"/>
			</g>
		</g>
		<text transform="matrix(1 0 0 1 2649.585 971.7024)"><tspan x="0" y="0" class="st20 st75 st77">Batch </tspan><tspan x="0" y="4.5" class="st20 st75 st77">no7685</tspan></text>
		<path class="st73" d="M2801.3,916.5c0,0,20.4,16.2,7.4,29.7c-6.9,7.2-12.1,5.5-12.1,5.5l-5.4-19.6l0.6-1l2.3-2l7.2-7.5V916.5z"/>
		<path class="st73" d="M2630.3,968.8c0,0-26.7-8.8-7.8-31c6.5-7.6,16-5.5,16-5.5l0.3,21.2L2630.3,968.8z"/>
		<path class="st71" d="M2628.7,956.7c0.6-3.3,1.9-5.2,2.7-6.2c1.5-1.8,3.3-2.7,5.7-3.9c3.1-1.6,3.7-1.3,5.3-2.7
			c1.1-1,1.9-2.2,3-3.9c1.8-2.7,1.9-3.6,2.6-3.6c1.6,0,4,4.9,2.7,7.6c-0.7,1.5-2.3,1.5-3.6,4c-0.4,0.7-0.6,1.4-0.4,2.1
			c0.3,1,1.3,1.4,1.5,1.5c0.4,0.2,0.7,0.2,0.9,0.2c6,0.5,12.1,1,18.1,1.6c0.3,0.1,0.7,0.4,1.2,0.9c0.2,0.2,0.9,1,1,1.8
			c0.1,1.1-1.2,2.4-3.3,2.9c-4.4-0.3-8.7-0.5-13.1-0.8c-0.3-0.1-0.5,0-0.6,0.1c0,0.1,0.2,0.4,0.5,0.6c5.5,0.8,11,1.6,16.5,2.3
			c0.3,0,0.7,0.1,1.1,0.4c0.1,0.1,1.4,0.9,1.4,2.4c0,1.1-0.7,1.7-0.9,1.9c-1,1-2.5,0.8-2.7,0.8c-5.8-0.8-11.5-1.6-17.3-2.4
			c-0.4,0-0.7,0.2-0.7,0.4c0,0.2,0.3,0.5,0.9,0.7c4.3,0.8,8.7,1.6,13,2.4c0.3,0.1,1.3,0.3,2.1,1.3c0.2,0.3,1.2,1.5,0.8,2.7
			c-0.3,1-1.5,1.6-2.7,1.4c-4.7-0.8-9.4-1.6-14-2.4c-1.8-0.5-3.4-0.9-3.6-0.6c0,0.1,0,0.1,0,0.2c0.3,0.6,1.1,0.8,1.4,0.8
			c2.6,0.7,5.3,1.4,7.9,2.1c0.2,0.1,2,0.8,2.3,2.4c0.2,1.2-0.7,2.3-0.7,2.3c-1.4,1.6-4.1,0.3-14.2-2.4c-1.9-0.5-4.4-1.1-7.6-2.6
			c-1.9-0.9-2.9-1.4-3.9-2.3c-3.3-3-3.7-7.5-3.8-8.7C2627.9,959.8,2628.2,958,2628.7,956.7z"/>
		<path class="st71" d="M2799.1,937.3c-1.7-2.6-3.6-3.8-4.7-4.3c-2-1-3.9-1.1-6.5-1.2c-3.4-0.2-3.8,0.3-5.8-0.3
			c-1.4-0.5-2.6-1.2-4.2-2.2c-2.6-1.6-3.1-2.3-3.6-2.1c-1.4,0.6-1.8,5.7,0.4,7.5c1.2,1,2.7,0.4,4.8,2.1c0.6,0.5,1.1,1,1.1,1.6
			c0.1,0.9-0.7,1.7-0.7,1.8c-0.3,0.3-0.5,0.4-0.7,0.5c-5.2,2.7-10.4,5.4-15.6,8.1c-0.2,0.2-0.5,0.6-0.7,1.2
			c-0.1,0.2-0.4,1.2-0.2,1.9c0.3,1,2,1.6,4,1.2c3.8-1.9,7.6-3.7,11.4-5.6c0.2-0.2,0.5-0.2,0.6-0.1c0.1,0.1,0,0.4-0.3,0.7
			c-4.6,2.7-9.2,5.4-13.9,8.2c-0.2,0.1-0.5,0.4-0.8,0.8c-0.1,0.1-0.9,1.3-0.3,2.5c0.4,0.9,1.3,1.2,1.5,1.3c1.3,0.5,2.5-0.2,2.7-0.3
			c4.9-2.8,9.7-5.7,14.6-8.5c0.4-0.1,0.7-0.1,0.8,0c0.1,0.2-0.1,0.6-0.6,0.9c-3.6,2.3-7.2,4.6-10.8,6.9c-0.3,0.2-1.1,0.8-1.4,1.9
			c-0.1,0.3-0.5,1.7,0.3,2.6c0.7,0.7,1.9,0.8,3,0.2c3.9-2.4,7.8-4.9,11.7-7.3c1.4-1.1,2.7-2.1,3-1.8c0,0,0,0.1,0,0.2
			c0,0.6-0.7,1.1-0.9,1.2c-2.1,1.6-4.2,3.2-6.3,4.8c-0.2,0.2-1.5,1.5-1.2,2.9c0.3,1.1,1.4,1.7,1.5,1.7c1.9,0.9,3.8-1.3,11.9-7.3
			c1.5-1.2,3.5-2.6,5.8-5.1c1.4-1.5,2.1-2.3,2.6-3.4c1.8-3.8,0.5-7.8,0.2-8.8C2801,939.7,2800.1,938.4,2799.1,937.3z"/>
		<g>
			<path class="st74" d="M2790.8,884.9c-0.5,0-1.1-0.2-1.5-0.6c-4-4-9.3-6.2-15-6.2s-11,2.2-15,6.2c-0.8,0.8-2.2,0.8-3,0
				c-0.8-0.8-0.8-2.2,0-3c4.8-4.8,11.2-7.5,18-7.5c6.8,0,13.2,2.6,18,7.5c0.8,0.8,0.8,2.2,0,3
				C2791.9,884.6,2791.3,884.9,2790.8,884.9z"/>
		</g>
		<g>
			<path class="st74" d="M2784.2,889c-0.5,0-1.1-0.2-1.5-0.6c-2.2-2.2-5.2-3.5-8.4-3.5c-3.2,0-6.1,1.2-8.4,3.5c-0.8,0.8-2.2,0.8-3,0
				c-0.8-0.8-0.8-2.2,0-3c3-3,7.1-4.7,11.4-4.7c4.3,0,8.4,1.7,11.4,4.7c0.8,0.8,0.8,2.2,0,3C2785.3,888.7,2784.7,889,2784.2,889z"/>
		</g>
		<g>
			<path class="st74" d="M2778.9,894c-0.5,0-1.1-0.2-1.5-0.6c-0.8-0.8-1.9-1.3-3.1-1.3c-1.2,0-2.3,0.5-3.1,1.3c-0.8,0.8-2.2,0.8-3,0
				c-0.8-0.8-0.8-2.2,0-3c1.6-1.6,3.8-2.5,6.1-2.5c2.3,0,4.5,0.9,6.1,2.5c0.8,0.8,0.8,2.2,0,3C2780,893.8,2779.4,894,2778.9,894z"/>
		</g>
		<g>
			<path class="st74" d="M2776.9,897.4c0,1.4-1.1,2.6-2.6,2.6c-1.4,0-2.6-1.2-2.6-2.6c0-1.4,1.1-2.6,2.6-2.6
				C2775.7,894.8,2776.9,896,2776.9,897.4z"/>
		</g>
		<path class="st74" d="M2776.2,897.4c0,0.8-0.6,1.4-1.4,1.4c-0.8,0-1.4-0.6-1.4-1.4c0-0.8,0.6-1.4,1.4-1.4
			C2775.6,896,2776.2,896.6,2776.2,897.4z"/>
	</g>
</g>
</svg>
