<?xml version="1.0" encoding="utf-8"?>
<!-- Generator: Adobe Illustrator 26.2.1, SVG Export Plug-In . SVG Version: 6.00 Build 0)  -->
<svg version="1.1" xmlns="http://www.w3.org/2000/svg" xmlns:xlink="http://www.w3.org/1999/xlink" x="0px" y="0px"
	 viewBox="0 0 3458.3 1927.6" style="enable-background:new 0 0 3458.3 1927.6;" xml:space="preserve">
<style type="text/css">
	.st0{fill:#0669B1;}
	.st1{fill:#64BFC1;}
	.st2{fill:#095F93;}
	.st3{opacity:0.2;fill:#5B9ED6;}
	.st4{opacity:0.94;fill:url(#);}
	.st5{fill:#FFFFFF;}
	.st6{fill:#7AB7E2;}
	.st7{fill:#5B9ED6;}
	.st8{fill:#69574B;}
	.st9{fill:none;stroke:#FFFFFF;stroke-miterlimit:10;}
	.st10{fill:#045C83;}
	.st11{fill:#C9A593;}
	.st12{fill:#E9660B;}
	.st13{fill:#E5BCA4;}
	.st14{fill:#3C2313;}
	.st15{fill:none;stroke:#AB1917;stroke-linecap:round;stroke-linejoin:round;stroke-miterlimit:10;}
	.st16{fill:#AB1917;}
	.st17{fill:#4CB0E4;}
	.st18{fill:#1990CF;stroke:#1990CF;stroke-width:2;stroke-linecap:round;stroke-linejoin:round;stroke-miterlimit:10;}
	.st19{fill:none;stroke:#1990CF;stroke-width:3;stroke-linecap:round;stroke-linejoin:round;stroke-miterlimit:10;}
	.st20{fill:#1990CF;}
	.st21{clip-path:url(#SVGID_00000170962757054426068550000016721609703735359880_);}
	.st22{fill:#4BAFE3;}
	.st23{fill:#1D8ECE;stroke:#1D8ECE;stroke-width:2;stroke-linecap:round;stroke-linejoin:round;stroke-miterlimit:10;}
	.st24{fill:none;stroke:#1D8ECE;stroke-width:3;stroke-linecap:round;stroke-linejoin:round;stroke-miterlimit:10;}
	.st25{fill:#1D8ECE;}
	.st26{fill:none;stroke:#095F93;stroke-width:2;stroke-miterlimit:10;}
	.st27{clip-path:url(#SVGID_00000155129429620148107470000011070368947069707394_);}
	.st28{clip-path:url(#SVGID_00000036960706451366707240000006441581813648692668_);}
	.st29{fill:#0B72B2;}
	.st30{fill:#0B79BC;}
	.st31{fill:#5FB353;}
	.st32{fill:#025D86;}
	.st33{fill:#0569B0;}
	.st34{fill:#DEBAA1;}
	.st35{fill:#F4CBAB;}
	.st36{fill:#D4976E;}
	.st37{fill:#096199;}
	.st38{fill:#D09E61;}
	.st39{fill:#AF793B;}
	.st40{fill:#EAC295;}
	.st41{fill:#F4A304;}
	.st42{fill:none;stroke:#095F93;stroke-width:1.5;stroke-miterlimit:10;}
	.st43{fill:none;stroke:#095F93;stroke-miterlimit:10;}
	.st44{fill:#086096;}
	.st45{fill:#5BA0D7;}
	.st46{fill:none;stroke:#1D1E1C;stroke-width:0.5;stroke-miterlimit:10;}
	.st47{fill:#53302C;}
	.st48{fill:#4DB2E6;}
	.st49{fill:#90573F;}
	.st50{fill:#AB1917;stroke:#0669B1;stroke-linecap:round;stroke-linejoin:round;stroke-miterlimit:10;}
	.st51{fill:none;stroke:#000000;stroke-linecap:round;stroke-linejoin:round;stroke-miterlimit:10;}
	.st52{fill:#F4CBAC;}
	.st53{fill:#0469B1;}
	.st54{fill:#DFBAA2;}
	.st55{fill:#D5986F;}
	.st56{fill:#D1A794;}
	.st57{fill:#D7E0EE;}
	.st58{opacity:0.33;fill:#E2EBF8;stroke:#B5BBC5;stroke-width:5;stroke-miterlimit:10;}
	.st59{fill:#CECC90;}
	.st60{fill:#E7E890;}
	.st61{fill:#479535;}
	.st62{fill:#E7E7E8;}
	.st63{opacity:0.49;}
	.st64{fill:#C9CED3;}
	.st65{clip-path:url(#SVGID_00000177442293416760612630000017290568688305161364_);}
	.st66{fill:none;stroke:#FFFFFF;stroke-width:2;stroke-linecap:round;stroke-miterlimit:10;}
	.st67{clip-path:url(#SVGID_00000005965768995446783120000002903899847935398060_);}
	.st68{clip-path:url(#SVGID_00000011740883292317161880000003339025751649483158_);}
	.st69{fill:#FFFFFF;stroke:#FFFFFF;stroke-miterlimit:10;}
	.st70{fill:#B06A26;}
	.st71{fill:#B9793D;}
	.st72{fill:#9F561A;}
	.st73{fill:#1892D1;}
	.st74{fill:#1D1D1B;}
	.st75{fill:none;stroke:#0669B1;stroke-width:10;stroke-miterlimit:10;}
	.st76{fill:none;stroke:#0669B1;stroke-width:10;stroke-miterlimit:10;stroke-dasharray:20.4087,20.4087;}
	.st77{fill:none;stroke:#0669B1;stroke-width:5;stroke-miterlimit:10;}
	.st78{fill:none;stroke:#0669B1;stroke-width:5;stroke-miterlimit:10;stroke-dasharray:10.0885,10.0885;}
	.st79{fill:none;stroke:#0669B1;stroke-width:2.5;stroke-miterlimit:10;}
	.st80{fill:none;stroke:#086096;stroke-width:2;stroke-miterlimit:10;}
	.st81{fill:none;stroke:#0669B1;stroke-width:10;stroke-miterlimit:10;stroke-dasharray:20.2919,20.2919;}
	.st82{fill:none;stroke:#0669B1;stroke-width:5;stroke-miterlimit:10;stroke-dasharray:9.8933,9.8933;}
	.st83{fill:none;stroke:#0669B1;stroke-width:2;stroke-miterlimit:10;}
</style>
<g id="Lager_1">
	<rect x="0.4" y="-0.7" class="st0" width="3458.3" height="1927.6"/>
</g>
<g id="Lager_2">
	<path class="st3" d="M2512.1,1304.8c58.8,53.7,486,101,948.2-33.4l0.8-609.6c-235-612-746-165-835-66
		c-155.3,172.7-248.9,223-234.4,427.9C2399.6,1134.3,2459.1,1256.4,2512.1,1304.8z"/>
	<path class="st30" d="M3452.1,832.8c0,0-248.8-48.6-352.1-13c-103.3,35.6-186.4,98.8-186.4,98.8s-184.2,156.3-308.4,153.8
		c-79.1-1.6-171.1,16.4-187.1,52.4c-32.7,73.6,120.5,182.3,380,200c217.8,14.9,654-60,654-60V832.8z"/>
	<g>
		<path class="st30" d="M2672.2,789.9c0,22.9,14.5,42.4,34.8,49.9c4.7,35.3,34.9,62.5,71.5,62.5c39.8,0,72.1-32.3,72.1-72.1
			c0-22.4-10.2-42.4-26.2-55.6c4.6-7.8,7.2-17,7.2-26.7c0-29.3-23.8-53.1-53.1-53.1c-25.5,0-46.9,18-52,42.1c-0.4,0-0.8,0-1.2,0
			C2695.9,736.8,2672.2,760.6,2672.2,789.9z"/>
		<path class="st0" d="M2788.1,923.1c-1.2,10.6-4.3,117.7,6,135.2c-12.9,1.6-43.2,28.4-42.7,28.5c0,0,12.2-143.2,9.2-156.4
			c-2.7-12-12.2-84.5-13.4-105.6c6.7,11.6,14.1,52,24.7,96.8c2.1,8.9,22.2-68.9,22.2-68.9C2794.2,852,2789,915.2,2788.1,923.1z"/>
	</g>
	<g>
		<path class="st44" d="M2986.9,734.9c0,27.8-17.6,51.4-42.2,60.5c-5.7,42.8-42.3,75.8-86.6,75.8c-48.3,0-87.4-39.1-87.4-87.4
			c0-27.1,12.4-51.4,31.7-67.4c-5.6-9.5-8.7-20.6-8.7-32.4c0-35.6,28.8-64.4,64.4-64.4c31,0,56.8,21.9,63,51c0.5,0,0.9,0,1.4,0
			C2958.1,670.5,2986.9,699.3,2986.9,734.9z"/>
		<path class="st0" d="M2846.3,896.3c1.5,12.9,6.3,110.6-6.2,131.8c15.6,1.9,38.5,0.5,37.9,0.5c0,0-1.9-107.6,1.6-123.6
			c3.3-14.6,14.8-102.5,16.2-128c-8.1,14.1-17.1,63.1-29.9,117.4c-2.6,10.8-26.9-83.6-26.9-83.6
			C2839,810.2,2845.2,886.8,2846.3,896.3z"/>
	</g>
	<g>
		<path class="st30" d="M3029.4,787.1c0,23.7-15,43.9-36,51.7c-4.9,36.6-36.2,64.8-74,64.8c-41.3,0-74.7-33.4-74.7-74.7
			c0-23.2,10.6-43.9,27.1-57.6c-4.7-8.1-7.5-17.6-7.5-27.7c0-30.4,24.6-55,55-55c26.5,0,48.6,18.7,53.8,43.6c0.4,0,0.8,0,1.2,0
			C3004.7,732,3029.4,756.7,3029.4,787.1z"/>
		<path class="st0" d="M2909.2,925c1.3,11,5.4,94.5-5.3,112.7c13.3,1.6,32.9,0.4,32.4,0.5c0,0-1.7-91.9,1.4-105.6
			c2.8-12.5,12.7-87.6,13.9-109.4c-7,12.1-14.6,53.9-25.6,100.3c-2.2,9.3-23-71.4-23-71.4C2903,851.4,2908.3,916.8,2909.2,925z"/>
	</g>
	<g>
		<polygon class="st0" points="3220.1,566.4 3220.1,1067.8 2993.2,1067.8 2993.2,566.5 2993.3,566.4 3008.5,566.4 3008.5,588 
			3086.5,588 3086.5,566.5 3086.7,566.4 3110.4,566.4 3110.4,588 3124.3,588 3124.3,566.5 3124.5,566.4 3148.1,566.4 3148.1,588 
			3159.6,588 3159.6,566.5 3159.8,566.4 3183.5,566.4 3183.5,588 3196.3,588 3196.3,566.5 3196.5,566.4 		"/>
		<polygon class="st44" points="3034.6,1078.6 3008.5,1068.2 3008.8,524.2 3018.8,522.1 3018.8,535.5 3029.2,534.1 3029.3,520 
			3034.7,519.1 		"/>
		<polygon class="st44" points="3060.4,1077.8 3086.6,1067.4 3086.2,523.4 3076.2,521.4 3076.2,534.8 3065.8,533.4 3065.7,519.2 
			3060.3,518.4 		"/>
		<polygon class="st0" points="3060.4,532.8 3060.4,1078.6 3034.3,1078.6 3034.5,533.3 3034.4,519.1 3040,519.2 3040,533.2 
			3054.8,532.9 3054.8,518.5 3060.5,518.4 		"/>
		<path class="st46" d="M3137.4,664.8c-0.1,0.7-0.1,1.4-0.1,2.1L3137.4,664.8z"/>
		<path class="st46" d="M3168.1,666.9c0-0.7-0.1-1.4-0.1-2.1L3168.1,666.9z"/>
		<path class="st44" d="M3168.1,666.9v41.9h-30.8v-41.9c0-0.7,0.1-1.4,0.1-2.1c1-7.5,7.5-13.3,15.3-13.3c7.8,0,14.2,5.8,15.3,13.3
			C3168,665.5,3168.1,666.2,3168.1,666.9z"/>
		<path class="st46" d="M3137.4,768.5c-0.1,0.7-0.1,1.4-0.1,2.1L3137.4,768.5z"/>
		<path class="st46" d="M3168.1,770.5c0-0.7-0.1-1.4-0.1-2.1L3168.1,770.5z"/>
		<path class="st44" d="M3168.1,790.4v41.9h-30.8v-41.9c0-0.7,0.1-1.4,0.1-2.1c1-7.5,7.5-13.3,15.3-13.3c7.8,0,14.2,5.8,15.3,13.3
			C3168,789.1,3168.1,789.7,3168.1,790.4z"/>
		<path class="st46" d="M3137.4,872.1c-0.1,0.7-0.1,1.4-0.1,2.1L3137.4,872.1z"/>
		<path class="st46" d="M3168.1,874.1c0-0.7-0.1-1.4-0.1-2.1L3168.1,874.1z"/>
		<path class="st44" d="M3168.1,914v41.9h-30.8V914c0-0.7,0.1-1.4,0.1-2.1c1-7.5,7.5-13.3,15.3-13.3c7.8,0,14.2,5.8,15.3,13.3
			C3168,912.6,3168.1,913.3,3168.1,914z"/>
	</g>
	<g>
		<path class="st45" d="M3279.6,1204.6c0.5-1.5,1-3.8,1-6.6c0-4.6-1.6-7.8-3-11.1c-1.5-3.5-3.4-8.6-5-15.1c-0.4-0.7-1.2-1.1-2-1
			c-1,0.1-1.5,0.9-1.5,1c-0.3,1.7-0.7,3.4-1,5c-0.3-1.4-1-3.8-3-5c-1.1-0.6-1.8-0.5-6.6-0.5c-5.1,0-5.8-0.1-7.1,0.5
			c-0.9,0.5-2.5,1.6-3.5,4.5c-0.2-1.5-0.3-3-0.5-4.5c-0.3-1-1.1-1.6-2-1.5c-1,0.1-1.5,0.9-1.5,1c-2.9,6.2-4.8,11.6-6.1,15.6
			c-1.5,5-2,7.9-2,11.1c0,3.2,0.5,5.8,1,7.6c3.6,1.9,10.9,5.1,20.7,5C3268.2,1210.6,3276.1,1206.6,3279.6,1204.6z"/>
		<path class="st45" d="M3156.2,1204.6c-0.5-1.5-1-3.8-1-6.6c0-4.6,1.6-7.8,3-11.1c1.5-3.5,3.4-8.6,5-15.1c0.4-0.7,1.2-1.1,2-1
			c1,0.1,1.5,0.9,1.5,1c0.3,1.7,0.7,3.4,1,5c0.3-1.4,1-3.8,3-5c1.1-0.6,1.8-0.5,6.6-0.5c5.1,0,5.8-0.1,7.1,0.5
			c0.9,0.5,2.5,1.6,3.5,4.5c0.2-1.5,0.3-3,0.5-4.5c0.3-1,1.1-1.6,2-1.5c1,0.1,1.5,0.9,1.5,1c2.9,6.2,4.8,11.6,6.1,15.6
			c1.5,5,2,7.9,2,11.1c0,3.2-0.5,5.8-1,7.6c-3.6,1.9-10.9,5.1-20.7,5C3167.6,1210.6,3159.7,1206.7,3156.2,1204.6z"/>
		<path class="st0" d="M3189.8,797.6c7.1,12.6,24.4,11.2,33.6,2.8c1.2-1.1,2.6-3.5,4.5-3.1c6.1,1.1,6.7,16.7,6.9,20.7
			c0.4,8.6,1.1,17.9-1,26.3c-2.2,8.9-6.4,17.5-11.4,25.2c-2.3,3.6-6.9,8.5-11.1,9.9c-7.4,2.4-12.2-0.3-17.2-5.8
			c-8.3-9.2-14.7-22.6-13-35.2c1.1-7.8,4.2-15.2,5.4-23C3187.5,809.5,3187.9,803.4,3189.8,797.6z"/>
		<path class="st47" d="M3207.6,810.6c-11.2,0.2-17.1-10.1-17.1-10.2c0,0,0,0,0,0c0,0,0-0.1,0-0.1c0,0,0-1.4,0-3.2
			c-0.1-3.3-0.2-6.5-0.4-9.8c1.9-1.9,3.8-3.8,5.7-5.7h22.7c1.9,1.9,3.8,3.8,5.7,5.7c-0.2,3.2-0.3,6.4-0.3,9.8c0,1.1,0,2.1,0,3.2
			C3220.6,806.5,3214.4,810.5,3207.6,810.6z"/>
		<path class="st10" d="M3155.4,934.6c-0.8,0.8-1.7,1.9-2.6,3.3c0,0-1.1,1.9-1.6,4.1c-5.2,20.8-2.6,53.5-2.6,53.5
			c-1,20.3-1.6,41.4-1.7,63.1c-0.2,40.2,1.2,78.3,3.8,114.1c5.7,2.4,14.5,5.4,25.4,6.1c12.8,0.9,23.1-1.4,29.5-3.4
			c-2.8-38.7-5.7-77.5-8.5-116.2c3.5-21.8,6.9-43.6,10.4-65.5c6.3,21.5,12.6,42.9,18.9,64.4c1.3,38.9,2.5,77.7,3.8,116.6
			c5.5,2.4,15.4,5.7,28,5.5c11-0.2,19.7-2.9,25-5.1c-1.9-22.4-4.7-56.5-7.2-99.4c-0.8-13.5-1.2-20.3-1.3-22.1
			c0,0-4.1-98.7-11.9-114.3c0-0.1-1.9-3.9-1.9-3.9l0,0c-0.7-0.8-1.4-1.3-1.9-1.6C3224.5,934.2,3189.9,934.4,3155.4,934.6z"/>
		<path class="st48" d="M3230.1,935.5c-13.4,0.1-26.7,0.2-40.1,0.3c0.8-31.3,1.5-62.5,2.3-93.8c5.7,12,11.4,23.9,17.1,35.9
			c5.3-10.2,10.6-20.5,15.9-30.7C3226.8,876.6,3228.5,906.1,3230.1,935.5z"/>
		<g>
			<path class="st49" d="M3278.4,974.3c-0.3,1.6-0.6,3-0.8,4.1c-1.1,6-0.6,5-1.1,6.4c-0.5,1.4-1,2.5-0.4,3.3
				c0.2,0.3,0.5,0.5,1.1,0.5c1.9,0.2,3.7-1.9,4.6-3.3c0.9-1.3,0.8-2.6,1.2-4.1c0.4-1.5,1.3-2,3.6-4.8c0.9-1.2-3-3.1-5.6-2.9
				C3279.8,973.6,3278.9,974,3278.4,974.3z"/>
			<path class="st49" d="M3294.9,886.8c1.5,8,1.1,12.1,2.2,21.9c0.7,5.7,1.2,9.9,1.7,13.1c0,0,1.2,8.5,2.1,18.2
				c0.2,1.8,0.7,7.9,0.5,7.9c0,0,0,0,0,0c0.6,11.6,0.1,21.3-0.6,28.4c-1.1,10.8-2.5,15.1-6,17.7c-2.5,1.8-5.5,2.2-11.2,3
				c-5.5,0.8-7.2,0.1-8.2-0.8c-1.4-1.2-2.3-3.5-1.6-4.6c0.6-1,2-0.3,5.1-1.2c1.6-0.5,3.7-1.1,5-3c0.6-0.9,0.8-1.8,1.1-2.9
				c0.2-0.9,1.1-4.8-0.5-5.8c-0.9-0.5-2.1,0-2.6,0.2c-2.1,0.9-2.7,2.8-3.4,2.7c-0.6-0.1-0.9-1.4-0.9-2.8c-0.1-5.7,4.4-11.1,4.8-11.7
				c0.7-0.9,2.5-2.8,2.7-5.6c0-0.3,0-0.5,0-0.6c0.1-2.8,0.2-10.9-3.2-25c0-0.1-0.1-0.4-0.2-0.8c-5-20.8-12.7-30-13.1-43.4
				c-0.3-10.5,4-22.9,10.4-24.2c4.6-0.9,9.5,4.1,10.2,4.9C3290.7,873.7,3293,876.6,3294.9,886.8z"/>
		</g>
		<path class="st5" d="M3180,782.4c-2.1-2-3.4-3.9-4.2-5.2c-3-4.8-4.1-9.9-4.9-13.5c-0.1-0.7-0.3-1.7-0.8-4
			c-0.5-2.4-0.8-3.7-1.2-5.6c-1.2-6-1.8-9-1-11.7c0.5-1.9,1.4-3.2,2.1-4.1c-0.5,0.2-1.1,0.5-1.7,1c-1.1,0.8-1.7,1.8-2.1,2.4
			c0.3-1.3,0.9-3,2.1-4.8c2.6-3.9,6.5-5.4,7.9-5.9c-1.3,0-2.5,0-3.8,0c0.8-0.6,1.9-1.2,3.1-1.7c2.7-1.2,5.2-1.4,6.9-1.4
			c2.2,0.5,4.7,1,7.2,1.3c12.5,1.5,23.2-1.1,30.5-3.8c2.5,0.3,6.3,1.1,10.4,3.4c2.4,1.3,4.2,2.9,5.6,4.2c1,1.5,2.4,3.4,3.1,5.8
			c0.9,2.7,2.1,5.8,2.3,8.6c-0.4-0.7-0.8-1.5-1.2-2.2c0.9,4.7,2.2,14.2-2,24.7c-1.6,4-3.6,7.2-5.5,9.7c-6.3-2.6-33.5-13.2-49.4-0.3
			C3182.2,780.1,3181.1,781.2,3180,782.4z"/>
		<path class="st49" d="M3176.8,764.6c-1.8-1.4-5.2-6.6-8.1-3.8c-2.9,2.8,2.6,10,4.6,12c1.7,1.7,4.2,2.7,5.2,0.1
			C3179.6,770.5,3178.7,765.2,3176.8,764.6z"/>
		<path class="st49" d="M3237.2,760.2c0,6.3-1.3,11.1-1.6,12.1c-1.3,4.3-3,7.4-3.6,8.4c-1,1.7-2.4,3.7-4.2,5.8
			c-1.7,1.9-4.9,5.5-10.4,8.1c-1.8,0.9-5.8,2.7-11.3,2.9c-7.7,0.3-13.4-3-15.2-4c-0.3-0.2-1.1-0.7-2-1.3c-1.5-1.1-5.7-4.2-9-9.9
			c-1-1.8-2.3-4.4-3.2-7.8c-0.9-3-2-7.3-2.3-12.6c-0.5-7.5-1.3-18,5.6-26.7c8.6-11,22.2-11.5,24.4-11.5c1.7,0,15.8-0.1,25.4,11.2
			C3237.3,743.8,3237.2,754.3,3237.2,760.2z"/>
		<path d="M3220.2,755.4c1.5,0.4,2.5,1.2,3,1.7c-0.3-0.6-0.9-1.6-2-2.4c-0.4-0.3-2.4-1.8-4.7-1.2c-0.3,0.1-1.6,0.4-2.4,1.6
			c-0.2,0.3-0.5,0.8-0.5,1.6c0,1.3,1.1,2.3,2.3,2.3c0.3,0,0.6-0.1,0.8-0.2c0.9-0.3,1.6-1.2,1.6-2.2c0-0.6-0.2-1.2-0.7-1.6
			C3218.4,755,3219.2,755.1,3220.2,755.4z"/>
		<path d="M3196.1,757c-0.3-0.6-0.9-1.6-2-2.4c-0.4-0.3-2.4-1.8-4.7-1.2c-0.3,0.1-1.6,0.4-2.4,1.6c-0.2,0.3-0.5,0.8-0.5,1.6
			c0,1.3,1.1,2.3,2.3,2.3c1.6,0,2.3-1.6,2.3-2.3c0-0.3-0.1-0.7-0.1-0.7c-0.1-0.5-0.4-0.8-0.5-0.9c0.6,0,1.5,0,2.5,0.3
			C3194.5,755.8,3195.5,756.6,3196.1,757z"/>
		<path class="st47" d="M3204.9,783.8c-6.2,0.2-10.5-3-11.6-4c7.5-0.1,15-0.3,22.5-0.4C3214.6,780.5,3210.8,783.6,3204.9,783.8z"/>
		<path class="st5" d="M3182.3,742.7c-1,3-2.1,5.3-2.9,6.8c0.3-1,0.5-1.9,0.4-3.1c-1.6,1.2-2.5,3-2.9,4.9c-0.4,2.2-0.2,4,0.1,5.9
			c0.4,2.1,1,3.7,1.4,4.8c-0.1,1.1-0.4,2.7-1.3,4.2c-0.2,0.4-0.4,0.7-0.6,1c-0.2-0.8-0.5-1.8-1-2.9c-0.4-0.9-0.9-1.7-1.3-2.3
			c-0.5-2.2-1.1-5.4-1.4-9.3c-0.4-5-0.6-7.5,0.3-10.4c1.1-3.5,3.5-6.4,6.2-8.7c1.1-1,5-5.1,6.1-4.3c0.6,0.4-0.2,2-1.9,8.5
			C3182.8,740.9,3182.8,741.2,3182.3,742.7z"/>
		<path class="st49" d="M3233.6,762.9c1.8-1.4,5.2-6.6,8.1-3.8c2.9,2.8-2.6,10-4.6,12c-1.7,1.7-4.2,2.7-5.2,0.1
			C3230.9,768.8,3231.8,763.4,3233.6,762.9z"/>
		<path class="st45" d="M3223.9,797.2c-3.5,31.6-5.2,66.7-3.6,104.7c0.5,11.3,1.3,22.3,2.3,33c6.5,6.8,15.5,15,27.6,22.3
			c7.3,4.4,14.2,7.6,20.3,10c-0.5-13.1-1.1-26.5-2-40.3c-0.9-13.6-1.9-26.9-3.2-39.9c0.2,1,2.8,12.9,5.5,25.6
			c2.6,12.2,4.1,19.2,6.1,28.8c1.4,6.8,2.5,12.3,3.2,15.9c5.3-0.1,10.6-0.3,15.9-0.4c3.9-0.1,7.9-0.1,11.7-0.2
			c-3-34.5-6.7-60.4-9.5-77.4c-0.3-1.7-2.2-12.5-6.1-26.5c0,0-6.2-21.7-17.5-39.5c-2.5-3.9-6.3-9.4-12.9-12.3
			c-2.3-1-4.6-1.7-5.8-1.9c-5.1-0.9-9-1.5-13.3-1.6C3236,797.2,3229.7,797.2,3223.9,797.2z"/>
		<path class="st5" d="M3199.2,771.2c-1.3,0.2-1.6,0.6-6.4,2.7c-3,1.4-4.2,1.8-5.8,1.6c-1.2-0.2-2.2-0.6-2.8-1
			c0.8,0.8,2,1.9,3.7,2.6c0.9,0.4,3.3,1.4,6.1,0.6c1-0.3,1.8-0.7,2.3-1c0,0.1,0.1,0.3,0,0.6c-0.1,0.5-0.6,0.6-0.7,0.7
			c1.3,0.2,4.3,0.5,7.1-1.3c0.6-0.4,1.2-0.9,1.6-1.3c0.6,0.5,1.6,1.2,2.9,1.6c2.2,0.8,4.2,0.5,5.2,0.3c-0.3-0.1-0.6-0.2-1-0.3
			c-0.6-0.2-1.1-0.5-1.6-0.8c1.6,0.4,2.9,0.5,3.8,0.5c1.9,0,3.3-0.5,5.8-1.3c1.5-0.5,2.7-1,3.6-1.3c-3.9,0.2-6.6-0.5-8.4-1.3
			c-2-0.8-3.4-1.9-5.8-1.9c-1.8,0-3.3,0.5-4.2,1C3203.3,771.3,3201.3,770.8,3199.2,771.2z"/>
		<line class="st50" x1="3209.4" y1="877.9" x2="3209.4" y2="935.8"/>
		<circle class="st0" cx="3205.6" cy="882" r="1.9"/>
		<circle class="st0" cx="3205.8" cy="905.1" r="1.9"/>
		<circle class="st0" cx="3204.8" cy="929" r="1.9"/>
		<path class="st5" d="M3227.2,740.9c1.3,2.9,2.7,5,3.7,6.4c-0.4-1-0.7-1.8-0.8-3c1.7,1,2.8,2.7,3.4,4.6c0.7,2.1,0.7,3.9,0.6,5.8
			c-0.1,2.1-0.5,3.8-0.8,4.9c0.2,1.1,0.7,2.6,1.8,4c0.2,0.3,0.5,0.6,0.8,0.9c0.1-0.8,0.3-1.9,0.6-3c0.3-0.9,0.7-1.8,1-2.4
			c0.2-2.3,0.4-5.5,0.3-9.4c-0.2-5-0.3-7.5-1.6-10.3c-1.5-3.4-4.2-5.9-7.2-7.9c-1.3-0.8-5.6-4.4-6.6-3.6c-0.5,0.5,0.4,1.9,2.9,8.2
			C3226.5,739.2,3226.5,739.4,3227.2,740.9z"/>
		<path class="st49" d="M3103.4,857.2l8.8-3.2c2.2-0.8,3.3-3.2,2.5-5.4l-6.6-18.1c-0.8-2.2-3.2-3.3-5.4-2.5l-8.8,3.2
			c-2.2,0.8-3.3,3.2-2.5,5.4l6.6,18.1C3098.7,856.9,3101.2,858,3103.4,857.2z"/>
		<path class="st45" d="M3107.9,918.7c0.3,0,0.6,0.1,1.1,0.1c1.4,0.1,8.8,0.7,14.3-3.1c3-2.1,4.5-4.6,5.5-7.4c1-2.7,1.5-5.3,1.8-7.7
			c0.4-4.2-0.3-7-1.4-12.1c-1.7-7.9-2.6-11.9-2.9-13c-1-3.6-1.1-3.5-5.3-16c-2.6-7.6-3.1-9.3-4.6-13.3c-1.5-4-2.9-7.2-3.9-9.5
			c-2.2,1.3-5.6,3.1-10,4.5c-4.3,1.3-8,1.8-10.5,1.9c0,11.1,1,23.4,3.6,36.4c1.1,5.5,2.4,10.7,3.9,15.6
			C3102.3,903.1,3105.1,910.9,3107.9,918.7z"/>
		<path class="st45" d="M3139,818.4c-7,15.3-12.7,27.3-16.3,34.8c-9.4,19.6-13.4,26.8-14,38.2c-0.6,10.6,2,19.4,4.1,25
			c1.7,0.5,4.7,1.2,8.3,0.7c5.8-0.8,9.6-4.1,10.9-5.4c4.3-5.2,9.1-11.5,13.6-19.1c3.7-6.1,6.6-12,8.8-17.3c-0.2-8-0.7-14.7-1.2-19.7
			c-1.7-19.9-3.8-26.7-9-32.4C3142.2,821,3140.3,819.4,3139,818.4z"/>
		<path class="st49" d="M3103.2,837.8c3.1-1.3,4.7-3.1,5.5-4.1c1.4-2,2-4,2.7-6.8c0.9-3.6,0.5-4.2,1.6-6.1c0.8-1.4,1.8-2.5,3.2-4
			c2.3-2.5,3.1-2.8,3-3.5c-0.3-1.6-5.5-3.2-7.8-1.2c-1.3,1.1-1,2.8-3.2,4.7c-0.6,0.6-1.2,0.9-1.9,0.8c-1-0.1-1.7-1.1-1.7-1.2
			c-0.2-0.4-0.3-0.7-0.4-0.9c-1.7-6.2-3.4-12.4-5.1-18.7c-0.2-0.3-0.5-0.7-1.1-1.1c-0.2-0.1-1.1-0.7-1.9-0.6c-1.1,0.2-2.1,1.8-2.1,4
			c1.1,4.5,2.3,9,3.4,13.6c0.1,0.3,0.1,0.6,0,0.6c-0.1,0.1-0.4-0.1-0.6-0.4c-1.8-5.6-3.7-11.2-5.5-16.8c-0.1-0.3-0.3-0.7-0.6-1.1
			c-0.1-0.1-1.2-1.2-2.6-0.9c-1,0.2-1.5,1.1-1.7,1.3c-0.8,1.3-0.3,2.7-0.2,3c1.9,5.9,3.8,11.7,5.7,17.6c0,0.4,0,0.8-0.2,0.8
			c-0.2,0.1-0.6-0.2-0.8-0.8c-1.6-4.4-3.3-8.8-4.9-13.1c-0.1-0.3-0.6-1.3-1.7-1.9c-0.3-0.2-1.7-0.9-2.8-0.2
			c-0.9,0.6-1.3,1.9-0.8,3.2c1.7,4.7,3.4,9.5,5.1,14.2c0.9,1.8,1.6,3.4,1.3,3.6c-0.1,0-0.1,0-0.2,0c-0.6-0.2-1-1-1.1-1.3
			c-1.2-2.6-2.4-5.2-3.6-7.8c-0.1-0.2-1.2-2-2.8-1.9c-1.2,0-2.1,1.2-2.1,1.3c-1.3,1.9,0.6,4.4,5.1,14.4c0.9,1.9,2,4.4,4,7.4
			c1.3,1.8,1.9,2.8,3,3.6c3.6,2.8,8,2.3,9.1,2.1C3100.3,839.3,3101.9,838.6,3103.2,837.8z"/>
		<path class="st51" d="M3104.8,808.7c0.3-0.9,0.8-2.7,0.4-5.1c-0.4-2.5-1.7-4.2-2.3-4.9"/>
		<path class="st51" d="M3109.1,809.4c0.2-1.5,0.4-4-0.4-7c-0.7-2.4-1.7-4.2-2.5-5.3"/>
		<path class="st51" d="M3074.5,813.9c-0.2,0.9-0.4,2.8,0.3,5.1c0.8,2.4,2.3,3.9,3,4.5"/>
		<path class="st51" d="M3070.1,813.8c0,1.5,0.2,4,1.4,6.9c1,2.3,2.3,3.9,3.3,4.9"/>
		<path class="st45" d="M3190.5,797.2c-6.4-0.1-12,0-16.4,0.2c-5.7,0.2-9,0.9-13.3,1.6c-2.5,0.5-4.6,1.4-5.8,1.9
			c-8.8,3.7-14,13.4-16,17.5c3.6,21,7.2,42,10.8,63c-0.3,14.9-0.8,30-1.6,45.5c-0.4,8.5-0.9,16.8-1.4,25.1v14.9
			c5.9-2.4,12.6-5.5,19.6-9.8c12.1-7.3,21.2-15.5,27.6-22.3c1-10.6,1.8-21.6,2.3-33C3197.9,863.2,3195.2,828,3190.5,797.2z"/>
	</g>
	<g>
		<path class="st52" d="M3367.8,974c-0.5-0.4-2.3-2.1-6.7-3c-0.5-0.1-11.6-2.4-14.7,1.6c-0.5,0.7-1.1,2.1-0.2,4.5
			c3.7,17,7.3,34.1,11,51.1c0.7,4.6,3.6,8.1,6.8,8.3c4.1,0.2,10.2-4.7,10.8-12.4c0.6-10.7,0.2-22.8-2.2-35.8
			c-0.7-3.7-1.5-7.2-2.4-10.5C3370,976.8,3369.3,975.4,3367.8,974z"/>
		<path class="st53" d="M3358.1,964.7c1.2,0.3,3,0.9,4.9,2.2c4,2.7,5.6,6.6,6.9,9.6c2.5,5.8,5.1,11.8,8.1,18.6
			c-2.8,1.8-5.9,3.6-9.1,5.4c-5.2,2.9-10.1,5.3-14.8,7.4c-1-2-1.9-4.1-2.9-6.1c0.8-1.5,1.8-3.8,2.2-6.9c0.4-3.3,0-6-0.4-7.7
			c0.8-4,1.7-8.1,2.6-12.2C3356.5,971.5,3357.3,968.1,3358.1,964.7z"/>
		<path class="st52" d="M3312,1126.2c5.3,13.5,6.2,24.4,6.2,31.8c-0.2,12.8-3.5,20.8-4.3,40.9c-0.2,6.5-0.1,11.9,0,15.4
			c-1.3,1.1-4.1,3.2-8.2,4.1c-4,0.9-7.3,0.3-8.9-0.1c-1.3-10.8-2.7-19.4-3.5-25.3c-3.2-23.6-3.6-28.4-3.7-33.9
			c-0.1-4.2,0-8.3-0.2-12.5c-0.2-2.9-1.2-7.3-0.7-10.2C3289.6,1129.7,3305.8,1116.2,3312,1126.2z"/>
		<path class="st52" d="M3317.8,1060.7c-6.7-4.3-19.8,1-26.5,9.2c-7.4,9.2-6.7,22-5.7,42.2c0.3,6.5,1.2,13.6,1.2,13.6
			c0.7,6.1,1.5,11.2,2.2,15c1.2,3.4,4.4,11.6,10.8,15.7c2.7,1.7,4.3,1.7,5.3,1.5c2.2-0.4,3.9-2.4,6-5.2c6.8-9.5,5.5-20.6,7.7-31.8
			c2-10.3,2.7-20.8,3.8-31.3C3324.3,1072.9,3323.2,1064.2,3317.8,1060.7z"/>
		<path class="st5" d="M3294,1217c0.1-0.5,0.4-1.1,0.9-1.8c0.3-0.4,0.6-0.7,0.9-0.9c-0.2-2.1-0.5-4.3-0.8-6.5
			c-0.4-2.9-0.8-5.6-1.3-8.4c1.5-0.4,3.2-0.8,5.2-1.1c1-0.1,3-0.4,5.6-0.4c2.4,0,5.6,0.1,9.5,0.8c-0.1,3.9-0.1,7.9-0.1,11.9
			c0,1.2,0,2.4,0,3.6c0.2,1.1,0.3,2.2,0.5,3.2C3307.6,1217.3,3300.8,1217.1,3294,1217z"/>
		<path class="st45" d="M3295.8,1214.3c-2.1,0.4-5.3,1.2-9,2.7c-5.8,2.3-9.3,3.8-11.7,7.2c-0.9,1.2-3.1,4.9-1.8,11.7
			c1.9,0.6,4.7,1.4,8.1,1.8c4,0.5,7.2,0.3,9.9,0c10.5-1,23.1-3.8,26.2-4.5c0.5-1.6,0.9-3.8,0.9-6.3c-0.1-6.3-3.1-10.8-4.5-12.7
			c-12.1,2.7-18.4,3.3-19,1.8C3294.8,1215.6,3295.1,1215,3295.8,1214.3z"/>
		<path class="st52" d="M3330.1,1126.9c-5.1,13.6-6.1,24.5-6.2,31.8c-0.1,13.4,3.5,22.9,4.2,47.1c0.1,3.5,0.1,6.4,0.1,8.4
			c1,1.1,3.7,3.7,8,4.9c4.1,1.1,7.5,0.3,8.9-0.1c1.3-10.8,2.7-19.4,3.5-25.3c3.2-23.6,3.6-28.4,3.7-33.9c0.1-4.2,0-8.3,0.2-12.5
			c0.2-2.9,1.2-7.3,0.7-10.2C3352.6,1130.5,3336.3,1117,3330.1,1126.9z"/>
		<path class="st52" d="M3324.3,1061.5c6.7-4.3,19.8,1,26.5,9.2c7.4,9.2,6.7,22,5.7,42.2c-0.3,6.5-1.2,13.6-1.2,13.6
			c-0.7,6.1-1.5,11.2-2.2,15c-1.2,3.4-4.4,11.6-10.8,15.7c-2.7,1.7-4.3,1.7-5.3,1.5c-2.2-0.4-3.9-2.4-6-5.2
			c-6.8-9.5-5.5-20.6-7.7-31.8c-2-10.3-2.7-20.8-3.8-31.3C3317.9,1073.7,3318.9,1064.9,3324.3,1061.5z"/>
		<path class="st5" d="M3348.3,1215.2c-0.3-0.3-0.6-0.6-0.9-0.9c-0.2-1.7-0.3-3.6-0.2-5.7c0.1-3.3,0.7-6.1,1.3-8.4
			c-1.5-0.4-3.2-0.8-5.2-1.1c-2.6-0.4-4.7-0.4-5.6-0.4c-2.4,0-5.9,0.2-10.1,1.2c0.3,4.8,0.6,9.6,0.9,14.5c-0.2,1.3-0.4,2.7-0.6,4
			c1.3,0.6,11,4.5,17.8-0.4C3346.4,1217.2,3347.4,1216.4,3348.3,1215.2z"/>
		<path class="st52" d="M3280.3,967.5c0.6-0.4,3-1.9,7.7-2.1c0.5,0,12.3-0.4,14,4.8c0.3,0.9,0.4,2.6-1.4,5.2
			c-9.5,18.8-19,37.7-28.5,56.5c-2.3,5.1-6.4,8.5-9.6,8.1c-4.1-0.6-8.5-7.4-6.4-16.4c3.1-12.4,7.7-26.2,14.6-40.7
			c1.9-4.1,4-7.9,6-11.6C3277.3,970.2,3278.4,968.7,3280.3,967.5z"/>
		<path class="st53" d="M3287.5,962.8c-1.7,0.5-3.4,1-5.2,1.4c-0.4,0.1-0.9,0.2-1.6,0.5c0,0-2,0.7-3.8,2.3c-4,3.5-5.3,7.7-7.1,12.4
			c-1.3,3.6-3.4,8.6-6.6,14.4c2.4,1.8,4.8,3.6,7.2,5.4c5,3.7,10,7.1,14.8,10.4c1.1-3,2.2-6.1,3.3-9.1c-0.5-1.6-1.2-4.1-1.1-7.2
			c0.1-3.3,0.9-6,1.6-7.5c-0.2-4.1-0.4-8.2-0.7-12.5C3288.2,969.7,3287.9,966.2,3287.5,962.8z"/>
		<path class="st5" d="M3352.8,1041.6c0.2-11.8,0.6-24.1,1.3-36.8c0.8-14.2,1.9-27.8,3.2-40.9c-3.2-0.7-6.5-1.3-9.9-1.8
			c-5.7-0.9-11.2-1.5-16.3-1.8c-1.6,5.2-6.3,8.8-11.7,9c-5.7,0.2-11-3.6-12.7-9.2c-4.2,0.2-9,0.6-14.3,1.6c-0.5,0.1-2.1,0.5-4.3,0.9
			c-2.9,0.6-5.2,1-6.7,1.3c2.4,23.6,3.7,41.9,4.2,52c0.3,6.1,0.5,12.3,0.5,12.3c0.2,5.6,0.3,11.2,0.4,16.6
			c6.3,2.8,19.4,7.6,36.4,6.1C3336.7,1049.7,3347,1044.9,3352.8,1041.6z"/>
		<path class="st53" d="M3352.8,1042.4c2.6,9.9,4.9,21.3,6.3,34c2,17.6,1.9,33.4,0.9,46.6c-4,0.8-8.5,1.5-13.6,1.8
			c-9.3,0.5-17.3-0.5-23.5-1.8c-0.6-5.1-1.2-10.1-1.8-15.2c-0.3,5.1-0.6,10.1-0.9,15.2c-5.8,1.1-14,2-23.5,0.9
			c-6.4-0.7-11.9-2.1-16.3-3.6c-0.3-5.4-0.5-13.9,0-24.2c0.2-4.2,0.5-9.4,2.7-29.5c0.8-7.1,1.7-15.2,2.7-24.2
			c10.9,0.6,22.4,0.9,34.3,0.9C3331.6,1043.3,3342.5,1043,3352.8,1042.4z"/>
		<path class="st52" d="M3271.6,1051.5c-1.8-1.8-3.3-3.3-3.9-4.1c-4.7-5.1-8.6-9.9-8.6-9.9c0,0,0,0,0,0c-1-1.2-1.8-2.5-2.5-4
			c0.8-1.2,2.9-4.4,6.8-6.6c3.4-1.9,6.3-2.1,7.6-2.1c2.3,2.8,3.9,5.2,5,6.9c0,0,8.3,12.8,11.6,15.7c0.2,0.1,0.3,0.2,0.4,0.3
			c1.6,1.1,3.6,0.9,4.5,0.9c0.4,0,3.4-0.2,6.2,0.8c0,0,0,0,0,0c0,0,0.1,0,0.1,0c0.7,0.3,1.5,0.6,2.1,1.1c0.2,0.1,0.3,0.2,0.5,0.3
			c3.8,2.1,3.1,2,4,2.3c1,0.4,1.9,0.6,2,1.3c0,0.2-0.1,0.6-0.3,1c-0.9,1.3-3.1,1.5-4.4,1.4c-1.2-0.1-1.8-0.8-2.9-1.2
			c-0.7-0.3-1.2-0.2-2.2-0.1c-0.3,1.5,2.2,2.8,2.8,3.1c0.7,0.4,1.3,0.6,2.1,0.7c1.7,0.1,3.3-1,4.4-1.8c2.2-1.6,2.6-2.8,3.5-2.7
			c1,0.1,1.7,1.7,1.6,3.2c-0.1,1.1-0.7,2.5-4.1,5.6c-3.6,3.2-5.5,4.9-7.9,5.7c-3.8,1.2-6.8-0.7-12.8-4.5
			C3280.3,1060.2,3275.5,1055.4,3271.6,1051.5z"/>
		<path class="st45" d="M3347.4,1214.3c2,0.4,5,1.2,8.3,2.5c5.6,2.2,9.2,3.7,11.7,7.2c0.9,1.2,3.1,4.9,1.8,11.7
			c-1.9,0.6-4.7,1.4-8.1,1.8c-4,0.5-7.2,0.3-9.9,0c-10.5-1-23.1-3.8-26.2-4.5c-0.5-1.6-0.9-3.8-0.9-6.3c0.1-6.3,3.1-10.8,4.5-12.7
			c11.8,3.1,18.1,3.7,19,1.8C3347.7,1215.4,3347.7,1214.9,3347.4,1214.3z"/>
		<path class="st53" d="M3281.4,963.9c23.8-0.3,47.6-0.6,71.4-0.9c-1.4-0.3-2.9-0.6-4.5-0.9c-2.6-0.4-5-0.7-7.2-0.9h-46.1
			C3289.9,961.9,3285.3,962.9,3281.4,963.9z"/>
		<path class="st53" d="M3281.9,969.3c0.1,0.9,0.2,1.8,0.3,2.7h74.4c0.1-0.9,0.2-1.8,0.3-2.7H3281.9z"/>
		<path class="st53" d="M3282.6,976.6c0.1,0.9,0.2,1.8,0.2,2.7h73c0.1-0.9,0.2-1.8,0.3-2.7H3282.6z"/>
		<path class="st53" d="M3283.3,984.7c0.1,0.9,0.2,1.8,0.2,2.7c23.9,0,47.7,0,71.6,0c0.1-1,0.2-1.9,0.2-2.7
			C3331.4,984.7,3307.4,984.7,3283.3,984.7z"/>
		<path class="st53" d="M3283.9,991.9c0.1,0.6,0.1,1.2,0.1,1.8c0,0.3,0,0.6,0.1,0.9c23.5,0,47,0,70.5,0c0.1-0.9,0.1-1.8,0.2-2.7
			C3331.2,991.9,3307.6,991.9,3283.9,991.9z"/>
		<path class="st53" d="M3284.6,1000.1c0.1,0.9,0.1,1.8,0.2,2.7h69.4c0-0.9,0.1-1.8,0.1-2.7H3284.6z"/>
		<path class="st53" d="M3285.1,1007.3c0.1,1,0.1,1.9,0.2,2.7h68.6c0-0.9,0.1-1.8,0.1-2.7H3285.1z"/>
		<path class="st53" d="M3285.6,1015.4c0.1,1,0.1,1.9,0.1,2.7h67.9c0-0.6,0-1.2,0.1-1.8c0-0.3,0-0.6,0-0.9H3285.6z"/>
		<path class="st53" d="M3285.9,1022.7c0,0.9,0,1.8,0.1,2.7h67.3c0-0.8,0.1-1.7,0.1-2.7H3285.9z"/>
		<path class="st53" d="M3286,1030.8c0,0.9,0,1.8,0,2.7c22.3,0,44.5,0,66.8,0c0-1,0.1-1.9,0.1-2.7
			C3330.6,1030.8,3308.3,1030.8,3286,1030.8z"/>
		<path class="st53" d="M3286,1038c0,1,0,1.9,0,2.7h66.8c0-0.9,0-1.8,0-2.7H3286z"/>
		<path class="st54" d="M3318.5,970.8c5.2,0.2,10.2-3.2,12.7-8.7c0.1-3.7,0.1-7.3,0.2-11c0-2.7-1.8-4.9-4-4.9l-16.3-0.2
			c-2.2,0-4.1,2.1-4.1,4.8c-0.1,3.7-0.1,7.3-0.2,11C3309.1,967.1,3313.6,970.6,3318.5,970.8z"/>
		<path class="st41" d="M3336.5,945.9c0.3-0.3,0.8-0.7,1.5-1.3c1.6-1.3,2.8-2.2,3-2.4c2.5-1.8,4.7-6.2,5.1-7
			c3.5-7,3.9-14.4,3.9-15.6c0.2-4.5,0.4-11.1-3.6-18.1c-5.5-9.6-14.8-12.8-17.2-13.6c-7.3-2.4-13.8-1.4-16.7-1c-1.4,0.2-3,0.4-5,1.1
			c-6.5,2.2-11.6,8-11.6,8c-6.3,7.2-7,15.7-7.3,19c-0.4,4.8,0.3,8.5,0.9,11.7c0.1,0.6,1.4,7.2,3.5,10.5c0.5,0.8,2,2.8,2.9,3.9
			c0.3,0.4,0.5,0.7,0.8,1c0.9,1,1.4,1.2,2.7,2.7c1.2,1.3,2,2.5,2.5,3.3c0,0,1.4,0.9,2.8,1.5c0.8,0.4,4.4,1.9,15.4,0.3
			c4.8-0.7,8.3-1.6,10.9-0.5c0.4,0.2,1.1,0.6,2,0.5C3334.8,949.7,3335.9,947.6,3336.5,945.9z"/>
		<path class="st52" d="M3288.9,923.4c1-0.9,2-0.8,3-0.2c0-4.9,0.1-13.6,6.7-21.1c8.4-9.5,20.5-9.3,21.9-9.3
			c1.8,0.1,13.5,0.7,20.7,10.2c6.1,8,5.1,17,4.5,23c0,0.1,0,0.1,0,0.2c1.5-1.4,3.3-2.7,4.9-1.2c2.4,2.5-2.3,8.5-4.1,10.2
			c-0.9,0.8-2,1.5-2.9,1.4c-1.7,5.2-4.9,10.9-10.7,15c-2,1.4-7.2,5-14.5,4.8c-10-0.2-16.4-7.5-18.5-9.8c-3.6-4.1-5.6-8.5-6.7-12.5
			c-0.2-0.2-0.4-0.3-0.5-0.5C3290.9,931.9,3286.4,925.8,3288.9,923.4z"/>
		<path class="st41" d="M3292.1,908.3c2-4.8,5.2-7.7,8.2-11.2c4.2-4.8,8.2-5.2,14.2-6c5.3-0.7,10.7-2.6,15.8-0.3
			c5.9,2.7,11.5,6.1,14.3,12.1c1.9,4,4.3,9.7,3.5,14.2c-0.2,1-0.7,3.9-1.3,3.8c0,0.7,0,1.6-0.3,2.7c-0.2,0.9-0.5,1.7-0.7,2.3
			c-1.4-7.6-4.2-10.5-6.5-11.7c-1.8-0.9-4.7-1.6-7.2-4.5c-0.9-1-1.5-2-1.8-2.7c0,0.5,0.2,1.6,0.9,2.7c0.6,1,1.4,1.5,1.8,1.8
			c-2.3,1.4-4.3,1.7-5.4,1.8c-4.9,0.4-8.6-2.6-9.9-3.6c-1.3-1-2.1-2-2.7-2.7c0.2,0.5,0.5,1.2,0.9,1.8c0.9,1.4,2,2.2,2.7,2.7
			c-1.2,0.8-3.9,2.2-7.2,1.8c-5-0.5-9.4-4.9-10.8-10.8c-0.2,3.9-0.9,8.9-2.7,14.5c-1,3.2-2.2,5.9-3.4,8.2c-0.2-0.3-0.5-0.6-1-1
			c-0.7-0.6-1.2-1-1.3-1C3290.9,922.4,3289,916,3292.1,908.3z"/>
		<path d="M3306.5,922.5c-1.2,0.3-2.1,0.9-2.6,1.3c0.3-0.5,0.8-1.3,1.7-1.9c0.3-0.2,2-1.4,4-0.9c0.3,0.1,1.3,0.4,1.9,1.4
			c0.1,0.2,0.4,0.7,0.4,1.3c0,1.1-0.9,1.9-2,1.9c-0.3,0-0.5-0.1-0.7-0.1c-0.7-0.3-1.3-1-1.3-1.8c0-0.5,0.2-1,0.6-1.3
			C3308,922.3,3307.3,922.3,3306.5,922.5z"/>
		<path d="M3326.5,923.9c0.3-0.5,0.8-1.3,1.7-1.9c0.3-0.2,2-1.4,4-0.9c0.3,0.1,1.3,0.4,1.9,1.4c0.1,0.2,0.4,0.7,0.4,1.3
			c0,1.1-0.9,1.9-2,1.9c-1.3,0-1.9-1.4-1.9-2c0-0.3,0.1-0.6,0.1-0.6c0.1-0.4,0.3-0.6,0.5-0.8c-0.5,0-1.2,0-2.1,0.2
			C3327.8,922.9,3327,923.5,3326.5,923.9z"/>
		<path class="st55" d="M3319,944.4c5.1,0.3,8.7-2.4,9.7-3.1c-6.2-0.2-12.5-0.4-18.7-0.6C3311,941.5,3314.2,944.1,3319,944.4z"/>
		<path class="st56" d="M3357.1,1066.3c-4.4,2.3-7,4.7-8.5,6.5c-0.7,0.8-3.2,3.7-2.3,4.5c0.4,0.4,1.8,0,2.7-0.2
			c1.3-0.3,1.6-0.7,2.6-0.9c0.8-0.2,1.8-0.3,2.7-0.2C3355.2,1072.7,3356.1,1069.5,3357.1,1066.3z"/>
		<path class="st52" d="M3371.3,1061c0.6-2.5,1-4.6,1.2-5.6c1.3-6.9,2-13.1,2-13.1c0,0,0,0,0,0c0,0,0,0,0,0
			c2.1-16.3-1.7-21.8-1.7-21.8c-0.9-1.3-3.2-4.7-6.6-5.1c-3.9-0.4-8.1,3.4-10,9.7c1.2,10.5,1.8,18.2,1.8,19.4c0,1.5,0,2.8,0,2.8
			c0,0.2,0,0.4,0,0.5c0,0,0,0.1,0,0.1c-0.3,14.6-2.5,20.8-2.5,20.8c-0.1,0.4-0.4,1-0.7,1.9c-1.4,1.3-2.8,2.7-4.2,4
			c0.3,0.3,0.7,0.5,1,0.8c-1.9,2.1-2.3,3.7-2.3,4.7c0,0.5,0,1.6-0.7,2.8c-0.3,0.5-0.6,0.8-0.8,1c-1.8,0.2-3.6,0.3-5.4,0.5
			c-0.1,0.7-0.1,1.8,0.5,2.9c0.9,1.9,2.6,2.7,4,3.3c0.3,0.1,4.9,1.8,9.7,0.6c3.8-1,5.4-4.3,8.5-10.7
			C3368.5,1073.1,3370,1066.5,3371.3,1061z"/>
		<path class="st53" d="M3320.2,1048c-8.1-0.6-16.3-1.2-24.4-1.8c-4.2,6.9-8.4,13.9-12.7,20.8c4.7,8.1,12.6,13.4,19.9,12.7
			C3313.7,1078.5,3324,1064.7,3320.2,1048z"/>
		<circle class="st41" cx="3294.6" cy="888.8" r="8.6"/>
		<circle class="st41" cx="3343" cy="888.8" r="8.6"/>
	</g>
	<g>
		<path class="st45" d="M2925.5,488.1c-9.1,5.2-11.8,3.5-17.5,7.4c-6,4.2-8.5,10-8.7,10.4c2.6-1.6,6.9-3.1,13.7-2.5
			c1.6,0.1,3.3,0.2,4.8,0.3c4.4-6.2,10.5-10.7,13.6-16.2C2932.3,483.7,2926.7,487.3,2925.5,488.1z"/>
		<path class="st45" d="M2930.5,515.7c-0.6,0-3.1-2.5-4.2-2.6c-1.2-0.1-4.4,1.4-5.4,2.3c-3,2.7-12.4,2.9-12.4,2.9l-1.1-0.1
			c-6.4,7.9-40.3,43.6-38.5,32.8c2.1-11.8,18.1-27.1,17.7-29.2c-0.4-2.2,0.9-6.1,0.9-6.1s-14.3,0-13-1.2c1.6-1.5,4.9-3.2,6.1-4.8
			c0.6-0.9-0.2-5.5-0.2-5.5l13,2.9l5.9-1.2c2.6-1.7,6.9-3.1,13.8-2.5c2.3,0.2,4.7,0.2,6.7,0.5c9.5,1.5,6.3,6.5,9,8
			C2931.1,513.2,2931.1,515.8,2930.5,515.7z"/>
	</g>
</g>
</svg>
